<?xml version="1.0" encoding="utf-8"?>
<!-- Generator: Adobe Illustrator 16.0.0, SVG Export Plug-In . SVG Version: 6.00 Build 0)  -->
<!DOCTYPE svg PUBLIC "-//W3C//DTD SVG 1.1//EN" "http://www.w3.org/Graphics/SVG/1.1/DTD/svg11.dtd">
<svg version="1.1" id="Capa_1" xmlns="http://www.w3.org/2000/svg" xmlns:xlink="http://www.w3.org/1999/xlink" x="0px" y="0px"
	 width="792px" height="1229px" viewBox="0 0 792 1229" enable-background="new 0 0 792 1229" xml:space="preserve">
<rect y="912.424" fill="#555457" width="792" height="152.576"/>
<g>
	<path fill="#D58A90" d="M137.284,98.317v51.754h-9.183V98.317H137.284z"/>
	<path fill="#D58A90" d="M146.565,127.507c1.378-2.317,3.323-4.143,5.838-5.478c2.514-1.333,5.368-2,8.56-2
		c3.192,0,6.002,0.667,8.429,2c2.427,1.335,4.296,3.16,5.608,5.478c1.312,2.318,1.968,4.942,1.968,7.871
		c0,2.931-0.656,5.575-1.968,7.937c-1.312,2.361-3.182,4.21-5.608,5.543c-2.427,1.334-5.28,2.001-8.56,2.001
		c-3.193,0-6.024-0.623-8.495-1.87c-2.471-1.246-4.395-3.027-5.772-5.346c-1.377-2.316-2.066-5.072-2.066-8.265
		C144.5,132.449,145.188,129.825,146.565,127.507z M155.716,141.117c1.312,1.51,2.974,2.264,4.985,2.264
		c2.099,0,3.793-0.743,5.083-2.23c1.29-1.486,1.935-3.389,1.935-5.707c0-2.316-0.646-4.219-1.935-5.707
		c-1.29-1.485-2.984-2.229-5.083-2.229c-2.012,0-3.673,0.755-4.985,2.263c-1.312,1.509-1.968,3.4-1.968,5.674
		C153.748,137.719,154.404,139.609,155.716,141.117z"/>
	<path fill="#D58A90" d="M195.926,138.133l-2.559,1.902v10.036h-9.183V98.317h9.183v32.403l13.644-10.035l5.575,4.919l-10.167,7.675
		l11.217,16.792h-10.692L195.926,138.133z"/>
	<path fill="#D58A90" d="M229.181,98.317v51.754h-9.183V98.317H229.181z"/>
	<path fill="#D58A90" d="M269.456,121.406v28.665h-9.183v-3.542c-2.755,2.887-5.948,4.329-9.577,4.329
		c-4.242,0-7.686-1.268-10.331-3.805c-2.646-2.535-3.968-6.297-3.968-11.282c0-3.148,0.645-5.914,1.935-8.297
		c1.289-2.383,3.006-4.231,5.149-5.543c2.142-1.313,4.438-1.969,6.888-1.969c2.536,0,4.547,0.384,6.035,1.148
		c1.486,0.766,2.798,1.848,3.936,3.247l0.59-2.952H269.456z M260.273,139.051v-7.018c-0.525-1.399-1.433-2.515-2.722-3.346
		c-1.291-0.83-2.811-1.246-4.559-1.246c-2.012,0-3.729,0.744-5.149,2.23c-1.422,1.486-2.132,3.367-2.132,5.641
		c0,1.487,0.349,2.854,1.049,4.1c0.699,1.246,1.628,2.221,2.788,2.919c1.158,0.7,2.416,1.05,3.772,1.05
		C256.511,143.381,258.83,141.938,260.273,139.051z"/>
	<path fill="#D58A90" d="M290.643,138.133l-2.559,1.902v10.036h-9.183V98.317h9.183v32.403l13.644-10.035l5.575,4.919l-10.167,7.675
		l11.217,16.792h-10.692L290.643,138.133z"/>
</g>
<g>
	<path fill="#D58A90" d="M541.395,92.217v51.754h-9.184V92.217H541.395z"/>
	<path fill="#D58A90" d="M610.418,132.033l-2.559,1.901v10.036h-9.184V92.217h9.184v32.404l13.644-10.037l5.575,4.92l-10.167,7.675
		l11.217,16.792h-10.692L610.418,132.033z"/>
	<path fill="#D58A90" d="M643.673,92.217v51.754h-9.183V92.217H643.673z"/>
	<path fill="#D58A90" d="M683.947,115.307v28.664h-9.183v-3.542c-2.755,2.886-5.948,4.329-9.577,4.329
		c-4.242,0-7.686-1.268-10.331-3.805c-2.646-2.535-3.968-6.297-3.968-11.282c0-3.148,0.645-5.913,1.935-8.298
		c1.289-2.383,3.006-4.23,5.149-5.543c2.142-1.311,4.438-1.967,6.887-1.967c2.536,0,4.548,0.383,6.035,1.147
		c1.486,0.766,2.798,1.849,3.936,3.247l0.59-2.951H683.947z M674.765,132.951v-7.02c-0.524-1.398-1.433-2.514-2.722-3.345
		c-1.291-0.83-2.811-1.246-4.56-1.246c-2.012,0-3.729,0.744-5.149,2.229c-1.422,1.488-2.131,3.368-2.131,5.642
		c0,1.487,0.349,2.854,1.049,4.1c0.699,1.247,1.629,2.22,2.787,2.919c1.158,0.7,2.416,1.05,3.772,1.05
		C671.003,137.28,673.321,135.837,674.765,132.951z"/>
	<path fill="#D58A90" d="M705.135,132.033l-2.559,1.901v10.036h-9.184V92.217h9.184v32.404l13.645-10.037l5.574,4.92l-10.166,7.675
		l11.217,16.792h-10.692L705.135,132.033z"/>
</g>
<g>
	<path fill="#D58A90" d="M387.361,149.434v23.588h-4.186v-23.588H387.361z"/>
	<path fill="#D58A90" d="M391.592,162.737c0.628-1.056,1.514-1.888,2.66-2.497c1.146-0.607,2.446-0.911,3.901-0.911
		s2.735,0.304,3.842,0.911c1.106,0.609,1.958,1.441,2.557,2.497c0.598,1.057,0.896,2.253,0.896,3.587
		c0,1.336-0.299,2.541-0.896,3.618c-0.599,1.076-1.45,1.919-2.557,2.526s-2.406,0.912-3.901,0.912c-1.455,0-2.746-0.285-3.871-0.853
		c-1.127-0.568-2.003-1.38-2.631-2.437s-0.942-2.313-0.942-3.768C390.649,164.99,390.964,163.794,391.592,162.737z M395.762,168.941
		c0.598,0.688,1.355,1.031,2.272,1.031c0.956,0,1.729-0.34,2.316-1.018c0.588-0.677,0.882-1.544,0.882-2.601
		c0-1.056-0.294-1.923-0.882-2.601s-1.36-1.017-2.316-1.017c-0.917,0-1.675,0.344-2.272,1.031s-0.896,1.55-0.896,2.586
		S395.164,168.253,395.762,168.941z"/>
	<path fill="#D58A90" d="M414.088,167.58l-1.166,0.867v4.574h-4.186v-23.588h4.186v14.769l6.219-4.574l2.541,2.242l-4.634,3.498
		l5.112,7.653h-4.873L414.088,167.58z"/>
	<path fill="#D58A90" d="M429.245,149.434v23.588h-4.186v-23.588H429.245z"/>
	<path fill="#D58A90" d="M447.602,159.957v13.064h-4.186v-1.614c-1.256,1.315-2.711,1.974-4.365,1.974
		c-1.934,0-3.503-0.578-4.709-1.734s-1.809-2.87-1.809-5.143c0-1.435,0.294-2.695,0.882-3.781s1.37-1.929,2.348-2.526
		c0.976-0.599,2.022-0.897,3.139-0.897c1.155,0,2.072,0.176,2.75,0.523c0.678,0.35,1.275,0.842,1.794,1.48l0.27-1.346H447.602z
		 M443.416,167.999v-3.198c-0.239-0.639-0.653-1.146-1.241-1.525s-1.28-0.568-2.077-0.568c-0.917,0-1.7,0.34-2.348,1.017
		c-0.647,0.679-0.972,1.535-0.972,2.571c0,0.678,0.16,1.301,0.479,1.869c0.318,0.567,0.742,1.012,1.271,1.33s1.102,0.479,1.72,0.479
		C441.701,169.973,442.758,169.314,443.416,167.999z"/>
	<path fill="#D58A90" d="M457.258,167.58l-1.166,0.867v4.574h-4.186v-23.588h4.186v14.769l6.219-4.574l2.541,2.242l-4.634,3.498
		l5.112,7.653h-4.873L457.258,167.58z"/>
</g>
<g>
	<ellipse fill="#555457" cx="72.387" cy="143.563" rx="2.485" ry="4.957"/>
	<ellipse fill="#555457" cx="100.234" cy="143.563" rx="2.484" ry="4.957"/>
	<path fill="#555457" d="M104.797,109.843c0.92,0.248,1.9,0.406,2.921,0.406c5.153,0,9.33-3.939,9.33-3.939s-4.177-3.939-9.33-3.939
		c-1.493,0-2.899,0.335-4.151,0.806c2.502-2.991,3.993-6.645,3.993-10.599c0-2.485-2.015-4.5-4.5-4.5s-4.5,2.015-4.5,4.5
		c0,5.005-5.61,9.232-12.25,9.232s-12.25-4.228-12.25-9.232c0-2.485-2.015-4.5-4.5-4.5s-4.5,2.015-4.5,4.5
		c0,3.954,1.49,7.607,3.993,10.598c-1.251-0.47-2.658-0.805-4.151-0.805c-5.152,0-9.33,3.939-9.33,3.939s4.178,3.939,9.33,3.939
		c1.021,0,2.001-0.158,2.921-0.406c-4.729,4.733-7.658,11.266-7.658,18.47c0,5.211,1.54,10.063,4.179,14.144
		c-0.012,0.226-0.022,0.452-0.022,0.68c0,9.422,9.864,17.088,21.989,17.088s21.989-7.666,21.989-17.088
		c0-0.228-0.011-0.454-0.022-0.68c2.639-4.08,4.179-8.933,4.179-14.144C112.456,121.108,109.527,114.576,104.797,109.843z
		 M86.311,157.224c-8.67,0-15.967-4.315-18.242-10.205c-0.19-0.493-0.337-0.998-0.458-1.51c-0.049-0.215-0.097-0.43-0.133-0.647
		c-0.028-0.163-0.053-0.327-0.073-0.492c-0.048-0.407-0.084-0.817-0.084-1.233c0-7.78,8.502-14.086,18.989-14.086
		s18.989,6.306,18.989,14.086c0,0.416-0.036,0.826-0.084,1.233c-0.02,0.165-0.045,0.329-0.073,0.492
		c-0.036,0.218-0.084,0.433-0.133,0.647c-0.12,0.512-0.267,1.017-0.458,1.51C102.278,152.908,94.98,157.224,86.311,157.224z"/>
</g>
<g>
	<ellipse fill="#555457" cx="409.626" cy="127.765" rx="2.484" ry="4.957"/>
	<ellipse fill="#555457" cx="437.474" cy="127.765" rx="2.484" ry="4.957"/>
	<path fill="#555457" d="M442.036,94.043c0.92,0.249,1.9,0.407,2.922,0.407c5.154,0,9.33-3.939,9.33-3.939s-4.176-3.939-9.33-3.939
		c-1.493,0-2.899,0.336-4.151,0.806c2.503-2.991,3.993-6.645,3.993-10.599c0-2.485-2.015-4.5-4.5-4.5s-4.5,2.015-4.5,4.5
		c0,5.091-5.495,9.232-12.25,9.232c-6.641,0-12.25-4.228-12.25-9.232c0-2.485-2.015-4.5-4.5-4.5s-4.5,2.015-4.5,4.5
		c0,3.954,1.49,7.607,3.992,10.598c-1.251-0.47-2.657-0.805-4.149-0.805c-5.153,0-9.331,3.939-9.331,3.939s4.178,3.939,9.331,3.939
		c1.021,0,2.002-0.159,2.922-0.407c-4.73,4.733-7.66,11.267-7.66,18.472c0,5.21,1.541,10.063,4.18,14.144
		c-0.012,0.226-0.022,0.451-0.022,0.679c0,9.422,9.864,17.088,21.988,17.088c12.125,0,21.99-7.666,21.99-17.088
		c0-0.228-0.011-0.453-0.022-0.679c2.639-4.081,4.179-8.934,4.179-14.144C449.696,105.311,446.767,98.777,442.036,94.043z
		 M423.55,141.425c-8.669,0-15.966-4.314-18.24-10.204l0,0c-0.19-0.493-0.338-0.999-0.458-1.512
		c-0.05-0.214-0.098-0.429-0.133-0.646c-0.028-0.164-0.053-0.328-0.073-0.493c-0.048-0.407-0.084-0.817-0.084-1.233
		c0-7.779,8.502-14.086,18.988-14.086c10.488,0,18.99,6.307,18.99,14.086c0,0.416-0.036,0.826-0.084,1.233
		c-0.021,0.165-0.045,0.329-0.073,0.493c-0.035,0.217-0.083,0.432-0.133,0.646c-0.12,0.513-0.268,1.019-0.458,1.512l0,0
		C439.518,137.11,432.22,141.425,423.55,141.425z"/>
</g>
<g>
	<ellipse fill="#555457" cx="560.119" cy="141.4" rx="1.898" ry="3.785"/>
	<ellipse fill="#555457" cx="581.384" cy="141.4" rx="1.897" ry="3.785"/>
	<path fill="#555457" d="M584.868,115.651c0.703,0.189,1.451,0.311,2.231,0.311c3.935,0,7.124-3.008,7.124-3.008
		s-3.189-3.009-7.124-3.009c-1.141,0-2.215,0.256-3.171,0.615c1.911-2.283,3.05-5.073,3.05-8.093c0-1.898-1.539-3.437-3.437-3.437
		s-3.437,1.538-3.437,3.437c0,3.82-4.283,7.049-9.354,7.049c-5.071,0-9.354-3.229-9.354-7.049c0-1.898-1.539-3.437-3.437-3.437
		s-3.437,1.538-3.437,3.437c0,3.019,1.139,5.809,3.049,8.093c-0.955-0.359-2.028-0.615-3.169-0.615
		c-3.935,0-7.125,3.009-7.125,3.009s3.19,3.008,7.125,3.008c0.779,0,1.528-0.121,2.23-0.311c-3.612,3.614-5.849,8.603-5.849,14.104
		c0,3.98,1.19,7.678,3.208,10.794c-0.009,0.176-0.034,0.349-0.034,0.526c0,7.194,7.532,13.048,16.792,13.048
		c9.258,0,16.791-5.854,16.791-13.048c0-0.178-0.025-0.351-0.034-0.526c2.017-3.116,3.208-6.813,3.208-10.794
		C590.717,124.254,588.48,119.266,584.868,115.651z M570.752,151.832c-6.649,0-12.239-3.324-13.95-7.851
		c-0.136-0.357-0.242-0.725-0.33-1.096c-0.037-0.164-0.074-0.329-0.102-0.496c-0.021-0.124-0.04-0.248-0.055-0.374
		c-0.037-0.311-0.064-0.623-0.064-0.94c0-5.941,6.492-10.757,14.501-10.757c8.008,0,14.5,4.815,14.5,10.757
		c0,0.317-0.027,0.631-0.064,0.941c-0.015,0.125-0.033,0.249-0.055,0.373c-0.027,0.167-0.064,0.332-0.103,0.497
		c-0.087,0.371-0.193,0.736-0.329,1.095C582.99,148.508,577.4,151.832,570.752,151.832z"/>
</g>
<g>
	<path fill="#D58A90" d="M137.284,249.81v51.754h-9.183V249.81H137.284z"/>
	<path fill="#D58A90" d="M146.565,278.999c1.378-2.317,3.323-4.143,5.838-5.478c2.514-1.333,5.368-2,8.56-2
		c3.192,0,6.002,0.667,8.429,2c2.427,1.335,4.296,3.16,5.608,5.478c1.312,2.318,1.968,4.942,1.968,7.871
		c0,2.931-0.656,5.575-1.968,7.937c-1.312,2.361-3.182,4.21-5.608,5.543c-2.427,1.334-5.28,2.001-8.56,2.001
		c-3.193,0-6.024-0.623-8.495-1.87c-2.471-1.246-4.395-3.027-5.772-5.346c-1.377-2.316-2.066-5.072-2.066-8.265
		C144.5,283.941,145.188,281.317,146.565,278.999z M155.716,292.609c1.312,1.51,2.974,2.264,4.985,2.264
		c2.099,0,3.793-0.743,5.083-2.23c1.29-1.486,1.935-3.389,1.935-5.707c0-2.316-0.646-4.219-1.935-5.707
		c-1.29-1.485-2.984-2.229-5.083-2.229c-2.012,0-3.673,0.755-4.985,2.263c-1.312,1.509-1.968,3.4-1.968,5.674
		C153.748,289.211,154.404,291.102,155.716,292.609z"/>
	<path fill="#D58A90" d="M195.926,289.625l-2.559,1.902v10.036h-9.183V249.81h9.183v32.403l13.644-10.035l5.575,4.919l-10.167,7.675
		l11.217,16.792h-10.692L195.926,289.625z"/>
	<path fill="#D58A90" d="M229.181,249.81v51.754h-9.183V249.81H229.181z"/>
	<path fill="#D58A90" d="M269.456,272.898v28.665h-9.183v-3.542c-2.755,2.887-5.948,4.329-9.577,4.329
		c-4.242,0-7.686-1.268-10.331-3.805c-2.646-2.535-3.968-6.297-3.968-11.282c0-3.148,0.645-5.914,1.935-8.297
		c1.289-2.383,3.006-4.231,5.149-5.543c2.142-1.313,4.438-1.969,6.888-1.969c2.536,0,4.547,0.384,6.035,1.148
		c1.486,0.766,2.798,1.848,3.936,3.247l0.59-2.952H269.456z M260.273,290.543v-7.018c-0.525-1.399-1.433-2.515-2.722-3.346
		c-1.291-0.83-2.811-1.246-4.559-1.246c-2.012,0-3.729,0.744-5.149,2.23c-1.422,1.486-2.132,3.367-2.132,5.641
		c0,1.487,0.349,2.854,1.049,4.1c0.699,1.246,1.628,2.221,2.788,2.919c1.158,0.7,2.416,1.05,3.772,1.05
		C256.511,294.873,258.83,293.43,260.273,290.543z"/>
	<path fill="#D58A90" d="M290.643,289.625l-2.559,1.902v10.036h-9.183V249.81h9.183v32.403l13.644-10.035l5.575,4.919l-10.167,7.675
		l11.217,16.792h-10.692L290.643,289.625z"/>
</g>
<g>
	<path fill="#D58A90" d="M541.395,243.709v51.754h-9.184v-51.754H541.395z"/>
	<path fill="#D58A90" d="M610.418,283.525l-2.559,1.901v10.036h-9.184v-51.754h9.184v32.404l13.644-10.037l5.575,4.92l-10.167,7.675
		l11.217,16.792h-10.692L610.418,283.525z"/>
	<path fill="#D58A90" d="M643.673,243.709v51.754h-9.183v-51.754H643.673z"/>
	<path fill="#D58A90" d="M683.947,266.799v28.664h-9.183v-3.542c-2.755,2.886-5.948,4.329-9.577,4.329
		c-4.242,0-7.686-1.268-10.331-3.805c-2.646-2.535-3.968-6.297-3.968-11.282c0-3.148,0.645-5.913,1.935-8.298
		c1.289-2.383,3.006-4.23,5.149-5.543c2.142-1.311,4.438-1.967,6.887-1.967c2.536,0,4.548,0.383,6.035,1.147
		c1.486,0.766,2.798,1.849,3.936,3.247l0.59-2.951H683.947z M674.765,284.443v-7.02c-0.524-1.398-1.433-2.514-2.722-3.345
		c-1.291-0.83-2.811-1.246-4.56-1.246c-2.012,0-3.729,0.744-5.149,2.229c-1.422,1.488-2.131,3.368-2.131,5.642
		c0,1.487,0.349,2.854,1.049,4.1c0.699,1.247,1.629,2.22,2.787,2.919c1.158,0.7,2.416,1.05,3.772,1.05
		C671.003,288.772,673.321,287.329,674.765,284.443z"/>
	<path fill="#D58A90" d="M705.135,283.525l-2.559,1.901v10.036h-9.184v-51.754h9.184v32.404l13.645-10.037l5.574,4.92l-10.166,7.675
		l11.217,16.792h-10.692L705.135,283.525z"/>
</g>
<g>
	<path fill="#D58A90" d="M387.361,300.926v23.588h-4.186v-23.588H387.361z"/>
	<path fill="#D58A90" d="M391.592,314.229c0.628-1.056,1.514-1.888,2.66-2.497c1.146-0.607,2.446-0.911,3.901-0.911
		s2.735,0.304,3.842,0.911c1.106,0.609,1.958,1.441,2.557,2.497c0.598,1.057,0.896,2.253,0.896,3.587
		c0,1.336-0.299,2.541-0.896,3.618c-0.599,1.076-1.45,1.919-2.557,2.526s-2.406,0.912-3.901,0.912c-1.455,0-2.746-0.285-3.871-0.853
		c-1.127-0.568-2.003-1.38-2.631-2.437s-0.942-2.313-0.942-3.768C390.649,316.482,390.964,315.286,391.592,314.229z
		 M395.762,320.434c0.598,0.688,1.355,1.031,2.272,1.031c0.956,0,1.729-0.34,2.316-1.018c0.588-0.677,0.882-1.544,0.882-2.601
		c0-1.056-0.294-1.923-0.882-2.601s-1.36-1.017-2.316-1.017c-0.917,0-1.675,0.344-2.272,1.031s-0.896,1.55-0.896,2.586
		S395.164,319.745,395.762,320.434z"/>
	<path fill="#D58A90" d="M414.088,319.072l-1.166,0.867v4.574h-4.186v-23.588h4.186v14.769l6.219-4.574l2.541,2.242l-4.634,3.498
		l5.112,7.653h-4.873L414.088,319.072z"/>
	<path fill="#D58A90" d="M429.245,300.926v23.588h-4.186v-23.588H429.245z"/>
	<path fill="#D58A90" d="M447.602,311.449v13.064h-4.186v-1.614c-1.256,1.315-2.711,1.974-4.365,1.974
		c-1.934,0-3.503-0.578-4.709-1.734s-1.809-2.87-1.809-5.143c0-1.435,0.294-2.695,0.882-3.781s1.37-1.929,2.348-2.526
		c0.976-0.599,2.022-0.897,3.139-0.897c1.155,0,2.072,0.176,2.75,0.523c0.678,0.35,1.275,0.842,1.794,1.48l0.27-1.346H447.602z
		 M443.416,319.491v-3.198c-0.239-0.639-0.653-1.146-1.241-1.525s-1.28-0.568-2.077-0.568c-0.917,0-1.7,0.34-2.348,1.017
		c-0.647,0.679-0.972,1.535-0.972,2.571c0,0.678,0.16,1.301,0.479,1.869c0.318,0.567,0.742,1.012,1.271,1.33s1.102,0.479,1.72,0.479
		C441.701,321.465,442.758,320.807,443.416,319.491z"/>
	<path fill="#D58A90" d="M457.258,319.072l-1.166,0.867v4.574h-4.186v-23.588h4.186v14.769l6.219-4.574l2.541,2.242l-4.634,3.498
		l5.112,7.653h-4.873L457.258,319.072z"/>
</g>
<g>
	<g>
		<ellipse fill="#89888C" cx="72.387" cy="295.055" rx="2.485" ry="4.957"/>
		<ellipse fill="#89888C" cx="100.234" cy="295.055" rx="2.484" ry="4.957"/>
		<path fill="#89888C" d="M104.797,261.335c0.92,0.248,1.9,0.406,2.921,0.406c5.153,0,9.33-3.939,9.33-3.939
			s-4.177-3.939-9.33-3.939c-1.493,0-2.899,0.335-4.151,0.806c2.502-2.991,3.993-6.645,3.993-10.599c0-2.485-2.015-4.5-4.5-4.5
			s-4.5,2.015-4.5,4.5c0,5.005-5.61,9.232-12.25,9.232s-12.25-4.228-12.25-9.232c0-2.485-2.015-4.5-4.5-4.5s-4.5,2.015-4.5,4.5
			c0,3.954,1.49,7.607,3.993,10.598c-1.251-0.47-2.658-0.805-4.151-0.805c-5.152,0-9.33,3.939-9.33,3.939s4.178,3.939,9.33,3.939
			c1.021,0,2.001-0.158,2.921-0.406c-4.729,4.733-7.658,11.266-7.658,18.47c0,5.211,1.54,10.063,4.179,14.144
			c-0.012,0.226-0.022,0.452-0.022,0.68c0,9.422,9.864,17.088,21.989,17.088s21.989-7.666,21.989-17.088
			c0-0.228-0.011-0.454-0.022-0.68c2.639-4.08,4.179-8.933,4.179-14.144C112.456,272.601,109.527,266.068,104.797,261.335z
			 M86.311,308.716c-8.67,0-15.967-4.315-18.242-10.205c-0.19-0.493-0.337-0.998-0.458-1.51c-0.049-0.215-0.097-0.43-0.133-0.647
			c-0.028-0.163-0.053-0.327-0.073-0.492c-0.048-0.407-0.084-0.817-0.084-1.233c0-7.78,8.502-14.086,18.989-14.086
			s18.989,6.306,18.989,14.086c0,0.416-0.036,0.826-0.084,1.233c-0.02,0.165-0.045,0.329-0.073,0.492
			c-0.036,0.218-0.084,0.433-0.133,0.647c-0.12,0.512-0.267,1.017-0.458,1.51C102.278,304.4,94.98,308.716,86.311,308.716z"/>
	</g>
</g>
<g>
	<ellipse fill="#89888C" cx="409.626" cy="279.257" rx="2.484" ry="4.957"/>
	<ellipse fill="#89888C" cx="437.474" cy="279.257" rx="2.484" ry="4.957"/>
	<path fill="#89888C" d="M442.036,245.535c0.92,0.249,1.9,0.407,2.922,0.407c5.154,0,9.33-3.939,9.33-3.939s-4.176-3.939-9.33-3.939
		c-1.493,0-2.899,0.336-4.151,0.806c2.503-2.991,3.993-6.645,3.993-10.599c0-2.485-2.015-4.5-4.5-4.5s-4.5,2.015-4.5,4.5
		c0,5.091-5.495,9.232-12.25,9.232c-6.641,0-12.25-4.228-12.25-9.232c0-2.485-2.015-4.5-4.5-4.5s-4.5,2.015-4.5,4.5
		c0,3.954,1.49,7.607,3.992,10.598c-1.251-0.47-2.657-0.805-4.149-0.805c-5.153,0-9.331,3.939-9.331,3.939s4.178,3.939,9.331,3.939
		c1.021,0,2.002-0.159,2.922-0.407c-4.73,4.733-7.66,11.267-7.66,18.472c0,5.21,1.541,10.063,4.18,14.144
		c-0.012,0.226-0.022,0.451-0.022,0.679c0,9.422,9.864,17.088,21.988,17.088c12.125,0,21.99-7.666,21.99-17.088
		c0-0.228-0.011-0.453-0.022-0.679c2.639-4.081,4.179-8.934,4.179-14.144C449.696,256.803,446.767,250.27,442.036,245.535z
		 M423.55,292.917c-8.669,0-15.966-4.314-18.24-10.204l0,0c-0.19-0.493-0.338-0.999-0.458-1.512
		c-0.05-0.214-0.098-0.429-0.133-0.646c-0.028-0.164-0.053-0.328-0.073-0.493c-0.048-0.407-0.084-0.817-0.084-1.233
		c0-7.779,8.502-14.086,18.988-14.086c10.488,0,18.99,6.307,18.99,14.086c0,0.416-0.036,0.826-0.084,1.233
		c-0.021,0.165-0.045,0.329-0.073,0.493c-0.035,0.217-0.083,0.432-0.133,0.646c-0.12,0.513-0.268,1.019-0.458,1.512l0,0
		C439.518,288.603,432.22,292.917,423.55,292.917z"/>
</g>
<g>
	<ellipse fill="#89888C" cx="560.119" cy="292.893" rx="1.898" ry="3.785"/>
	<ellipse fill="#89888C" cx="581.384" cy="292.893" rx="1.897" ry="3.785"/>
	<path fill="#89888C" d="M584.868,267.144c0.703,0.189,1.451,0.311,2.231,0.311c3.935,0,7.124-3.008,7.124-3.008
		s-3.189-3.009-7.124-3.009c-1.141,0-2.215,0.256-3.171,0.615c1.911-2.283,3.05-5.073,3.05-8.093c0-1.898-1.539-3.437-3.437-3.437
		s-3.437,1.538-3.437,3.437c0,3.82-4.283,7.049-9.354,7.049c-5.071,0-9.354-3.229-9.354-7.049c0-1.898-1.539-3.437-3.437-3.437
		s-3.437,1.538-3.437,3.437c0,3.019,1.139,5.809,3.049,8.093c-0.955-0.359-2.028-0.615-3.169-0.615
		c-3.935,0-7.125,3.009-7.125,3.009s3.19,3.008,7.125,3.008c0.779,0,1.528-0.121,2.23-0.311c-3.612,3.614-5.849,8.603-5.849,14.104
		c0,3.98,1.19,7.678,3.208,10.794c-0.009,0.176-0.034,0.349-0.034,0.526c0,7.194,7.532,13.048,16.792,13.048
		c9.258,0,16.791-5.854,16.791-13.048c0-0.178-0.025-0.351-0.034-0.526c2.017-3.116,3.208-6.813,3.208-10.794
		C590.717,275.746,588.48,270.758,584.868,267.144z M570.752,303.324c-6.649,0-12.239-3.324-13.95-7.851
		c-0.136-0.357-0.242-0.725-0.33-1.096c-0.037-0.164-0.074-0.329-0.102-0.496c-0.021-0.124-0.04-0.248-0.055-0.374
		c-0.037-0.311-0.064-0.623-0.064-0.94c0-5.941,6.492-10.757,14.501-10.757c8.008,0,14.5,4.815,14.5,10.757
		c0,0.317-0.027,0.631-0.064,0.941c-0.015,0.125-0.033,0.249-0.055,0.373c-0.027,0.167-0.064,0.332-0.103,0.497
		c-0.087,0.371-0.193,0.736-0.329,1.095C582.99,300,577.4,303.324,570.752,303.324z"/>
</g>
<g>
	<path fill="#555457" d="M137.284,392.546V444.3h-9.183v-51.754H137.284z"/>
	<path fill="#555457" d="M146.565,421.735c1.378-2.317,3.323-4.143,5.838-5.478c2.514-1.333,5.368-2,8.56-2
		c3.192,0,6.002,0.667,8.429,2c2.427,1.335,4.296,3.16,5.608,5.478c1.312,2.318,1.968,4.942,1.968,7.871
		c0,2.931-0.656,5.575-1.968,7.937c-1.312,2.361-3.182,4.21-5.608,5.543c-2.427,1.334-5.28,2.001-8.56,2.001
		c-3.193,0-6.024-0.623-8.495-1.87c-2.471-1.246-4.395-3.027-5.772-5.346c-1.377-2.316-2.066-5.072-2.066-8.265
		C144.5,426.678,145.188,424.054,146.565,421.735z M155.716,435.346c1.312,1.51,2.974,2.264,4.985,2.264
		c2.099,0,3.793-0.743,5.083-2.23c1.29-1.486,1.935-3.389,1.935-5.707c0-2.316-0.646-4.219-1.935-5.707
		c-1.29-1.485-2.984-2.229-5.083-2.229c-2.012,0-3.673,0.755-4.985,2.263c-1.312,1.509-1.968,3.4-1.968,5.674
		C153.748,431.947,154.404,433.838,155.716,435.346z"/>
	<path fill="#555457" d="M195.926,432.361l-2.559,1.902V444.3h-9.183v-51.754h9.183v32.403l13.644-10.035l5.575,4.919l-10.167,7.675
		l11.217,16.792h-10.692L195.926,432.361z"/>
	<path fill="#555457" d="M229.181,392.546V444.3h-9.183v-51.754H229.181z"/>
	<path fill="#555457" d="M269.456,415.635V444.3h-9.183v-3.542c-2.755,2.887-5.948,4.329-9.577,4.329
		c-4.242,0-7.686-1.268-10.331-3.805c-2.646-2.535-3.968-6.297-3.968-11.282c0-3.148,0.645-5.914,1.935-8.297
		c1.289-2.383,3.006-4.231,5.149-5.543c2.142-1.313,4.438-1.969,6.888-1.969c2.536,0,4.547,0.384,6.035,1.148
		c1.486,0.766,2.798,1.848,3.936,3.247l0.59-2.952H269.456z M260.273,433.279v-7.018c-0.525-1.399-1.433-2.515-2.722-3.346
		c-1.291-0.83-2.811-1.246-4.559-1.246c-2.012,0-3.729,0.744-5.149,2.23c-1.422,1.486-2.132,3.367-2.132,5.641
		c0,1.487,0.349,2.854,1.049,4.1c0.699,1.246,1.628,2.221,2.788,2.919c1.158,0.7,2.416,1.05,3.772,1.05
		C256.511,437.609,258.83,436.166,260.273,433.279z"/>
	<path fill="#555457" d="M290.643,432.361l-2.559,1.902V444.3h-9.183v-51.754h9.183v32.403l13.644-10.035l5.575,4.919l-10.167,7.675
		l11.217,16.792h-10.692L290.643,432.361z"/>
</g>
<g>
	<path fill="#555457" d="M541.395,386.445v51.754h-9.184v-51.754H541.395z"/>
	<path fill="#555457" d="M610.418,426.262l-2.559,1.901v10.036h-9.184v-51.754h9.184v32.404l13.644-10.037l5.575,4.92l-10.167,7.675
		l11.217,16.792h-10.692L610.418,426.262z"/>
	<path fill="#555457" d="M643.673,386.445v51.754h-9.183v-51.754H643.673z"/>
	<path fill="#555457" d="M683.947,409.535v28.664h-9.183v-3.542c-2.755,2.886-5.948,4.329-9.577,4.329
		c-4.242,0-7.686-1.268-10.331-3.805c-2.646-2.535-3.968-6.297-3.968-11.282c0-3.148,0.645-5.913,1.935-8.298
		c1.289-2.383,3.006-4.23,5.149-5.543c2.142-1.311,4.438-1.967,6.887-1.967c2.536,0,4.548,0.383,6.035,1.147
		c1.486,0.766,2.798,1.849,3.936,3.247l0.59-2.951H683.947z M674.765,427.18v-7.02c-0.524-1.398-1.433-2.514-2.722-3.345
		c-1.291-0.83-2.811-1.246-4.56-1.246c-2.012,0-3.729,0.744-5.149,2.229c-1.422,1.488-2.131,3.368-2.131,5.642
		c0,1.487,0.349,2.854,1.049,4.1c0.699,1.247,1.629,2.22,2.787,2.919c1.158,0.7,2.416,1.05,3.772,1.05
		C671.003,431.509,673.321,430.065,674.765,427.18z"/>
	<path fill="#555457" d="M705.135,426.262l-2.559,1.901v10.036h-9.184v-51.754h9.184v32.404l13.645-10.037l5.574,4.92l-10.166,7.675
		l11.217,16.792h-10.692L705.135,426.262z"/>
</g>
<g>
	<path fill="#555457" d="M387.361,443.662v23.588h-4.186v-23.588H387.361z"/>
	<path fill="#555457" d="M391.592,456.966c0.628-1.056,1.514-1.888,2.66-2.497c1.146-0.607,2.446-0.911,3.901-0.911
		s2.735,0.304,3.842,0.911c1.106,0.609,1.958,1.441,2.557,2.497c0.598,1.057,0.896,2.253,0.896,3.587
		c0,1.336-0.299,2.541-0.896,3.618c-0.599,1.076-1.45,1.919-2.557,2.526s-2.406,0.912-3.901,0.912c-1.455,0-2.746-0.285-3.871-0.853
		c-1.127-0.568-2.003-1.38-2.631-2.437s-0.942-2.313-0.942-3.768C390.649,459.219,390.964,458.022,391.592,456.966z M395.762,463.17
		c0.598,0.688,1.355,1.031,2.272,1.031c0.956,0,1.729-0.34,2.316-1.018c0.588-0.677,0.882-1.544,0.882-2.601
		c0-1.056-0.294-1.923-0.882-2.601s-1.36-1.017-2.316-1.017c-0.917,0-1.675,0.344-2.272,1.031s-0.896,1.55-0.896,2.586
		S395.164,462.481,395.762,463.17z"/>
	<path fill="#555457" d="M414.088,461.809l-1.166,0.867v4.574h-4.186v-23.588h4.186v14.769l6.219-4.574l2.541,2.242l-4.634,3.498
		l5.112,7.653h-4.873L414.088,461.809z"/>
	<path fill="#555457" d="M429.245,443.662v23.588h-4.186v-23.588H429.245z"/>
	<path fill="#555457" d="M447.602,454.186v13.064h-4.186v-1.614c-1.256,1.315-2.711,1.974-4.365,1.974
		c-1.934,0-3.503-0.578-4.709-1.734s-1.809-2.87-1.809-5.143c0-1.435,0.294-2.695,0.882-3.781s1.37-1.929,2.348-2.526
		c0.976-0.599,2.022-0.897,3.139-0.897c1.155,0,2.072,0.176,2.75,0.523c0.678,0.35,1.275,0.842,1.794,1.48l0.27-1.346H447.602z
		 M443.416,462.228v-3.198c-0.239-0.639-0.653-1.146-1.241-1.525s-1.28-0.568-2.077-0.568c-0.917,0-1.7,0.34-2.348,1.017
		c-0.647,0.679-0.972,1.535-0.972,2.571c0,0.678,0.16,1.301,0.479,1.869c0.318,0.567,0.742,1.012,1.271,1.33s1.102,0.479,1.72,0.479
		C441.701,464.201,442.758,463.543,443.416,462.228z"/>
	<path fill="#555457" d="M457.258,461.809l-1.166,0.867v4.574h-4.186v-23.588h4.186v14.769l6.219-4.574l2.541,2.242l-4.634,3.498
		l5.112,7.653h-4.873L457.258,461.809z"/>
</g>
<g>
	<ellipse fill="#555457" cx="72.387" cy="437.791" rx="2.485" ry="4.957"/>
	<ellipse fill="#555457" cx="100.234" cy="437.791" rx="2.484" ry="4.957"/>
	<path fill="#555457" d="M104.797,404.071c0.92,0.248,1.9,0.406,2.921,0.406c5.153,0,9.33-3.939,9.33-3.939s-4.177-3.939-9.33-3.939
		c-1.493,0-2.899,0.335-4.151,0.806c2.502-2.991,3.993-6.645,3.993-10.599c0-2.485-2.015-4.5-4.5-4.5s-4.5,2.015-4.5,4.5
		c0,5.005-5.61,9.232-12.25,9.232s-12.25-4.228-12.25-9.232c0-2.485-2.015-4.5-4.5-4.5s-4.5,2.015-4.5,4.5
		c0,3.954,1.49,7.607,3.993,10.598c-1.251-0.47-2.658-0.805-4.151-0.805c-5.152,0-9.33,3.939-9.33,3.939s4.178,3.939,9.33,3.939
		c1.021,0,2.001-0.158,2.921-0.406c-4.729,4.733-7.658,11.266-7.658,18.47c0,5.211,1.54,10.063,4.179,14.144
		c-0.012,0.226-0.022,0.452-0.022,0.68c0,9.422,9.864,17.088,21.989,17.088s21.989-7.666,21.989-17.088
		c0-0.228-0.011-0.454-0.022-0.68c2.639-4.08,4.179-8.933,4.179-14.144C112.456,415.337,109.527,408.805,104.797,404.071z
		 M86.311,451.452c-8.67,0-15.967-4.315-18.242-10.205c-0.19-0.493-0.337-0.998-0.458-1.51c-0.049-0.215-0.097-0.43-0.133-0.647
		c-0.028-0.163-0.053-0.327-0.073-0.492c-0.048-0.407-0.084-0.817-0.084-1.233c0-7.78,8.502-14.086,18.989-14.086
		s18.989,6.306,18.989,14.086c0,0.416-0.036,0.826-0.084,1.233c-0.02,0.165-0.045,0.329-0.073,0.492
		c-0.036,0.218-0.084,0.433-0.133,0.647c-0.12,0.512-0.267,1.017-0.458,1.51C102.278,447.137,94.98,451.452,86.311,451.452z"/>
</g>
<g>
	<ellipse fill="#555457" cx="409.626" cy="421.993" rx="2.484" ry="4.957"/>
	<ellipse fill="#555457" cx="437.474" cy="421.993" rx="2.484" ry="4.957"/>
	<path fill="#555457" d="M442.036,388.271c0.92,0.249,1.9,0.407,2.922,0.407c5.154,0,9.33-3.939,9.33-3.939s-4.176-3.939-9.33-3.939
		c-1.493,0-2.899,0.336-4.151,0.806c2.503-2.991,3.993-6.645,3.993-10.599c0-2.485-2.015-4.5-4.5-4.5s-4.5,2.015-4.5,4.5
		c0,5.091-5.495,9.232-12.25,9.232c-6.641,0-12.25-4.228-12.25-9.232c0-2.485-2.015-4.5-4.5-4.5s-4.5,2.015-4.5,4.5
		c0,3.954,1.49,7.607,3.992,10.598c-1.251-0.47-2.657-0.805-4.149-0.805c-5.153,0-9.331,3.939-9.331,3.939s4.178,3.939,9.331,3.939
		c1.021,0,2.002-0.159,2.922-0.407c-4.73,4.733-7.66,11.267-7.66,18.472c0,5.21,1.541,10.063,4.18,14.144
		c-0.012,0.226-0.022,0.451-0.022,0.679c0,9.422,9.864,17.088,21.988,17.088c12.125,0,21.99-7.666,21.99-17.088
		c0-0.228-0.011-0.453-0.022-0.679c2.639-4.081,4.179-8.934,4.179-14.144C449.696,399.539,446.767,393.006,442.036,388.271z
		 M423.55,435.653c-8.669,0-15.966-4.314-18.24-10.204l0,0c-0.19-0.493-0.338-0.999-0.458-1.512
		c-0.05-0.214-0.098-0.429-0.133-0.646c-0.028-0.164-0.053-0.328-0.073-0.493c-0.048-0.407-0.084-0.817-0.084-1.233
		c0-7.779,8.502-14.086,18.988-14.086c10.488,0,18.99,6.307,18.99,14.086c0,0.416-0.036,0.826-0.084,1.233
		c-0.021,0.165-0.045,0.329-0.073,0.493c-0.035,0.217-0.083,0.432-0.133,0.646c-0.12,0.513-0.268,1.019-0.458,1.512l0,0
		C439.518,431.339,432.22,435.653,423.55,435.653z"/>
</g>
<g>
	<ellipse fill="#555457" cx="560.119" cy="435.629" rx="1.898" ry="3.785"/>
	<ellipse fill="#555457" cx="581.384" cy="435.629" rx="1.897" ry="3.785"/>
	<path fill="#555457" d="M584.868,409.88c0.703,0.189,1.451,0.311,2.231,0.311c3.935,0,7.124-3.008,7.124-3.008
		s-3.189-3.009-7.124-3.009c-1.141,0-2.215,0.256-3.171,0.615c1.911-2.283,3.05-5.073,3.05-8.093c0-1.898-1.539-3.437-3.437-3.437
		s-3.437,1.538-3.437,3.437c0,3.82-4.283,7.049-9.354,7.049c-5.071,0-9.354-3.229-9.354-7.049c0-1.898-1.539-3.437-3.437-3.437
		s-3.437,1.538-3.437,3.437c0,3.019,1.139,5.809,3.049,8.093c-0.955-0.359-2.028-0.615-3.169-0.615
		c-3.935,0-7.125,3.009-7.125,3.009s3.19,3.008,7.125,3.008c0.779,0,1.528-0.121,2.23-0.311c-3.612,3.614-5.849,8.603-5.849,14.104
		c0,3.98,1.19,7.678,3.208,10.794c-0.009,0.176-0.034,0.349-0.034,0.526c0,7.194,7.532,13.048,16.792,13.048
		c9.258,0,16.791-5.854,16.791-13.048c0-0.178-0.025-0.351-0.034-0.526c2.017-3.116,3.208-6.813,3.208-10.794
		C590.717,418.482,588.48,413.494,584.868,409.88z M570.752,446.061c-6.649,0-12.239-3.324-13.95-7.851
		c-0.136-0.357-0.242-0.725-0.33-1.096c-0.037-0.164-0.074-0.329-0.102-0.496c-0.021-0.124-0.04-0.248-0.055-0.374
		c-0.037-0.311-0.064-0.623-0.064-0.94c0-5.941,6.492-10.757,14.501-10.757c8.008,0,14.5,4.815,14.5,10.757
		c0,0.317-0.027,0.631-0.064,0.941c-0.015,0.125-0.033,0.249-0.055,0.373c-0.027,0.167-0.064,0.332-0.103,0.497
		c-0.087,0.371-0.193,0.736-0.329,1.095C582.99,442.736,577.4,446.061,570.752,446.061z"/>
</g>
<g>
	<path fill="#89888C" d="M137.284,533.812v51.754h-9.183v-51.754H137.284z"/>
	<path fill="#89888C" d="M146.565,563.001c1.378-2.317,3.323-4.143,5.838-5.478c2.514-1.333,5.368-2,8.56-2
		c3.192,0,6.002,0.667,8.429,2c2.427,1.335,4.296,3.16,5.608,5.478c1.312,2.318,1.968,4.942,1.968,7.871
		c0,2.931-0.656,5.575-1.968,7.937c-1.312,2.361-3.182,4.21-5.608,5.543c-2.427,1.334-5.28,2.001-8.56,2.001
		c-3.193,0-6.024-0.623-8.495-1.87c-2.471-1.246-4.395-3.027-5.772-5.346c-1.377-2.316-2.066-5.072-2.066-8.265
		C144.5,567.943,145.188,565.319,146.565,563.001z M155.716,576.611c1.312,1.51,2.974,2.264,4.985,2.264
		c2.099,0,3.793-0.743,5.083-2.23c1.29-1.486,1.935-3.389,1.935-5.707c0-2.316-0.646-4.219-1.935-5.707
		c-1.29-1.485-2.984-2.229-5.083-2.229c-2.012,0-3.673,0.755-4.985,2.263c-1.312,1.509-1.968,3.4-1.968,5.674
		C153.748,573.213,154.404,575.104,155.716,576.611z"/>
	<path fill="#89888C" d="M195.926,573.627l-2.559,1.902v10.036h-9.183v-51.754h9.183v32.403l13.644-10.035l5.575,4.919
		l-10.167,7.675l11.217,16.792h-10.692L195.926,573.627z"/>
	<path fill="#89888C" d="M229.181,533.812v51.754h-9.183v-51.754H229.181z"/>
	<path fill="#89888C" d="M269.456,556.9v28.665h-9.183v-3.542c-2.755,2.887-5.948,4.329-9.577,4.329
		c-4.242,0-7.686-1.268-10.331-3.805c-2.646-2.535-3.968-6.297-3.968-11.282c0-3.148,0.645-5.914,1.935-8.297
		c1.289-2.383,3.006-4.231,5.149-5.543c2.142-1.313,4.438-1.969,6.888-1.969c2.536,0,4.547,0.384,6.035,1.148
		c1.486,0.766,2.798,1.848,3.936,3.247l0.59-2.952H269.456z M260.273,574.545v-7.018c-0.525-1.399-1.433-2.515-2.722-3.346
		c-1.291-0.83-2.811-1.246-4.559-1.246c-2.012,0-3.729,0.744-5.149,2.23c-1.422,1.486-2.132,3.367-2.132,5.641
		c0,1.487,0.349,2.854,1.049,4.1c0.699,1.246,1.628,2.221,2.788,2.919c1.158,0.7,2.416,1.05,3.772,1.05
		C256.511,578.875,258.83,577.432,260.273,574.545z"/>
	<path fill="#89888C" d="M290.643,573.627l-2.559,1.902v10.036h-9.183v-51.754h9.183v32.403l13.644-10.035l5.575,4.919
		l-10.167,7.675l11.217,16.792h-10.692L290.643,573.627z"/>
</g>
<g>
	<path fill="#89888C" d="M541.395,527.711v51.754h-9.184v-51.754H541.395z"/>
	<path fill="#89888C" d="M610.418,567.527l-2.559,1.901v10.036h-9.184v-51.754h9.184v32.404l13.644-10.037l5.575,4.92l-10.167,7.675
		l11.217,16.792h-10.692L610.418,567.527z"/>
	<path fill="#89888C" d="M643.673,527.711v51.754h-9.183v-51.754H643.673z"/>
	<path fill="#89888C" d="M683.947,550.801v28.664h-9.183v-3.542c-2.755,2.886-5.948,4.329-9.577,4.329
		c-4.242,0-7.686-1.268-10.331-3.805c-2.646-2.535-3.968-6.297-3.968-11.282c0-3.148,0.645-5.913,1.935-8.298
		c1.289-2.383,3.006-4.23,5.149-5.543c2.142-1.311,4.438-1.967,6.887-1.967c2.536,0,4.548,0.383,6.035,1.147
		c1.486,0.766,2.798,1.849,3.936,3.247l0.59-2.951H683.947z M674.765,568.445v-7.02c-0.524-1.398-1.433-2.514-2.722-3.345
		c-1.291-0.83-2.811-1.246-4.56-1.246c-2.012,0-3.729,0.744-5.149,2.229c-1.422,1.488-2.131,3.368-2.131,5.642
		c0,1.487,0.349,2.854,1.049,4.1c0.699,1.247,1.629,2.22,2.787,2.919c1.158,0.7,2.416,1.05,3.772,1.05
		C671.003,572.774,673.321,571.331,674.765,568.445z"/>
	<path fill="#89888C" d="M705.135,567.527l-2.559,1.901v10.036h-9.184v-51.754h9.184v32.404l13.645-10.037l5.574,4.92l-10.166,7.675
		l11.217,16.792h-10.692L705.135,567.527z"/>
</g>
<g>
	<path fill="#89888C" d="M387.361,584.928v23.588h-4.186v-23.588H387.361z"/>
	<path fill="#89888C" d="M391.592,598.231c0.628-1.056,1.514-1.888,2.66-2.497c1.146-0.607,2.446-0.911,3.901-0.911
		s2.735,0.304,3.842,0.911c1.106,0.609,1.958,1.441,2.557,2.497c0.598,1.057,0.896,2.253,0.896,3.587
		c0,1.336-0.299,2.541-0.896,3.618c-0.599,1.076-1.45,1.919-2.557,2.526s-2.406,0.912-3.901,0.912c-1.455,0-2.746-0.285-3.871-0.853
		c-1.127-0.568-2.003-1.38-2.631-2.437s-0.942-2.313-0.942-3.768C390.649,600.484,390.964,599.288,391.592,598.231z
		 M395.762,604.436c0.598,0.688,1.355,1.031,2.272,1.031c0.956,0,1.729-0.34,2.316-1.018c0.588-0.677,0.882-1.544,0.882-2.601
		c0-1.056-0.294-1.923-0.882-2.601s-1.36-1.017-2.316-1.017c-0.917,0-1.675,0.344-2.272,1.031s-0.896,1.55-0.896,2.586
		S395.164,603.747,395.762,604.436z"/>
	<path fill="#89888C" d="M414.088,603.074l-1.166,0.867v4.574h-4.186v-23.588h4.186v14.769l6.219-4.574l2.541,2.242l-4.634,3.498
		l5.112,7.653h-4.873L414.088,603.074z"/>
	<path fill="#89888C" d="M429.245,584.928v23.588h-4.186v-23.588H429.245z"/>
	<path fill="#89888C" d="M447.602,595.451v13.064h-4.186v-1.614c-1.256,1.315-2.711,1.974-4.365,1.974
		c-1.934,0-3.503-0.578-4.709-1.734s-1.809-2.87-1.809-5.143c0-1.435,0.294-2.695,0.882-3.781s1.37-1.929,2.348-2.526
		c0.976-0.599,2.022-0.897,3.139-0.897c1.155,0,2.072,0.176,2.75,0.523c0.678,0.35,1.275,0.842,1.794,1.48l0.27-1.346H447.602z
		 M443.416,603.493v-3.198c-0.239-0.639-0.653-1.146-1.241-1.525s-1.28-0.568-2.077-0.568c-0.917,0-1.7,0.34-2.348,1.017
		c-0.647,0.679-0.972,1.535-0.972,2.571c0,0.678,0.16,1.301,0.479,1.869c0.318,0.567,0.742,1.012,1.271,1.33s1.102,0.479,1.72,0.479
		C441.701,605.467,442.758,604.809,443.416,603.493z"/>
	<path fill="#89888C" d="M457.258,603.074l-1.166,0.867v4.574h-4.186v-23.588h4.186v14.769l6.219-4.574l2.541,2.242l-4.634,3.498
		l5.112,7.653h-4.873L457.258,603.074z"/>
</g>
<g>
	<ellipse fill="#89888C" cx="72.387" cy="579.057" rx="2.485" ry="4.957"/>
	<ellipse fill="#89888C" cx="100.234" cy="579.057" rx="2.484" ry="4.957"/>
	<path fill="#89888C" d="M104.797,545.337c0.92,0.248,1.9,0.406,2.921,0.406c5.153,0,9.33-3.939,9.33-3.939s-4.177-3.939-9.33-3.939
		c-1.493,0-2.899,0.335-4.151,0.806c2.502-2.991,3.993-6.645,3.993-10.599c0-2.485-2.015-4.5-4.5-4.5s-4.5,2.015-4.5,4.5
		c0,5.005-5.61,9.232-12.25,9.232s-12.25-4.228-12.25-9.232c0-2.485-2.015-4.5-4.5-4.5s-4.5,2.015-4.5,4.5
		c0,3.954,1.49,7.607,3.993,10.598c-1.251-0.47-2.658-0.805-4.151-0.805c-5.152,0-9.33,3.939-9.33,3.939s4.178,3.939,9.33,3.939
		c1.021,0,2.001-0.158,2.921-0.406c-4.729,4.733-7.658,11.266-7.658,18.47c0,5.211,1.54,10.063,4.179,14.144
		c-0.012,0.226-0.022,0.452-0.022,0.68c0,9.422,9.864,17.088,21.989,17.088s21.989-7.666,21.989-17.088
		c0-0.228-0.011-0.454-0.022-0.68c2.639-4.08,4.179-8.933,4.179-14.144C112.456,556.603,109.527,550.07,104.797,545.337z
		 M86.311,592.718c-8.67,0-15.967-4.315-18.242-10.205c-0.19-0.493-0.337-0.998-0.458-1.51c-0.049-0.215-0.097-0.43-0.133-0.647
		c-0.028-0.163-0.053-0.327-0.073-0.492c-0.048-0.407-0.084-0.817-0.084-1.233c0-7.78,8.502-14.086,18.989-14.086
		S105.3,570.85,105.3,578.63c0,0.416-0.036,0.826-0.084,1.233c-0.02,0.165-0.045,0.329-0.073,0.492
		c-0.036,0.218-0.084,0.433-0.133,0.647c-0.12,0.512-0.267,1.017-0.458,1.51C102.278,588.402,94.98,592.718,86.311,592.718z"/>
</g>
<g>
	<ellipse fill="#89888C" cx="409.626" cy="563.259" rx="2.484" ry="4.957"/>
	<ellipse fill="#89888C" cx="437.474" cy="563.259" rx="2.484" ry="4.957"/>
	<path fill="#89888C" d="M442.036,529.537c0.92,0.249,1.9,0.407,2.922,0.407c5.154,0,9.33-3.939,9.33-3.939s-4.176-3.939-9.33-3.939
		c-1.493,0-2.899,0.336-4.151,0.806c2.503-2.991,3.993-6.645,3.993-10.599c0-2.485-2.015-4.5-4.5-4.5s-4.5,2.015-4.5,4.5
		c0,5.091-5.495,9.232-12.25,9.232c-6.641,0-12.25-4.228-12.25-9.232c0-2.485-2.015-4.5-4.5-4.5s-4.5,2.015-4.5,4.5
		c0,3.954,1.49,7.607,3.992,10.598c-1.251-0.47-2.657-0.805-4.149-0.805c-5.153,0-9.331,3.939-9.331,3.939s4.178,3.939,9.331,3.939
		c1.021,0,2.002-0.159,2.922-0.407c-4.73,4.733-7.66,11.267-7.66,18.472c0,5.21,1.541,10.063,4.18,14.144
		c-0.012,0.226-0.022,0.451-0.022,0.679c0,9.422,9.864,17.088,21.988,17.088c12.125,0,21.99-7.666,21.99-17.088
		c0-0.228-0.011-0.453-0.022-0.679c2.639-4.081,4.179-8.934,4.179-14.144C449.696,540.805,446.767,534.271,442.036,529.537z
		 M423.55,576.919c-8.669,0-15.966-4.314-18.24-10.204l0,0c-0.19-0.493-0.338-0.999-0.458-1.512
		c-0.05-0.214-0.098-0.429-0.133-0.646c-0.028-0.164-0.053-0.328-0.073-0.493c-0.048-0.407-0.084-0.817-0.084-1.233
		c0-7.779,8.502-14.086,18.988-14.086c10.488,0,18.99,6.307,18.99,14.086c0,0.416-0.036,0.826-0.084,1.233
		c-0.021,0.165-0.045,0.329-0.073,0.493c-0.035,0.217-0.083,0.432-0.133,0.646c-0.12,0.513-0.268,1.019-0.458,1.512l0,0
		C439.518,572.604,432.22,576.919,423.55,576.919z"/>
</g>
<g>
	<ellipse fill="#89888C" cx="560.119" cy="576.895" rx="1.898" ry="3.785"/>
	<ellipse fill="#89888C" cx="581.384" cy="576.895" rx="1.897" ry="3.785"/>
	<path fill="#89888C" d="M584.868,551.146c0.703,0.189,1.451,0.311,2.231,0.311c3.935,0,7.124-3.008,7.124-3.008
		s-3.189-3.009-7.124-3.009c-1.141,0-2.215,0.256-3.171,0.615c1.911-2.283,3.05-5.073,3.05-8.093c0-1.898-1.539-3.437-3.437-3.437
		s-3.437,1.538-3.437,3.437c0,3.82-4.283,7.049-9.354,7.049c-5.071,0-9.354-3.229-9.354-7.049c0-1.898-1.539-3.437-3.437-3.437
		s-3.437,1.538-3.437,3.437c0,3.019,1.139,5.809,3.049,8.093c-0.955-0.359-2.028-0.615-3.169-0.615
		c-3.935,0-7.125,3.009-7.125,3.009s3.19,3.008,7.125,3.008c0.779,0,1.528-0.121,2.23-0.311c-3.612,3.614-5.849,8.603-5.849,14.104
		c0,3.98,1.19,7.678,3.208,10.794c-0.009,0.176-0.034,0.349-0.034,0.526c0,7.194,7.532,13.048,16.792,13.048
		c9.258,0,16.791-5.854,16.791-13.048c0-0.178-0.025-0.351-0.034-0.526c2.017-3.116,3.208-6.813,3.208-10.794
		C590.717,559.748,588.48,554.76,584.868,551.146z M570.752,587.326c-6.649,0-12.239-3.324-13.95-7.851
		c-0.136-0.357-0.242-0.725-0.33-1.096c-0.037-0.164-0.074-0.329-0.102-0.496c-0.021-0.124-0.04-0.248-0.055-0.374
		c-0.037-0.311-0.064-0.623-0.064-0.94c0-5.941,6.492-10.757,14.501-10.757c8.008,0,14.5,4.815,14.5,10.757
		c0,0.317-0.027,0.631-0.064,0.941c-0.015,0.125-0.033,0.249-0.055,0.373c-0.027,0.167-0.064,0.332-0.103,0.497
		c-0.087,0.371-0.193,0.736-0.329,1.095C582.99,584.002,577.4,587.326,570.752,587.326z"/>
</g>
<g>
	<path fill="#D58A90" d="M137.284,661.812v51.754h-9.183v-51.754H137.284z"/>
	<path fill="#D58A90" d="M146.565,691.001c1.378-2.317,3.323-4.143,5.838-5.478c2.514-1.333,5.368-2,8.56-2
		c3.192,0,6.002,0.667,8.429,2c2.427,1.335,4.296,3.16,5.608,5.478c1.312,2.318,1.968,4.942,1.968,7.871
		c0,2.931-0.656,5.575-1.968,7.937c-1.312,2.361-3.182,4.21-5.608,5.543c-2.427,1.334-5.28,2.001-8.56,2.001
		c-3.193,0-6.024-0.623-8.495-1.87c-2.471-1.246-4.395-3.027-5.772-5.346c-1.377-2.316-2.066-5.072-2.066-8.265
		C144.5,695.943,145.188,693.319,146.565,691.001z M155.716,704.611c1.312,1.51,2.974,2.264,4.985,2.264
		c2.099,0,3.793-0.743,5.083-2.23c1.29-1.486,1.935-3.389,1.935-5.707c0-2.316-0.646-4.219-1.935-5.707
		c-1.29-1.485-2.984-2.229-5.083-2.229c-2.012,0-3.673,0.755-4.985,2.263c-1.312,1.509-1.968,3.4-1.968,5.674
		C153.748,701.213,154.404,703.104,155.716,704.611z"/>
	<path fill="#D58A90" d="M195.926,701.627l-2.559,1.902v10.036h-9.183v-51.754h9.183v32.403l13.644-10.035l5.575,4.919
		l-10.167,7.675l11.217,16.792h-10.692L195.926,701.627z"/>
	<path fill="#D58A90" d="M229.181,661.812v51.754h-9.183v-51.754H229.181z"/>
	<path fill="#D58A90" d="M269.456,684.9v28.665h-9.183v-3.542c-2.755,2.887-5.948,4.329-9.577,4.329
		c-4.242,0-7.686-1.268-10.331-3.805c-2.646-2.535-3.968-6.297-3.968-11.282c0-3.148,0.645-5.914,1.935-8.297
		c1.289-2.383,3.006-4.231,5.149-5.543c2.142-1.313,4.438-1.969,6.888-1.969c2.536,0,4.547,0.384,6.035,1.148
		c1.486,0.766,2.798,1.848,3.936,3.247l0.59-2.952H269.456z M260.273,702.545v-7.018c-0.525-1.399-1.433-2.515-2.722-3.346
		c-1.291-0.83-2.811-1.246-4.559-1.246c-2.012,0-3.729,0.744-5.149,2.23c-1.422,1.486-2.132,3.367-2.132,5.641
		c0,1.487,0.349,2.854,1.049,4.1c0.699,1.246,1.628,2.221,2.788,2.919c1.158,0.7,2.416,1.05,3.772,1.05
		C256.511,706.875,258.83,705.432,260.273,702.545z"/>
	<path fill="#D58A90" d="M290.643,701.627l-2.559,1.902v10.036h-9.183v-51.754h9.183v32.403l13.644-10.035l5.575,4.919
		l-10.167,7.675l11.217,16.792h-10.692L290.643,701.627z"/>
</g>
<g>
	<path fill="#D58A90" d="M541.395,655.711v51.754h-9.184v-51.754H541.395z"/>
	<path fill="#D58A90" d="M610.418,695.527l-2.559,1.901v10.036h-9.184v-51.754h9.184v32.404l13.644-10.037l5.575,4.92l-10.167,7.675
		l11.217,16.792h-10.692L610.418,695.527z"/>
	<path fill="#D58A90" d="M643.673,655.711v51.754h-9.183v-51.754H643.673z"/>
	<path fill="#D58A90" d="M683.947,678.801v28.664h-9.183v-3.542c-2.755,2.886-5.948,4.329-9.577,4.329
		c-4.242,0-7.686-1.268-10.331-3.805c-2.646-2.535-3.968-6.297-3.968-11.282c0-3.148,0.645-5.913,1.935-8.298
		c1.289-2.383,3.006-4.23,5.149-5.543c2.142-1.311,4.438-1.967,6.887-1.967c2.536,0,4.548,0.383,6.035,1.147
		c1.486,0.766,2.798,1.849,3.936,3.247l0.59-2.951H683.947z M674.765,696.445v-7.02c-0.524-1.398-1.433-2.514-2.722-3.345
		c-1.291-0.83-2.811-1.246-4.56-1.246c-2.012,0-3.729,0.744-5.149,2.229c-1.422,1.488-2.131,3.368-2.131,5.642
		c0,1.487,0.349,2.854,1.049,4.1c0.699,1.247,1.629,2.22,2.787,2.919c1.158,0.7,2.416,1.05,3.772,1.05
		C671.003,700.774,673.321,699.331,674.765,696.445z"/>
	<path fill="#D58A90" d="M705.135,695.527l-2.559,1.901v10.036h-9.184v-51.754h9.184v32.404l13.645-10.037l5.574,4.92l-10.166,7.675
		l11.217,16.792h-10.692L705.135,695.527z"/>
</g>
<g>
	<path fill="#D58A90" d="M387.361,712.928v23.588h-4.186v-23.588H387.361z"/>
	<path fill="#D58A90" d="M391.592,726.231c0.628-1.056,1.514-1.888,2.66-2.497c1.146-0.607,2.446-0.911,3.901-0.911
		s2.735,0.304,3.842,0.911c1.106,0.609,1.958,1.441,2.557,2.497c0.598,1.057,0.896,2.253,0.896,3.587
		c0,1.336-0.299,2.541-0.896,3.618c-0.599,1.076-1.45,1.919-2.557,2.526s-2.406,0.912-3.901,0.912c-1.455,0-2.746-0.285-3.871-0.853
		c-1.127-0.568-2.003-1.38-2.631-2.437s-0.942-2.313-0.942-3.768C390.649,728.484,390.964,727.288,391.592,726.231z
		 M395.762,732.436c0.598,0.688,1.355,1.031,2.272,1.031c0.956,0,1.729-0.34,2.316-1.018c0.588-0.677,0.882-1.544,0.882-2.601
		c0-1.056-0.294-1.923-0.882-2.601s-1.36-1.017-2.316-1.017c-0.917,0-1.675,0.344-2.272,1.031s-0.896,1.55-0.896,2.586
		S395.164,731.747,395.762,732.436z"/>
	<path fill="#D58A90" d="M414.088,731.074l-1.166,0.867v4.574h-4.186v-23.588h4.186v14.769l6.219-4.574l2.541,2.242l-4.634,3.498
		l5.112,7.653h-4.873L414.088,731.074z"/>
	<path fill="#D58A90" d="M429.245,712.928v23.588h-4.186v-23.588H429.245z"/>
	<path fill="#D58A90" d="M447.602,723.451v13.064h-4.186v-1.614c-1.256,1.315-2.711,1.974-4.365,1.974
		c-1.934,0-3.503-0.578-4.709-1.734s-1.809-2.87-1.809-5.143c0-1.435,0.294-2.695,0.882-3.781s1.37-1.929,2.348-2.526
		c0.976-0.599,2.022-0.897,3.139-0.897c1.155,0,2.072,0.176,2.75,0.523c0.678,0.35,1.275,0.842,1.794,1.48l0.27-1.346H447.602z
		 M443.416,731.493v-3.198c-0.239-0.639-0.653-1.146-1.241-1.525s-1.28-0.568-2.077-0.568c-0.917,0-1.7,0.34-2.348,1.017
		c-0.647,0.679-0.972,1.535-0.972,2.571c0,0.678,0.16,1.301,0.479,1.869c0.318,0.567,0.742,1.012,1.271,1.33s1.102,0.479,1.72,0.479
		C441.701,733.467,442.758,732.809,443.416,731.493z"/>
	<path fill="#D58A90" d="M457.258,731.074l-1.166,0.867v4.574h-4.186v-23.588h4.186v14.769l6.219-4.574l2.541,2.242l-4.634,3.498
		l5.112,7.653h-4.873L457.258,731.074z"/>
</g>
<g>
	<ellipse fill="#D58A90" cx="72.387" cy="707.057" rx="2.485" ry="4.957"/>
	<ellipse fill="#D58A90" cx="100.234" cy="707.057" rx="2.484" ry="4.957"/>
	<path fill="#D58A90" d="M104.797,673.337c0.92,0.248,1.9,0.406,2.921,0.406c5.153,0,9.33-3.939,9.33-3.939s-4.177-3.939-9.33-3.939
		c-1.493,0-2.899,0.335-4.151,0.806c2.502-2.991,3.993-6.645,3.993-10.599c0-2.485-2.015-4.5-4.5-4.5s-4.5,2.015-4.5,4.5
		c0,5.005-5.61,9.232-12.25,9.232s-12.25-4.228-12.25-9.232c0-2.485-2.015-4.5-4.5-4.5s-4.5,2.015-4.5,4.5
		c0,3.954,1.49,7.607,3.993,10.598c-1.251-0.47-2.658-0.805-4.151-0.805c-5.152,0-9.33,3.939-9.33,3.939s4.178,3.939,9.33,3.939
		c1.021,0,2.001-0.158,2.921-0.406c-4.729,4.733-7.658,11.266-7.658,18.47c0,5.211,1.54,10.063,4.179,14.144
		c-0.012,0.226-0.022,0.452-0.022,0.68c0,9.422,9.864,17.088,21.989,17.088s21.989-7.666,21.989-17.088
		c0-0.228-0.011-0.454-0.022-0.68c2.639-4.08,4.179-8.933,4.179-14.144C112.456,684.603,109.527,678.07,104.797,673.337z
		 M86.311,720.718c-8.67,0-15.967-4.315-18.242-10.205c-0.19-0.493-0.337-0.998-0.458-1.51c-0.049-0.215-0.097-0.43-0.133-0.647
		c-0.028-0.163-0.053-0.327-0.073-0.492c-0.048-0.407-0.084-0.817-0.084-1.233c0-7.78,8.502-14.086,18.989-14.086
		S105.3,698.85,105.3,706.63c0,0.416-0.036,0.826-0.084,1.233c-0.02,0.165-0.045,0.329-0.073,0.492
		c-0.036,0.218-0.084,0.433-0.133,0.647c-0.12,0.512-0.267,1.017-0.458,1.51C102.278,716.402,94.98,720.718,86.311,720.718z"/>
</g>
<g>
	<ellipse fill="#D58A90" cx="409.626" cy="691.259" rx="2.484" ry="4.957"/>
	<ellipse fill="#D58A90" cx="437.474" cy="691.259" rx="2.484" ry="4.957"/>
	<path fill="#D58A90" d="M442.036,657.537c0.92,0.249,1.9,0.407,2.922,0.407c5.154,0,9.33-3.939,9.33-3.939s-4.176-3.939-9.33-3.939
		c-1.493,0-2.899,0.336-4.151,0.806c2.503-2.991,3.993-6.645,3.993-10.599c0-2.485-2.015-4.5-4.5-4.5s-4.5,2.015-4.5,4.5
		c0,5.091-5.495,9.232-12.25,9.232c-6.641,0-12.25-4.228-12.25-9.232c0-2.485-2.015-4.5-4.5-4.5s-4.5,2.015-4.5,4.5
		c0,3.954,1.49,7.607,3.992,10.598c-1.251-0.47-2.657-0.805-4.149-0.805c-5.153,0-9.331,3.939-9.331,3.939s4.178,3.939,9.331,3.939
		c1.021,0,2.002-0.159,2.922-0.407c-4.73,4.733-7.66,11.267-7.66,18.472c0,5.21,1.541,10.063,4.18,14.144
		c-0.012,0.226-0.022,0.451-0.022,0.679c0,9.422,9.864,17.088,21.988,17.088c12.125,0,21.99-7.666,21.99-17.088
		c0-0.228-0.011-0.453-0.022-0.679c2.639-4.081,4.179-8.934,4.179-14.144C449.696,668.805,446.767,662.271,442.036,657.537z
		 M423.55,704.919c-8.669,0-15.966-4.314-18.24-10.204l0,0c-0.19-0.493-0.338-0.999-0.458-1.512
		c-0.05-0.214-0.098-0.429-0.133-0.646c-0.028-0.164-0.053-0.328-0.073-0.493c-0.048-0.407-0.084-0.817-0.084-1.233
		c0-7.779,8.502-14.086,18.988-14.086c10.488,0,18.99,6.307,18.99,14.086c0,0.416-0.036,0.826-0.084,1.233
		c-0.021,0.165-0.045,0.329-0.073,0.493c-0.035,0.217-0.083,0.432-0.133,0.646c-0.12,0.513-0.268,1.019-0.458,1.512l0,0
		C439.518,700.604,432.22,704.919,423.55,704.919z"/>
</g>
<g>
	<ellipse fill="#D58A90" cx="560.119" cy="704.895" rx="1.898" ry="3.785"/>
	<ellipse fill="#D58A90" cx="581.384" cy="704.895" rx="1.897" ry="3.785"/>
	<path fill="#D58A90" d="M584.868,679.146c0.703,0.189,1.451,0.311,2.231,0.311c3.935,0,7.124-3.008,7.124-3.008
		s-3.189-3.009-7.124-3.009c-1.141,0-2.215,0.256-3.171,0.615c1.911-2.283,3.05-5.073,3.05-8.093c0-1.898-1.539-3.437-3.437-3.437
		s-3.437,1.538-3.437,3.437c0,3.82-4.283,7.049-9.354,7.049c-5.071,0-9.354-3.229-9.354-7.049c0-1.898-1.539-3.437-3.437-3.437
		s-3.437,1.538-3.437,3.437c0,3.019,1.139,5.809,3.049,8.093c-0.955-0.359-2.028-0.615-3.169-0.615
		c-3.935,0-7.125,3.009-7.125,3.009s3.19,3.008,7.125,3.008c0.779,0,1.528-0.121,2.23-0.311c-3.612,3.614-5.849,8.603-5.849,14.104
		c0,3.98,1.19,7.678,3.208,10.794c-0.009,0.176-0.034,0.349-0.034,0.526c0,7.194,7.532,13.048,16.792,13.048
		c9.258,0,16.791-5.854,16.791-13.048c0-0.178-0.025-0.351-0.034-0.526c2.017-3.116,3.208-6.813,3.208-10.794
		C590.717,687.748,588.48,682.76,584.868,679.146z M570.752,715.326c-6.649,0-12.239-3.324-13.95-7.851
		c-0.136-0.357-0.242-0.725-0.33-1.096c-0.037-0.164-0.074-0.329-0.102-0.496c-0.021-0.124-0.04-0.248-0.055-0.374
		c-0.037-0.311-0.064-0.623-0.064-0.94c0-5.941,6.492-10.757,14.501-10.757c8.008,0,14.5,4.815,14.5,10.757
		c0,0.317-0.027,0.631-0.064,0.941c-0.015,0.125-0.033,0.249-0.055,0.373c-0.027,0.167-0.064,0.332-0.103,0.497
		c-0.087,0.371-0.193,0.736-0.329,1.095C582.99,712.002,577.4,715.326,570.752,715.326z"/>
</g>
<g>
	<path fill="#70B7E7" d="M137.284,802.463v51.754h-9.183v-51.754H137.284z"/>
	<path fill="#70B7E7" d="M146.565,831.652c1.378-2.317,3.323-4.143,5.838-5.478c2.514-1.333,5.368-2,8.56-2
		c3.192,0,6.002,0.667,8.429,2c2.427,1.335,4.296,3.16,5.608,5.478c1.312,2.318,1.968,4.942,1.968,7.871
		c0,2.931-0.656,5.575-1.968,7.937c-1.312,2.361-3.182,4.21-5.608,5.543c-2.427,1.334-5.28,2.001-8.56,2.001
		c-3.193,0-6.024-0.623-8.495-1.87c-2.471-1.246-4.395-3.027-5.772-5.346c-1.377-2.316-2.066-5.072-2.066-8.265
		C144.5,836.595,145.188,833.971,146.565,831.652z M155.716,845.263c1.312,1.51,2.974,2.264,4.985,2.264
		c2.099,0,3.793-0.743,5.083-2.23c1.29-1.486,1.935-3.389,1.935-5.707c0-2.316-0.646-4.219-1.935-5.707
		c-1.29-1.485-2.984-2.229-5.083-2.229c-2.012,0-3.673,0.755-4.985,2.263c-1.312,1.509-1.968,3.4-1.968,5.674
		C153.748,841.864,154.404,843.755,155.716,845.263z"/>
	<path fill="#70B7E7" d="M195.926,842.278l-2.559,1.902v10.036h-9.183v-51.754h9.183v32.403l13.644-10.035l5.575,4.919
		l-10.167,7.675l11.217,16.792h-10.692L195.926,842.278z"/>
	<path fill="#70B7E7" d="M229.181,802.463v51.754h-9.183v-51.754H229.181z"/>
	<path fill="#70B7E7" d="M269.456,825.552v28.665h-9.183v-3.542c-2.755,2.887-5.948,4.329-9.577,4.329
		c-4.242,0-7.686-1.268-10.331-3.805c-2.646-2.535-3.968-6.297-3.968-11.282c0-3.148,0.645-5.914,1.935-8.297
		c1.289-2.383,3.006-4.231,5.149-5.543c2.142-1.313,4.438-1.969,6.888-1.969c2.536,0,4.547,0.384,6.035,1.148
		c1.486,0.766,2.798,1.848,3.936,3.247l0.59-2.952H269.456z M260.273,843.196v-7.018c-0.525-1.399-1.433-2.515-2.722-3.346
		c-1.291-0.83-2.811-1.246-4.559-1.246c-2.012,0-3.729,0.744-5.149,2.23c-1.422,1.486-2.132,3.367-2.132,5.641
		c0,1.487,0.349,2.854,1.049,4.1c0.699,1.246,1.628,2.221,2.788,2.919c1.158,0.7,2.416,1.05,3.772,1.05
		C256.511,847.526,258.83,846.083,260.273,843.196z"/>
	<path fill="#70B7E7" d="M290.643,842.278l-2.559,1.902v10.036h-9.183v-51.754h9.183v32.403l13.644-10.035l5.575,4.919
		l-10.167,7.675l11.217,16.792h-10.692L290.643,842.278z"/>
</g>
<g>
	<path fill="#70B7E7" d="M541.395,796.362v51.754h-9.184v-51.754H541.395z"/>
	<path fill="#70B7E7" d="M610.418,836.179l-2.559,1.901v10.036h-9.184v-51.754h9.184v32.404l13.644-10.037l5.575,4.92l-10.167,7.675
		l11.217,16.792h-10.692L610.418,836.179z"/>
	<path fill="#70B7E7" d="M643.673,796.362v51.754h-9.183v-51.754H643.673z"/>
	<path fill="#70B7E7" d="M683.947,819.452v28.664h-9.183v-3.542c-2.755,2.886-5.948,4.329-9.577,4.329
		c-4.242,0-7.686-1.268-10.331-3.805c-2.646-2.535-3.968-6.297-3.968-11.282c0-3.148,0.645-5.913,1.935-8.298
		c1.289-2.383,3.006-4.23,5.149-5.543c2.142-1.311,4.438-1.967,6.887-1.967c2.536,0,4.548,0.383,6.035,1.147
		c1.486,0.766,2.798,1.849,3.936,3.247l0.59-2.951H683.947z M674.765,837.097v-7.02c-0.524-1.398-1.433-2.514-2.722-3.345
		c-1.291-0.83-2.811-1.246-4.56-1.246c-2.012,0-3.729,0.744-5.149,2.229c-1.422,1.488-2.131,3.368-2.131,5.642
		c0,1.487,0.349,2.854,1.049,4.1c0.699,1.247,1.629,2.22,2.787,2.919c1.158,0.7,2.416,1.05,3.772,1.05
		C671.003,841.426,673.321,839.982,674.765,837.097z"/>
	<path fill="#70B7E7" d="M705.135,836.179l-2.559,1.901v10.036h-9.184v-51.754h9.184v32.404l13.645-10.037l5.574,4.92l-10.166,7.675
		l11.217,16.792h-10.692L705.135,836.179z"/>
</g>
<g>
	<path fill="#70B7E7" d="M387.361,853.579v23.588h-4.186v-23.588H387.361z"/>
	<path fill="#70B7E7" d="M391.592,866.883c0.628-1.056,1.514-1.888,2.66-2.497c1.146-0.607,2.446-0.911,3.901-0.911
		s2.735,0.304,3.842,0.911c1.106,0.609,1.958,1.441,2.557,2.497c0.598,1.057,0.896,2.253,0.896,3.587
		c0,1.336-0.299,2.541-0.896,3.618c-0.599,1.076-1.45,1.919-2.557,2.526s-2.406,0.912-3.901,0.912c-1.455,0-2.746-0.285-3.871-0.853
		c-1.127-0.568-2.003-1.38-2.631-2.437s-0.942-2.313-0.942-3.768C390.649,869.136,390.964,867.939,391.592,866.883z
		 M395.762,873.087c0.598,0.688,1.355,1.031,2.272,1.031c0.956,0,1.729-0.34,2.316-1.018c0.588-0.677,0.882-1.544,0.882-2.601
		c0-1.056-0.294-1.923-0.882-2.601s-1.36-1.017-2.316-1.017c-0.917,0-1.675,0.344-2.272,1.031s-0.896,1.55-0.896,2.586
		S395.164,872.398,395.762,873.087z"/>
	<path fill="#70B7E7" d="M414.088,871.726l-1.166,0.867v4.574h-4.186v-23.588h4.186v14.769l6.219-4.574l2.541,2.242l-4.634,3.498
		l5.112,7.653h-4.873L414.088,871.726z"/>
	<path fill="#70B7E7" d="M429.245,853.579v23.588h-4.186v-23.588H429.245z"/>
	<path fill="#70B7E7" d="M447.602,864.103v13.064h-4.186v-1.614c-1.256,1.315-2.711,1.974-4.365,1.974
		c-1.934,0-3.503-0.578-4.709-1.734s-1.809-2.87-1.809-5.143c0-1.435,0.294-2.695,0.882-3.781s1.37-1.929,2.348-2.526
		c0.976-0.599,2.022-0.897,3.139-0.897c1.155,0,2.072,0.176,2.75,0.523c0.678,0.35,1.275,0.842,1.794,1.48l0.27-1.346H447.602z
		 M443.416,872.145v-3.198c-0.239-0.639-0.653-1.146-1.241-1.525s-1.28-0.568-2.077-0.568c-0.917,0-1.7,0.34-2.348,1.017
		c-0.647,0.679-0.972,1.535-0.972,2.571c0,0.678,0.16,1.301,0.479,1.869c0.318,0.567,0.742,1.012,1.271,1.33s1.102,0.479,1.72,0.479
		C441.701,874.118,442.758,873.46,443.416,872.145z"/>
	<path fill="#70B7E7" d="M457.258,871.726l-1.166,0.867v4.574h-4.186v-23.588h4.186v14.769l6.219-4.574l2.541,2.242l-4.634,3.498
		l5.112,7.653h-4.873L457.258,871.726z"/>
</g>
<g>
	<ellipse fill="#70B7E7" cx="72.387" cy="847.708" rx="2.485" ry="4.957"/>
	<ellipse fill="#70B7E7" cx="100.234" cy="847.708" rx="2.484" ry="4.957"/>
	<path fill="#70B7E7" d="M104.797,813.988c0.92,0.248,1.9,0.406,2.921,0.406c5.153,0,9.33-3.939,9.33-3.939s-4.177-3.939-9.33-3.939
		c-1.493,0-2.899,0.335-4.151,0.806c2.502-2.991,3.993-6.645,3.993-10.599c0-2.485-2.015-4.5-4.5-4.5s-4.5,2.015-4.5,4.5
		c0,5.005-5.61,9.232-12.25,9.232s-12.25-4.228-12.25-9.232c0-2.485-2.015-4.5-4.5-4.5s-4.5,2.015-4.5,4.5
		c0,3.954,1.49,7.607,3.993,10.598c-1.251-0.47-2.658-0.805-4.151-0.805c-5.152,0-9.33,3.939-9.33,3.939s4.178,3.939,9.33,3.939
		c1.021,0,2.001-0.158,2.921-0.406c-4.729,4.733-7.658,11.266-7.658,18.47c0,5.211,1.54,10.063,4.179,14.144
		c-0.012,0.226-0.022,0.452-0.022,0.68c0,9.422,9.864,17.088,21.989,17.088s21.989-7.666,21.989-17.088
		c0-0.228-0.011-0.454-0.022-0.68c2.639-4.08,4.179-8.933,4.179-14.144C112.456,825.254,109.527,818.722,104.797,813.988z
		 M86.311,861.369c-8.67,0-15.967-4.315-18.242-10.205c-0.19-0.493-0.337-0.998-0.458-1.51c-0.049-0.215-0.097-0.43-0.133-0.647
		c-0.028-0.163-0.053-0.327-0.073-0.492c-0.048-0.407-0.084-0.817-0.084-1.233c0-7.78,8.502-14.086,18.989-14.086
		s18.989,6.306,18.989,14.086c0,0.416-0.036,0.826-0.084,1.233c-0.02,0.165-0.045,0.329-0.073,0.492
		c-0.036,0.218-0.084,0.433-0.133,0.647c-0.12,0.512-0.267,1.017-0.458,1.51C102.278,857.054,94.98,861.369,86.311,861.369z"/>
</g>
<g>
	<ellipse fill="#70B7E7" cx="409.626" cy="831.91" rx="2.484" ry="4.957"/>
	<ellipse fill="#70B7E7" cx="437.474" cy="831.91" rx="2.484" ry="4.957"/>
	<path fill="#70B7E7" d="M442.036,798.188c0.92,0.249,1.9,0.407,2.922,0.407c5.154,0,9.33-3.939,9.33-3.939s-4.176-3.939-9.33-3.939
		c-1.493,0-2.899,0.336-4.151,0.806c2.503-2.991,3.993-6.645,3.993-10.599c0-2.485-2.015-4.5-4.5-4.5s-4.5,2.015-4.5,4.5
		c0,5.091-5.495,9.232-12.25,9.232c-6.641,0-12.25-4.228-12.25-9.232c0-2.485-2.015-4.5-4.5-4.5s-4.5,2.015-4.5,4.5
		c0,3.954,1.49,7.607,3.992,10.598c-1.251-0.47-2.657-0.805-4.149-0.805c-5.153,0-9.331,3.939-9.331,3.939s4.178,3.939,9.331,3.939
		c1.021,0,2.002-0.159,2.922-0.407c-4.73,4.733-7.66,11.267-7.66,18.472c0,5.21,1.541,10.063,4.18,14.144
		c-0.012,0.226-0.022,0.451-0.022,0.679c0,9.422,9.864,17.088,21.988,17.088c12.125,0,21.99-7.666,21.99-17.088
		c0-0.228-0.011-0.453-0.022-0.679c2.639-4.081,4.179-8.934,4.179-14.144C449.696,809.456,446.767,802.923,442.036,798.188z
		 M423.55,845.57c-8.669,0-15.966-4.314-18.24-10.204l0,0c-0.19-0.493-0.338-0.999-0.458-1.512c-0.05-0.214-0.098-0.429-0.133-0.646
		c-0.028-0.164-0.053-0.328-0.073-0.493c-0.048-0.407-0.084-0.817-0.084-1.233c0-7.779,8.502-14.086,18.988-14.086
		c10.488,0,18.99,6.307,18.99,14.086c0,0.416-0.036,0.826-0.084,1.233c-0.021,0.165-0.045,0.329-0.073,0.493
		c-0.035,0.217-0.083,0.432-0.133,0.646c-0.12,0.513-0.268,1.019-0.458,1.512l0,0C439.518,841.256,432.22,845.57,423.55,845.57z"/>
</g>
<g>
	<ellipse fill="#70B7E7" cx="560.119" cy="845.546" rx="1.898" ry="3.785"/>
	<ellipse fill="#70B7E7" cx="581.384" cy="845.546" rx="1.897" ry="3.785"/>
	<path fill="#70B7E7" d="M584.868,819.797c0.703,0.189,1.451,0.311,2.231,0.311c3.935,0,7.124-3.008,7.124-3.008
		s-3.189-3.009-7.124-3.009c-1.141,0-2.215,0.256-3.171,0.615c1.911-2.283,3.05-5.073,3.05-8.093c0-1.898-1.539-3.437-3.437-3.437
		s-3.437,1.538-3.437,3.437c0,3.82-4.283,7.049-9.354,7.049c-5.071,0-9.354-3.229-9.354-7.049c0-1.898-1.539-3.437-3.437-3.437
		s-3.437,1.538-3.437,3.437c0,3.019,1.139,5.809,3.049,8.093c-0.955-0.359-2.028-0.615-3.169-0.615
		c-3.935,0-7.125,3.009-7.125,3.009s3.19,3.008,7.125,3.008c0.779,0,1.528-0.121,2.23-0.311c-3.612,3.614-5.849,8.603-5.849,14.104
		c0,3.98,1.19,7.678,3.208,10.794c-0.009,0.176-0.034,0.349-0.034,0.526c0,7.194,7.532,13.048,16.792,13.048
		c9.258,0,16.791-5.854,16.791-13.048c0-0.178-0.025-0.351-0.034-0.526c2.017-3.116,3.208-6.813,3.208-10.794
		C590.717,828.399,588.48,823.411,584.868,819.797z M570.752,855.978c-6.649,0-12.239-3.324-13.95-7.851
		c-0.136-0.357-0.242-0.725-0.33-1.096c-0.037-0.164-0.074-0.329-0.102-0.496c-0.021-0.124-0.04-0.248-0.055-0.374
		c-0.037-0.311-0.064-0.623-0.064-0.94c0-5.941,6.492-10.757,14.501-10.757c8.008,0,14.5,4.815,14.5,10.757
		c0,0.317-0.027,0.631-0.064,0.941c-0.015,0.125-0.033,0.249-0.055,0.373c-0.027,0.167-0.064,0.332-0.103,0.497
		c-0.087,0.371-0.193,0.736-0.329,1.095C582.99,852.653,577.4,855.978,570.752,855.978z"/>
</g>
<g>
	<path fill="#FFFFFF" d="M137.284,964.199v51.754h-9.183v-51.754H137.284z"/>
	<path fill="#FFFFFF" d="M146.565,993.389c1.378-2.316,3.323-4.143,5.838-5.477c2.514-1.334,5.368-2,8.56-2
		c3.192,0,6.002,0.666,8.429,2c2.427,1.334,4.296,3.16,5.608,5.477c1.312,2.318,1.968,4.943,1.968,7.871
		c0,2.932-0.656,5.576-1.968,7.938c-1.312,2.361-3.182,4.209-5.608,5.543c-2.427,1.334-5.28,2-8.56,2
		c-3.193,0-6.024-0.623-8.495-1.869c-2.471-1.246-4.395-3.027-5.772-5.346c-1.377-2.316-2.066-5.072-2.066-8.266
		C144.5,998.332,145.188,995.707,146.565,993.389z M155.716,1007c1.312,1.51,2.974,2.264,4.985,2.264
		c2.099,0,3.793-0.744,5.083-2.23c1.29-1.486,1.935-3.389,1.935-5.707c0-2.316-0.646-4.219-1.935-5.707
		c-1.29-1.486-2.984-2.23-5.083-2.23c-2.012,0-3.673,0.756-4.985,2.264c-1.312,1.508-1.968,3.4-1.968,5.674
		C153.748,1003.602,154.404,1005.492,155.716,1007z"/>
	<path fill="#FFFFFF" d="M195.926,1004.016l-2.559,1.902v10.035h-9.183v-51.754h9.183v32.404l13.644-10.035l5.575,4.918
		l-10.167,7.676l11.217,16.791h-10.692L195.926,1004.016z"/>
	<path fill="#FFFFFF" d="M229.181,964.199v51.754h-9.183v-51.754H229.181z"/>
	<path fill="#FFFFFF" d="M269.456,987.289v28.664h-9.183v-3.541c-2.755,2.887-5.948,4.328-9.577,4.328
		c-4.242,0-7.686-1.268-10.331-3.805c-2.646-2.535-3.968-6.297-3.968-11.281c0-3.148,0.645-5.914,1.935-8.297
		c1.289-2.383,3.006-4.232,5.149-5.543c2.142-1.313,4.438-1.969,6.888-1.969c2.536,0,4.547,0.383,6.035,1.148
		c1.486,0.766,2.798,1.848,3.936,3.246l0.59-2.951H269.456z M260.273,1004.934v-7.018c-0.525-1.4-1.433-2.516-2.722-3.346
		c-1.291-0.83-2.811-1.246-4.559-1.246c-2.012,0-3.729,0.744-5.149,2.23c-1.422,1.486-2.132,3.367-2.132,5.641
		c0,1.486,0.349,2.854,1.049,4.1c0.699,1.246,1.628,2.221,2.788,2.918c1.158,0.701,2.416,1.051,3.772,1.051
		C256.511,1009.264,258.83,1007.82,260.273,1004.934z"/>
	<path fill="#FFFFFF" d="M290.643,1004.016l-2.559,1.902v10.035h-9.183v-51.754h9.183v32.404l13.644-10.035l5.575,4.918
		l-10.167,7.676l11.217,16.791h-10.692L290.643,1004.016z"/>
</g>
<g>
	<path fill="#FFFFFF" d="M541.395,958.1v51.754h-9.184V958.1H541.395z"/>
	<path fill="#FFFFFF" d="M610.418,997.916l-2.559,1.9v10.037h-9.184V958.1h9.184v32.404l13.644-10.037l5.575,4.92l-10.167,7.674
		l11.217,16.793h-10.692L610.418,997.916z"/>
	<path fill="#FFFFFF" d="M643.673,958.1v51.754h-9.183V958.1H643.673z"/>
	<path fill="#FFFFFF" d="M683.947,981.189v28.664h-9.183v-3.543c-2.755,2.887-5.948,4.33-9.577,4.33
		c-4.242,0-7.686-1.268-10.331-3.805c-2.646-2.535-3.968-6.297-3.968-11.283c0-3.148,0.645-5.912,1.935-8.297
		c1.289-2.383,3.006-4.23,5.149-5.543c2.142-1.311,4.438-1.967,6.887-1.967c2.536,0,4.548,0.383,6.035,1.146
		c1.486,0.766,2.798,1.85,3.936,3.248l0.59-2.951H683.947z M674.765,998.834v-7.02c-0.524-1.398-1.433-2.514-2.722-3.346
		c-1.291-0.83-2.811-1.246-4.56-1.246c-2.012,0-3.729,0.744-5.149,2.23c-1.422,1.488-2.131,3.367-2.131,5.641
		c0,1.488,0.349,2.854,1.049,4.1c0.699,1.248,1.629,2.221,2.787,2.92s2.416,1.049,3.772,1.049
		C671.003,1003.162,673.321,1001.719,674.765,998.834z"/>
	<path fill="#FFFFFF" d="M705.135,997.916l-2.559,1.9v10.037h-9.184V958.1h9.184v32.404l13.645-10.037l5.574,4.92l-10.166,7.674
		l11.217,16.793h-10.692L705.135,997.916z"/>
</g>
<g>
	<path fill="#FFFFFF" d="M387.361,1015.316v23.588h-4.186v-23.588H387.361z"/>
	<path fill="#FFFFFF" d="M391.592,1028.619c0.628-1.055,1.514-1.887,2.66-2.496c1.146-0.607,2.446-0.912,3.901-0.912
		s2.735,0.305,3.842,0.912c1.106,0.609,1.958,1.441,2.557,2.496c0.598,1.057,0.896,2.254,0.896,3.588
		c0,1.336-0.299,2.541-0.896,3.617c-0.599,1.076-1.45,1.92-2.557,2.527s-2.406,0.912-3.901,0.912c-1.455,0-2.746-0.285-3.871-0.854
		c-1.127-0.568-2.003-1.379-2.631-2.436s-0.942-2.313-0.942-3.768C390.649,1030.873,390.964,1029.676,391.592,1028.619z
		 M395.762,1034.824c0.598,0.688,1.355,1.031,2.272,1.031c0.956,0,1.729-0.34,2.316-1.018s0.882-1.545,0.882-2.602
		c0-1.055-0.294-1.922-0.882-2.6s-1.36-1.018-2.316-1.018c-0.917,0-1.675,0.344-2.272,1.031s-0.896,1.551-0.896,2.586
		C394.865,1033.273,395.164,1034.135,395.762,1034.824z"/>
	<path fill="#FFFFFF" d="M414.088,1033.463l-1.166,0.867v4.574h-4.186v-23.588h4.186v14.768l6.219-4.574l2.541,2.242l-4.634,3.498
		l5.112,7.654h-4.873L414.088,1033.463z"/>
	<path fill="#FFFFFF" d="M429.245,1015.316v23.588h-4.186v-23.588H429.245z"/>
	<path fill="#FFFFFF" d="M447.602,1025.84v13.064h-4.186v-1.615c-1.256,1.316-2.711,1.975-4.365,1.975
		c-1.934,0-3.503-0.578-4.709-1.734s-1.809-2.871-1.809-5.143c0-1.436,0.294-2.695,0.882-3.781s1.37-1.93,2.348-2.527
		c0.976-0.598,2.022-0.896,3.139-0.896c1.155,0,2.072,0.176,2.75,0.523c0.678,0.35,1.275,0.842,1.794,1.48l0.27-1.346H447.602z
		 M443.416,1033.881v-3.197c-0.239-0.639-0.653-1.146-1.241-1.525s-1.28-0.568-2.077-0.568c-0.917,0-1.7,0.34-2.348,1.016
		c-0.647,0.68-0.972,1.535-0.972,2.572c0,0.678,0.16,1.301,0.479,1.869c0.318,0.566,0.742,1.012,1.271,1.33s1.102,0.479,1.72,0.479
		C441.701,1035.855,442.758,1035.197,443.416,1033.881z"/>
	<path fill="#FFFFFF" d="M457.258,1033.463l-1.166,0.867v4.574h-4.186v-23.588h4.186v14.768l6.219-4.574l2.541,2.242l-4.634,3.498
		l5.112,7.654h-4.873L457.258,1033.463z"/>
</g>
<g>
	<ellipse fill="#FFFFFF" cx="72.387" cy="1009.445" rx="2.485" ry="4.957"/>
	<ellipse fill="#FFFFFF" cx="100.234" cy="1009.445" rx="2.484" ry="4.957"/>
	<path fill="#FFFFFF" d="M104.797,975.725c0.92,0.248,1.9,0.406,2.921,0.406c5.153,0,9.33-3.939,9.33-3.939s-4.177-3.939-9.33-3.939
		c-1.493,0-2.899,0.336-4.151,0.807c2.502-2.992,3.993-6.645,3.993-10.6c0-2.484-2.015-4.5-4.5-4.5s-4.5,2.016-4.5,4.5
		c0,5.006-5.61,9.232-12.25,9.232s-12.25-4.227-12.25-9.232c0-2.484-2.015-4.5-4.5-4.5s-4.5,2.016-4.5,4.5
		c0,3.955,1.49,7.607,3.993,10.598c-1.251-0.469-2.658-0.805-4.151-0.805c-5.152,0-9.33,3.939-9.33,3.939s4.178,3.939,9.33,3.939
		c1.021,0,2.001-0.158,2.921-0.406c-4.729,4.734-7.658,11.266-7.658,18.471c0,5.211,1.54,10.063,4.179,14.143
		c-0.012,0.227-0.022,0.453-0.022,0.68c0,9.422,9.864,17.088,21.989,17.088s21.989-7.666,21.989-17.088
		c0-0.227-0.011-0.453-0.022-0.68c2.639-4.08,4.179-8.932,4.179-14.143C112.456,986.99,109.527,980.459,104.797,975.725z
		 M86.311,1023.105c-8.67,0-15.967-4.314-18.242-10.205c-0.19-0.492-0.337-0.998-0.458-1.51c-0.049-0.215-0.097-0.43-0.133-0.646
		c-0.028-0.164-0.053-0.328-0.073-0.492c-0.048-0.408-0.084-0.818-0.084-1.234c0-7.779,8.502-14.086,18.989-14.086
		s18.989,6.307,18.989,14.086c0,0.416-0.036,0.826-0.084,1.234c-0.02,0.164-0.045,0.328-0.073,0.492
		c-0.036,0.217-0.084,0.432-0.133,0.646c-0.12,0.512-0.267,1.018-0.458,1.51C102.278,1018.791,94.98,1023.105,86.311,1023.105z"/>
</g>
<g>
	<ellipse fill="#FFFFFF" cx="409.626" cy="993.646" rx="2.484" ry="4.957"/>
	<ellipse fill="#FFFFFF" cx="437.474" cy="993.646" rx="2.484" ry="4.957"/>
	<path fill="#FFFFFF" d="M442.036,959.926c0.92,0.248,1.9,0.406,2.922,0.406c5.154,0,9.33-3.939,9.33-3.939s-4.176-3.939-9.33-3.939
		c-1.493,0-2.899,0.336-4.151,0.807c2.503-2.992,3.993-6.645,3.993-10.6c0-2.484-2.015-4.5-4.5-4.5s-4.5,2.016-4.5,4.5
		c0,5.092-5.495,9.232-12.25,9.232c-6.641,0-12.25-4.227-12.25-9.232c0-2.484-2.015-4.5-4.5-4.5s-4.5,2.016-4.5,4.5
		c0,3.955,1.49,7.607,3.992,10.598c-1.251-0.469-2.657-0.805-4.149-0.805c-5.153,0-9.331,3.939-9.331,3.939s4.178,3.939,9.331,3.939
		c1.021,0,2.002-0.158,2.922-0.406c-4.73,4.732-7.66,11.266-7.66,18.471c0,5.211,1.541,10.064,4.18,14.145
		c-0.012,0.225-0.022,0.451-0.022,0.678c0,9.422,9.864,17.088,21.988,17.088c12.125,0,21.99-7.666,21.99-17.088
		c0-0.227-0.011-0.453-0.022-0.678c2.639-4.082,4.179-8.934,4.179-14.145C449.696,971.193,446.767,964.66,442.036,959.926z
		 M423.55,1007.307c-8.669,0-15.966-4.314-18.24-10.203l0,0c-0.19-0.494-0.338-1-0.458-1.512c-0.05-0.215-0.098-0.43-0.133-0.646
		c-0.028-0.164-0.053-0.328-0.073-0.492c-0.048-0.408-0.084-0.818-0.084-1.234c0-7.779,8.502-14.086,18.988-14.086
		c10.488,0,18.99,6.307,18.99,14.086c0,0.416-0.036,0.826-0.084,1.234c-0.021,0.164-0.045,0.328-0.073,0.492
		c-0.035,0.217-0.083,0.432-0.133,0.646c-0.12,0.512-0.268,1.018-0.458,1.512l0,0C439.518,1002.992,432.22,1007.307,423.55,1007.307
		z"/>
</g>
<g>
	<ellipse fill="#FFFFFF" cx="560.119" cy="1007.283" rx="1.898" ry="3.785"/>
	<ellipse fill="#FFFFFF" cx="581.384" cy="1007.283" rx="1.897" ry="3.785"/>
	<path fill="#FFFFFF" d="M584.868,981.533c0.703,0.189,1.451,0.311,2.231,0.311c3.935,0,7.124-3.008,7.124-3.008
		s-3.189-3.008-7.124-3.008c-1.141,0-2.215,0.256-3.171,0.615c1.911-2.283,3.05-5.074,3.05-8.094c0-1.898-1.539-3.436-3.437-3.436
		s-3.437,1.537-3.437,3.436c0,3.82-4.283,7.049-9.354,7.049c-5.071,0-9.354-3.229-9.354-7.049c0-1.898-1.539-3.436-3.437-3.436
		s-3.437,1.537-3.437,3.436c0,3.02,1.139,5.809,3.049,8.094c-0.955-0.359-2.028-0.615-3.169-0.615c-3.935,0-7.125,3.008-7.125,3.008
		s3.19,3.008,7.125,3.008c0.779,0,1.528-0.121,2.23-0.311c-3.612,3.615-5.849,8.604-5.849,14.104c0,3.98,1.19,7.678,3.208,10.795
		c-0.009,0.176-0.034,0.348-0.034,0.525c0,7.195,7.532,13.049,16.792,13.049c9.258,0,16.791-5.854,16.791-13.049
		c0-0.178-0.025-0.35-0.034-0.525c2.017-3.117,3.208-6.814,3.208-10.795C590.717,990.137,588.48,985.148,584.868,981.533z
		 M570.752,1017.715c-6.649,0-12.239-3.324-13.95-7.852c-0.136-0.357-0.242-0.725-0.33-1.096c-0.037-0.164-0.074-0.328-0.102-0.496
		c-0.021-0.123-0.04-0.248-0.055-0.373c-0.037-0.311-0.064-0.623-0.064-0.941c0-5.941,6.492-10.756,14.501-10.756
		c8.008,0,14.5,4.814,14.5,10.756c0,0.318-0.027,0.631-0.064,0.941c-0.015,0.125-0.033,0.25-0.055,0.373
		c-0.027,0.168-0.064,0.332-0.103,0.498c-0.087,0.371-0.193,0.736-0.329,1.094C582.99,1014.391,577.4,1017.715,570.752,1017.715z"/>
</g>
<rect y="1065" fill="#D58A90" width="792" height="152.576"/>
<g>
	<g>
		<path fill="#FFFFFF" d="M137.284,1116.775v51.754h-9.183v-51.754H137.284z"/>
		<path fill="#FFFFFF" d="M146.565,1145.965c1.378-2.316,3.323-4.143,5.838-5.477c2.514-1.334,5.368-2,8.56-2
			c3.192,0,6.002,0.666,8.429,2c2.427,1.334,4.296,3.16,5.608,5.477c1.312,2.318,1.968,4.943,1.968,7.871
			c0,2.932-0.656,5.576-1.968,7.938c-1.312,2.361-3.182,4.209-5.608,5.543c-2.427,1.334-5.28,2-8.56,2
			c-3.193,0-6.024-0.623-8.495-1.869c-2.471-1.246-4.395-3.027-5.772-5.346c-1.377-2.316-2.066-5.072-2.066-8.266
			C144.5,1150.908,145.188,1148.283,146.565,1145.965z M155.716,1159.576c1.312,1.51,2.974,2.264,4.985,2.264
			c2.099,0,3.793-0.744,5.083-2.23c1.29-1.486,1.935-3.389,1.935-5.707c0-2.316-0.646-4.219-1.935-5.707
			c-1.29-1.486-2.984-2.23-5.083-2.23c-2.012,0-3.673,0.756-4.985,2.264c-1.312,1.508-1.968,3.4-1.968,5.674
			C153.748,1156.178,154.404,1158.068,155.716,1159.576z"/>
		<path fill="#FFFFFF" d="M195.926,1156.592l-2.559,1.902v10.035h-9.183v-51.754h9.183v32.404l13.644-10.035l5.575,4.918
			l-10.167,7.676l11.217,16.791h-10.692L195.926,1156.592z"/>
		<path fill="#FFFFFF" d="M229.181,1116.775v51.754h-9.183v-51.754H229.181z"/>
		<path fill="#FFFFFF" d="M269.456,1139.865v28.664h-9.183v-3.541c-2.755,2.887-5.948,4.328-9.577,4.328
			c-4.242,0-7.686-1.268-10.331-3.805c-2.646-2.535-3.968-6.297-3.968-11.281c0-3.148,0.645-5.914,1.935-8.297
			c1.289-2.383,3.006-4.232,5.149-5.543c2.142-1.313,4.438-1.969,6.888-1.969c2.536,0,4.547,0.383,6.035,1.148
			c1.486,0.766,2.798,1.848,3.936,3.246l0.59-2.951H269.456z M260.273,1157.51v-7.018c-0.525-1.4-1.433-2.516-2.722-3.346
			c-1.291-0.83-2.811-1.246-4.559-1.246c-2.012,0-3.729,0.744-5.149,2.23c-1.422,1.486-2.132,3.367-2.132,5.641
			c0,1.486,0.349,2.854,1.049,4.1c0.699,1.246,1.628,2.221,2.788,2.918c1.158,0.701,2.416,1.051,3.772,1.051
			C256.511,1161.84,258.83,1160.396,260.273,1157.51z"/>
		<path fill="#FFFFFF" d="M290.643,1156.592l-2.559,1.902v10.035h-9.183v-51.754h9.183v32.404l13.644-10.035l5.575,4.918
			l-10.167,7.676l11.217,16.791h-10.692L290.643,1156.592z"/>
	</g>
	<g>
		<path fill="#FFFFFF" d="M541.395,1110.676v51.754h-9.184v-51.754H541.395z"/>
		<path fill="#FFFFFF" d="M610.418,1150.492l-2.559,1.9v10.037h-9.184v-51.754h9.184v32.404l13.644-10.037l5.575,4.92l-10.167,7.674
			l11.217,16.793h-10.692L610.418,1150.492z"/>
		<path fill="#FFFFFF" d="M643.673,1110.676v51.754h-9.183v-51.754H643.673z"/>
		<path fill="#FFFFFF" d="M683.947,1133.766v28.664h-9.183v-3.543c-2.755,2.887-5.948,4.33-9.577,4.33
			c-4.242,0-7.686-1.268-10.331-3.805c-2.646-2.535-3.968-6.297-3.968-11.283c0-3.148,0.645-5.912,1.935-8.297
			c1.289-2.383,3.006-4.23,5.149-5.543c2.142-1.311,4.438-1.967,6.887-1.967c2.536,0,4.548,0.383,6.035,1.146
			c1.486,0.766,2.798,1.85,3.936,3.248l0.59-2.951H683.947z M674.765,1151.41v-7.02c-0.524-1.398-1.433-2.514-2.722-3.346
			c-1.291-0.83-2.811-1.246-4.56-1.246c-2.012,0-3.729,0.744-5.149,2.23c-1.422,1.488-2.131,3.367-2.131,5.641
			c0,1.488,0.349,2.854,1.049,4.1c0.699,1.248,1.629,2.221,2.787,2.92s2.416,1.049,3.772,1.049
			C671.003,1155.738,673.321,1154.295,674.765,1151.41z"/>
		<path fill="#FFFFFF" d="M705.135,1150.492l-2.559,1.9v10.037h-9.184v-51.754h9.184v32.404l13.645-10.037l5.574,4.92l-10.166,7.674
			l11.217,16.793h-10.692L705.135,1150.492z"/>
	</g>
	<g>
		<path fill="#FFFFFF" d="M387.361,1167.893v23.588h-4.186v-23.588H387.361z"/>
		<path fill="#FFFFFF" d="M391.592,1181.195c0.628-1.055,1.514-1.887,2.66-2.496c1.146-0.607,2.446-0.912,3.901-0.912
			s2.735,0.305,3.842,0.912c1.106,0.609,1.958,1.441,2.557,2.496c0.598,1.057,0.896,2.254,0.896,3.588
			c0,1.336-0.299,2.541-0.896,3.617c-0.599,1.076-1.45,1.92-2.557,2.527s-2.406,0.912-3.901,0.912c-1.455,0-2.746-0.285-3.871-0.854
			c-1.127-0.568-2.003-1.379-2.631-2.436s-0.942-2.313-0.942-3.768C390.649,1183.449,390.964,1182.252,391.592,1181.195z
			 M395.762,1187.4c0.598,0.688,1.355,1.031,2.272,1.031c0.956,0,1.729-0.34,2.316-1.018s0.882-1.545,0.882-2.602
			c0-1.055-0.294-1.922-0.882-2.6s-1.36-1.018-2.316-1.018c-0.917,0-1.675,0.344-2.272,1.031s-0.896,1.551-0.896,2.586
			C394.865,1185.85,395.164,1186.711,395.762,1187.4z"/>
		<path fill="#FFFFFF" d="M414.088,1186.039l-1.166,0.867v4.574h-4.186v-23.588h4.186v14.768l6.219-4.574l2.541,2.242l-4.634,3.498
			l5.112,7.654h-4.873L414.088,1186.039z"/>
		<path fill="#FFFFFF" d="M429.245,1167.893v23.588h-4.186v-23.588H429.245z"/>
		<path fill="#FFFFFF" d="M447.602,1178.416v13.064h-4.186v-1.615c-1.256,1.316-2.711,1.975-4.365,1.975
			c-1.934,0-3.503-0.578-4.709-1.734s-1.809-2.871-1.809-5.143c0-1.436,0.294-2.695,0.882-3.781s1.37-1.93,2.348-2.527
			c0.976-0.598,2.022-0.896,3.139-0.896c1.155,0,2.072,0.176,2.75,0.523c0.678,0.35,1.275,0.842,1.794,1.48l0.27-1.346H447.602z
			 M443.416,1186.457v-3.197c-0.239-0.639-0.653-1.146-1.241-1.525s-1.28-0.568-2.077-0.568c-0.917,0-1.7,0.34-2.348,1.016
			c-0.647,0.68-0.972,1.535-0.972,2.572c0,0.678,0.16,1.301,0.479,1.869c0.318,0.566,0.742,1.012,1.271,1.33s1.102,0.479,1.72,0.479
			C441.701,1188.432,442.758,1187.773,443.416,1186.457z"/>
		<path fill="#FFFFFF" d="M457.258,1186.039l-1.166,0.867v4.574h-4.186v-23.588h4.186v14.768l6.219-4.574l2.541,2.242l-4.634,3.498
			l5.112,7.654h-4.873L457.258,1186.039z"/>
	</g>
	<g>
		<ellipse fill="#FFFFFF" cx="72.387" cy="1162.021" rx="2.485" ry="4.957"/>
		<ellipse fill="#FFFFFF" cx="100.234" cy="1162.021" rx="2.484" ry="4.957"/>
		<path fill="#FFFFFF" d="M104.797,1128.301c0.92,0.248,1.9,0.406,2.921,0.406c5.153,0,9.33-3.939,9.33-3.939
			s-4.177-3.939-9.33-3.939c-1.493,0-2.899,0.336-4.151,0.807c2.502-2.992,3.993-6.645,3.993-10.6c0-2.484-2.015-4.5-4.5-4.5
			s-4.5,2.016-4.5,4.5c0,5.006-5.61,9.232-12.25,9.232s-12.25-4.227-12.25-9.232c0-2.484-2.015-4.5-4.5-4.5s-4.5,2.016-4.5,4.5
			c0,3.955,1.49,7.607,3.993,10.598c-1.251-0.469-2.658-0.805-4.151-0.805c-5.152,0-9.33,3.939-9.33,3.939s4.178,3.939,9.33,3.939
			c1.021,0,2.001-0.158,2.921-0.406c-4.729,4.734-7.658,11.266-7.658,18.471c0,5.211,1.54,10.063,4.179,14.143
			c-0.012,0.227-0.022,0.453-0.022,0.68c0,9.422,9.864,17.088,21.989,17.088s21.989-7.666,21.989-17.088
			c0-0.227-0.011-0.453-0.022-0.68c2.639-4.08,4.179-8.932,4.179-14.143C112.456,1139.566,109.527,1133.035,104.797,1128.301z
			 M86.311,1175.682c-8.67,0-15.967-4.314-18.242-10.205c-0.19-0.492-0.337-0.998-0.458-1.51c-0.049-0.215-0.097-0.43-0.133-0.646
			c-0.028-0.164-0.053-0.328-0.073-0.492c-0.048-0.408-0.084-0.818-0.084-1.234c0-7.779,8.502-14.086,18.989-14.086
			s18.989,6.307,18.989,14.086c0,0.416-0.036,0.826-0.084,1.234c-0.02,0.164-0.045,0.328-0.073,0.492
			c-0.036,0.217-0.084,0.432-0.133,0.646c-0.12,0.512-0.267,1.018-0.458,1.51C102.278,1171.367,94.98,1175.682,86.311,1175.682z"/>
	</g>
	<g>
		<ellipse fill="#FFFFFF" cx="409.626" cy="1146.223" rx="2.484" ry="4.957"/>
		<ellipse fill="#FFFFFF" cx="437.474" cy="1146.223" rx="2.484" ry="4.957"/>
		<path fill="#FFFFFF" d="M442.036,1112.502c0.92,0.248,1.9,0.406,2.922,0.406c5.154,0,9.33-3.939,9.33-3.939
			s-4.176-3.939-9.33-3.939c-1.493,0-2.899,0.336-4.151,0.807c2.503-2.992,3.993-6.645,3.993-10.6c0-2.484-2.015-4.5-4.5-4.5
			s-4.5,2.016-4.5,4.5c0,5.092-5.495,9.232-12.25,9.232c-6.641,0-12.25-4.227-12.25-9.232c0-2.484-2.015-4.5-4.5-4.5
			s-4.5,2.016-4.5,4.5c0,3.955,1.49,7.607,3.992,10.598c-1.251-0.469-2.657-0.805-4.149-0.805c-5.153,0-9.331,3.939-9.331,3.939
			s4.178,3.939,9.331,3.939c1.021,0,2.002-0.158,2.922-0.406c-4.73,4.732-7.66,11.266-7.66,18.471c0,5.211,1.541,10.064,4.18,14.145
			c-0.012,0.225-0.022,0.451-0.022,0.678c0,9.422,9.864,17.088,21.988,17.088c12.125,0,21.99-7.666,21.99-17.088
			c0-0.227-0.011-0.453-0.022-0.678c2.639-4.082,4.179-8.934,4.179-14.145C449.696,1123.77,446.767,1117.236,442.036,1112.502z
			 M423.55,1159.883c-8.669,0-15.966-4.314-18.24-10.203l0,0c-0.19-0.494-0.338-1-0.458-1.512c-0.05-0.215-0.098-0.43-0.133-0.646
			c-0.028-0.164-0.053-0.328-0.073-0.492c-0.048-0.408-0.084-0.818-0.084-1.234c0-7.779,8.502-14.086,18.988-14.086
			c10.488,0,18.99,6.307,18.99,14.086c0,0.416-0.036,0.826-0.084,1.234c-0.021,0.164-0.045,0.328-0.073,0.492
			c-0.035,0.217-0.083,0.432-0.133,0.646c-0.12,0.512-0.268,1.018-0.458,1.512l0,0
			C439.518,1155.568,432.22,1159.883,423.55,1159.883z"/>
	</g>
	<g>
		<ellipse fill="#FFFFFF" cx="560.119" cy="1159.859" rx="1.898" ry="3.785"/>
		<ellipse fill="#FFFFFF" cx="581.384" cy="1159.859" rx="1.897" ry="3.785"/>
		<path fill="#FFFFFF" d="M584.868,1134.109c0.703,0.189,1.451,0.311,2.231,0.311c3.935,0,7.124-3.008,7.124-3.008
			s-3.189-3.008-7.124-3.008c-1.141,0-2.215,0.256-3.171,0.615c1.911-2.283,3.05-5.074,3.05-8.094c0-1.898-1.539-3.436-3.437-3.436
			s-3.437,1.537-3.437,3.436c0,3.82-4.283,7.049-9.354,7.049c-5.071,0-9.354-3.229-9.354-7.049c0-1.898-1.539-3.436-3.437-3.436
			s-3.437,1.537-3.437,3.436c0,3.02,1.139,5.809,3.049,8.094c-0.955-0.359-2.028-0.615-3.169-0.615
			c-3.935,0-7.125,3.008-7.125,3.008s3.19,3.008,7.125,3.008c0.779,0,1.528-0.121,2.23-0.311c-3.612,3.615-5.849,8.604-5.849,14.104
			c0,3.98,1.19,7.678,3.208,10.795c-0.009,0.176-0.034,0.348-0.034,0.525c0,7.195,7.532,13.049,16.792,13.049
			c9.258,0,16.791-5.854,16.791-13.049c0-0.178-0.025-0.35-0.034-0.525c2.017-3.117,3.208-6.814,3.208-10.795
			C590.717,1142.713,588.48,1137.725,584.868,1134.109z M570.752,1170.291c-6.649,0-12.239-3.324-13.95-7.852
			c-0.136-0.357-0.242-0.725-0.33-1.096c-0.037-0.164-0.074-0.328-0.102-0.496c-0.021-0.123-0.04-0.248-0.055-0.373
			c-0.037-0.311-0.064-0.623-0.064-0.941c0-5.941,6.492-10.756,14.501-10.756c8.008,0,14.5,4.814,14.5,10.756
			c0,0.318-0.027,0.631-0.064,0.941c-0.015,0.125-0.033,0.25-0.055,0.373c-0.027,0.168-0.064,0.332-0.103,0.498
			c-0.087,0.371-0.193,0.736-0.329,1.094C582.99,1166.967,577.4,1170.291,570.752,1170.291z"/>
	</g>
</g>
</svg>
