<?xml version="1.0" encoding="utf-8"?>
<!-- Generator: Adobe Illustrator 16.0.0, SVG Export Plug-In . SVG Version: 6.00 Build 0)  -->
<!DOCTYPE svg PUBLIC "-//W3C//DTD SVG 1.1//EN" "http://www.w3.org/Graphics/SVG/1.1/DTD/svg11.dtd">
<svg version="1.1" id="Capa_1" xmlns="http://www.w3.org/2000/svg" xmlns:xlink="http://www.w3.org/1999/xlink" x="0px" y="0px"
	 width="304.595px" height="754.459px" viewBox="0 0 304.595 754.459" enable-background="new 0 0 304.595 754.459"
	 xml:space="preserve">
<rect y="494.972" fill="#464445" width="304.595" height="259.487"/>
<g>
	<path fill="#444242" d="M184.257,388.522c35.247,4.008,67.069-21.318,71.075-56.564c4.008-35.248-21.318-67.069-56.565-71.077
		c-0.04-0.004,0.057-0.008-0.381-0.082c-0.267-0.051-0.664-0.127-1.188-0.229c-0.819-0.168-1.931-0.37-3.263-0.566
		c-2.665-0.376-6.32-0.729-10.851-0.635c-2.626,0.054-5.557,0.254-8.74,0.65c-1.312-0.027-2.635-0.046-3.979-0.046
		c-0.888,0-1.782,0.006-2.683,0.019c-6.986,0.137-14.35,0.663-21.902,1.703c-7.55,1.054-15.276,2.689-22.959,4.873
		c-7.684,2.203-15.291,5.055-22.625,8.407l-2.737,1.285l-0.683,0.323l-0.086,0.04l-0.402,0.176l-0.154,0.083l-0.306,0.166
		l-1.229,0.662l-2.452,1.323c-0.38,0.195-0.894,0.504-1.363,0.777l-1.426,0.84l-2.827,1.688l-2.57,1.725
		c-0.846,0.582-1.715,1.13-2.53,1.74l-2.429,1.842c-6.416,4.938-12.103,10.363-17.025,15.984
		c-4.944,5.602-9.139,11.385-12.769,17.004c-3.608,5.643-6.65,11.133-9.177,16.307c-1.487,3.017-2.785,5.904-3.955,8.661
		c0.001-0.003,0.002-0.005,0.003-0.007c-0.015,0.025-0.031,0.049-0.046,0.072c-0.692,1.072-1.335,2.188-1.973,3.289
		c-0.639,1.102-1.269,2.193-1.85,3.322c-2.374,4.453-4.466,8.938-6.175,13.439c-0.882,2.232-1.628,4.494-2.38,6.691
		c-0.676,2.24-1.354,4.426-1.872,6.635l-0.406,1.637l-0.1,0.406l-0.025,0.102c0.088-0.168-0.149,0.346-0.129,0.324l-0.034,0.182
		l-0.13,0.721c-0.175,0.963-0.347,1.92-0.521,2.873c-0.379,2.133-0.878,4.441-1.102,6.447c-0.661,4.082-0.986,8.082-1.279,11.9
		c-0.307,3.82-0.34,7.521-0.42,11.037c0.008,1.766,0.009,3.49,0.062,5.176c0.008,1.682,0.081,3.328,0.146,4.932
		c0.19,3.211,0.312,6.248,0.612,9.125c0.092,1.436,0.252,2.832,0.373,4.182c0.148,1.346,0.293,2.654,0.435,3.922
		c0.608,5.051,1.212,9.393,1.794,12.951c0.556,3.559,1.047,6.332,1.387,8.223c0.342,1.896,0.525,2.908,0.525,2.908
		c0.001,0.004,0.002,0.016,0.004,0.02c0.06,0.27,0.326,0.439,0.598,0.381c0.268-0.061,0.438-0.328,0.379-0.598
		c0,0-0.21-0.98-0.427-2.867c-0.196-1.889-0.416-4.674-0.388-8.225c0.045-3.547,0.261-7.859,0.996-12.734
		c0.688-4.875,1.88-10.313,3.699-16.02c1.809-5.707,4.329-11.674,7.604-17.49c1.647-2.904,3.489-5.77,5.513-8.531
		c1.028-1.451,2.059-2.533,3.121-3.859c0.61-0.752,1.226-1.506,1.842-2.264l0.464-0.568l0.114-0.143
		c0.044-0.076-0.163,0.387-0.049,0.164l0.055-0.057l0.224-0.229l0.889-0.91c2.356-2.424,4.839-4.697,7.548-6.695
		c2.687-2.01,5.457-3.846,8.434-5.363c0.455-0.245,0.92-0.473,1.381-0.704c0.007-0.009,0.016-0.019,0.022-0.027
		c-0.321,0.402-0.656,0.809-0.963,1.208c-4.804,6.225-7.916,11.92-9.8,15.99c-0.941,2.037-1.58,3.676-1.984,4.805
		c-0.406,1.129-0.579,1.758-0.579,1.758c-0.059,0.213,0.03,0.453,0.23,0.57c0.079,0.047,0.167,0.068,0.253,0.068
		c0.174,0,0.344-0.089,0.437-0.25c0,0,0.311-0.52,0.976-1.469c0.664-0.949,1.681-2.316,3.07-3.963
		c2.771-3.299,7.079-7.713,12.842-12.088c5.74-4.393,12.968-8.676,21.122-11.961c2.824-1.144,5.759-2.165,8.761-3.07
		c-1.243,0.378-2.476,0.775-3.693,1.193c2.064-0.069,4.127-0.085,6.176-0.047c6.531,0.129,13.027,0.893,19.253,1.85
		c6.246,0.984,12.264,2.311,17.934,3.686c2.831,0.699,5.574,1.381,8.225,2.135c2.647,0.738,5.185,1.434,7.616,2.189
		c2.433,0.764,4.741,1.439,6.926,2.164c2.185,0.727,4.236,1.439,6.145,2.047c3.817,1.18,7.065,1.891,9.66,2.287
		c2.591,0.398,4.521,0.438,5.661,0.375c0.569-0.037,0.918-0.1,1.079-0.172c0.023-0.018,0.043-0.035,0.061-0.049
		c0.063-0.014-0.106-0.047-0.138-0.064C184.074,388.517,184.297,388.528,184.257,388.522z M224.708,331.653
		c8.003-2.021,15.411-4.787,22.019-8.186c0.155,6.836-0.949,13.814-3.495,20.609c-0.352,0.939-0.73,1.863-1.129,2.77
		c-4.638-1.348-9.409-2.035-14.226-2.021c-1.009,0.002-2.009,0.039-3.005,0.102C225.162,340.591,225.105,336.149,224.708,331.653z
		 M224.468,329.249c-0.61-5.27-1.712-10.604-3.318-15.93c2.732-0.828,5.396-1.883,7.965-3.174c4.642-2.336,8.785-5.328,12.412-8.846
		c2.859,6.115,4.601,12.748,5.079,19.568C240.015,324.356,232.561,327.188,224.468,329.249z M224.673,347.366
		c1.064-0.074,2.133-0.119,3.211-0.123c4.462-0.012,8.883,0.604,13.191,1.822c-5.261,10.736-13.67,19.102-23.668,24.406
		C221.287,365.655,223.77,356.784,224.673,347.366z M213.756,375.241c-10.423,4.59-22.263,5.979-33.927,3.441
		c9.548-17.123,24.84-28.936,42.408-31.08C221.21,357.718,218.296,367.155,213.756,375.241z M240.395,299.015
		c-3.585,3.588-7.712,6.627-12.368,8.969c-2.446,1.23-4.986,2.236-7.592,3.023c-5.664-17.154-15.921-31.726-28.829-41.542
		c6.409,0.01,12.925,1.136,19.28,3.517C224.11,277.937,234.308,287.423,240.395,299.015z M218.099,311.655
		c-10.252,2.547-21.475,1.775-32.501-2.355c-12.331-4.619-23.633-13.123-32.56-24.232c9.343-9.056,21.659-14.55,34.655-15.46
		C201.336,279.074,212.227,293.937,218.099,311.655z M184.749,311.565c11.544,4.324,23.309,5.109,34.07,2.406
		c1.604,5.301,2.697,10.611,3.287,15.852c-13.057,3.039-27.665,4.1-42.916,2.711c-12.606-1.152-24.681-3.861-35.879-8.057
		c-2.393-0.896-4.709-1.855-6.958-2.861c0.305-5.438,1.427-10.92,3.437-16.289c2.662-7.105,6.634-13.338,11.535-18.531
		C160.497,298.138,172.095,306.825,184.749,311.565z M106.117,299.61c0,0,0.001,0,0.001,0c0.001,0-0.004,0.002-0.02,0.01
		C106.112,299.613,106.117,299.611,106.117,299.61z M106.031,299.643c-0.008,0.002,0.048-0.023,0.31-0.136
		C106.109,299.606,106.039,299.638,106.031,299.643z M73.698,369.853c-0.251,0.242-0.508,0.484-0.755,0.727
		C73.19,370.337,73.447,370.095,73.698,369.853z M83.372,361.587c-0.971,0.731-1.917,1.474-2.842,2.222
		C81.455,363.061,82.401,362.318,83.372,361.587z M79.343,364.799c-0.503,0.419-1.011,0.836-1.5,1.259
		C78.332,365.635,78.841,365.218,79.343,364.799z M76.376,367.364c-0.354,0.318-0.715,0.635-1.061,0.955
		C75.661,367.999,76.022,367.683,76.376,367.364z M136.267,324.233c2.014,0.879,4.079,1.717,6.196,2.51
		c11.401,4.271,23.685,7.029,36.509,8.199c15.382,1.402,30.133,0.342,43.361-2.715c0.37,4.383,0.398,8.707,0.101,12.926
		c-18.748,2.105-35.062,14.684-45.045,32.945c-1.76-0.469-3.514-1.025-5.252-1.676C149.802,368.056,136.08,346.772,136.267,324.233z
		 M187.357,260.714c-1.131-0.097-2.289-0.183-3.455-0.263C185.071,260.53,186.226,260.617,187.357,260.714z M181.694,260.316
		c-0.355-0.021-0.711-0.041-1.069-0.06C180.984,260.275,181.338,260.296,181.694,260.316z M42.726,338.257
		c2.633-5.391,5.663-10.775,9.002-15.994c4.031-6.242,8.119-11.688,12.505-16.656c5.007-5.718,10.592-10.961,16.581-15.57
		l2.412-1.828c0.479-0.358,0.996-0.704,1.544-1.07c0.298-0.199,0.596-0.399,0.862-0.582l2.504-1.682l2.744-1.637l1.412-0.832
		l0.312-0.182c0.339-0.199,0.689-0.404,0.915-0.52l0.026-0.014l0.026-0.014l2.449-1.322l1.239-0.667l0.295-0.16l0.047-0.025
		l0.29-0.126l0.033-0.014l0.032-0.015l0.104-0.048l0.673-0.319l2.71-1.272c7.341-3.356,14.812-6.132,22.198-8.25
		c7.521-2.138,15.109-3.749,22.548-4.787c7.043-0.97,14.294-1.534,21.536-1.676c0.886-0.013,1.767-0.019,2.64-0.019h0.001
		c5.48,0,11.109,0.246,16.725,0.729c3.475,0.311,6.195,0.609,8.549,0.938c2.5,0.364,4.967,0.896,7.331,1.583
		c1.13,0.328,2.233,0.701,3.319,1.101c-6.718-1.735-13.524-2.247-20.152-1.634c-1.309,0.121-2.605,0.301-3.898,0.508
		c-11.85,1.898-22.938,7.351-31.661,15.661c-0.589,0.561-1.165,1.141-1.731,1.729c-1.91,1.977-3.685,4.106-5.322,6.363
		c-5.191,0.259-10.217,0.728-14.949,1.451c-7.049,1.049-13.839,2.537-20.171,4.418l-2.447,0.718l-0.533,0.154
		c-0.021,0.005-0.04,0.011-0.06,0.015l-0.013-0.032l-0.184,0.063l-0.318,0.113l-1.318,0.465l-2.586,0.913
		c-0.444,0.149-0.762,0.279-1.041,0.394l-0.254,0.104l-1.027,0.412l-2.107,0.832l-0.086,0.033l-0.082,0.039l-2.246,1.047
		c-0.259,0.124-0.521,0.244-0.781,0.363c-0.492,0.226-1.001,0.459-1.525,0.73l-2.198,1.141c-5.576,2.926-11.106,6.539-16.927,11.061
		c-4.977,3.928-9.824,8.305-14.398,13c-3.853,3.922-7.699,8.257-11.768,13.261c-3.199,3.97-6.263,8.048-9.102,12.113
		c-0.744,1.058-1.451,2.087-2.129,3.089c0.409-1.139,0.843-2.307,1.299-3.502C38.48,347.397,40.491,342.792,42.726,338.257z
		 M34.876,348.485c-0.381,0.944-0.755,1.88-1.103,2.781C34.122,350.364,34.49,349.436,34.876,348.485z M27.542,373.198
		c0.068,0.036,0.142,0.051,0.215,0.053C27.684,373.249,27.611,373.234,27.542,373.198z M27.816,373.245
		c0.062-0.006,0.122-0.022,0.177-0.049C27.938,373.224,27.879,373.239,27.816,373.245z M28.055,373.163
		c0.067-0.046,0.129-0.103,0.169-0.18C28.184,373.061,28.123,373.117,28.055,373.163z M66.879,377.086
		c-0.045,0.054-0.091,0.106-0.136,0.16C66.788,377.192,66.834,377.14,66.879,377.086z M71.23,372.309
		c-0.167,0.172-0.338,0.344-0.502,0.516C70.893,372.652,71.063,372.48,71.23,372.309z M68.955,374.729
		c-0.096,0.105-0.194,0.212-0.29,0.317C68.761,374.94,68.859,374.835,68.955,374.729z M89.477,371.258
		c-7.834,3.156-15.381,7.431-21.815,12.354c-1.854,1.408-3.543,2.803-5.068,4.148c1.121-1.706,2.389-3.503,3.815-5.352
		c5.136-6.672,11.626-13.043,18.773-18.429c3.934-2.975,8.208-5.778,12.667-8.312l0.807-0.442l2.668-1.464l1.746-0.873l1.852-0.928
		c0.717-0.369,1.463-0.702,2.252-1.056c0.444-0.199,0.89-0.398,1.3-0.59l1.812-0.817l1.898-0.768l1.972-0.789l0.06-0.023
		c0.615-0.246,1.243-0.497,1.786-0.695l3.468-1.305c3.274-1.095,6.141-1.883,8.76-2.408l0.056-0.012l0.056-0.014
		c0.997-0.24,1.969-0.416,2.997-0.603c0.41-0.075,0.821-0.149,1.237-0.229l0.903-0.137c0.493-0.075,0.994-0.142,1.495-0.214
		c3.784,12.123,11.41,22.944,22.004,30.551c-1.213-0.418-2.412-0.839-3.577-1.264l-5.283-1.967l-6.026-2.244
		c-5-1.77-8.761-2.808-12.158-3.359c-1.874-0.329-3.832-0.494-5.987-0.504h-0.154l-0.154,0.016l-1.498,0.147l-2.221,0.22
		c-0.598,0.054-1.086,0.113-1.57,0.173l-0.234,0.028l-1.623,0.194l-1.641,0.191l-0.069,0.009l-0.069,0.011l-1.735,0.285
		c-0.384,0.067-0.771,0.128-1.158,0.189c-0.76,0.119-1.545,0.242-2.345,0.418l-3.357,0.681l-0.056,0.012l-0.056,0.014l-1.387,0.338
		l-1.989,0.485C98.077,368.109,93.651,369.567,89.477,371.258z M99.533,370.915c1.272-0.382,2.552-0.748,3.848-1.084
		C102.086,370.167,100.803,370.53,99.533,370.915z"/>
	<path fill="#444242" d="M53.475,435.196c-1.446-0.662-2.9-1.25-4.362-1.764c-1.462-0.512-2.705-1.197-3.729-2.057
		c-1.025-0.859-1.537-1.98-1.537-3.367c0-1.629,0.564-2.818,1.695-3.572c1.13-0.753,2.614-1.131,4.453-1.131
		c1.537,0,2.938,0.287,4.204,0.859c1.266,0.573,1.959,0.859,2.08,0.859c0.481,0,0.873-0.242,1.175-0.727
		c0.301-0.484,0.452-0.939,0.452-1.363c0-0.959-0.852-1.71-2.554-2.252c-1.703-0.541-3.489-0.813-5.357-0.813
		c-1.236,0-2.396,0.137-3.481,0.412c-1.085,0.273-2.133,0.708-3.142,1.302c-1.011,0.595-1.816,1.478-2.419,2.65
		c-0.604,1.173-0.904,2.552-0.904,4.136c0,2.02,0.512,3.67,1.537,4.95c1.024,1.281,2.268,2.23,3.729,2.849
		c1.462,0.617,2.916,1.197,4.363,1.74c1.446,0.543,2.682,1.334,3.707,2.373c1.024,1.04,1.537,2.389,1.537,4.047
		c0,1.838-0.559,3.232-1.673,4.182c-1.115,0.949-2.652,1.424-4.611,1.424c-1.206,0-2.291-0.188-3.255-0.564
		c-0.965-0.377-1.673-0.799-2.125-1.267c-0.452-0.467-0.89-0.889-1.312-1.266c-0.422-0.376-0.769-0.565-1.039-0.565
		c-0.423,0-0.807,0.227-1.153,0.678c-0.347,0.453-0.52,0.92-0.52,1.402c0,1.096,0.927,2.205,2.78,3.33s4.121,1.688,6.804,1.688
		c2.983,0,5.38-0.79,7.188-2.373c1.809-1.582,2.712-3.925,2.712-7.03c0-2.261-0.513-4.121-1.537-5.583S54.922,435.86,53.475,435.196
		z"/>
	<path fill="#444242" d="M80.781,419.961H62.382c-0.423,0-0.754,0.169-0.995,0.507s-0.361,0.727-0.361,1.168
		c0,0.498,0.12,0.917,0.361,1.254c0.241,0.338,0.572,0.508,0.995,0.508h7.323v28.251c0,0.424,0.188,0.757,0.565,0.998
		s0.821,0.362,1.334,0.362c0.512,0,0.956-0.121,1.333-0.362s0.565-0.574,0.565-0.998v-28.251h7.278c0.422,0,0.753-0.177,0.995-0.529
		c0.241-0.352,0.361-0.764,0.361-1.232c0-0.441-0.12-0.83-0.361-1.168C81.534,420.13,81.203,419.961,80.781,419.961z"/>
	<path fill="#444242" d="M103.792,423.397c0.392,0,0.708-0.174,0.949-0.521s0.361-0.761,0.361-1.243
		c0-0.452-0.112-0.844-0.339-1.176c-0.226-0.331-0.55-0.497-0.972-0.497H87.697c-0.452,0-0.852,0.12-1.198,0.362
		c-0.347,0.24-0.52,0.572-0.52,0.994v30.335c0,0.423,0.173,0.754,0.52,0.995s0.746,0.361,1.198,0.361h16.095
		c0.422,0,0.746-0.166,0.972-0.497c0.227-0.331,0.339-0.724,0.339-1.176c0-0.481-0.12-0.896-0.361-1.243
		c-0.241-0.346-0.558-0.52-0.949-0.52H89.777v-11.529h7.052c0.422,0,0.746-0.158,0.973-0.475c0.226-0.316,0.339-0.67,0.339-1.063
		c0-0.451-0.121-0.836-0.361-1.152c-0.242-0.316-0.559-0.475-0.95-0.475h-7.052v-11.482H103.792z"/>
	<path fill="#444242" d="M127.029,423.397c0.392,0,0.708-0.174,0.949-0.521s0.361-0.761,0.361-1.243
		c0-0.452-0.112-0.844-0.339-1.176c-0.226-0.331-0.55-0.497-0.972-0.497h-16.095c-0.452,0-0.852,0.12-1.198,0.362
		c-0.347,0.24-0.52,0.572-0.52,0.994v30.335c0,0.423,0.173,0.754,0.52,0.995s0.746,0.361,1.198,0.361h16.095
		c0.422,0,0.746-0.166,0.972-0.497c0.227-0.331,0.339-0.724,0.339-1.176c0-0.481-0.12-0.896-0.361-1.243
		c-0.241-0.346-0.558-0.52-0.949-0.52h-14.015v-11.529h7.052c0.422,0,0.746-0.158,0.973-0.475c0.226-0.316,0.339-0.67,0.339-1.063
		c0-0.451-0.121-0.836-0.361-1.152c-0.242-0.316-0.559-0.475-0.95-0.475h-7.052v-11.482H127.029z"/>
	<path fill="#444242" d="M154.651,419.961c-1.146,0-2.155,0.799-3.028,2.396l-7.144,13.608l-7.098-13.608
		c-0.813-1.597-1.824-2.396-3.029-2.396c-1.266,0-1.898,0.618-1.898,1.854v29.838c0,0.423,0.188,0.754,0.565,0.995
		c0.376,0.241,0.82,0.361,1.333,0.361s0.957-0.12,1.334-0.361c0.376-0.241,0.565-0.572,0.565-0.995v-23.915l6.781,13.02
		c0.361,0.693,0.828,1.04,1.401,1.04c0.633,0,1.13-0.347,1.492-1.04l6.826-12.84v23.735c0,0.423,0.188,0.754,0.565,0.995
		c0.376,0.241,0.82,0.361,1.333,0.361s0.957-0.12,1.334-0.361s0.565-0.572,0.565-0.995v-29.838
		C156.551,420.579,155.918,419.961,154.651,419.961z"/>
	<path fill="#444242" d="M180.782,422.447c-1.93-1.657-4.506-2.486-7.731-2.486h-8.002c-0.753,0-1.371,0.181-1.854,0.542
		c-0.482,0.362-0.723,0.785-0.723,1.266V451.2c0,0.482,0.24,0.904,0.723,1.266c0.482,0.362,1.101,0.543,1.854,0.543h8.002
		c3.226,0,5.802-0.828,7.731-2.486c1.929-1.657,2.894-4.279,2.894-7.867v-12.342C183.676,426.728,182.711,424.105,180.782,422.447z
		 M177.798,442.655c0,3.467-1.582,5.199-4.747,5.199h-4.701v-22.74h4.701c3.165,0,4.747,1.734,4.747,5.199V442.655z"/>
	<path fill="#444242" d="M209.398,420.413c-0.572-0.301-1.266-0.452-2.079-0.452s-1.508,0.151-2.08,0.452
		c-0.572,0.302-0.858,0.754-0.858,1.355v21.158c0,3.467-1.658,5.199-4.974,5.199s-4.973-1.732-4.973-5.199v-21.158
		c0-0.602-0.287-1.054-0.859-1.355c-0.572-0.301-1.266-0.452-2.079-0.452s-1.508,0.151-2.08,0.452
		c-0.572,0.302-0.858,0.754-0.858,1.355v21.158c0,3.588,0.986,6.209,2.961,7.867c1.974,1.658,4.604,2.486,7.889,2.486
		s5.915-0.836,7.89-2.51c1.974-1.672,2.961-4.287,2.961-7.844v-21.158C210.258,421.167,209.971,420.715,209.398,420.413z"/>
	<path fill="#444242" d="M236.614,420.413c-0.573-0.301-1.267-0.452-2.08-0.452s-1.507,0.151-2.079,0.452
		c-0.573,0.302-0.859,0.754-0.859,1.355v18.175l-8.726-16.862c-0.693-1.297-1.326-2.141-1.898-2.532
		c-0.573-0.392-1.401-0.588-2.486-0.588c-0.814,0-1.508,0.158-2.08,0.475s-0.858,0.776-0.858,1.379v29.341
		c0,0.572,0.286,1.025,0.858,1.356s1.266,0.497,2.08,0.497c0.783,0,1.469-0.166,2.057-0.497s0.882-0.784,0.882-1.356v-18.174
		l9.72,18.174c0.663,1.236,1.793,1.854,3.391,1.854c0.783,0,1.47-0.166,2.058-0.497c0.587-0.331,0.881-0.784,0.881-1.356v-29.387
		C237.473,421.167,237.187,420.715,236.614,420.413z"/>
	<path fill="#444242" d="M264.96,449.257l-9.855-15.01l8.093-10.127c0.24-0.301,0.361-0.678,0.361-1.131
		c0-0.723-0.377-1.408-1.13-2.057c-0.754-0.647-1.508-0.972-2.261-0.972c-0.663,0-1.206,0.286-1.628,0.858l-9.765,13.292v-12.343
		c0-0.602-0.287-1.054-0.859-1.355c-0.572-0.301-1.266-0.452-2.079-0.452c-0.814,0-1.508,0.151-2.08,0.452
		c-0.572,0.302-0.858,0.754-0.858,1.355v29.387c0,0.572,0.286,1.025,0.858,1.356s1.266,0.497,2.08,0.497
		c0.783,0,1.469-0.166,2.057-0.497s0.882-0.784,0.882-1.356v-8.861l2.441-3.074l8.499,12.885c0.452,0.754,1.13,1.131,2.034,1.131
		c0.874,0,1.68-0.309,2.419-0.928c0.738-0.617,1.107-1.288,1.107-2.012C265.276,449.905,265.171,449.558,264.96,449.257z"/>
</g>
<g>
	<path fill="#EDEEF0" d="M184.257,652.689c35.247,4.008,67.069-21.318,71.075-56.564c4.008-35.248-21.318-67.069-56.565-71.077
		c-0.04-0.004,0.057-0.008-0.381-0.082c-0.267-0.051-0.664-0.127-1.188-0.229c-0.819-0.168-1.931-0.369-3.263-0.566
		c-2.665-0.375-6.32-0.729-10.851-0.635c-2.625,0.055-5.554,0.255-8.736,0.65c-1.313-0.027-2.638-0.046-3.983-0.046
		c-0.888,0-1.782,0.007-2.683,0.019c-6.986,0.137-14.35,0.664-21.902,1.703c-7.55,1.055-15.276,2.689-22.959,4.873
		c-7.684,2.203-15.291,5.055-22.625,8.408l-2.737,1.285l-0.683,0.322l-0.086,0.041l-0.402,0.176l-0.154,0.082l-0.306,0.166
		l-1.229,0.662l-2.452,1.324c-0.38,0.195-0.894,0.504-1.363,0.777l-1.426,0.84l-2.827,1.688l-2.57,1.725
		c-0.846,0.581-1.715,1.13-2.53,1.739l-2.429,1.842c-6.416,4.938-12.103,10.363-17.025,15.984
		c-4.944,5.602-9.139,11.385-12.769,17.004c-3.608,5.643-6.65,11.133-9.177,16.307c-1.487,3.017-2.785,5.904-3.955,8.661
		c0.001-0.003,0.002-0.005,0.003-0.007c-0.015,0.025-0.031,0.049-0.046,0.072c-0.692,1.072-1.335,2.188-1.973,3.289
		c-0.639,1.102-1.269,2.193-1.85,3.322c-2.374,4.453-4.466,8.938-6.175,13.439c-0.882,2.232-1.628,4.494-2.38,6.691
		c-0.676,2.24-1.354,4.426-1.872,6.635l-0.406,1.637l-0.1,0.406l-0.025,0.102c0.088-0.168-0.149,0.346-0.129,0.324l-0.034,0.182
		l-0.13,0.721c-0.175,0.963-0.347,1.92-0.521,2.873c-0.379,2.133-0.878,4.441-1.102,6.447c-0.661,4.082-0.986,8.082-1.279,11.9
		c-0.307,3.82-0.34,7.521-0.42,11.037c0.008,1.766,0.009,3.49,0.062,5.176c0.008,1.682,0.081,3.328,0.146,4.932
		c0.19,3.211,0.312,6.248,0.612,9.125c0.092,1.436,0.252,2.832,0.373,4.182c0.148,1.346,0.293,2.654,0.435,3.922
		c0.608,5.051,1.212,9.393,1.794,12.951c0.556,3.559,1.047,6.332,1.387,8.223c0.342,1.896,0.525,2.908,0.525,2.908
		c0.001,0.004,0.002,0.016,0.004,0.02c0.06,0.27,0.326,0.439,0.598,0.381c0.268-0.061,0.438-0.328,0.379-0.598
		c0,0-0.21-0.98-0.427-2.867c-0.196-1.889-0.416-4.674-0.388-8.225c0.045-3.547,0.261-7.859,0.996-12.734
		c0.688-4.875,1.88-10.313,3.699-16.02c1.809-5.707,4.329-11.674,7.604-17.49c1.647-2.904,3.489-5.77,5.513-8.531
		c1.028-1.451,2.059-2.533,3.121-3.859c0.61-0.752,1.226-1.506,1.842-2.264l0.464-0.568l0.114-0.143
		c0.044-0.076-0.163,0.387-0.049,0.164l0.055-0.057l0.224-0.229l0.889-0.91c2.356-2.424,4.839-4.697,7.548-6.695
		c2.687-2.01,5.457-3.846,8.434-5.363c0.455-0.245,0.92-0.473,1.381-0.704c0.007-0.009,0.016-0.019,0.022-0.027
		c-0.321,0.402-0.656,0.809-0.963,1.208c-4.804,6.225-7.916,11.92-9.8,15.99c-0.941,2.037-1.58,3.676-1.984,4.805
		c-0.406,1.129-0.579,1.758-0.579,1.758c-0.059,0.213,0.03,0.453,0.23,0.57c0.079,0.047,0.167,0.068,0.253,0.068
		c0.174,0,0.344-0.089,0.437-0.25c0,0,0.311-0.52,0.976-1.469c0.664-0.949,1.681-2.316,3.07-3.963
		c2.771-3.299,7.079-7.713,12.842-12.088c5.74-4.393,12.968-8.676,21.122-11.961c2.824-1.144,5.759-2.165,8.761-3.071
		c-1.243,0.379-2.476,0.776-3.693,1.194c2.064-0.069,4.127-0.085,6.176-0.047c6.531,0.129,13.027,0.893,19.253,1.85
		c6.246,0.984,12.264,2.311,17.934,3.686c2.831,0.699,5.574,1.381,8.225,2.135c2.647,0.738,5.185,1.434,7.616,2.189
		c2.433,0.764,4.741,1.439,6.926,2.164c2.185,0.727,4.236,1.439,6.145,2.047c3.817,1.18,7.065,1.891,9.66,2.287
		c2.591,0.398,4.521,0.438,5.661,0.375c0.569-0.037,0.918-0.1,1.079-0.172c0.023-0.018,0.043-0.035,0.061-0.049
		c0.063-0.014-0.106-0.047-0.138-0.064C184.074,652.684,184.297,652.695,184.257,652.689z M224.708,595.82
		c8.003-2.021,15.411-4.787,22.019-8.186c0.155,6.836-0.949,13.814-3.495,20.609c-0.352,0.939-0.73,1.863-1.129,2.77
		c-4.638-1.348-9.409-2.035-14.226-2.021c-1.009,0.002-2.009,0.039-3.005,0.102C225.162,604.758,225.105,600.316,224.708,595.82z
		 M224.468,593.416c-0.61-5.27-1.712-10.604-3.318-15.93c2.732-0.828,5.396-1.883,7.965-3.174c4.642-2.336,8.785-5.328,12.412-8.846
		c2.859,6.115,4.601,12.748,5.079,19.568C240.015,588.523,232.561,591.355,224.468,593.416z M224.673,611.533
		c1.064-0.074,2.133-0.119,3.211-0.123c4.462-0.012,8.883,0.604,13.191,1.822c-5.261,10.736-13.67,19.102-23.668,24.406
		C221.287,629.822,223.77,620.951,224.673,611.533z M213.756,639.408c-10.423,4.59-22.263,5.979-33.927,3.441
		c9.548-17.123,24.84-28.936,42.408-31.08C221.21,621.885,218.296,631.322,213.756,639.408z M240.395,563.182
		c-3.585,3.588-7.712,6.627-12.368,8.969c-2.446,1.23-4.986,2.236-7.592,3.023c-5.664-17.154-15.921-31.726-28.829-41.542
		c6.409,0.01,12.925,1.137,19.28,3.518C224.11,542.104,234.308,551.59,240.395,563.182z M218.099,575.822
		c-10.252,2.547-21.475,1.775-32.501-2.355c-12.331-4.619-23.633-13.123-32.56-24.232c9.343-9.056,21.659-14.55,34.655-15.46
		C201.336,543.241,212.227,558.104,218.099,575.822z M184.749,575.732c11.544,4.324,23.309,5.109,34.07,2.406
		c1.604,5.301,2.697,10.611,3.287,15.852c-13.057,3.039-27.665,4.1-42.916,2.711c-12.606-1.152-24.681-3.861-35.879-8.057
		c-2.393-0.896-4.709-1.855-6.958-2.861c0.305-5.438,1.427-10.92,3.437-16.289c2.662-7.105,6.634-13.338,11.535-18.531
		C160.497,562.305,172.095,570.992,184.749,575.732z M106.117,563.778c0,0,0.001-0.001,0.001-0.001c0.001,0-0.004,0.002-0.02,0.01
		C106.112,563.78,106.117,563.778,106.117,563.778z M106.031,563.81c-0.008,0.002,0.048-0.023,0.31-0.136
		C106.109,563.773,106.039,563.805,106.031,563.81z M73.698,634.02c-0.251,0.242-0.508,0.484-0.755,0.727
		C73.19,634.503,73.447,634.262,73.698,634.02z M83.372,625.754c-0.971,0.731-1.917,1.474-2.842,2.222
		C81.455,627.228,82.401,626.485,83.372,625.754z M79.343,628.966c-0.503,0.419-1.011,0.836-1.5,1.259
		C78.332,629.802,78.841,629.385,79.343,628.966z M76.376,631.531c-0.354,0.318-0.715,0.635-1.061,0.955
		C75.661,632.166,76.022,631.85,76.376,631.531z M136.267,588.4c2.014,0.879,4.079,1.717,6.196,2.51
		c11.401,4.271,23.685,7.029,36.509,8.199c15.382,1.402,30.133,0.342,43.361-2.715c0.37,4.383,0.398,8.707,0.101,12.926
		c-18.748,2.105-35.062,14.684-45.045,32.945c-1.76-0.469-3.514-1.025-5.252-1.676C149.802,632.223,136.08,610.939,136.267,588.4z
		 M187.357,524.882c-1.125-0.098-2.279-0.182-3.439-0.263C185.082,524.698,186.231,524.785,187.357,524.882z M181.629,524.479
		c-0.322-0.019-0.644-0.037-0.968-0.054C180.986,524.442,181.307,524.461,181.629,524.479z M42.726,602.424
		c2.633-5.391,5.663-10.775,9.002-15.994c4.031-6.242,8.119-11.688,12.505-16.656c5.007-5.718,10.592-10.961,16.581-15.57
		l2.412-1.828c0.479-0.358,0.996-0.704,1.544-1.07c0.298-0.199,0.596-0.399,0.862-0.582l2.504-1.682l2.744-1.638l1.412-0.832
		l0.312-0.182c0.339-0.199,0.689-0.404,0.915-0.52l0.026-0.014l0.026-0.015l2.449-1.322l1.239-0.667l0.295-0.16l0.047-0.025
		l0.29-0.127l0.033-0.014l0.032-0.016l0.104-0.048l0.673-0.319l2.71-1.271c7.341-3.356,14.812-6.133,22.198-8.25
		c7.521-2.139,15.109-3.749,22.548-4.787c7.043-0.971,14.294-1.533,21.536-1.676c0.886-0.013,1.767-0.019,2.64-0.019h0.001
		c5.48,0,11.109,0.245,16.725,0.729c3.475,0.311,6.195,0.609,8.549,0.938c2.5,0.363,4.967,0.896,7.331,1.582
		c1.129,0.327,2.231,0.7,3.316,1.1c-6.717-1.734-13.522-2.246-20.149-1.633c-1.309,0.121-2.605,0.301-3.898,0.508
		c-11.85,1.898-22.938,7.352-31.661,15.662c-0.589,0.561-1.165,1.141-1.731,1.729c-1.91,1.977-3.685,4.105-5.322,6.362
		c-5.191,0.259-10.217,0.728-14.949,1.451c-7.049,1.049-13.839,2.537-20.171,4.418l-2.447,0.718l-0.533,0.154
		c-0.021,0.005-0.04,0.011-0.06,0.015l-0.013-0.032l-0.184,0.063l-0.318,0.113l-1.318,0.465l-2.586,0.913
		c-0.444,0.149-0.762,0.279-1.041,0.394l-0.254,0.104l-1.027,0.412l-2.107,0.832l-0.086,0.033l-0.082,0.039l-2.246,1.047
		c-0.259,0.124-0.521,0.244-0.781,0.363c-0.492,0.226-1.001,0.459-1.525,0.73l-2.198,1.141c-5.576,2.926-11.106,6.539-16.927,11.061
		c-4.977,3.928-9.824,8.305-14.398,13c-3.853,3.922-7.699,8.257-11.768,13.261c-3.199,3.97-6.263,8.048-9.102,12.113
		c-0.744,1.058-1.451,2.087-2.129,3.089c0.409-1.139,0.843-2.307,1.299-3.502C38.48,611.564,40.491,606.959,42.726,602.424z
		 M34.876,612.652c-0.381,0.944-0.755,1.88-1.103,2.781C34.122,614.531,34.49,613.603,34.876,612.652z M27.542,637.365
		c0.068,0.036,0.142,0.051,0.215,0.053C27.684,637.416,27.611,637.401,27.542,637.365z M27.816,637.411
		c0.062-0.005,0.122-0.021,0.177-0.048C27.938,637.391,27.879,637.406,27.816,637.411z M28.055,637.33
		c0.067-0.046,0.129-0.103,0.169-0.18C28.184,637.228,28.123,637.284,28.055,637.33z M66.879,641.253
		c-0.045,0.054-0.091,0.106-0.136,0.16C66.788,641.359,66.834,641.307,66.879,641.253z M71.23,636.476
		c-0.167,0.172-0.338,0.344-0.502,0.516C70.893,636.819,71.063,636.647,71.23,636.476z M68.955,638.896
		c-0.096,0.105-0.194,0.212-0.29,0.317C68.761,639.107,68.859,639.001,68.955,638.896z M89.477,635.425
		c-7.834,3.156-15.381,7.431-21.815,12.354c-1.854,1.408-3.543,2.803-5.068,4.148c1.121-1.706,2.389-3.503,3.815-5.352
		c5.136-6.672,11.626-13.043,18.773-18.429c3.934-2.975,8.208-5.778,12.667-8.312l0.807-0.442l2.668-1.464l1.746-0.873l1.852-0.928
		c0.717-0.369,1.463-0.702,2.252-1.056c0.444-0.199,0.89-0.398,1.3-0.59l1.812-0.817l1.898-0.768l1.972-0.789l0.06-0.023
		c0.615-0.246,1.243-0.497,1.786-0.695l3.468-1.305c3.274-1.095,6.141-1.883,8.76-2.408l0.056-0.012l0.056-0.014
		c0.997-0.24,1.969-0.416,2.997-0.603c0.41-0.075,0.821-0.149,1.237-0.229l0.903-0.137c0.493-0.075,0.994-0.142,1.495-0.214
		c3.784,12.123,11.41,22.944,22.004,30.551c-1.213-0.418-2.412-0.839-3.577-1.264l-5.283-1.967l-6.026-2.244
		c-5-1.77-8.761-2.808-12.158-3.359c-1.874-0.329-3.832-0.494-5.987-0.504h-0.154l-0.154,0.016l-1.498,0.147l-2.221,0.22
		c-0.598,0.054-1.086,0.113-1.57,0.173l-0.234,0.028l-1.623,0.194l-1.641,0.191l-0.069,0.009l-0.069,0.011l-1.735,0.285
		c-0.384,0.067-0.771,0.128-1.158,0.189c-0.76,0.119-1.545,0.242-2.345,0.418l-3.357,0.681l-0.056,0.012l-0.056,0.014l-1.387,0.338
		l-1.989,0.485C98.077,632.276,93.651,633.734,89.477,635.425z M99.533,635.082c1.272-0.382,2.552-0.748,3.848-1.084
		C102.086,634.335,100.803,634.697,99.533,635.082z"/>
	<path fill="#EDEEF0" d="M53.475,699.363c-1.446-0.662-2.9-1.25-4.362-1.764c-1.462-0.512-2.705-1.197-3.729-2.057
		c-1.025-0.859-1.537-1.98-1.537-3.367c0-1.629,0.564-2.818,1.695-3.572c1.13-0.753,2.614-1.131,4.453-1.131
		c1.537,0,2.938,0.287,4.204,0.859c1.266,0.573,1.959,0.859,2.08,0.859c0.481,0,0.873-0.242,1.175-0.727
		c0.301-0.484,0.452-0.939,0.452-1.363c0-0.959-0.852-1.71-2.554-2.252c-1.703-0.541-3.489-0.813-5.357-0.813
		c-1.236,0-2.396,0.137-3.481,0.412c-1.085,0.273-2.133,0.708-3.142,1.302c-1.011,0.595-1.816,1.478-2.419,2.65
		c-0.604,1.173-0.904,2.552-0.904,4.136c0,2.02,0.512,3.67,1.537,4.95c1.024,1.281,2.268,2.23,3.729,2.849
		c1.462,0.617,2.916,1.197,4.363,1.74c1.446,0.543,2.682,1.334,3.707,2.373c1.024,1.04,1.537,2.389,1.537,4.047
		c0,1.838-0.559,3.232-1.673,4.182c-1.115,0.949-2.652,1.424-4.611,1.424c-1.206,0-2.291-0.188-3.255-0.564
		c-0.965-0.377-1.673-0.799-2.125-1.267c-0.452-0.467-0.89-0.889-1.312-1.266c-0.422-0.376-0.769-0.565-1.039-0.565
		c-0.423,0-0.807,0.227-1.153,0.678c-0.347,0.453-0.52,0.92-0.52,1.402c0,1.096,0.927,2.205,2.78,3.33s4.121,1.688,6.804,1.688
		c2.983,0,5.38-0.79,7.188-2.373c1.809-1.582,2.712-3.925,2.712-7.03c0-2.261-0.513-4.121-1.537-5.583
		S54.922,700.027,53.475,699.363z"/>
	<path fill="#EDEEF0" d="M80.781,684.128H62.382c-0.423,0-0.754,0.169-0.995,0.507s-0.361,0.727-0.361,1.168
		c0,0.498,0.12,0.917,0.361,1.254c0.241,0.338,0.572,0.508,0.995,0.508h7.323v28.251c0,0.424,0.188,0.757,0.565,0.998
		s0.821,0.362,1.334,0.362c0.512,0,0.956-0.121,1.333-0.362s0.565-0.574,0.565-0.998v-28.251h7.278c0.422,0,0.753-0.177,0.995-0.529
		c0.241-0.352,0.361-0.764,0.361-1.232c0-0.441-0.12-0.83-0.361-1.168C81.534,684.297,81.203,684.128,80.781,684.128z"/>
	<path fill="#EDEEF0" d="M103.792,687.564c0.392,0,0.708-0.174,0.949-0.521s0.361-0.761,0.361-1.243
		c0-0.452-0.112-0.844-0.339-1.176c-0.226-0.331-0.55-0.497-0.972-0.497H87.697c-0.452,0-0.852,0.12-1.198,0.362
		c-0.347,0.24-0.52,0.572-0.52,0.994v30.335c0,0.423,0.173,0.754,0.52,0.995s0.746,0.361,1.198,0.361h16.095
		c0.422,0,0.746-0.166,0.972-0.497c0.227-0.331,0.339-0.724,0.339-1.176c0-0.481-0.12-0.896-0.361-1.243
		c-0.241-0.346-0.558-0.52-0.949-0.52H89.777v-11.529h7.052c0.422,0,0.746-0.158,0.973-0.475c0.226-0.316,0.339-0.67,0.339-1.063
		c0-0.451-0.121-0.836-0.361-1.152c-0.242-0.316-0.559-0.475-0.95-0.475h-7.052v-11.482H103.792z"/>
	<path fill="#EDEEF0" d="M127.029,687.564c0.392,0,0.708-0.174,0.949-0.521s0.361-0.761,0.361-1.243
		c0-0.452-0.112-0.844-0.339-1.176c-0.226-0.331-0.55-0.497-0.972-0.497h-16.095c-0.452,0-0.852,0.12-1.198,0.362
		c-0.347,0.24-0.52,0.572-0.52,0.994v30.335c0,0.423,0.173,0.754,0.52,0.995s0.746,0.361,1.198,0.361h16.095
		c0.422,0,0.746-0.166,0.972-0.497c0.227-0.331,0.339-0.724,0.339-1.176c0-0.481-0.12-0.896-0.361-1.243
		c-0.241-0.346-0.558-0.52-0.949-0.52h-14.015v-11.529h7.052c0.422,0,0.746-0.158,0.973-0.475c0.226-0.316,0.339-0.67,0.339-1.063
		c0-0.451-0.121-0.836-0.361-1.152c-0.242-0.316-0.559-0.475-0.95-0.475h-7.052v-11.482H127.029z"/>
	<path fill="#EDEEF0" d="M154.651,684.128c-1.146,0-2.155,0.799-3.028,2.396l-7.144,13.608l-7.098-13.608
		c-0.813-1.597-1.824-2.396-3.029-2.396c-1.266,0-1.898,0.618-1.898,1.854v29.838c0,0.423,0.188,0.754,0.565,0.995
		c0.376,0.241,0.82,0.361,1.333,0.361s0.957-0.12,1.334-0.361c0.376-0.241,0.565-0.572,0.565-0.995v-23.915l6.781,13.02
		c0.361,0.693,0.828,1.04,1.401,1.04c0.633,0,1.13-0.347,1.492-1.04l6.826-12.84v23.735c0,0.423,0.188,0.754,0.565,0.995
		c0.376,0.241,0.82,0.361,1.333,0.361s0.957-0.12,1.334-0.361s0.565-0.572,0.565-0.995v-29.838
		C156.551,684.746,155.918,684.128,154.651,684.128z"/>
	<path fill="#EDEEF0" d="M180.782,686.614c-1.93-1.657-4.506-2.486-7.731-2.486h-8.002c-0.753,0-1.371,0.181-1.854,0.542
		c-0.482,0.362-0.723,0.785-0.723,1.266v29.432c0,0.482,0.24,0.904,0.723,1.266c0.482,0.362,1.101,0.543,1.854,0.543h8.002
		c3.226,0,5.802-0.828,7.731-2.486c1.929-1.657,2.894-4.279,2.894-7.867V694.48C183.676,690.895,182.711,688.272,180.782,686.614z
		 M177.798,706.822c0,3.467-1.582,5.199-4.747,5.199h-4.701v-22.74h4.701c3.165,0,4.747,1.734,4.747,5.199V706.822z"/>
	<path fill="#EDEEF0" d="M209.398,684.58c-0.572-0.301-1.266-0.452-2.079-0.452s-1.508,0.151-2.08,0.452
		c-0.572,0.302-0.858,0.754-0.858,1.355v21.158c0,3.467-1.658,5.199-4.974,5.199s-4.973-1.732-4.973-5.199v-21.158
		c0-0.602-0.287-1.054-0.859-1.355c-0.572-0.301-1.266-0.452-2.079-0.452s-1.508,0.151-2.08,0.452
		c-0.572,0.302-0.858,0.754-0.858,1.355v21.158c0,3.588,0.986,6.209,2.961,7.867c1.974,1.658,4.604,2.486,7.889,2.486
		s5.915-0.836,7.89-2.51c1.974-1.672,2.961-4.287,2.961-7.844v-21.158C210.258,685.334,209.971,684.882,209.398,684.58z"/>
	<path fill="#EDEEF0" d="M236.614,684.58c-0.573-0.301-1.267-0.452-2.08-0.452s-1.507,0.151-2.079,0.452
		c-0.573,0.302-0.859,0.754-0.859,1.355v18.175l-8.726-16.862c-0.693-1.297-1.326-2.141-1.898-2.532
		c-0.573-0.392-1.401-0.588-2.486-0.588c-0.814,0-1.508,0.158-2.08,0.475s-0.858,0.776-0.858,1.379v29.341
		c0,0.572,0.286,1.025,0.858,1.356s1.266,0.497,2.08,0.497c0.783,0,1.469-0.166,2.057-0.497s0.882-0.784,0.882-1.356v-18.174
		l9.72,18.174c0.663,1.236,1.793,1.854,3.391,1.854c0.783,0,1.47-0.166,2.058-0.497c0.587-0.331,0.881-0.784,0.881-1.356v-29.387
		C237.473,685.334,237.187,684.882,236.614,684.58z"/>
	<path fill="#EDEEF0" d="M264.96,713.424l-9.855-15.01l8.093-10.127c0.24-0.301,0.361-0.678,0.361-1.131
		c0-0.723-0.377-1.408-1.13-2.057c-0.754-0.647-1.508-0.972-2.261-0.972c-0.663,0-1.206,0.286-1.628,0.858l-9.765,13.292v-12.343
		c0-0.602-0.287-1.054-0.859-1.355c-0.572-0.301-1.266-0.452-2.079-0.452c-0.814,0-1.508,0.151-2.08,0.452
		c-0.572,0.302-0.858,0.754-0.858,1.355v29.387c0,0.572,0.286,1.025,0.858,1.356s1.266,0.497,2.08,0.497
		c0.783,0,1.469-0.166,2.057-0.497s0.882-0.784,0.882-1.356v-8.861l2.441-3.074l8.499,12.885c0.452,0.754,1.13,1.131,2.034,1.131
		c0.874,0,1.68-0.309,2.419-0.928c0.738-0.617,1.107-1.288,1.107-2.012C265.276,714.072,265.171,713.725,264.96,713.424z"/>
</g>
<path fill="#6589BB" d="M191.898,161.051c0.04,0.006-0.183-0.007,0.005,0.041c0.031,0.018,0.2,0.051,0.138,0.064
	c-0.018,0.014-0.037,0.03-0.061,0.049c-0.161,0.071-0.51,0.135-1.079,0.172c-1.14,0.063-3.07,0.023-5.661-0.375
	c-2.595-0.396-5.843-1.108-9.66-2.287c-1.908-0.607-3.96-1.32-6.145-2.047c-2.185-0.725-4.493-1.4-6.926-2.165
	c-2.432-0.755-4.969-1.45-7.616-2.188c-2.65-0.754-5.394-1.437-8.225-2.135c-5.67-1.376-11.688-2.702-17.934-3.686
	c-6.226-0.958-12.722-1.721-19.253-1.85c-6.518-0.122-13.173,0.229-19.619,1.504c-6.447,1.27-12.792,3.344-18.631,6.481
	c-2.977,1.519-5.747,3.354-8.434,5.364c-2.709,1.998-5.191,4.271-7.548,6.695l-0.889,0.91l-0.224,0.229l-0.055,0.057
	c-0.114,0.223,0.093-0.24,0.049-0.164l-0.114,0.143l-0.464,0.568c-0.616,0.758-1.231,1.512-1.842,2.264
	c-1.063,1.326-2.093,2.408-3.121,3.859c-2.023,2.762-3.865,5.627-5.513,8.53c-3.275,5.817-5.796,11.784-7.604,17.49
	c-1.819,5.708-3.012,11.146-3.699,16.02c-0.735,4.876-0.951,9.188-0.996,12.735c-0.028,3.551,0.191,6.336,0.388,8.225
	c0.217,1.887,0.427,2.867,0.427,2.867c0.06,0.27-0.111,0.537-0.379,0.597c-0.271,0.06-0.538-0.11-0.598-0.38
	c-0.002-0.004-0.003-0.016-0.004-0.02c0,0-0.184-1.012-0.525-2.908c-0.34-1.891-0.831-4.665-1.387-8.223
	c-0.582-3.559-1.186-7.901-1.794-12.952c-0.142-1.267-0.286-2.575-0.435-3.921c-0.121-1.351-0.281-2.746-0.373-4.182
	c-0.301-2.878-0.422-5.914-0.612-9.125c-0.065-1.604-0.139-3.25-0.146-4.932c-0.053-1.687-0.054-3.41-0.062-5.176
	c0.08-3.516,0.113-7.217,0.42-11.037c0.293-3.818,0.618-7.818,1.279-11.9c0.224-2.006,0.723-4.314,1.102-6.448
	c0.174-0.952,0.346-1.91,0.521-2.872l0.13-0.721l0.034-0.182c-0.021,0.021,0.217-0.493,0.129-0.324l0.025-0.102l0.1-0.406
	l0.406-1.637c0.518-2.209,1.196-4.395,1.872-6.635c0.752-2.197,1.498-4.459,2.38-6.692c1.709-4.501,3.801-8.985,6.175-13.438
	c0.581-1.129,1.211-2.222,1.85-3.322c0.638-1.103,1.28-2.218,1.973-3.289c1.332-2.209,2.766-4.353,4.246-6.512
	c3.01-4.236,6.244-8.422,9.743-12.386c6.957-7.999,14.78-15.287,22.976-21.769c8.202-6.472,16.737-12.179,25.263-17.078
	c8.522-4.877,17.002-9.104,25.174-12.57c8.177-3.496,16.031-6.321,23.362-8.646c3.663-1.184,7.201-2.168,10.581-3.1
	c3.38-0.924,6.61-1.744,9.663-2.395c6.113-1.243,11.517-1.75,16.044-1.844c4.53-0.094,8.186,0.259,10.851,0.635
	c1.332,0.196,2.443,0.398,3.263,0.566c0.524,0.102,0.922,0.178,1.188,0.229c0.438,0.074,0.341,0.078,0.381,0.082
	c35.247,4.008,60.573,35.829,56.565,71.076C258.968,139.733,227.146,165.059,191.898,161.051z"/>
<path fill="#364893" d="M194.199,151.917c0,0-0.047,0.012-0.141,0.037c-0.084,0.025-0.19,0.082-0.336,0.135
	c-0.304,0.104-0.795,0.236-1.413,0.364c-1.244,0.263-3.045,0.53-5.231,0.618c-2.186,0.085-4.761,0.006-7.582-0.404
	c-2.824-0.395-5.885-1.157-9.129-2.231c-3.26-1.021-6.747-2.182-10.373-3.504c-3.582-1.334-7.356-2.74-11.264-4.195
	c-3.845-1.36-7.862-2.612-11.676-3.232c-1.932-0.339-3.77-0.45-5.482-0.458c-1.246,0.123-2.494,0.247-3.744,0.37
	c-0.66,0.06-1.179,0.127-1.718,0.192l-1.632,0.195l-1.641,0.191l-1.701,0.279c-1.131,0.199-2.287,0.342-3.403,0.588
	c-1.13,0.229-2.256,0.457-3.379,0.686c-1.114,0.271-2.224,0.543-3.332,0.813c-4.415,1.146-8.709,2.559-12.783,4.209
	c-8.154,3.285-15.382,7.568-21.122,11.961c-5.763,4.375-10.07,8.789-12.842,12.087c-1.39,1.647-2.406,3.015-3.07,3.964
	c-0.665,0.949-0.976,1.469-0.976,1.469c-0.14,0.24-0.45,0.321-0.689,0.182c-0.2-0.117-0.289-0.357-0.23-0.571
	c0,0,0.173-0.629,0.579-1.758c0.404-1.128,1.043-2.767,1.984-4.805c1.884-4.069,4.996-9.765,9.8-15.99
	c4.787-6.219,11.298-12.931,19.341-18.991c4.014-3.035,8.393-5.912,13.033-8.548c1.169-0.642,2.344-1.287,3.524-1.934
	c1.203-0.603,2.41-1.206,3.619-1.812c1.211-0.623,2.455-1.137,3.69-1.713l1.866-0.842l1.962-0.793l1.976-0.791
	c0.661-0.264,1.343-0.536,1.9-0.74c1.173-0.441,2.349-0.884,3.521-1.324c3.135-1.05,6.201-1.926,9.173-2.522
	c1.514-0.364,2.944-0.588,4.431-0.872c1.433-0.215,2.906-0.451,4.313-0.624c2.854-0.384,5.627-0.63,8.34-0.789
	c5.433-0.358,10.553-0.226,15.305,0.245c4.752,0.473,9.116,1.313,13.059,2.303c3.956,0.938,7.447,2.196,10.397,3.686
	c2.953,1.476,5.381,3.143,7.296,4.712c1.913,1.572,3.316,3.062,4.248,4.174c0.471,0.552,0.811,1.017,1.065,1.345
	c0.136,0.166,0.241,0.309,0.299,0.393c0.049,0.082,0.073,0.124,0.073,0.124c4.612,7.724,2.091,17.726-5.634,22.339
	c-1.338,0.799-2.744,1.385-4.179,1.766L194.199,151.917z"/>
<path fill="#364893" d="M224.566,69.645c0,0-0.067,0.016-0.203,0.044c-0.093,0.044-0.231,0.108-0.416,0.194
	c-0.429,0.139-1.098,0.308-1.957,0.476c-1.732,0.349-4.246,0.688-7.316,0.806c-3.073,0.117-6.704,0.012-10.759-0.514
	c-2.029-0.258-4.167-0.618-6.406-1.098c-2.239-0.486-4.601-1.003-7.08-1.46c-4.959-0.923-10.382-1.69-16.149-2.188
	c-5.766-0.536-11.876-0.789-18.191-0.636c-6.317,0.139-12.85,0.621-19.429,1.627c-6.583,0.979-13.233,2.388-19.769,4.33l-2.456,0.72
	l-0.616,0.179l-0.078,0.022c0.118-0.054-0.368,0.149,0.242-0.113l-0.165,0.058l-0.329,0.117l-1.315,0.463l-2.628,0.928
	c-0.479,0.161-0.777,0.296-1.134,0.438l-1.045,0.42l-2.108,0.831l-2.218,1.034c-0.738,0.354-1.492,0.674-2.221,1.051l-2.187,1.135
	c-5.822,3.055-11.322,6.766-16.461,10.758c-5.106,4.031-9.841,8.359-14.117,12.748c-4.298,4.376-8.135,8.813-11.572,13.041
	c-3.417,4.24-6.42,8.285-8.983,11.957c-2.577,3.664-4.702,6.964-6.445,9.701c-1.733,2.742-3.009,4.957-3.881,6.469
	c-0.876,1.512-1.307,2.33-1.307,2.33c-0.13,0.248-0.437,0.344-0.683,0.214c-0.202-0.105-0.303-0.331-0.262-0.544
	c0,0,0.181-0.934,0.584-2.658c0.41-1.723,1.082-4.229,2.028-7.403c0.939-3.179,2.228-6.993,3.881-11.326
	c1.667-4.324,3.712-9.161,6.257-14.326c2.526-5.174,5.568-10.664,9.177-16.306c3.63-5.619,7.824-11.402,12.769-17.005
	c4.923-5.621,10.609-11.046,17.025-15.983l2.429-1.842c0.815-0.609,1.685-1.158,2.53-1.74l2.57-1.725l2.827-1.688l1.426-0.84
	c0.47-0.273,0.983-0.582,1.363-0.777l2.452-1.323l1.229-0.662l0.306-0.166l0.154-0.083l0.402-0.176l0.086-0.04l0.683-0.323
	l2.737-1.285c7.334-3.353,14.941-6.204,22.625-8.407c7.683-2.184,15.409-3.819,22.959-4.873c7.553-1.04,14.916-1.566,21.902-1.703
	c6.986-0.1,13.595,0.198,19.675,0.722c3.04,0.271,5.953,0.571,8.714,0.957c2.757,0.401,5.342,0.976,7.734,1.67
	c4.79,1.389,8.793,3.283,11.959,5.209s5.498,3.883,7.046,5.391c0.778,0.752,1.362,1.385,1.772,1.844
	c0.242,0.238,0.421,0.44,0.532,0.564c0.078,0.113,0.116,0.172,0.116,0.172c4.15,6.105,2.564,14.421-3.542,18.57
	c-1.464,0.995-3.056,1.66-4.685,2.013L224.566,69.645z"/>
<radialGradient id="SVGID_1_" cx="201.002" cy="93.4565" r="114.004" gradientUnits="userSpaceOnUse">
	<stop  offset="0" style="stop-color:#00164A"/>
	<stop  offset="0.4341" style="stop-color:#2F4984"/>
	<stop  offset="1" style="stop-color:#3B4A81;stop-opacity:0"/>
</radialGradient>
<radialGradient id="SVGID_2_" cx="144.335" cy="135.457" r="112.0823" gradientUnits="userSpaceOnUse">
	<stop  offset="0" style="stop-color:#C85432;stop-opacity:0.7"/>
	<stop  offset="0.3122" style="stop-color:#B83B31;stop-opacity:0.5"/>
	<stop  offset="1" style="stop-color:#2F4984;stop-opacity:0"/>
</radialGradient>
<path opacity="0.3" fill="url(#SVGID_1_)" stroke="url(#SVGID_2_)" stroke-miterlimit="10" d="M206.408,33.41
	c-0.04-0.004,0.057-0.008-0.381-0.082c-0.267-0.051-0.664-0.127-1.188-0.229c-0.819-0.168-1.931-0.37-3.263-0.566
	c-2.665-0.376-6.32-0.729-10.851-0.635c-2.643,0.055-5.594,0.256-8.801,0.657c-2.163-0.044-4.354-0.067-6.601-0.034
	c-6.986,0.137-14.35,0.663-21.902,1.703c-7.55,1.054-15.276,2.689-22.959,4.873c-7.684,2.203-15.291,5.055-22.625,8.407
	l-2.737,1.285l-0.683,0.323l-0.086,0.04l-0.402,0.176l-0.154,0.083l-0.306,0.166l-1.229,0.662l-2.452,1.323
	c-0.38,0.195-0.894,0.504-1.363,0.777l-1.426,0.84l-2.827,1.688l-2.57,1.725c-0.846,0.582-1.715,1.131-2.53,1.74l-2.429,1.842
	c-6.416,4.938-12.103,10.362-17.025,15.983c-4.944,5.603-9.139,11.386-12.769,17.005c-3.608,5.642-6.65,11.132-9.177,16.306
	c-1.487,3.017-2.785,5.903-3.954,8.661c-0.014,0.021-0.028,0.044-0.044,0.066c-0.692,1.071-1.335,2.187-1.973,3.289
	c-0.639,1.101-1.269,2.193-1.85,3.322c-2.374,4.453-4.466,8.938-6.175,13.438c-0.882,2.233-1.628,4.495-2.38,6.692
	c-0.676,2.24-1.354,4.426-1.872,6.635l-0.406,1.637l-0.1,0.406l-0.025,0.102c0.088-0.169-0.149,0.346-0.129,0.324l-0.034,0.182
	l-0.13,0.721c-0.175,0.962-0.347,1.92-0.521,2.872c-0.379,2.134-0.878,4.442-1.102,6.448c-0.661,4.082-0.986,8.082-1.279,11.9
	c-0.307,3.82-0.34,7.521-0.42,11.037c0.008,1.766,0.009,3.489,0.062,5.176c0.008,1.682,0.081,3.328,0.146,4.932
	c0.19,3.211,0.312,6.247,0.612,9.125c0.092,1.436,0.252,2.831,0.373,4.182c0.148,1.346,0.293,2.654,0.435,3.921
	c0.608,5.051,1.212,9.394,1.794,12.952c0.556,3.558,1.047,6.332,1.387,8.223c0.342,1.896,0.525,2.908,0.525,2.908
	c0.001,0.004,0.002,0.016,0.004,0.02c0.06,0.27,0.326,0.439,0.598,0.38c0.268-0.06,0.438-0.327,0.379-0.597
	c0,0-0.21-0.98-0.427-2.867c-0.196-1.889-0.416-4.674-0.388-8.225c0.045-3.548,0.261-7.859,0.996-12.735
	c0.688-4.874,1.88-10.312,3.699-16.02c1.809-5.706,4.329-11.673,7.604-17.49c1.647-2.903,3.489-5.769,5.513-8.53
	c1.028-1.451,2.059-2.533,3.121-3.859c0.61-0.752,1.226-1.506,1.842-2.264l0.464-0.568l0.114-0.143
	c0.044-0.076-0.163,0.387-0.049,0.164l0.055-0.057l0.224-0.229l0.889-0.91c2.356-2.424,4.839-4.697,7.548-6.695
	c2.687-2.01,5.457-3.846,8.434-5.364c0.457-0.245,0.92-0.472,1.382-0.704c-0.314,0.395-0.641,0.791-0.941,1.181
	c-4.804,6.226-7.916,11.921-9.8,15.99c-0.941,2.038-1.58,3.677-1.984,4.805c-0.406,1.129-0.579,1.758-0.579,1.758
	c-0.059,0.214,0.03,0.454,0.23,0.571c0.239,0.14,0.55,0.059,0.689-0.182c0,0,0.311-0.52,0.976-1.469
	c0.664-0.949,1.681-2.316,3.07-3.964c2.771-3.298,7.079-7.712,12.842-12.087c5.74-4.393,12.968-8.676,21.122-11.961
	c1.651-0.669,3.35-1.289,5.067-1.877c2.065-0.069,4.128-0.085,6.176-0.047c6.531,0.129,13.027,0.892,19.253,1.85
	c6.246,0.983,12.264,2.31,17.934,3.686c2.831,0.698,5.574,1.381,8.225,2.135c2.647,0.738,5.185,1.434,7.616,2.188
	c2.433,0.765,4.741,1.44,6.926,2.165c2.185,0.727,4.236,1.439,6.145,2.047c3.817,1.179,7.065,1.891,9.66,2.287
	c2.591,0.398,4.521,0.438,5.661,0.375c0.569-0.037,0.918-0.101,1.079-0.172c0.023-0.019,0.043-0.035,0.061-0.049
	c0.063-0.014-0.106-0.047-0.138-0.064c-0.188-0.048,0.035-0.035-0.005-0.041c35.247,4.008,67.069-21.318,71.075-56.565
	C266.981,69.239,241.655,37.417,206.408,33.41z"/>
<circle fill="#C33930" cx="199.153" cy="97.231" r="57.696"/>
<radialGradient id="SVGID_3_" cx="636.791" cy="2386.2168" r="74.4233" gradientTransform="matrix(0.9364 0.3508 -0.3508 0.9364 449.4474 -2354.6069)" gradientUnits="userSpaceOnUse">
	<stop  offset="0" style="stop-color:#BD5311"/>
	<stop  offset="0.6634" style="stop-color:#A42D15"/>
	<stop  offset="1" style="stop-color:#580800"/>
</radialGradient>
<path fill="url(#SVGID_3_)" d="M253.182,117.471c-11.176,29.84-44.428,44.969-74.27,33.789
	c-29.84-11.178-44.967-44.429-33.788-74.27c11.178-29.84,44.43-44.968,74.27-33.789C249.233,54.379,264.361,87.631,253.182,117.471z
	"/>
<path fill="#201F1F" d="M258.302,93.851c-0.054-0.876-0.121-1.747-0.209-2.616c-0.743-7.18-2.79-14.133-5.986-20.523
	c-0.388-0.773-0.793-1.537-1.216-2.293c-6.596-11.871-17.262-21.557-30.948-26.683c-8.63-3.232-17.548-4.314-26.163-3.518
	c-1.309,0.121-2.605,0.301-3.898,0.508c-11.85,1.898-22.938,7.351-31.661,15.661c-0.589,0.561-1.165,1.141-1.731,1.729
	c-5.469,5.66-9.898,12.498-12.832,20.326c-1.959,5.23-3.109,10.569-3.55,15.881c-0.072,0.871-0.128,1.742-0.159,2.611
	c-0.941,24.826,13.907,48.612,38.415,57.793c1.591,0.596,3.194,1.102,4.801,1.553c0.788,0.223,1.58,0.426,2.373,0.613
	c10.929,2.59,22.054,1.939,32.222-1.436c1.317-0.436,2.614-0.92,3.897-1.445c13.194-5.426,24.407-15.561,30.92-29.158
	c0.347-0.728,0.689-1.457,1.01-2.203c0.372-0.865,0.729-1.74,1.062-2.631C257.633,110.053,258.769,101.842,258.302,93.851z
	 M250.873,116.606c-0.352,0.939-0.73,1.862-1.129,2.77c-4.638-1.348-9.409-2.035-14.226-2.021c-1.009,0.002-2.009,0.039-3.005,0.102
	c0.29-4.336,0.233-8.777-0.164-13.273c8.003-2.021,15.411-4.788,22.019-8.186C254.523,102.833,253.419,109.811,250.873,116.606z
	 M254.247,93.397c-6.591,3.488-14.045,6.319-22.138,8.381c-0.61-5.271-1.712-10.604-3.318-15.93
	c2.732-0.828,5.396-1.883,7.965-3.174c4.642-2.336,8.785-5.328,12.412-8.846C252.027,79.944,253.769,86.577,254.247,93.397z
	 M218.527,45.51c13.225,4.955,23.422,14.441,29.509,26.033c-3.585,3.588-7.712,6.626-12.368,8.969
	c-2.446,1.23-4.986,2.236-7.592,3.023c-5.664-17.154-15.921-31.727-28.829-41.542C205.656,42.003,212.172,43.129,218.527,45.51z
	 M195.335,42.135c13.643,9.467,24.533,24.33,30.405,42.049c-10.252,2.547-21.475,1.775-32.501-2.355
	c-12.331-4.619-23.633-13.123-32.56-24.232C170.022,48.54,182.339,43.045,195.335,42.135z M147.432,77.856
	c2.662-7.106,6.634-13.338,11.535-18.531c9.172,11.342,20.77,20.029,33.424,24.77c11.544,4.324,23.309,5.109,34.07,2.405
	c1.604,5.301,2.697,10.612,3.287,15.853c-13.057,3.038-27.665,4.1-42.916,2.711c-12.606-1.152-24.681-3.861-35.879-8.057
	c-2.393-0.896-4.709-1.855-6.958-2.861C144.3,88.708,145.422,83.225,147.432,77.856z M179.778,148.952
	c-22.335-8.367-36.057-29.65-35.87-52.189c2.014,0.879,4.079,1.717,6.196,2.51c11.401,4.271,23.685,7.029,36.509,8.199
	c15.382,1.402,30.133,0.341,43.361-2.716c0.37,4.384,0.398,8.708,0.101,12.927c-18.748,2.105-35.062,14.683-45.045,32.944
	C183.271,150.159,181.517,149.602,179.778,148.952z M187.471,151.211c9.548-17.123,24.84-28.936,42.408-31.08
	c-1.027,10.115-3.941,19.553-8.481,27.639C210.975,152.36,199.135,153.749,187.471,151.211z M225.049,146
	c3.88-7.816,6.362-16.688,7.266-26.105c1.064-0.075,2.133-0.119,3.211-0.123c4.462-0.012,8.883,0.604,13.191,1.822
	C243.456,132.331,235.047,140.696,225.049,146z"/>
<g>
	<path fill="#324D8D" d="M46.876,220.88c0-0.481,0.173-0.949,0.52-1.401s0.73-0.679,1.153-0.679c0.271,0,0.617,0.189,1.039,0.566
		s0.859,0.799,1.312,1.266s1.16,0.889,2.125,1.266c0.964,0.377,2.049,0.564,3.255,0.564c1.959,0,3.496-0.475,4.611-1.424
		c1.114-0.949,1.673-2.343,1.673-4.182c0-1.657-0.513-3.006-1.537-4.047c-1.025-1.039-2.261-1.83-3.707-2.373
		c-1.447-0.543-2.901-1.122-4.363-1.74c-1.462-0.617-2.705-1.566-3.729-2.848c-1.025-1.281-1.537-2.932-1.537-4.951
		c0-1.584,0.301-2.963,0.904-4.135c0.603-1.173,1.408-2.057,2.419-2.65c1.009-0.594,2.057-1.029,3.142-1.303
		c1.085-0.274,2.245-0.411,3.481-0.411c1.868,0,3.654,0.271,5.357,0.812c1.702,0.543,2.554,1.293,2.554,2.253
		c0,0.424-0.151,0.878-0.452,1.362c-0.302,0.484-0.693,0.727-1.175,0.727c-0.121,0-0.814-0.285-2.08-0.858
		c-1.266-0.572-2.667-0.859-4.204-0.859c-1.839,0-3.323,0.378-4.453,1.13c-1.131,0.754-1.695,1.944-1.695,3.572
		c0,1.387,0.512,2.509,1.537,3.367c1.024,0.859,2.268,1.545,3.729,2.058s2.916,1.101,4.362,1.763
		c1.447,0.664,2.683,1.727,3.707,3.188c1.024,1.463,1.537,3.323,1.537,5.584c0,3.105-0.903,5.448-2.712,7.03
		c-1.809,1.583-4.205,2.373-7.188,2.373c-2.683,0-4.95-0.563-6.804-1.688S46.876,221.976,46.876,220.88z"/>
	<path fill="#324D8D" d="M68.667,194.164c0-0.441,0.12-0.83,0.361-1.168s0.572-0.506,0.995-0.506h18.399
		c0.422,0,0.753,0.168,0.995,0.506c0.241,0.338,0.361,0.727,0.361,1.168c0,0.47-0.12,0.881-0.361,1.233
		c-0.242,0.353-0.573,0.528-0.995,0.528h-7.278v28.252c0,0.424-0.188,0.756-0.565,0.998c-0.377,0.241-0.821,0.361-1.333,0.361
		c-0.513,0-0.957-0.12-1.334-0.361c-0.377-0.242-0.565-0.574-0.565-0.998v-28.252h-7.323c-0.423,0-0.754-0.169-0.995-0.507
		C68.787,195.082,68.667,194.663,68.667,194.164z"/>
	<path fill="#324D8D" d="M93.621,224.181v-30.336c0-0.422,0.173-0.753,0.52-0.994s0.746-0.361,1.198-0.361h16.095
		c0.422,0,0.746,0.166,0.972,0.496c0.227,0.332,0.339,0.725,0.339,1.176c0,0.482-0.12,0.897-0.361,1.244
		c-0.241,0.346-0.558,0.52-0.949,0.52H97.419v11.482h7.052c0.392,0,0.708,0.158,0.95,0.475c0.24,0.316,0.361,0.701,0.361,1.153
		c0,0.392-0.113,0.746-0.339,1.063c-0.227,0.316-0.551,0.475-0.973,0.475h-7.052v11.528h14.015c0.392,0,0.708,0.174,0.949,0.52
		c0.241,0.348,0.361,0.762,0.361,1.244c0,0.451-0.112,0.844-0.339,1.176c-0.226,0.331-0.55,0.496-0.972,0.496H95.339
		c-0.452,0-0.852-0.119-1.198-0.361C93.794,224.935,93.621,224.603,93.621,224.181z"/>
	<path fill="#324D8D" d="M116.858,224.181v-30.336c0-0.422,0.173-0.753,0.52-0.994s0.746-0.361,1.198-0.361h16.095
		c0.422,0,0.746,0.166,0.972,0.496c0.227,0.332,0.339,0.725,0.339,1.176c0,0.482-0.12,0.897-0.361,1.244
		c-0.241,0.346-0.558,0.52-0.949,0.52h-14.015v11.482h7.052c0.392,0,0.708,0.158,0.95,0.475c0.24,0.316,0.361,0.701,0.361,1.153
		c0,0.392-0.113,0.746-0.339,1.063c-0.227,0.316-0.551,0.475-0.973,0.475h-7.052v11.528h14.015c0.392,0,0.708,0.174,0.949,0.52
		c0.241,0.348,0.361,0.762,0.361,1.244c0,0.451-0.112,0.844-0.339,1.176c-0.226,0.331-0.55,0.496-0.972,0.496h-16.095
		c-0.452,0-0.852-0.119-1.198-0.361C117.031,224.935,116.858,224.603,116.858,224.181z"/>
	<path fill="#324D8D" d="M140.096,224.181v-29.838c0-1.236,0.633-1.854,1.898-1.854c1.205,0,2.216,0.799,3.029,2.396l7.098,13.608
		l7.144-13.608c0.873-1.597,1.883-2.396,3.028-2.396c1.267,0,1.899,0.617,1.899,1.854v29.838c0,0.422-0.188,0.754-0.565,0.994
		c-0.377,0.242-0.821,0.361-1.334,0.361s-0.957-0.119-1.333-0.361c-0.378-0.24-0.565-0.572-0.565-0.994v-23.735l-6.826,12.84
		c-0.362,0.693-0.859,1.04-1.492,1.04c-0.573,0-1.04-0.347-1.401-1.04l-6.781-13.021v23.916c0,0.422-0.189,0.754-0.565,0.994
		c-0.377,0.242-0.821,0.361-1.334,0.361s-0.957-0.119-1.333-0.361C140.283,224.935,140.096,224.603,140.096,224.181z"/>
	<path fill="#B83B30" d="M170.114,223.728v-29.431c0-0.481,0.24-0.903,0.723-1.266s1.101-0.542,1.854-0.542h8.002
		c3.226,0,5.802,0.828,7.731,2.486c1.929,1.658,2.894,4.279,2.894,7.866v12.342c0,3.587-0.965,6.21-2.894,7.866
		c-1.93,1.658-4.506,2.486-7.731,2.486h-8.002c-0.753,0-1.371-0.18-1.854-0.542S170.114,224.211,170.114,223.728z M175.991,220.383
		h4.701c3.165,0,4.747-1.733,4.747-5.199v-12.342c0-3.466-1.582-5.199-4.747-5.199h-4.701V220.383z"/>
	<path fill="#B83B30" d="M196.199,215.456v-21.158c0-0.603,0.286-1.054,0.858-1.356c0.572-0.301,1.267-0.451,2.08-0.451
		s1.507,0.15,2.079,0.451c0.572,0.303,0.859,0.754,0.859,1.356v21.158c0,3.466,1.657,5.198,4.973,5.198s4.974-1.732,4.974-5.198
		v-21.158c0-0.603,0.286-1.054,0.858-1.356c0.572-0.301,1.267-0.451,2.08-0.451s1.507,0.15,2.079,0.451
		c0.572,0.303,0.859,0.754,0.859,1.356v21.158c0,3.557-0.987,6.171-2.961,7.844c-1.975,1.673-4.604,2.509-7.89,2.509
		s-5.915-0.828-7.889-2.486C197.186,221.665,196.199,219.042,196.199,215.456z"/>
	<path fill="#B83B30" d="M223.188,223.683v-29.34c0-0.604,0.286-1.063,0.858-1.379s1.266-0.475,2.08-0.475
		c1.085,0,1.913,0.195,2.486,0.588c0.572,0.391,1.205,1.235,1.898,2.531l8.726,16.863v-18.175c0-0.603,0.286-1.054,0.859-1.356
		c0.572-0.301,1.266-0.451,2.079-0.451s1.507,0.15,2.08,0.451c0.572,0.303,0.858,0.754,0.858,1.356v29.386
		c0,0.573-0.294,1.025-0.881,1.357c-0.588,0.331-1.274,0.496-2.058,0.496c-1.598,0-2.728-0.617-3.391-1.854l-9.72-18.174v18.174
		c0,0.573-0.294,1.025-0.882,1.357c-0.588,0.331-1.273,0.496-2.057,0.496c-0.814,0-1.508-0.165-2.08-0.496
		C223.475,224.708,223.188,224.256,223.188,223.683z"/>
	<path fill="#B83B30" d="M250.54,223.683v-29.386c0-0.603,0.286-1.054,0.858-1.356c0.572-0.301,1.266-0.451,2.08-0.451
		c0.813,0,1.507,0.15,2.079,0.451c0.572,0.303,0.859,0.754,0.859,1.356v12.343l9.765-13.292c0.422-0.572,0.965-0.858,1.628-0.858
		c0.753,0,1.507,0.324,2.261,0.972c0.753,0.648,1.13,1.333,1.13,2.057c0,0.452-0.121,0.829-0.361,1.13l-8.093,10.127l9.855,15.01
		c0.211,0.302,0.316,0.648,0.316,1.04c0,0.724-0.369,1.394-1.107,2.012c-0.739,0.618-1.545,0.927-2.419,0.927
		c-0.904,0-1.582-0.377-2.034-1.131l-8.499-12.884l-2.441,3.074v8.86c0,0.573-0.294,1.025-0.882,1.357
		c-0.588,0.331-1.273,0.496-2.057,0.496c-0.814,0-1.508-0.165-2.08-0.496C250.826,224.708,250.54,224.256,250.54,223.683z"/>
</g>
</svg>
