<?xml version="1.0" encoding="utf-8"?>
<!-- Generator: Adobe Illustrator 16.0.0, SVG Export Plug-In . SVG Version: 6.00 Build 0)  -->
<!DOCTYPE svg PUBLIC "-//W3C//DTD SVG 1.1//EN" "http://www.w3.org/Graphics/SVG/1.1/DTD/svg11.dtd">
<svg version="1.1" id="Capa_1" xmlns="http://www.w3.org/2000/svg" xmlns:xlink="http://www.w3.org/1999/xlink" x="0px" y="0px"
	 width="792px" height="915.06px" viewBox="0 0 792 915.06" enable-background="new 0 0 792 915.06" xml:space="preserve">
<path fill="#422813" d="M428.103,146.618c-1.197,0.568-2.562,0.827-3.978,0.681c-4.119-0.424-7.116-4.107-6.692-8.228l6.101-59.31
	c0.424-4.119,4.108-7.117,8.228-6.693c4.12,0.424,7.117,4.107,6.693,8.229l-6.101,59.309
	C432.076,143.31,430.393,145.531,428.103,146.618z"/>
<g>
	<defs>
		<path id="SVGID_1_" d="M428.103,146.618c-1.197,0.568-2.562,0.827-3.978,0.681c-4.119-0.424-7.116-4.107-6.692-8.228l6.101-59.31
			c0.424-4.119,4.108-7.117,8.228-6.693c4.12,0.424,7.117,4.107,6.693,8.229l-6.101,59.309
			C432.076,143.31,430.393,145.531,428.103,146.618z"/>
	</defs>
	<clipPath id="SVGID_2_">
		<use xlink:href="#SVGID_1_"  overflow="visible"/>
	</clipPath>
	<g clip-path="url(#SVGID_2_)">
		
			<rect x="413.66" y="87.581" transform="matrix(0.9707 0.2402 -0.2402 0.9707 34.6874 -100.3752)" fill="#DDCD9A" width="30.73" height="9"/>
		
			<rect x="410.233" y="106.46" transform="matrix(0.9707 0.2402 -0.2402 0.9707 39.1226 -98.9987)" fill="#DDCD9A" width="30.73" height="9"/>
		
			<rect x="406.805" y="125.339" transform="matrix(0.9707 0.2403 -0.2403 0.9707 43.565 -97.6339)" fill="#DDCD9A" width="30.73" height="9"/>
	</g>
</g>
<g>
	<path fill="#DDCD9A" d="M433.425,150.621c-1.315,0.164-2.691-0.02-3.989-0.603c-3.779-1.696-5.467-6.136-3.77-9.914l24.426-54.39
		c1.697-3.777,6.137-5.465,9.914-3.77c3.779,1.697,5.467,6.136,3.77,9.914L439.35,146.25
		C438.236,148.73,435.939,150.309,433.425,150.621z"/>
	<g>
		<defs>
			<path id="SVGID_3_" d="M433.425,150.621c-1.315,0.164-2.691-0.02-3.989-0.603c-3.779-1.696-5.467-6.136-3.77-9.914l24.426-54.39
				c1.697-3.777,6.137-5.465,9.914-3.77c3.779,1.697,5.467,6.136,3.77,9.914L439.35,146.25
				C438.236,148.73,435.939,150.309,433.425,150.621z"/>
		</defs>
		<use xlink:href="#SVGID_3_"  overflow="visible" fill="#DDCD9A"/>
		<clipPath id="SVGID_4_">
			<use xlink:href="#SVGID_3_"  overflow="visible"/>
		</clipPath>
		<g clip-path="url(#SVGID_4_)">
			
				<rect x="436.07" y="94.637" transform="matrix(0.8461 0.5331 -0.5331 0.8461 122.3483 -225.3997)" fill="#422813" width="30.731" height="8.998"/>
			
				<rect x="426.885" y="111.482" transform="matrix(0.8461 0.5331 -0.5331 0.8461 129.9056 -217.9011)" fill="#422813" width="30.731" height="8.999"/>
			
				<rect x="417.699" y="128.328" transform="matrix(0.8461 0.5331 -0.5331 0.8461 137.4625 -210.4034)" fill="#422813" width="30.73" height="9"/>
		</g>
	</g>
</g>
<g>
	<circle fill="#F5EF9A" cx="384.494" cy="144.251" r="54"/>
	<path fill="#D1AA6B" d="M384.494,201.253c-31.43,0-57-25.571-57-57.002c0-31.43,25.57-57,57-57s57,25.57,57,57
		C441.494,175.682,415.924,201.253,384.494,201.253z M384.494,93.251c-28.121,0-51,22.879-51,51c0,28.123,22.879,51.002,51,51.002
		s51-22.879,51-51.002C435.494,116.13,412.615,93.251,384.494,93.251z"/>
</g>
<g>
	<path fill="#5E3E18" d="M384.494,270.621c-12.521,0-40.512-91.896-40.512-91.896s10.4,4.334,40.512,4.334
		c30.555,0,40.512-4.334,40.512-4.334S397.015,270.621,384.494,270.621z"/>
	<path fill="#3F2717" d="M384.494,273.621c-4.306,0-8.578-4.784-14.286-15.998c-3.931-7.724-8.465-18.457-13.476-31.902
		c-8.497-22.797-15.55-45.892-15.62-46.122c-0.338-1.111-0.005-2.318,0.856-3.098c0.862-0.779,2.093-0.994,3.168-0.546
		c0.086,0.035,10.508,4.104,39.357,4.104c29.218,0,39.236-4.052,39.334-4.093c1.07-0.449,2.316-0.243,3.18,0.537
		c0.862,0.78,1.207,1.983,0.868,3.096c-0.07,0.23-7.123,23.325-15.62,46.122c-5.011,13.445-9.545,24.179-13.476,31.902
		C393.072,268.836,388.8,273.621,384.494,273.621z M348.485,183.082c2.517,7.954,7.671,23.843,13.561,39.714
		c15.472,41.692,21.613,44.616,22.448,44.818c0.835-0.202,6.979-3.127,22.456-44.84c5.882-15.851,11.026-31.709,13.544-39.666
		c-5.996,1.317-17.216,2.95-36,2.95C365.814,186.058,354.518,184.401,348.485,183.082z"/>
</g>
<g>
	<defs>
		<path id="SVGID_5_" d="M384.494,270.621c-12.521,0-40.512-91.896-40.512-91.896s10.4,4.334,40.512,4.334
			c30.555,0,40.512-4.334,40.512-4.334S397.015,270.621,384.494,270.621z"/>
	</defs>
	<clipPath id="SVGID_6_">
		<use xlink:href="#SVGID_5_"  overflow="visible"/>
	</clipPath>
	<g clip-path="url(#SVGID_6_)">
		<g>
			<line fill="#5E3E18" x1="348.482" y1="188.464" x2="372.148" y2="205.466"/>
			<path fill="#3F2717" d="M372.146,208.466c-0.605,0-1.218-0.183-1.747-0.563l-23.666-17.002c-1.346-0.967-1.653-2.841-0.687-4.187
				s2.842-1.654,4.187-0.687l23.666,17.002c1.346,0.967,1.653,2.841,0.687,4.187C373.999,208.033,373.079,208.466,372.146,208.466z"
				/>
		</g>
		<g>
			<line fill="#5E3E18" x1="349.598" y1="202.628" x2="373.264" y2="219.628"/>
			<path fill="#3F2717" d="M373.261,222.628c-0.605,0-1.218-0.183-1.747-0.563l-23.666-17c-1.346-0.967-1.653-2.841-0.687-4.187
				c0.966-1.346,2.841-1.654,4.187-0.687l23.666,17c1.346,0.967,1.653,2.841,0.687,4.187
				C375.114,222.195,374.194,222.628,373.261,222.628z"/>
		</g>
		<g>
			<line fill="#5E3E18" x1="350.713" y1="216.792" x2="374.379" y2="233.792"/>
			<path fill="#3F2717" d="M374.376,236.792c-0.605,0-1.218-0.183-1.747-0.563l-23.666-17c-1.346-0.967-1.653-2.841-0.687-4.187
				c0.966-1.346,2.842-1.655,4.187-0.687l23.666,17c1.346,0.967,1.653,2.841,0.687,4.187
				C376.229,236.359,375.31,236.792,374.376,236.792z"/>
		</g>
		<g>
			<line fill="#5E3E18" x1="351.828" y1="230.955" x2="375.494" y2="247.955"/>
			<path fill="#3F2717" d="M375.491,250.955c-0.605,0-1.218-0.183-1.747-0.563l-23.666-17c-1.346-0.967-1.653-2.841-0.687-4.187
				c0.966-1.346,2.841-1.654,4.187-0.687l23.666,17c1.346,0.967,1.653,2.841,0.687,4.187
				C377.345,250.521,376.425,250.955,375.491,250.955z"/>
		</g>
		<g>
			<line fill="#5E3E18" x1="415.88" y1="209.71" x2="392.214" y2="226.71"/>
			<path fill="#3F2717" d="M392.217,229.71c-0.934,0-1.854-0.434-2.439-1.25c-0.967-1.346-0.659-3.22,0.687-4.187l23.666-17
				c1.347-0.968,3.221-0.659,4.187,0.687c0.967,1.346,0.659,3.22-0.687,4.187l-23.666,17
				C393.435,229.528,392.822,229.71,392.217,229.71z"/>
		</g>
		<g>
			<line fill="#5E3E18" x1="414.765" y1="223.873" x2="391.099" y2="240.873"/>
			<path fill="#3F2717" d="M391.102,243.873c-0.934,0-1.854-0.434-2.439-1.25c-0.967-1.346-0.659-3.22,0.687-4.187l23.666-17
				c1.346-0.967,3.221-0.659,4.187,0.687c0.967,1.346,0.659,3.22-0.687,4.187l-23.666,17
				C392.319,243.69,391.707,243.873,391.102,243.873z"/>
		</g>
		<g>
			<line fill="#5E3E18" x1="413.649" y1="238.037" x2="389.983" y2="255.037"/>
			<path fill="#3F2717" d="M389.986,258.037c-0.934,0-1.854-0.434-2.439-1.25c-0.967-1.346-0.659-3.22,0.687-4.187l23.666-17
				c1.347-0.968,3.222-0.659,4.187,0.687c0.967,1.346,0.659,3.22-0.687,4.187l-23.666,17
				C391.204,257.854,390.592,258.037,389.986,258.037z"/>
		</g>
		<g>
			<line fill="#5E3E18" x1="412.534" y1="252.199" x2="388.868" y2="269.199"/>
			<path fill="#3F2717" d="M388.871,272.199c-0.934,0-1.854-0.434-2.439-1.25c-0.967-1.346-0.659-3.22,0.687-4.187l23.666-17
				c1.346-0.967,3.221-0.659,4.187,0.687c0.967,1.346,0.659,3.22-0.687,4.187l-23.666,17
				C390.089,272.016,389.477,272.199,388.871,272.199z"/>
		</g>
	</g>
</g>
<g>
	<path fill="#F5EF9A" d="M401.013,178.098c0,0-2.667,16.731,7,16.671c10.92-0.068,3.667-16.671,3.667-16.671"/>
	<path fill="#D1AA6B" d="M407.962,197.769c-2.829,0-5.25-1.078-7.004-3.121c-4.608-5.366-3.096-15.845-2.908-17.022
		c0.261-1.636,1.797-2.753,3.436-2.49c1.635,0.261,2.75,1.798,2.49,3.434c-0.533,3.397-0.587,9.706,1.538,12.174
		c0.61,0.709,1.365,1.026,2.445,1.026c0.012,0,0.023,0,0.035,0c1.884-0.012,2.318-0.68,2.481-0.931
		c1.427-2.194-0.079-8.183-1.545-11.539c-0.663-1.519,0.029-3.287,1.548-3.95c1.521-0.663,3.288,0.031,3.95,1.548
		c0.823,1.885,4.744,11.57,1.078,17.211c-1.076,1.655-3.247,3.635-7.476,3.661C408.008,197.769,407.984,197.769,407.962,197.769z"/>
</g>
<path d="M362.764,156.064c-0.677,0-1.356-0.228-1.917-0.694l-7.75-6.451c-1.273-1.06-1.446-2.951-0.387-4.225
	c1.059-1.273,2.951-1.447,4.225-0.387l7.75,6.451c1.273,1.06,1.446,2.951,0.387,4.225
	C364.479,155.696,363.624,156.064,362.764,156.064z"/>
<path d="M355.018,162.515c-0.86,0-1.714-0.368-2.308-1.081c-1.06-1.273-0.887-3.165,0.387-4.225l7.75-6.451
	c1.274-1.062,3.165-0.886,4.225,0.387c1.06,1.273,0.887,3.165-0.387,4.225l-7.75,6.451
	C356.374,162.288,355.693,162.515,355.018,162.515z"/>
<path d="M406.225,156.064c-0.86,0-1.714-0.368-2.308-1.081c-1.06-1.273-0.887-3.165,0.387-4.225l7.75-6.451
	c1.274-1.061,3.164-0.886,4.225,0.387c1.06,1.273,0.887,3.165-0.387,4.225l-7.75,6.451
	C407.581,155.836,406.9,156.064,406.225,156.064z"/>
<path d="M413.971,162.515c-0.677,0-1.356-0.228-1.917-0.694l-7.75-6.451c-1.273-1.06-1.446-2.951-0.387-4.225
	s2.951-1.447,4.225-0.387l7.75,6.451c1.273,1.06,1.446,2.951,0.387,4.225C415.686,162.147,414.831,162.515,413.971,162.515z"/>
<path d="M394.028,166.949c-0.828,0-1.5-0.672-1.5-1.5c0-1.002,0-3.348-6.292-3.348c-6.293,0-6.293,2.346-6.293,3.348
	c0,0.828-0.672,1.5-1.5,1.5s-1.5-0.672-1.5-1.5c0-2.896,1.612-6.348,9.293-6.348c7.68,0,9.292,3.452,9.292,6.348
	C395.528,166.277,394.856,166.949,394.028,166.949z"/>
<g>
	<path fill="#F5EF9A" d="M373.435,154.218c3.796,0,6.874,3.489,6.874,7.793s-3.078,7.793-6.874,7.793"/>
	<path d="M373.435,171.304c-0.828,0-1.5-0.672-1.5-1.5s0.672-1.5,1.5-1.5c2.963,0,5.374-2.823,5.374-6.293s-2.411-6.293-5.374-6.293
		c-0.828,0-1.5-0.672-1.5-1.5s0.672-1.5,1.5-1.5c4.617,0,8.374,4.169,8.374,9.293S378.052,171.304,373.435,171.304z"/>
</g>
<path fill="#3B2010" d="M356.452,112.183c-0.663,0-1.313-0.329-1.693-0.932c-0.59-0.935-0.311-2.17,0.623-2.76l4.75-3
	c0.935-0.59,2.169-0.312,2.76,0.623c0.59,0.935,0.311,2.17-0.623,2.76l-4.75,3C357.187,112.083,356.817,112.183,356.452,112.183z"/>
<path fill="#3B2010" d="M402.61,117.982c-0.663,0-1.313-0.329-1.693-0.932c-0.59-0.935-0.311-2.17,0.623-2.76l4.75-3
	c0.934-0.59,2.169-0.312,2.76,0.623c0.59,0.935,0.311,2.17-0.623,2.76l-4.75,3C403.345,117.882,402.976,117.982,402.61,117.982z"/>
<path fill="#3B2010" d="M380.311,116.482c-0.663,0-1.313-0.329-1.693-0.932c-0.59-0.935-0.311-2.17,0.623-2.76l4.75-3
	c0.934-0.59,2.169-0.312,2.76,0.623c0.59,0.935,0.311,2.17-0.623,2.76l-4.75,3C381.045,116.382,380.676,116.482,380.311,116.482z"/>
<path fill="#3B2010" d="M366.068,103.33c-0.663,0-1.313-0.329-1.693-0.932c-0.59-0.935-0.311-2.17,0.623-2.76l4.75-3
	c0.934-0.59,2.168-0.312,2.76,0.623c0.59,0.935,0.311,2.17-0.623,2.76l-4.75,3C366.803,103.23,366.434,103.33,366.068,103.33z"/>
<path fill="#3B2010" d="M370.818,114.982c-0.058,0-0.116-0.002-0.175-0.008c-1.101-0.096-1.915-1.064-1.819-2.165l0.486-5.597
	c0.095-1.101,1.057-1.932,2.165-1.819c1.101,0.096,1.915,1.064,1.819,2.165l-0.486,5.597
	C372.719,114.197,371.845,114.982,370.818,114.982z"/>
<path fill="#3B2010" d="M402.61,111.982c-0.058,0-0.116-0.002-0.176-0.008c-1.1-0.096-1.914-1.065-1.818-2.166l0.487-5.597
	c0.096-1.1,1.048-1.925,2.166-1.818c1.1,0.096,1.914,1.065,1.818,2.166l-0.487,5.597C404.51,111.197,403.637,111.982,402.61,111.982
	z"/>
<path fill="#3B2010" d="M376.63,109.385c-0.058,0-0.116-0.002-0.176-0.008c-1.1-0.096-1.914-1.065-1.818-2.166l0.487-5.597
	c0.096-1.1,1.05-1.928,2.166-1.818c1.1,0.096,1.914,1.065,1.818,2.166l-0.487,5.597C378.529,108.6,377.656,109.385,376.63,109.385z"
	/>
<path fill="#3B2010" d="M396.041,111.142c-0.503,0-1.006-0.188-1.395-0.566l-4.026-3.918c-0.792-0.771-0.81-2.037-0.039-2.828
	c0.771-0.793,2.037-0.809,2.828-0.039l4.026,3.918c0.792,0.771,0.81,2.037,0.039,2.828
	C397.082,110.94,396.562,111.142,396.041,111.142z"/>
<path fill="#3B2010" d="M397.283,104.349c-0.738,0-1.449-0.41-1.797-1.117l-2.479-5.041c-0.487-0.991-0.079-2.19,0.912-2.678
	c0.993-0.488,2.19-0.078,2.678,0.912l2.479,5.041c0.487,0.991,0.079,2.19-0.912,2.678
	C397.88,104.284,397.579,104.349,397.283,104.349z"/>
<path fill="#3B2010" d="M415.986,111.344c-0.503,0-1.006-0.188-1.395-0.566l-4.027-3.917c-0.792-0.77-0.81-2.036-0.039-2.828
	c0.771-0.793,2.037-0.809,2.828-0.039l4.027,3.917c0.792,0.77,0.81,2.036,0.039,2.828
	C417.028,111.142,416.507,111.344,415.986,111.344z"/>
<path fill="#3B2010" d="M385.219,104.449c-0.241,0-0.486-0.044-0.725-0.137c-1.029-0.4-1.54-1.56-1.14-2.589l2.035-5.237
	c0.399-1.029,1.561-1.54,2.589-1.14c1.029,0.4,1.54,1.56,1.14,2.589l-2.035,5.237C386.775,103.963,386.02,104.449,385.219,104.449z"
	/>
<g>
	<circle fill="#F7C5DD" cx="224.176" cy="149.617" r="54"/>
	<path fill="#F08CB9" d="M224.176,206.617c-31.43,0-57-25.57-57-57s25.57-57,57-57s57,25.57,57,57S255.605,206.617,224.176,206.617z
		 M224.176,98.617c-28.121,0-51,22.879-51,51s22.879,51,51,51s51-22.879,51-51S252.297,98.617,224.176,98.617z"/>
</g>
<g>
	<path fill="#EAD683" d="M224.176,275.985c-12.521,0-40.512-91.896-40.512-91.896s10.4,4.333,40.512,4.333
		c30.555,0,40.512-4.333,40.512-4.333S236.696,275.985,224.176,275.985z"/>
	<path fill="#BCA852" d="M224.176,278.985c-4.306,0-8.578-4.784-14.286-15.998c-3.931-7.724-8.465-18.457-13.476-31.902
		c-8.497-22.796-15.55-45.891-15.62-46.121c-0.338-1.111-0.005-2.318,0.856-3.098s2.095-0.993,3.167-0.546
		c0.086,0.035,10.509,4.103,39.358,4.103c29.218,0,39.236-4.052,39.334-4.092c1.069-0.449,2.316-0.243,3.18,0.537
		c0.862,0.78,1.207,1.983,0.868,3.096c-0.07,0.23-7.123,23.325-15.62,46.121c-5.011,13.445-9.545,24.179-13.476,31.902
		C232.754,274.201,228.481,278.985,224.176,278.985z M188.167,188.447c2.517,7.954,7.671,23.843,13.561,39.714
		c15.472,41.691,21.613,44.615,22.448,44.817c0.835-0.202,6.979-3.127,22.456-44.84c5.882-15.851,11.026-31.708,13.545-39.665
		c-5.996,1.317-17.215,2.949-36.001,2.949C205.496,191.422,194.199,189.765,188.167,188.447z"/>
</g>
<g>
	<path fill="#EF7A7D" d="M227.947,146.048c0,1.438-1.646,7.854-9.375,7.854c-7.771,0-9.375-6.416-9.375-7.854
		c0-1.439,4.197-0.271,9.375-0.271S227.947,144.609,227.947,146.048z"/>
	<path d="M218.572,155.403c-8.939,0-10.875-7.498-10.875-9.354c0-0.828,0.409-2.219,3.15-2.219c0.776,0,1.72,0.082,2.812,0.177
		c1.463,0.128,3.122,0.271,4.913,0.271s3.449-0.144,4.913-0.271c1.092-0.095,2.035-0.177,2.812-0.177c2.741,0,3.15,1.391,3.15,2.219
		C229.447,147.905,227.512,155.403,218.572,155.403z M210.84,146.83c0.421,1.699,2.013,5.573,7.732,5.573
		c5.622,0,7.271-3.874,7.719-5.573c-0.646,0.001-1.526,0.077-2.547,0.166c-1.448,0.126-3.251,0.282-5.172,0.282
		c-1.922,0-3.724-0.156-5.173-0.282c-1.022-0.089-1.905-0.166-2.552-0.166C210.845,146.83,210.843,146.83,210.84,146.83z"/>
</g>
<g>
	<path fill="#E8387E" d="M218.572,151.701c0,0-0.646,5.875,3.229,6.625s8.401-2.785,6.146-5.625
		C225.692,149.863,218.572,151.701,218.572,151.701z"/>
	<path fill="#E60060" d="M222.887,159.428L222.887,159.428c-0.435,0-0.863-0.041-1.276-0.121c-4.725-0.914-4.063-7.438-4.032-7.716
		c0.046-0.413,0.342-0.755,0.744-0.858c0.098-0.025,2.419-0.617,4.898-0.617c2.621,0,4.475,0.66,5.51,1.963
		c0.92,1.158,1.074,2.524,0.436,3.848C228.187,157.955,225.546,159.428,222.887,159.428z M219.533,152.512
		c-0.017,1.392,0.214,4.397,2.458,4.832c0.287,0.056,0.589,0.084,0.896,0.084c2.087,0,3.916-1.206,4.479-2.372
		c0.299-0.619,0.233-1.187-0.201-1.733c-0.793-0.998-2.582-1.207-3.943-1.207C221.774,152.116,220.354,152.348,219.533,152.512z"/>
</g>
<g>
	<defs>
		<path id="SVGID_7_" d="M224.176,275.985c-12.521,0-40.512-91.896-40.512-91.896s10.4,4.333,40.512,4.333
			c30.555,0,40.512-4.333,40.512-4.333S236.696,275.985,224.176,275.985z"/>
	</defs>
	<clipPath id="SVGID_8_">
		<use xlink:href="#SVGID_7_"  overflow="visible"/>
	</clipPath>
	<g clip-path="url(#SVGID_8_)">
		<path fill="#BCA852" d="M211.827,213.83c-0.605,0-1.218-0.183-1.747-0.563l-23.666-17c-1.346-0.967-1.653-2.841-0.687-4.187
			c0.967-1.347,2.842-1.655,4.187-0.687l23.666,17c1.346,0.967,1.653,2.841,0.687,4.187
			C213.681,213.396,212.761,213.83,211.827,213.83z"/>
		<path fill="#BCA852" d="M212.942,227.993c-0.605,0-1.218-0.183-1.747-0.563l-23.666-17c-1.346-0.967-1.653-2.841-0.687-4.187
			c0.966-1.346,2.841-1.655,4.187-0.687l23.666,17c1.346,0.967,1.653,2.841,0.687,4.187
			C214.796,227.559,213.876,227.993,212.942,227.993z"/>
		<path fill="#BCA852" d="M214.058,242.156c-0.605,0-1.218-0.183-1.747-0.563l-23.666-17c-1.346-0.967-1.653-2.841-0.687-4.187
			c0.966-1.347,2.842-1.655,4.187-0.687l23.666,17c1.346,0.967,1.653,2.841,0.687,4.187
			C215.911,241.722,214.991,242.156,214.058,242.156z"/>
		<path fill="#BCA852" d="M215.173,256.319c-0.605,0-1.218-0.183-1.747-0.563l-23.666-17c-1.346-0.967-1.653-2.841-0.687-4.187
			c0.966-1.346,2.841-1.655,4.187-0.687l23.666,17c1.346,0.967,1.653,2.841,0.687,4.187
			C217.026,255.885,216.106,256.319,215.173,256.319z"/>
		<path fill="#BCA852" d="M231.898,235.074c-0.934,0-1.854-0.434-2.439-1.25c-0.967-1.346-0.659-3.22,0.687-4.187l23.666-17
			c1.347-0.967,3.222-0.659,4.187,0.687c0.967,1.346,0.659,3.22-0.687,4.187l-23.666,17
			C233.116,234.891,232.504,235.074,231.898,235.074z"/>
		<path fill="#BCA852" d="M230.783,249.238c-0.934,0-1.854-0.434-2.439-1.25c-0.967-1.346-0.659-3.22,0.687-4.187l23.666-17
			c1.346-0.968,3.222-0.659,4.187,0.687c0.967,1.346,0.659,3.22-0.687,4.187l-23.666,17
			C232.001,249.055,231.389,249.238,230.783,249.238z"/>
		<path fill="#BCA852" d="M229.668,263.4c-0.934,0-1.854-0.434-2.439-1.25c-0.967-1.346-0.659-3.22,0.687-4.187l23.666-17
			c1.347-0.967,3.221-0.659,4.187,0.687c0.967,1.346,0.659,3.22-0.687,4.187l-23.666,17
			C230.886,263.217,230.273,263.4,229.668,263.4z"/>
		<path fill="#BCA852" d="M228.553,277.564c-0.934,0-1.854-0.434-2.439-1.25c-0.967-1.346-0.659-3.22,0.687-4.187l23.666-17
			c1.346-0.968,3.221-0.659,4.187,0.687c0.967,1.346,0.659,3.22-0.687,4.187L230.3,277
			C229.771,277.381,229.158,277.564,228.553,277.564z"/>
	</g>
</g>
<g>
	<defs>
		<circle id="SVGID_9_" cx="224.176" cy="149.617" r="54"/>
	</defs>
	<clipPath id="SVGID_10_">
		<use xlink:href="#SVGID_9_"  overflow="visible"/>
	</clipPath>
	<g clip-path="url(#SVGID_10_)">
		<path fill="#462A01" d="M271.675,123.908c0,0-3.22-0.748-6.987-3.082c-3.768-2.333-1.232,6.668-7.526,10.643
			s-8.985-17.309-15.706-16.309c-6.717,1-4.333,8.666-12.905,13s-12.064-11.387-14.428-12.666c-4.925-2.668-5.986,6.971-10,6.971
			c-9.333,0,1.667-13.639-20.458,3.695s-13.488-13.334-13.488-13.334s10.222-26.202,48.356-29.535
			c38.135-3.334,65.801,24,69.801,34.333S271.675,123.908,271.675,123.908"/>
		<path fill="#462A01" d="M255.62,134.963c-4.345,0-6.644-4.705-9.077-9.688c-0.955-1.955-3.493-7.15-4.631-7.15
			c-1.74,0.258-2.229,1.069-3.516,3.597c-1.395,2.739-3.305,6.492-8.493,9.115c-1.412,0.714-2.839,1.076-4.239,1.076
			c-6.252,0-9.607-6.766-11.827-11.242c-0.432-0.869-0.995-2.006-1.352-2.566c-0.476,0.396-1.23,1.563-1.702,2.294
			c-1.381,2.138-3.272,5.065-6.661,5.065c-5.067,0-6.65-3.158-7.336-4.815c-1.318,0.613-4.373,2.468-11.271,7.872
			c-5.107,4.002-9.169,5.947-12.417,5.947c-2.291,0-4.207-0.931-5.539-2.689c-4.05-5.348-0.936-17.404-0.271-19.767
			c0.026-0.094,0.058-0.186,0.093-0.276c0.445-1.142,11.354-27.979,50.891-31.434c2.211-0.193,4.453-0.292,6.663-0.292
			c36.57,0,62.171,26.133,66.196,36.53c1.359,3.512,0.523,5.885-0.417,7.258c-1.794,2.618-5.365,3.891-10.919,3.891
			c-4.374,0-8.522-0.803-8.697-0.837c-0.034-0.007-0.068-0.015-0.102-0.022c-0.13-0.03-2.802-0.664-6.177-2.468
			c-0.677,2.682-1.849,6.985-6.057,9.643C257.756,134.641,256.698,134.963,255.62,134.963z M241.912,112.125
			c4.884,0,7.496,5.347,10.021,10.518c1.014,2.073,2.668,5.46,3.702,6.239c2.224-1.451,2.856-3.965,3.416-6.187
			c0.526-2.091,1.321-5.25,4.586-5.25c0.867,0,1.728,0.271,2.629,0.829c3.022,1.872,5.665,2.601,6.05,2.701
			c0.519,0.096,3.981,0.713,7.479,0.713c5.033,0,5.934-1.23,5.97-1.282c0.166-0.243,0.076-0.91-0.229-1.7
			c-3.485-9.005-27.399-32.696-60.601-32.696c-2.036,0-4.103,0.091-6.141,0.269c-34.592,3.023-44.995,25.698-45.775,27.522
			c-1.305,4.746-2.254,12.275-0.677,14.355c0.116,0.153,0.236,0.312,0.756,0.312c0.829,0,3.337-0.455,8.716-4.67
			c10.122-7.93,13.353-9.433,15.773-9.433c3.141,0,4.193,2.62,4.643,3.739c0.487,1.215,0.542,1.352,1.761,1.359
			c0.452-0.308,1.261-1.56,1.753-2.321c1.396-2.159,3.306-5.116,6.742-5.116c1.019,0,2.05,0.279,3.065,0.829
			c1.514,0.819,2.367,2.542,3.661,5.149c1.467,2.957,3.922,7.908,6.452,7.908c0.451,0,0.967-0.146,1.532-0.432
			c3.438-1.737,4.611-4.042,5.854-6.482c1.379-2.71,3.097-6.082,7.964-6.807C241.317,112.147,241.617,112.125,241.912,112.125z"/>
	</g>
</g>
<path fill="#E4032E" d="M262.742,96.089c-8.079,0-14.652,6.573-14.652,14.652c0,8.08,6.573,14.652,14.652,14.652
	c8.08,0,14.653-6.572,14.653-14.652C277.396,102.663,270.822,96.089,262.742,96.089z"/>
<path fill="#A91324" d="M267.704,107.76c-0.581,0-1.168-0.168-1.684-0.52c-1.368-0.932-1.726-2.792-0.796-4.162
	c0.26-0.383,6.475-9.422,15.221-11.68c8.419-2.173,16.388-0.083,16.724,0.008c1.6,0.43,2.549,2.075,2.119,3.676
	c-0.431,1.599-2.074,2.549-3.671,2.12c-0.129-0.033-6.858-1.752-13.672,0.007c-6.532,1.686-11.707,9.167-11.759,9.242
	C269.605,107.302,268.663,107.76,267.704,107.76z"/>
<g>
	<g>
		<circle fill="#8FC045" cx="548.035" cy="141.544" r="54"/>
		<path fill="#45AC34" d="M548.035,198.544c-31.43,0-57-25.57-57-57s25.57-57,57-57s57,25.57,57,57S579.465,198.544,548.035,198.544
			z M548.035,90.544c-28.121,0-51,22.879-51,51s22.879,51,51,51s51-22.879,51-51S576.156,90.544,548.035,90.544z"/>
	</g>
	<g>
		<path fill="#EAD683" d="M548.035,267.912c-12.521,0-40.512-91.895-40.512-91.895s10.4,4.334,40.512,4.334
			c30.555,0,40.512-4.334,40.512-4.334S560.556,267.912,548.035,267.912z"/>
		<path fill="#BCA852" d="M548.035,270.912c-4.306,0-8.578-4.784-14.286-15.998c-3.931-7.723-8.465-18.456-13.476-31.901
			c-8.497-22.796-15.55-45.891-15.62-46.121c-0.338-1.111-0.005-2.318,0.856-3.098c0.861-0.778,2.093-0.993,3.168-0.546
			c0.086,0.035,10.508,4.104,39.357,4.104c29.218,0,39.236-4.052,39.334-4.093c1.07-0.45,2.316-0.243,3.18,0.537
			c0.862,0.78,1.207,1.983,0.868,3.096c-0.07,0.23-7.123,23.325-15.62,46.121c-5.011,13.445-9.545,24.179-13.476,31.901
			C556.613,266.127,552.341,270.912,548.035,270.912z M512.026,180.375c2.517,7.953,7.671,23.842,13.561,39.713
			c15.472,41.69,21.613,44.614,22.448,44.816c0.835-0.202,6.979-3.127,22.456-44.839c5.882-15.851,11.026-31.708,13.544-39.665
			c-5.996,1.317-17.216,2.95-36,2.95C529.355,183.351,518.059,181.694,512.026,180.375z"/>
	</g>
	<g>
		<defs>
			<path id="SVGID_11_" d="M548.035,267.912c-12.521,0-40.512-91.895-40.512-91.895s10.4,4.334,40.512,4.334
				c30.555,0,40.512-4.334,40.512-4.334S560.556,267.912,548.035,267.912z"/>
		</defs>
		<clipPath id="SVGID_12_">
			<use xlink:href="#SVGID_11_"  overflow="visible"/>
		</clipPath>
		<g clip-path="url(#SVGID_12_)">
			<path fill="#BCA852" d="M535.687,205.757c-0.605,0-1.218-0.183-1.747-0.563l-23.666-17c-1.346-0.967-1.653-2.841-0.687-4.187
				c0.966-1.346,2.841-1.654,4.187-0.687l23.666,17c1.346,0.967,1.653,2.841,0.687,4.187
				C537.54,205.324,536.62,205.757,535.687,205.757z"/>
			<path fill="#BCA852" d="M536.802,219.919c-0.605,0-1.218-0.183-1.747-0.563l-23.666-17c-1.346-0.967-1.653-2.841-0.687-4.187
				c0.966-1.346,2.842-1.654,4.187-0.687l23.666,17c1.346,0.967,1.653,2.841,0.687,4.187
				C538.655,219.486,537.735,219.919,536.802,219.919z"/>
			<path fill="#BCA852" d="M537.917,234.083c-0.605,0-1.218-0.183-1.747-0.563l-23.666-17c-1.346-0.967-1.653-2.841-0.687-4.187
				c0.966-1.346,2.841-1.654,4.187-0.687l23.666,17c1.346,0.967,1.653,2.841,0.687,4.187
				C539.771,233.65,538.851,234.083,537.917,234.083z"/>
			<path fill="#BCA852" d="M539.032,248.246c-0.605,0-1.218-0.183-1.747-0.563l-23.666-17c-1.346-0.967-1.653-2.841-0.687-4.187
				c0.966-1.346,2.841-1.654,4.187-0.687l23.666,17c1.346,0.967,1.653,2.841,0.687,4.187
				C540.886,247.812,539.966,248.246,539.032,248.246z"/>
			<path fill="#BCA852" d="M555.758,227.001c-0.934,0-1.854-0.434-2.439-1.25c-0.967-1.346-0.659-3.22,0.687-4.187l23.666-17
				c1.346-0.968,3.221-0.659,4.187,0.687c0.967,1.346,0.659,3.22-0.687,4.187l-23.666,17
				C556.976,226.819,556.363,227.001,555.758,227.001z"/>
			<path fill="#BCA852" d="M554.643,241.166c-0.934,0-1.854-0.434-2.439-1.25c-0.967-1.346-0.659-3.22,0.687-4.187l23.666-17
				c1.346-0.967,3.221-0.659,4.187,0.687c0.967,1.346,0.659,3.22-0.687,4.187l-23.666,17
				C555.86,240.983,555.248,241.166,554.643,241.166z"/>
			<path fill="#BCA852" d="M553.527,255.328c-0.934,0-1.854-0.434-2.439-1.25c-0.967-1.346-0.659-3.22,0.687-4.187l23.666-17
				c1.346-0.967,3.221-0.659,4.187,0.687c0.967,1.346,0.659,3.22-0.687,4.187l-23.666,17
				C554.745,255.145,554.133,255.328,553.527,255.328z"/>
			<path fill="#BCA852" d="M552.412,269.492c-0.934,0-1.854-0.434-2.439-1.25c-0.967-1.346-0.659-3.22,0.687-4.187l23.666-17
				c1.347-0.967,3.222-0.659,4.187,0.687c0.967,1.346,0.659,3.22-0.687,4.187l-23.666,17
				C553.63,269.309,553.018,269.492,552.412,269.492z"/>
		</g>
	</g>
	<path d="M513.402,158.552c-0.556,0-1.107-0.229-1.503-0.68c-0.729-0.83-0.648-2.094,0.182-2.822l17.075-15.008
		c0.83-0.729,2.094-0.648,2.822,0.182c0.729,0.83,0.648,2.094-0.182,2.822l-17.075,15.008
		C514.342,158.388,513.871,158.552,513.402,158.552z"/>
	<path d="M524.909,158.552c-0.556,0-1.107-0.229-1.503-0.68c-0.729-0.83-0.648-2.094,0.182-2.822l17.075-15.008
		c0.831-0.729,2.094-0.648,2.822,0.182c0.729,0.83,0.648,2.094-0.182,2.822l-17.075,15.008
		C525.849,158.388,525.378,158.552,524.909,158.552z"/>
	<path d="M536.416,158.552c-0.556,0-1.107-0.229-1.503-0.68c-0.729-0.83-0.648-2.094,0.182-2.822l17.075-15.008
		c0.831-0.729,2.094-0.648,2.822,0.182c0.729,0.83,0.648,2.094-0.182,2.822l-17.075,15.008
		C537.355,158.388,536.885,158.552,536.416,158.552z"/>
	<path d="M547.923,158.552c-0.556,0-1.107-0.229-1.503-0.68c-0.729-0.83-0.648-2.094,0.182-2.822l17.075-15.008
		c0.83-0.729,2.093-0.648,2.822,0.182s0.648,2.094-0.182,2.822l-17.075,15.008C548.862,158.388,548.392,158.552,547.923,158.552z"/>
	<path d="M559.43,158.552c-0.556,0-1.107-0.229-1.503-0.68c-0.729-0.83-0.648-2.094,0.182-2.822l17.075-15.008
		c0.831-0.729,2.094-0.648,2.822,0.182c0.729,0.83,0.648,2.094-0.182,2.822l-17.075,15.008
		C560.369,158.388,559.898,158.552,559.43,158.552z"/>
	<g>
		<path fill="#8FC045" d="M564.554,175.39c0,0-2.667,16.732,7,16.672c10.92-0.068,3.667-16.672,3.667-16.672"/>
		<path fill="#45AC34" d="M571.503,195.062c-2.829,0-5.249-1.078-7.003-3.121c-4.609-5.367-3.097-15.846-2.909-17.023
			c0.261-1.636,1.8-2.752,3.436-2.49c1.635,0.261,2.75,1.798,2.49,3.434c-0.533,3.398-0.587,9.707,1.538,12.175
			c0.616,0.717,1.404,1.047,2.48,1.026c1.884-0.012,2.318-0.68,2.481-0.931c1.427-2.194-0.079-8.184-1.545-11.54
			c-0.663-1.519,0.03-3.287,1.548-3.95c1.524-0.664,3.288,0.031,3.95,1.548c0.823,1.885,4.744,11.571,1.078,17.212
			c-1.076,1.655-3.247,3.635-7.476,3.661C571.549,195.062,571.525,195.062,571.503,195.062z"/>
	</g>
	<g>
		<circle fill="#FFFFFF" cx="519.197" cy="147.13" r="8.352"/>
		<path d="M519.197,156.982c-5.433,0-9.852-4.419-9.852-9.852s4.419-9.853,9.852-9.853s9.852,4.42,9.852,9.853
			S524.63,156.982,519.197,156.982z M519.197,140.278c-3.778,0-6.852,3.074-6.852,6.853s3.073,6.852,6.852,6.852
			s6.852-3.073,6.852-6.852S522.976,140.278,519.197,140.278z"/>
	</g>
	<g>
		<circle fill="#FFFFFF" cx="569.229" cy="147.13" r="8.353"/>
		<path d="M569.229,156.982c-5.433,0-9.853-4.419-9.853-9.852s4.42-9.853,9.853-9.853s9.853,4.42,9.853,9.853
			S574.662,156.982,569.229,156.982z M569.229,140.278c-3.778,0-6.853,3.074-6.853,6.853s3.074,6.852,6.853,6.852
			s6.853-3.073,6.853-6.852S573.008,140.278,569.229,140.278z"/>
	</g>
	<g>
		<rect x="533.445" y="149.369" width="11.508" height="22.086"/>
		<path d="M546.453,172.955h-14.508v-25.086h14.508V172.955z M534.945,169.955h8.508v-19.086h-8.508V169.955z"/>
	</g>
	<path d="M583.688,127.825c-0.435,0-0.875-0.095-1.293-0.295c-1.347-0.645-1.992-2.162-1.585-3.549
		c0.006-0.414-0.137-2.916-3.765-8.928c-4.563-7.563-13.48-9.941-13.57-9.964c-1.601-0.414-2.569-2.046-2.16-3.648
		c0.408-1.601,2.033-2.566,3.636-2.168c0.461,0.116,11.366,2.96,17.231,12.681c5.335,8.84,4.93,12.67,4.214,14.165
		C585.88,127.196,584.807,127.825,583.688,127.825z"/>
	<g>
		<defs>
			<path id="SVGID_13_" d="M563.844,100.28l4.123-31.747l38.744-3L629.5,93.929L617,124.824h-33.311c0,0,1.219-2.546-4.076-11.32
				c-5.295-8.775-15.396-11.321-15.396-11.321"/>
		</defs>
		<clipPath id="SVGID_14_">
			<use xlink:href="#SVGID_13_"  overflow="visible"/>
		</clipPath>
		
			<rect x="569.59" y="79.655" transform="matrix(0.948 0.3182 -0.3182 0.948 62.3177 -181.0008)" clip-path="url(#SVGID_14_)" fill="#5E3E18" width="31.372" height="41.25"/>
		
			<rect x="575.111" y="80.798" transform="matrix(0.948 0.3182 -0.3182 0.948 58.5841 -180.3129)" clip-path="url(#SVGID_14_)" fill="#362312" width="12.326" height="16.772"/>
		
			<rect x="589.249" y="85.542" transform="matrix(0.9481 0.3181 -0.3181 0.9481 60.8074 -184.5244)" clip-path="url(#SVGID_14_)" fill="#362312" width="12.326" height="16.773"/>
		
			<rect x="569.016" y="98.962" transform="matrix(0.948 0.3181 -0.3181 0.948 64.0325 -177.4037)" clip-path="url(#SVGID_14_)" fill="#362312" width="12.325" height="16.773"/>
		
			<rect x="583.153" y="103.707" transform="matrix(0.9481 0.3181 -0.3181 0.9481 66.2691 -181.6415)" clip-path="url(#SVGID_14_)" fill="#362312" width="12.326" height="16.773"/>
	</g>
</g>
<g>
	<path fill="#F7C5DD" d="M194.597,182.765c0,0-2.667,16.732,7,16.672c10.92-0.068,3.667-16.672,3.667-16.672"/>
	<path fill="#F08CB9" d="M201.546,202.437c-2.829,0-5.249-1.078-7.003-3.121c-4.609-5.367-3.097-15.846-2.909-17.023
		c0.261-1.636,1.801-2.753,3.436-2.49c1.635,0.261,2.75,1.798,2.49,3.434c-0.533,3.398-0.587,9.707,1.538,12.175
		c0.617,0.716,1.333,1.042,2.48,1.026c1.884-0.012,2.318-0.68,2.481-0.931c1.427-2.194-0.079-8.184-1.545-11.54
		c-0.663-1.519,0.03-3.287,1.548-3.95c1.524-0.665,3.288,0.031,3.95,1.548c0.823,1.885,4.744,11.571,1.078,17.212
		c-1.076,1.655-3.247,3.635-7.476,3.661C201.592,202.437,201.568,202.437,201.546,202.437z"/>
</g>
<ellipse fill="#EC6568" cx="183.664" cy="152.606" rx="8.645" ry="5.471"/>
<ellipse fill="#EC6568" cx="255.59" cy="152.606" rx="8.645" ry="5.471"/>
<path d="M193.039,148.166c-6.379,0-11.375-3.611-11.375-8.222c0-1.104,0.896-2,2-2s2,0.896,2,2c0,1.997,3.028,4.222,7.375,4.222
	s7.375-2.225,7.375-4.222c0-1.104,0.896-2,2-2s2,0.896,2,2C204.414,144.554,199.418,148.166,193.039,148.166z"/>
<path d="M179.844,146.995c-0.774,0-1.512-0.453-1.838-1.209c-0.437-1.015,0.031-2.191,1.045-2.629l4.5-1.939
	c1.019-0.439,2.191,0.031,2.629,1.045c0.437,1.015-0.031,2.191-1.045,2.629l-4.5,1.939
	C180.376,146.942,180.107,146.995,179.844,146.995z"/>
<path d="M183.665,150.106c-0.774,0-1.512-0.453-1.838-1.209c-0.437-1.015,0.031-2.191,1.045-2.629l4.5-1.939
	c1.019-0.44,2.191,0.031,2.629,1.045c0.437,1.015-0.031,2.191-1.045,2.629l-4.5,1.939
	C184.197,150.053,183.929,150.106,183.665,150.106z"/>
<path d="M246.215,148.166c-6.379,0-11.375-3.611-11.375-8.222c0-1.104,0.896-2,2-2s2,0.896,2,2c0,1.997,3.028,4.222,7.375,4.222
	s7.375-2.225,7.375-4.222c0-1.104,0.896-2,2-2s2,0.896,2,2C257.59,144.554,252.594,148.166,246.215,148.166z"/>
<path d="M259.41,146.995c-0.264,0-0.532-0.053-0.791-0.164l-4.5-1.939c-1.014-0.438-1.481-1.614-1.045-2.629
	c0.437-1.014,1.609-1.484,2.629-1.045l4.5,1.939c1.014,0.438,1.481,1.614,1.045,2.629
	C260.922,146.542,260.185,146.995,259.41,146.995z"/>
<path d="M255.589,150.106c-0.264,0-0.532-0.053-0.791-0.164l-4.5-1.939c-1.014-0.438-1.481-1.614-1.045-2.629
	c0.437-1.014,1.609-1.485,2.629-1.045l4.5,1.939c1.014,0.438,1.481,1.614,1.045,2.629
	C257.101,149.653,256.363,150.106,255.589,150.106z"/>
<g>
	<g opacity="0.8">
		<linearGradient id="SVGID_15_" gradientUnits="userSpaceOnUse" x1="395.9995" y1="823.9512" x2="395.9995" y2="738.9916">
			<stop  offset="0" style="stop-color:#FFFFFF"/>
			<stop  offset="1" style="stop-color:#9CD8F7"/>
		</linearGradient>
		<path fill="url(#SVGID_15_)" d="M512.189,786.448c0-28.979-23.493-52.475-52.473-52.475c-16.369,0-30.983,7.502-40.604,19.249
			c-9.622-11.747-24.237-19.249-40.605-19.249c-13.58,0-25.914,5.203-35.23,13.668c-3.549-0.756-7.221-1.174-10.996-1.174
			c-28.98,0-52.473,23.495-52.473,52.475s23.492,52.473,52.473,52.473c13.579,0,25.915-5.203,35.23-13.667
			c1.322,0.281,2.666,0.477,4.021,0.656c8.037,18.672,26.587,31.752,48.205,31.752c21.696,0,40.317-13.172,48.305-31.956
			C493.056,834.203,512.189,812.587,512.189,786.448z"/>
		<path fill="#00ACDE" d="M419.738,873.903c-21.772,0-41.473-12.519-50.773-32.081c-0.115-0.019-0.232-0.036-0.348-0.055
			c-10.181,8.652-23.008,13.396-36.336,13.396c-31,0-56.221-25.223-56.221-56.222c0-31,25.221-56.222,56.221-56.222
			c3.284,0,6.607,0.298,9.908,0.891c10.174-8.646,22.999-13.385,36.318-13.385c15.449,0,30.018,6.271,40.605,17.346
			c10.587-11.075,25.156-17.346,40.604-17.346c31,0,56.223,25.223,56.223,56.222c0,27.067-18.923,49.916-45.285,55.092
			C461.412,861.27,441.648,873.903,419.738,873.903z M367.512,834c0.259,0,0.521,0.026,0.778,0.083
			c1.229,0.26,2.478,0.438,3.737,0.604c1.309,0.176,2.426,1.022,2.946,2.235c7.713,17.911,25.28,29.484,44.765,29.484
			c19.585,0,37.189-11.646,44.854-29.676c0.505-1.185,1.585-2.028,2.858-2.235c23.75-3.793,40.991-24.001,40.991-48.048
			c0-26.867-21.859-48.725-48.726-48.725c-14.658,0-28.4,6.516-37.705,17.873c-1.42,1.738-4.378,1.738-5.799,0
			c-9.304-11.357-23.047-17.873-37.705-17.873c-12.085,0-23.701,4.507-32.71,12.691c-0.896,0.812-2.131,1.144-3.303,0.892
			c-3.396-0.726-6.831-1.09-10.214-1.09c-26.866,0-48.725,21.86-48.725,48.726c0,26.866,21.858,48.725,48.725,48.725
			c12.084,0,23.701-4.507,32.711-12.693C365.69,834.343,366.589,834,367.512,834z"/>
	</g>
	<path d="M337.393,783.233c0,4.371-3.541,7.915-7.916,7.915c-4.368,0-7.912-3.544-7.912-7.915c0-4.369,3.544-7.913,7.912-7.913
		C333.852,775.32,337.393,778.864,337.393,783.233z"/>
	<path d="M390.205,783.233c0,4.371-3.549,7.915-7.916,7.915c-4.374,0-7.917-3.544-7.917-7.915c0-4.369,3.543-7.913,7.917-7.913
		C386.656,775.32,390.205,778.864,390.205,783.233z"/>
	<path fill="#EC5F62" d="M354.597,798.328c-8.865,0-7.703-13.081-7.703-13.081s4.81,0.507,7.703,0.507s7.705-0.507,7.705-0.507
		S363.462,798.328,354.597,798.328z"/>
	<path fill="#F6BBD6" d="M329.477,791.354c0,2.247-3.779,4.07-8.441,4.07c-4.663,0-8.443-1.823-8.443-4.07
		c0-2.251,3.78-4.07,8.443-4.07C325.697,787.283,329.477,789.103,329.477,791.354z"/>
	<path fill="#F6BBD6" d="M398.646,791.354c0,2.247-3.778,4.07-8.441,4.07c-4.665,0-8.443-1.823-8.443-4.07
		c0-2.251,3.778-4.07,8.443-4.07C394.868,787.283,398.646,789.103,398.646,791.354z"/>
	<path fill="#E73456" d="M354.597,792.281c-2.631,0-4.919,0.857-6.211,2.13c1.111,2.192,2.998,3.917,6.211,3.917
		c3.215,0,5.101-1.725,6.21-3.917C359.517,793.139,357.228,792.281,354.597,792.281z"/>
</g>
<g>
	<g opacity="0.8">
		<linearGradient id="SVGID_16_" gradientUnits="userSpaceOnUse" x1="315.2095" y1="603.4512" x2="315.2095" y2="518.4928">
			<stop  offset="0" style="stop-color:#FFFFFF"/>
			<stop  offset="1" style="stop-color:#9CD8F7"/>
		</linearGradient>
		<path fill="url(#SVGID_16_)" d="M431.4,565.948c0-28.979-23.494-52.474-52.475-52.474c-16.368,0-30.982,7.502-40.604,19.249
			c-9.62-11.747-24.236-19.249-40.603-19.249c-13.581,0-25.915,5.203-35.231,13.667c-3.549-0.756-7.222-1.173-10.997-1.173
			c-28.979,0-52.472,23.494-52.472,52.472c0,28.98,23.493,52.475,52.472,52.475c13.581,0,25.914-5.201,35.231-13.667
			c1.321,0.28,2.665,0.475,4.018,0.655c8.04,18.673,26.59,31.752,48.207,31.752c21.698,0,40.319-13.171,48.306-31.956
			C412.266,613.703,431.4,592.087,431.4,565.948z"/>
		<path fill="#00ACDE" d="M338.946,653.404c-21.771,0-41.47-12.521-50.772-32.08c-0.115-0.021-0.231-0.038-0.346-0.057
			c-10.182,8.651-23.008,13.396-36.338,13.396c-30.999,0-56.222-25.221-56.222-56.223c0-31,25.223-56.22,56.222-56.22
			c3.284,0,6.608,0.298,9.907,0.891c10.176-8.646,23-13.384,36.321-13.384c15.447,0,30.016,6.271,40.603,17.344
			c10.589-11.073,25.156-17.344,40.604-17.344c31,0,56.221,25.221,56.221,56.221c0,27.065-18.92,49.916-45.285,55.093
			C380.621,640.77,360.856,653.404,338.946,653.404z M286.721,613.501c0.26,0,0.52,0.026,0.779,0.082
			c1.227,0.257,2.477,0.438,3.735,0.604c1.307,0.176,2.426,1.022,2.947,2.235c7.711,17.911,25.279,29.484,44.763,29.484
			c19.584,0,37.192-11.646,44.856-29.675c0.504-1.185,1.586-2.03,2.859-2.235c23.75-3.794,40.989-24.001,40.989-48.049
			c0-26.867-21.857-48.725-48.725-48.725c-14.657,0-28.4,6.515-37.704,17.873c-1.421,1.737-4.378,1.737-5.798,0
			c-9.305-11.358-23.048-17.873-37.705-17.873c-12.086,0-23.703,4.507-32.712,12.693c-0.897,0.81-2.132,1.14-3.302,0.89
			c-3.396-0.724-6.831-1.091-10.215-1.091c-26.865,0-48.726,21.859-48.726,48.725c0,26.868,21.86,48.728,48.726,48.728
			c12.085,0,23.702-4.509,32.711-12.693C284.898,613.84,285.798,613.501,286.721,613.501z"/>
	</g>
	<g opacity="0.8">
		<linearGradient id="SVGID_17_" gradientUnits="userSpaceOnUse" x1="476.793" y1="603.4512" x2="476.793" y2="518.4928">
			<stop  offset="0" style="stop-color:#FFFFFF"/>
			<stop  offset="1" style="stop-color:#9CD8F7"/>
		</linearGradient>
		<path fill="url(#SVGID_17_)" d="M592.984,565.948c0-28.979-23.492-52.474-52.473-52.474c-16.369,0-30.982,7.502-40.605,19.249
			c-9.621-11.747-24.234-19.249-40.604-19.249c-13.578,0-25.914,5.203-35.23,13.667c-3.549-0.756-7.221-1.173-10.996-1.173
			c-28.98,0-52.474,23.494-52.474,52.472c0,28.98,23.494,52.475,52.474,52.475c13.58,0,25.914-5.201,35.232-13.667
			c1.318,0.28,2.664,0.475,4.018,0.655c8.039,18.673,26.588,31.752,48.205,31.752c21.697,0,40.318-13.171,48.307-31.956
			C573.854,613.703,592.984,592.087,592.984,565.948z"/>
		<path fill="#00ACDE" d="M500.531,653.404c-21.77,0-41.471-12.521-50.771-32.08c-0.115-0.021-0.232-0.038-0.348-0.057
			c-10.18,8.651-23.008,13.396-36.336,13.396c-31,0-56.223-25.221-56.223-56.223c0-31,25.224-56.22,56.223-56.22
			c3.287,0,6.609,0.298,9.906,0.891c10.176-8.646,23-13.384,36.32-13.384c15.449,0,30.016,6.271,40.604,17.344
			c10.59-11.073,25.156-17.344,40.605-17.344c31,0,56.221,25.221,56.221,56.221c0,27.065-18.92,49.916-45.283,55.093
			C542.209,640.77,522.441,653.404,500.531,653.404z M448.309,613.501c0.258,0,0.518,0.026,0.777,0.082
			c1.227,0.257,2.477,0.438,3.736,0.604c1.307,0.176,2.426,1.022,2.947,2.235c7.713,17.911,25.281,29.484,44.762,29.484
			c19.584,0,37.191-11.646,44.855-29.675c0.506-1.185,1.586-2.03,2.859-2.235c23.75-3.794,40.992-24.001,40.992-48.049
			c0-26.867-21.861-48.725-48.727-48.725c-14.658,0-28.4,6.515-37.705,17.873c-1.422,1.737-4.379,1.737-5.799,0
			c-9.305-11.358-23.047-17.873-37.705-17.873c-12.084,0-23.703,4.507-32.711,12.693c-0.893,0.81-2.133,1.14-3.301,0.89
			c-3.396-0.724-6.832-1.091-10.215-1.091c-26.867,0-48.727,21.859-48.727,48.725c0,26.868,21.86,48.728,48.727,48.728
			c12.084,0,23.701-4.509,32.711-12.693C446.482,613.84,447.383,613.501,448.309,613.501z"/>
	</g>
	<circle cx="504.332" cy="567.981" r="7.914"/>
	<circle cx="557.141" cy="567.981" r="7.916"/>
	<path d="M531.781,580.297c-5.201,0-7.16-3.836-7.471-5.862c-0.209-1.364,0.727-2.641,2.092-2.848
		c1.371-0.212,2.609,0.708,2.84,2.045c0.131,0.628,0.635,1.667,2.539,1.667c1.402,0,2.145-0.44,2.199-1.312
		c0.086-1.345,1.297-2.402,2.574-2.382c1.35,0.044,2.422,1.103,2.422,2.452C538.977,576.565,537.061,580.297,531.781,580.297z"/>
	<path d="M260.261,580.267c-5.201,0-7.16-3.836-7.471-5.866c-0.209-1.363,0.729-2.638,2.094-2.846
		c1.347-0.204,2.612,0.709,2.839,2.045c0.128,0.629,0.635,1.671,2.538,1.671c1.401,0,2.143-0.442,2.2-1.313
		c0.087-1.345,1.23-2.372,2.574-2.385c1.35,0.044,2.421,1.103,2.421,2.452C267.457,576.534,265.542,580.267,260.261,580.267z"/>
	<ellipse fill="#F6BBD6" cx="495.889" cy="576.099" rx="8.443" ry="4.071"/>
	<ellipse fill="#F6BBD6" cx="565.057" cy="576.099" rx="8.443" ry="4.071"/>
	<g>
		<path d="M242.996,567.406c-0.036-0.188-0.087-0.368-0.161-0.549c-0.075-0.192-0.173-0.366-0.288-0.539
			c-0.063-0.096-0.085-0.205-0.159-0.291c-0.063-0.075-0.151-0.108-0.218-0.177c-0.07-0.069-0.101-0.155-0.177-0.22l-7.894-6.568
			c-1.295-1.079-3.224-0.903-4.302,0.394c-1.078,1.298-0.903,3.223,0.393,4.3l5.073,4.226l-5.073,4.224
			c-1.296,1.078-1.471,3.006-0.393,4.3c0.604,0.727,1.476,1.103,2.351,1.103c0.687,0,1.381-0.231,1.951-0.708l7.894-6.568
			c0.081-0.069,0.117-0.164,0.191-0.237c0.061-0.061,0.146-0.088,0.203-0.159c0.074-0.087,0.099-0.198,0.159-0.291
			c0.115-0.177,0.213-0.348,0.288-0.535c0.074-0.183,0.125-0.361,0.161-0.553c0.037-0.191,0.06-0.378,0.06-0.574
			C243.055,567.783,243.033,567.598,242.996,567.406z"/>
		<path d="M289.077,567.981l5.072-4.226c1.299-1.077,1.473-3.002,0.394-4.3c-1.081-1.297-3.007-1.473-4.308-0.394l-7.89,6.568
			c-0.075,0.064-0.108,0.157-0.18,0.225c-0.066,0.065-0.15,0.097-0.212,0.172c-0.071,0.086-0.093,0.191-0.152,0.282
			c-0.122,0.18-0.222,0.355-0.299,0.554c-0.071,0.179-0.12,0.354-0.157,0.539c-0.035,0.195-0.059,0.381-0.059,0.579
			c0,0.196,0.023,0.385,0.059,0.578c0.037,0.188,0.086,0.363,0.158,0.541c0.076,0.195,0.176,0.371,0.293,0.546
			c0.064,0.093,0.084,0.201,0.157,0.288c0.056,0.069,0.139,0.095,0.199,0.155c0.073,0.075,0.11,0.172,0.192,0.241l7.89,6.568
			c0.574,0.477,1.269,0.708,1.955,0.708c0.875,0,1.751-0.376,2.353-1.103c1.079-1.294,0.905-3.222-0.394-4.3L289.077,567.981z"/>
	</g>
	<ellipse fill="#F6BBD6" cx="296.469" cy="576.556" rx="8.443" ry="4.068"/>
	<ellipse fill="#F6BBD6" cx="227.301" cy="576.556" rx="8.442" ry="4.068"/>
</g>
<g>
	<g opacity="0.8">
		<linearGradient id="SVGID_18_" gradientUnits="userSpaceOnUse" x1="233.6006" y1="400.5781" x2="233.6006" y2="315.6191">
			<stop  offset="0" style="stop-color:#FFFFFF"/>
			<stop  offset="1" style="stop-color:#9CD8F7"/>
		</linearGradient>
		<path fill="url(#SVGID_18_)" d="M349.792,363.075c0-28.98-23.494-52.475-52.473-52.475c-16.369,0-30.982,7.501-40.605,19.249
			c-9.622-11.748-24.235-19.249-40.604-19.249c-13.579,0-25.913,5.201-35.23,13.667c-3.549-0.757-7.221-1.175-10.996-1.175
			c-28.979,0-52.473,23.495-52.473,52.476c0,28.978,23.494,52.473,52.473,52.473c13.58,0,25.914-5.203,35.23-13.667
			c1.32,0.281,2.665,0.475,4.02,0.655c8.039,18.673,26.588,31.753,48.206,31.753c21.698,0,40.319-13.174,48.306-31.957
			C330.658,410.828,349.792,389.212,349.792,363.075z"/>
		<path fill="#00ACDE" d="M257.338,450.53c-21.771,0-41.47-12.522-50.772-32.082c-0.114-0.02-0.231-0.035-0.346-0.057
			c-10.181,8.653-23.009,13.396-36.338,13.396c-31,0-56.222-25.221-56.222-56.22c0-31,25.222-56.222,56.222-56.222
			c3.285,0,6.607,0.296,9.907,0.891c10.177-8.646,22.997-13.386,36.319-13.386c15.45,0,30.017,6.271,40.604,17.345
			c10.589-11.073,25.156-17.345,40.605-17.345c31,0,56.221,25.222,56.221,56.224c0,27.066-18.92,49.914-45.284,55.09
			C299.014,437.895,279.248,450.53,257.338,450.53z M205.113,410.624c0.261,0,0.521,0.027,0.779,0.084
			c1.229,0.258,2.478,0.439,3.736,0.605c1.308,0.176,2.427,1.021,2.947,2.235c7.711,17.91,25.28,29.484,44.763,29.484
			c19.585,0,37.19-11.647,44.854-29.675c0.505-1.186,1.587-2.031,2.861-2.236c23.75-3.793,40.99-24.001,40.99-48.047
			c0-26.868-21.859-48.726-48.726-48.726c-14.657,0-28.403,6.513-37.705,17.873c-1.421,1.737-4.38,1.737-5.8,0
			c-9.304-11.36-23.046-17.873-37.705-17.873c-12.084,0-23.701,4.507-32.71,12.691c-0.896,0.812-2.134,1.142-3.302,0.892
			c-3.396-0.726-6.831-1.089-10.215-1.089c-26.865,0-48.725,21.856-48.725,48.725c0,26.865,21.859,48.726,48.725,48.726
			c12.085,0,23.703-4.508,32.711-12.695C203.291,410.966,204.191,410.624,205.113,410.624z"/>
	</g>
	<g opacity="0.8">
		<linearGradient id="SVGID_19_" gradientUnits="userSpaceOnUse" x1="558.3994" y1="400.5781" x2="558.3994" y2="315.6191">
			<stop  offset="0" style="stop-color:#FFFFFF"/>
			<stop  offset="1" style="stop-color:#9CD8F7"/>
		</linearGradient>
		<path fill="url(#SVGID_19_)" d="M674.59,363.075c0-28.98-23.494-52.475-52.475-52.475c-16.365,0-30.982,7.501-40.602,19.249
			c-9.623-11.748-24.236-19.249-40.605-19.249c-13.58,0-25.914,5.201-35.23,13.667c-3.551-0.757-7.221-1.175-10.996-1.175
			c-28.979,0-52.473,23.495-52.473,52.476c0,28.978,23.494,52.473,52.473,52.473c13.578,0,25.916-5.203,35.23-13.667
			c1.322,0.281,2.666,0.475,4.02,0.655c8.037,18.673,26.588,31.753,48.207,31.753c21.697,0,40.316-13.174,48.305-31.957
			C655.457,410.828,674.59,389.212,674.59,363.075z"/>
		<path fill="#00ACDE" d="M582.139,450.53c-21.771,0-41.473-12.522-50.775-32.082c-0.113-0.02-0.23-0.035-0.346-0.057
			c-10.18,8.653-23.008,13.396-36.336,13.396c-31,0-56.223-25.221-56.223-56.22c0-31,25.223-56.222,56.223-56.222
			c3.285,0,6.609,0.296,9.906,0.891c10.178-8.646,23-13.386,36.32-13.386c15.449,0,30.016,6.271,40.605,17.345
			c10.586-11.073,25.156-17.345,40.602-17.345c31,0,56.225,25.222,56.225,56.224c0,27.066-18.922,49.914-45.285,55.09
			C623.813,437.895,604.049,450.53,582.139,450.53z M529.912,410.624c0.258,0,0.52,0.027,0.779,0.084
			c1.227,0.258,2.477,0.439,3.734,0.605c1.311,0.176,2.426,1.021,2.949,2.235c7.711,17.91,25.279,29.484,44.764,29.484
			c19.584,0,37.189-11.647,44.854-29.675c0.506-1.186,1.588-2.031,2.859-2.236c23.752-3.793,40.99-24.001,40.99-48.047
			c0-26.868-21.857-48.726-48.727-48.726c-14.656,0-28.4,6.513-37.703,17.873c-1.422,1.737-4.379,1.737-5.799,0
			c-9.305-11.36-23.047-17.873-37.705-17.873c-12.084,0-23.701,4.507-32.709,12.691c-0.9,0.812-2.135,1.142-3.303,0.892
			c-3.396-0.726-6.832-1.089-10.215-1.089c-26.867,0-48.725,21.856-48.725,48.725c0,26.865,21.857,48.726,48.725,48.726
			c12.084,0,23.701-4.508,32.711-12.695C528.09,410.966,528.99,410.624,529.912,410.624z"/>
	</g>
	<g opacity="0.8">
		<linearGradient id="SVGID_20_" gradientUnits="userSpaceOnUse" x1="395.186" y1="400.5781" x2="395.186" y2="315.6191">
			<stop  offset="0" style="stop-color:#FFFFFF"/>
			<stop  offset="1" style="stop-color:#9CD8F7"/>
		</linearGradient>
		<path fill="url(#SVGID_20_)" d="M511.377,363.075c0-28.98-23.492-52.475-52.473-52.475c-16.369,0-30.982,7.501-40.604,19.249
			c-9.621-11.748-24.238-19.249-40.606-19.249c-13.58,0-25.915,5.201-35.229,13.667c-3.55-0.757-7.222-1.175-10.996-1.175
			c-28.979,0-52.475,23.495-52.475,52.476c0,28.978,23.495,52.473,52.475,52.473c13.579,0,25.913-5.203,35.229-13.667
			c1.321,0.281,2.667,0.475,4.021,0.655c8.038,18.673,26.587,31.753,48.207,31.753c21.695,0,40.316-13.174,48.303-31.957
			C492.242,410.828,511.377,389.212,511.377,363.075z"/>
		<path fill="#00ACDE" d="M418.926,450.53c-21.771,0-41.472-12.522-50.774-32.082c-0.115-0.02-0.231-0.035-0.347-0.057
			c-10.18,8.653-23.009,13.396-36.336,13.396c-31.001,0-56.222-25.221-56.222-56.22c0-31,25.221-56.222,56.222-56.222
			c3.283,0,6.606,0.296,9.906,0.891c10.175-8.646,22.998-13.386,36.319-13.386c15.449,0,30.018,6.271,40.606,17.345
			c10.586-11.073,25.154-17.345,40.604-17.345c31,0,56.223,25.222,56.223,56.224c0,27.066-18.922,49.914-45.285,55.09
			C460.6,437.895,440.836,450.53,418.926,450.53z M366.699,410.624c0.26,0,0.521,0.027,0.779,0.084
			c1.229,0.258,2.477,0.439,3.735,0.605c1.309,0.176,2.427,1.021,2.947,2.235c7.713,17.91,25.281,29.484,44.765,29.484
			c19.584,0,37.189-11.647,44.854-29.675c0.504-1.186,1.586-2.031,2.859-2.236c23.75-3.793,40.99-24.001,40.99-48.047
			c0-26.868-21.857-48.726-48.725-48.726c-14.658,0-28.402,6.513-37.707,17.873c-1.42,1.737-4.375,1.737-5.797,0
			c-9.305-11.36-23.047-17.873-37.706-17.873c-12.084,0-23.702,4.507-32.712,12.691c-0.895,0.812-2.134,1.142-3.299,0.892
			c-3.398-0.726-6.833-1.089-10.215-1.089c-26.867,0-48.727,21.856-48.727,48.725c0,26.865,21.859,48.726,48.727,48.726
			c12.083,0,23.701-4.508,32.71-12.695C364.877,410.966,365.779,410.624,366.699,410.624z"/>
	</g>
	<path d="M430.639,365.105c0,4.371-3.543,7.917-7.916,7.917c-4.369,0-7.912-3.546-7.912-7.917c0-4.369,3.543-7.913,7.912-7.913
		C427.096,357.192,430.639,360.736,430.639,365.105z"/>
	<path d="M483.451,365.105c0,4.371-3.547,7.917-7.918,7.917c-4.373,0-7.916-3.546-7.916-7.917c0-4.369,3.543-7.913,7.916-7.913
		C479.904,357.192,483.451,360.736,483.451,365.105z"/>
	<path d="M450.174,377.423c-5.201,0-7.16-3.838-7.469-5.861c-0.211-1.366,0.725-2.642,2.09-2.848c1.367-0.204,2.611,0.71,2.84,2.045
		c0.131,0.626,0.635,1.666,2.539,1.666c1.402,0,2.145-0.442,2.201-1.312c0.084-1.346,1.301-2.383,2.572-2.383
		c1.35,0.044,2.422,1.103,2.422,2.452C457.369,373.691,455.453,377.423,450.174,377.423z"/>
	<path d="M586.543,358.368c-1.197,0-2.25-0.863-2.457-2.074c-0.131-0.626-0.635-1.668-2.539-1.668c-1.402,0-2.145,0.442-2.201,1.313
		c-0.086,1.348-1.203,2.379-2.576,2.384c-1.348-0.044-2.418-1.103-2.418-2.452c0-2.508,1.914-6.24,7.195-6.24
		c5.199,0,7.16,3.834,7.471,5.865c0.209,1.363-0.73,2.637-2.094,2.844C586.795,358.358,586.67,358.368,586.543,358.368z"/>
	<path d="M639.354,358.368c-1.197,0-2.25-0.863-2.459-2.074c-0.129-0.626-0.635-1.668-2.537-1.668c-1.404,0-2.145,0.442-2.201,1.313
		c-0.084,1.348-1.156,2.379-2.574,2.384c-1.352-0.044-2.422-1.103-2.422-2.452c0-2.508,1.916-6.24,7.197-6.24
		c5.199,0,7.16,3.834,7.469,5.865c0.211,1.363-0.73,2.637-2.092,2.844C639.605,358.358,639.479,358.368,639.354,358.368z"/>
	<path d="M183.347,377.393c-1.197,0-2.252-0.864-2.46-2.074c-0.128-0.626-0.634-1.669-2.538-1.669c-1.401,0-2.144,0.442-2.2,1.314
		c-0.082,1.346-1.241,2.413-2.574,2.383c-1.35-0.044-2.421-1.104-2.421-2.452c0-2.509,1.916-6.243,7.195-6.243
		c5.2,0,7.16,3.836,7.472,5.867c0.208,1.363-0.73,2.637-2.096,2.845C183.6,377.383,183.473,377.393,183.347,377.393z"/>
	<ellipse fill="#F6BBD6" cx="414.28" cy="373.224" rx="8.442" ry="4.072"/>
	<ellipse fill="#F6BBD6" cx="483.449" cy="373.224" rx="8.443" ry="4.072"/>
	<ellipse fill="#F6BBD6" cx="572.035" cy="360.355" rx="8.443" ry="4.069"/>
	<path fill="#F6BBD6" d="M649.646,360.355c0,2.247-3.777,4.069-8.443,4.069c-4.662,0-8.441-1.822-8.441-4.069
		c0-2.25,3.779-4.071,8.441-4.071C645.869,356.284,649.646,358.105,649.646,360.355z"/>
	<g>
		<path d="M161.388,364.532c-0.036-0.188-0.087-0.369-0.161-0.551c-0.075-0.19-0.173-0.363-0.292-0.537
			c-0.06-0.095-0.081-0.204-0.153-0.293c-0.064-0.071-0.151-0.106-0.221-0.176c-0.069-0.067-0.1-0.156-0.176-0.219l-7.895-6.569
			c-1.295-1.079-3.223-0.902-4.301,0.396c-1.079,1.296-0.902,3.22,0.393,4.3l5.072,4.223l-5.072,4.226
			c-1.295,1.077-1.472,3.006-0.393,4.3c0.604,0.726,1.476,1.103,2.352,1.103c0.686,0,1.38-0.232,1.949-0.709l7.895-6.568
			c0.081-0.068,0.116-0.164,0.19-0.236c0.062-0.061,0.146-0.087,0.206-0.159c0.072-0.087,0.097-0.198,0.157-0.293
			c0.115-0.176,0.213-0.347,0.288-0.534c0.074-0.183,0.125-0.361,0.161-0.551c0.037-0.193,0.06-0.378,0.06-0.577
			C161.448,364.909,161.425,364.723,161.388,364.532z"/>
		<path d="M207.469,365.105l5.072-4.223c1.298-1.08,1.473-3.004,0.393-4.3c-1.08-1.298-3.006-1.475-4.307-0.396l-7.888,6.569
			c-0.076,0.063-0.11,0.157-0.182,0.223c-0.065,0.066-0.15,0.101-0.213,0.172c-0.071,0.089-0.092,0.192-0.151,0.283
			c-0.121,0.181-0.222,0.356-0.3,0.554c-0.07,0.179-0.12,0.355-0.155,0.538c-0.038,0.196-0.06,0.383-0.06,0.579
			c0,0.199,0.021,0.386,0.06,0.579c0.035,0.188,0.085,0.363,0.157,0.543c0.076,0.193,0.177,0.368,0.294,0.545
			c0.063,0.094,0.082,0.201,0.155,0.288c0.058,0.069,0.141,0.093,0.201,0.156c0.073,0.073,0.109,0.171,0.193,0.239l7.888,6.568
			c0.574,0.477,1.269,0.709,1.954,0.709c0.876,0,1.751-0.377,2.353-1.103c1.08-1.294,0.905-3.223-0.393-4.3L207.469,365.105z"/>
	</g>
	<ellipse fill="#F6BBD6" cx="214.863" cy="373.682" rx="8.443" ry="4.068"/>
	<ellipse fill="#F6BBD6" cx="145.694" cy="373.682" rx="8.443" ry="4.068"/>
	<g>
		<path fill="#F6BBD6" d="M618.953,367.186c0,6.021-2.457,10.901-5.484,10.901c-3.031,0-5.49-4.88-5.49-10.901
			c0-6.02,2.459-10.901,5.49-10.901C616.496,356.284,618.953,361.166,618.953,367.186z"/>
		<path d="M613.469,379.335c-3.779,0-6.74-5.336-6.74-12.149s2.961-12.15,6.74-12.15c3.777,0,6.734,5.337,6.734,12.15
			S617.246,379.335,613.469,379.335z M613.469,357.534c-2.008,0-4.24,3.964-4.24,9.651c0,5.688,2.232,9.651,4.24,9.651
			c2.002,0,4.234-3.963,4.234-9.651C617.703,361.498,615.471,357.534,613.469,357.534z"/>
	</g>
</g>
</svg>
