<?xml version="1.0" encoding="utf-8"?>
<!-- Generator: Adobe Illustrator 16.0.0, SVG Export Plug-In . SVG Version: 6.00 Build 0)  -->
<!DOCTYPE svg PUBLIC "-//W3C//DTD SVG 1.1//EN" "http://www.w3.org/Graphics/SVG/1.1/DTD/svg11.dtd">
<svg version="1.1" id="Capa_1" xmlns="http://www.w3.org/2000/svg" xmlns:xlink="http://www.w3.org/1999/xlink" x="0px" y="0px"
	 width="1114.012px" height="568.575px" viewBox="0 0 1114.012 568.575" enable-background="new 0 0 1114.012 568.575"
	 xml:space="preserve">
<rect y="283.589" fill="#212121" width="821.499" height="284.986"/>
<rect x="821.499" y="283.589" fill="#C8FF00" width="292.513" height="284.986"/>
<rect x="821.499" fill="#1A5099" width="292.513" height="284.986"/>
<g>
	<g>
		<circle fill="#4BA2F2" cx="145.867" cy="101.59" r="14.801"/>
		<path fill="#4BA2F2" d="M162.799,181.587c-7.479,9.439-13.92,15.611-16.91,15.611c-9.689,0-55.729-64.9-55.729-95.681
			c0-20.09,10.629-37.701,26.57-47.5c-6.33,9.039-10.051,20.049-10.051,31.93c0,30.78,46.029,95.681,55.73,95.681
			C162.529,181.628,162.66,181.618,162.799,181.587z"/>
		<path fill="#1A5099" d="M145.889,45.787c-10.689,0-20.68,3.01-29.158,8.23c-6.33,9.039-10.051,20.049-10.051,31.93
			c0,7.621,2.82,17.334,7.217,27.635c0.08,0.189,0.16,0.379,0.242,0.569c0.828,1.918-2.379-6.011-2.379-12.634
			c0-18.85,15.279-34.141,34.129-34.141c18.852,0,34.141,15.291,34.141,34.141c0,13.661-8.035,25.44-19.633,30.894
			c-0.031,0.016-0.721,0.381-0.924,0.469c-5.854,2.528-9.957,8.333-9.957,15.114c0,9.097,7.375,16.472,16.475,16.472
			c5.262,0,9.943-2.473,12.959-6.316c0.205-0.262,0.836-1.105,0.943-1.281c11.689-19.171,21.727-40.979,21.727-55.351
			C201.619,70.736,176.67,45.787,145.889,45.787z M164.432,131.599 M161.604,132.128 M162.977,131.808"/>
	</g>
	<g>
		<path fill="#1A5099" d="M44.512,238.251c1.52,0,2.646-0.199,3.379-0.6c0.734-0.4,1.1-1.041,1.1-1.92
			c0-0.906-0.359-1.627-1.078-2.16c-0.721-0.533-1.908-1.133-3.561-1.801c-0.801-0.32-1.566-0.646-2.301-0.98
			c-0.732-0.332-1.367-0.725-1.9-1.18c-0.533-0.453-0.959-1-1.279-1.639c-0.32-0.641-0.48-1.428-0.48-2.361
			c0-1.84,0.68-3.299,2.041-4.379c1.359-1.08,3.213-1.621,5.559-1.621c0.588,0,1.174,0.035,1.762,0.1
			c0.586,0.068,1.133,0.148,1.639,0.24c0.506,0.094,0.953,0.195,1.34,0.301c0.387,0.107,0.688,0.199,0.9,0.279l-0.68,3.201
			c-0.4-0.213-1.027-0.434-1.881-0.66s-1.879-0.34-3.08-0.34c-1.039,0-1.945,0.207-2.719,0.619c-0.773,0.414-1.16,1.061-1.16,1.939
			c0,0.455,0.086,0.855,0.26,1.201s0.439,0.66,0.801,0.939c0.359,0.279,0.805,0.541,1.34,0.779c0.533,0.24,1.172,0.494,1.92,0.762
			c0.986,0.373,1.865,0.738,2.639,1.1c0.773,0.359,1.434,0.779,1.98,1.26s0.967,1.061,1.26,1.74s0.441,1.514,0.441,2.5
			c0,1.92-0.715,3.373-2.141,4.359c-1.428,0.986-3.461,1.48-6.1,1.48c-1.84,0-3.281-0.154-4.32-0.461
			c-1.041-0.305-1.748-0.539-2.121-0.699l0.682-3.199c0.426,0.158,1.105,0.398,2.039,0.719S42.965,238.251,44.512,238.251z"/>
		<path fill="#1A5099" d="M60.99,220.132h7.881v3.119H60.99v9.6c0,1.041,0.08,1.9,0.24,2.58s0.4,1.215,0.721,1.6
			c0.32,0.387,0.721,0.66,1.199,0.82c0.48,0.16,1.041,0.24,1.68,0.24c1.121,0,2.021-0.127,2.701-0.381
			c0.68-0.252,1.152-0.432,1.42-0.539l0.721,3.08c-0.375,0.188-1.027,0.42-1.961,0.699c-0.934,0.281-2,0.42-3.199,0.42
			c-1.414,0-2.58-0.18-3.5-0.539s-1.66-0.9-2.221-1.621c-0.561-0.719-0.953-1.605-1.18-2.658c-0.227-1.055-0.34-2.273-0.34-3.66
			v-18.561l3.719-0.641V220.132z"/>
		<path fill="#1A5099" d="M72.031,230.571c0-1.84,0.266-3.447,0.799-4.82s1.24-2.514,2.121-3.42
			c0.879-0.906,1.893-1.586,3.039-2.041c1.146-0.453,2.32-0.68,3.52-0.68c2.801,0,4.947,0.875,6.441,2.621
			c1.492,1.746,2.24,4.406,2.24,7.979c0,0.16,0,0.367,0,0.621s-0.014,0.486-0.041,0.699H75.91c0.16,2.16,0.787,3.801,1.881,4.92
			c1.094,1.121,2.799,1.682,5.119,1.682c1.307,0,2.406-0.113,3.301-0.342c0.893-0.225,1.566-0.445,2.02-0.658l0.52,3.119
			c-0.453,0.24-1.246,0.494-2.379,0.76c-1.135,0.266-2.42,0.4-3.861,0.4c-1.813,0-3.379-0.273-4.699-0.82s-2.406-1.301-3.26-2.26
			c-0.854-0.961-1.486-2.1-1.9-3.42S72.031,232.146,72.031,230.571z M86.311,228.53c0.027-1.68-0.395-3.059-1.26-4.139
			c-0.867-1.08-2.061-1.621-3.58-1.621c-0.854,0-1.607,0.168-2.26,0.5c-0.654,0.334-1.207,0.768-1.66,1.301s-0.807,1.146-1.061,1.84
			s-0.42,1.4-0.5,2.119H86.311z"/>
		<path fill="#1A5099" d="M94.391,230.571c0-1.84,0.268-3.447,0.801-4.82s1.24-2.514,2.119-3.42
			c0.881-0.906,1.895-1.586,3.041-2.041c1.146-0.453,2.32-0.68,3.52-0.68c2.801,0,4.945,0.875,6.439,2.621s2.24,4.406,2.24,7.979
			c0,0.16,0,0.367,0,0.621s-0.014,0.486-0.039,0.699h-14.24c0.16,2.16,0.785,3.801,1.879,4.92c1.094,1.121,2.801,1.682,5.121,1.682
			c1.307,0,2.406-0.113,3.299-0.342c0.895-0.225,1.566-0.445,2.021-0.658l0.52,3.119c-0.453,0.24-1.248,0.494-2.381,0.76
			s-2.42,0.4-3.859,0.4c-1.814,0-3.381-0.273-4.699-0.82c-1.32-0.547-2.408-1.301-3.262-2.26c-0.854-0.961-1.486-2.1-1.898-3.42
			C94.598,233.591,94.391,232.146,94.391,230.571z M108.672,228.53c0.025-1.68-0.395-3.059-1.262-4.139
			c-0.865-1.08-2.059-1.621-3.578-1.621c-0.855,0-1.607,0.168-2.262,0.5c-0.652,0.334-1.207,0.768-1.66,1.301
			s-0.807,1.146-1.059,1.84c-0.254,0.693-0.42,1.4-0.5,2.119H108.672z"/>
		<path fill="#1A5099" d="M117.91,220.731c0.854-0.213,1.98-0.441,3.381-0.68c1.4-0.24,3.02-0.361,4.859-0.361
			c1.334,0,2.453,0.18,3.359,0.541c0.906,0.359,1.666,0.887,2.281,1.58c0.186-0.133,0.479-0.32,0.879-0.561s0.895-0.473,1.48-0.699
			s1.24-0.428,1.961-0.602c0.719-0.172,1.492-0.26,2.318-0.26c1.602,0,2.906,0.234,3.92,0.701s1.807,1.127,2.381,1.979
			c0.572,0.855,0.961,1.867,1.16,3.041s0.301,2.453,0.301,3.84v11.68h-3.721v-10.879c0-1.227-0.061-2.281-0.18-3.16
			c-0.121-0.881-0.348-1.613-0.68-2.201c-0.334-0.586-0.787-1.02-1.361-1.299c-0.574-0.281-1.313-0.42-2.219-0.42
			c-1.254,0-2.287,0.166-3.102,0.5c-0.813,0.332-1.365,0.633-1.66,0.898c0.215,0.695,0.375,1.455,0.48,2.281
			c0.107,0.826,0.16,1.693,0.16,2.6v11.68h-3.719v-10.879c0-1.227-0.068-2.281-0.201-3.16c-0.133-0.881-0.367-1.613-0.699-2.201
			c-0.334-0.586-0.787-1.02-1.361-1.299c-0.572-0.281-1.299-0.42-2.18-0.42c-0.373,0-0.773,0.014-1.199,0.039
			c-0.428,0.027-0.834,0.061-1.221,0.1c-0.387,0.041-0.74,0.088-1.061,0.141c-0.318,0.053-0.533,0.094-0.639,0.119v17.561h-3.721
			V220.731z"/>
		<path fill="#4BA2F2" d="M156.75,238.771c0,0.721-0.24,1.348-0.721,1.881c-0.479,0.533-1.133,0.799-1.959,0.799
			c-0.828,0-1.48-0.266-1.961-0.799c-0.479-0.533-0.719-1.16-0.719-1.881c0-0.719,0.24-1.346,0.719-1.879
			c0.48-0.533,1.133-0.801,1.961-0.801c0.826,0,1.48,0.268,1.959,0.801C156.51,237.425,156.75,238.052,156.75,238.771z"/>
		<path fill="#565656" d="M180.51,230.571c0,1.574-0.207,3.027-0.619,4.359c-0.414,1.334-1.021,2.48-1.82,3.439
			c-0.801,0.961-1.781,1.707-2.941,2.24c-1.158,0.533-2.486,0.801-3.979,0.801c-1.201,0-2.26-0.16-3.18-0.48
			c-0.922-0.32-1.607-0.627-2.061-0.92v8.32h-3.721v-27.561c0.881-0.213,1.98-0.445,3.301-0.699s2.846-0.381,4.58-0.381
			c1.6,0,3.039,0.254,4.32,0.76c1.279,0.508,2.373,1.229,3.279,2.16c0.906,0.934,1.605,2.074,2.1,3.42
			C180.264,227.378,180.51,228.892,180.51,230.571z M176.629,230.571c0-2.426-0.6-4.293-1.799-5.6
			c-1.201-1.307-2.801-1.961-4.801-1.961c-1.119,0-1.994,0.041-2.619,0.121c-0.627,0.078-1.127,0.172-1.5,0.279v13.119
			c0.453,0.375,1.105,0.734,1.959,1.08c0.854,0.348,1.787,0.521,2.801,0.521c1.066,0,1.98-0.193,2.74-0.58s1.379-0.92,1.859-1.602
			c0.48-0.68,0.826-1.479,1.041-2.398C176.523,232.632,176.629,231.638,176.629,230.571z"/>
		<path fill="#565656" d="M191.99,241.331c-2.295-0.055-3.922-0.547-4.881-1.48c-0.961-0.934-1.439-2.387-1.439-4.359V210.53
			l3.719-0.639v25c0,0.613,0.055,1.119,0.16,1.52c0.107,0.4,0.281,0.721,0.52,0.959c0.24,0.24,0.561,0.42,0.961,0.541
			c0.4,0.119,0.893,0.221,1.48,0.299L191.99,241.331z"/>
		<path fill="#565656" d="M203.389,219.61c1.494,0,2.754,0.193,3.781,0.58c1.025,0.387,1.852,0.934,2.479,1.641
			s1.074,1.547,1.34,2.52c0.268,0.975,0.4,2.047,0.4,3.221v13c-0.32,0.053-0.766,0.127-1.34,0.219
			c-0.574,0.094-1.219,0.182-1.939,0.262s-1.5,0.152-2.34,0.219s-1.674,0.1-2.5,0.1c-1.174,0-2.254-0.119-3.24-0.359
			s-1.84-0.619-2.561-1.141c-0.719-0.52-1.279-1.205-1.68-2.059s-0.6-1.881-0.6-3.08c0-1.146,0.232-2.133,0.699-2.961
			c0.467-0.826,1.1-1.492,1.9-2c0.801-0.506,1.732-0.879,2.801-1.119c1.066-0.24,2.186-0.361,3.359-0.361
			c0.373,0,0.76,0.021,1.16,0.061c0.4,0.041,0.779,0.094,1.141,0.16c0.359,0.066,0.672,0.127,0.939,0.18
			c0.266,0.055,0.453,0.094,0.561,0.121v-1.041c0-0.613-0.068-1.219-0.201-1.82c-0.133-0.6-0.373-1.133-0.719-1.6
			c-0.348-0.467-0.82-0.84-1.42-1.119c-0.602-0.281-1.381-0.42-2.342-0.42c-1.227,0-2.299,0.086-3.219,0.26
			s-1.607,0.354-2.061,0.539l-0.439-3.08c0.48-0.213,1.279-0.42,2.4-0.619C200.869,219.71,202.082,219.61,203.389,219.61z
			 M203.709,238.251c0.881,0,1.66-0.02,2.34-0.061c0.68-0.039,1.246-0.113,1.701-0.219v-6.201c-0.268-0.133-0.701-0.246-1.301-0.34
			s-1.326-0.141-2.18-0.141c-0.561,0-1.154,0.041-1.781,0.121c-0.625,0.08-1.199,0.246-1.719,0.5s-0.953,0.6-1.301,1.039
			c-0.346,0.441-0.52,1.021-0.52,1.74c0,1.334,0.426,2.26,1.279,2.781C201.082,237.991,202.242,238.251,203.709,238.251z"/>
		<path fill="#565656" d="M226.588,241.411c-1.68,0-3.154-0.268-4.42-0.801c-1.268-0.533-2.334-1.279-3.199-2.24
			c-0.867-0.959-1.514-2.1-1.941-3.42c-0.426-1.318-0.639-2.779-0.639-4.379s0.232-3.066,0.699-4.4s1.127-2.486,1.98-3.461
			c0.854-0.973,1.9-1.732,3.141-2.279c1.238-0.547,2.619-0.82,4.139-0.82c0.934,0,1.867,0.08,2.801,0.24s1.826,0.414,2.68,0.76
			l-0.84,3.16c-0.561-0.266-1.207-0.48-1.939-0.639c-0.734-0.16-1.514-0.24-2.34-0.24c-2.08,0-3.674,0.652-4.781,1.959
			s-1.66,3.215-1.66,5.721c0,1.119,0.127,2.146,0.381,3.08c0.252,0.934,0.652,1.732,1.199,2.4c0.547,0.666,1.246,1.18,2.1,1.539
			s1.895,0.541,3.121,0.541c0.986,0,1.879-0.094,2.68-0.281c0.801-0.186,1.426-0.387,1.881-0.6l0.52,3.119
			c-0.215,0.135-0.52,0.262-0.92,0.381s-0.854,0.227-1.361,0.32c-0.506,0.092-1.047,0.172-1.619,0.24
			C227.674,241.378,227.121,241.411,226.588,241.411z"/>
		<path fill="#565656" d="M234.988,230.571c0-1.84,0.266-3.447,0.799-4.82s1.24-2.514,2.121-3.42
			c0.879-0.906,1.893-1.586,3.039-2.041c1.146-0.453,2.32-0.68,3.52-0.68c2.801,0,4.947,0.875,6.441,2.621
			c1.492,1.746,2.24,4.406,2.24,7.979c0,0.16,0,0.367,0,0.621s-0.014,0.486-0.041,0.699h-14.24c0.16,2.16,0.787,3.801,1.881,4.92
			c1.094,1.121,2.799,1.682,5.119,1.682c1.307,0,2.406-0.113,3.301-0.342c0.893-0.225,1.566-0.445,2.02-0.658l0.52,3.119
			c-0.453,0.24-1.246,0.494-2.379,0.76c-1.135,0.266-2.42,0.4-3.861,0.4c-1.813,0-3.379-0.273-4.699-0.82s-2.406-1.301-3.26-2.26
			c-0.854-0.961-1.486-2.1-1.9-3.42S234.988,232.146,234.988,230.571z M249.268,228.53c0.027-1.68-0.395-3.059-1.26-4.139
			c-0.867-1.08-2.061-1.621-3.58-1.621c-0.854,0-1.607,0.168-2.26,0.5c-0.654,0.334-1.207,0.768-1.66,1.301s-0.807,1.146-1.061,1.84
			s-0.42,1.4-0.5,2.119H249.268z"/>
	</g>
</g>
<g>
	<circle fill="#565656" cx="416.222" cy="101.59" r="14.801"/>
	<path fill="#565656" d="M433.153,181.587c-7.479,9.439-13.92,15.611-16.91,15.611c-9.689,0-55.729-64.9-55.729-95.681
		c0-20.09,10.629-37.701,26.57-47.5c-6.33,9.039-10.051,20.049-10.051,31.93c0,30.78,46.029,95.681,55.73,95.681
		C432.884,181.628,433.015,181.618,433.153,181.587z"/>
	<path fill="#232323" d="M416.243,45.787c-10.689,0-20.68,3.01-29.158,8.23c-6.33,9.039-10.051,20.049-10.051,31.93
		c0,7.621,2.82,17.334,7.217,27.635c0.08,0.189,0.16,0.379,0.242,0.569c0.828,1.918-2.379-6.011-2.379-12.634
		c0-18.85,15.279-34.141,34.129-34.141c18.852,0,34.141,15.291,34.141,34.141c0,13.661-8.035,25.44-19.633,30.894
		c-0.031,0.016-0.721,0.381-0.924,0.469c-5.854,2.528-9.957,8.333-9.957,15.114c0,9.097,7.375,16.472,16.475,16.472
		c5.262,0,9.943-2.473,12.959-6.316c0.205-0.262,0.836-1.105,0.943-1.281c11.689-19.171,21.727-40.979,21.727-55.351
		C471.974,70.736,447.024,45.787,416.243,45.787z M434.786,131.599 M431.958,132.128 M433.331,131.808"/>
	<path fill="#232323" d="M314.866,238.251c1.52,0,2.646-0.199,3.379-0.6c0.734-0.4,1.1-1.041,1.1-1.92
		c0-0.906-0.359-1.627-1.078-2.16c-0.721-0.533-1.908-1.133-3.561-1.801c-0.801-0.32-1.566-0.646-2.301-0.98
		c-0.732-0.332-1.367-0.725-1.9-1.18c-0.533-0.453-0.959-1-1.279-1.639c-0.32-0.641-0.48-1.428-0.48-2.361
		c0-1.84,0.68-3.299,2.041-4.379c1.359-1.08,3.213-1.621,5.559-1.621c0.588,0,1.174,0.035,1.762,0.1
		c0.586,0.068,1.133,0.148,1.639,0.24c0.506,0.094,0.953,0.195,1.34,0.301c0.387,0.107,0.688,0.199,0.9,0.279l-0.68,3.201
		c-0.4-0.213-1.027-0.434-1.881-0.66s-1.879-0.34-3.08-0.34c-1.039,0-1.945,0.207-2.719,0.619c-0.773,0.414-1.16,1.061-1.16,1.939
		c0,0.455,0.086,0.855,0.26,1.201s0.439,0.66,0.801,0.939c0.359,0.279,0.805,0.541,1.34,0.779c0.533,0.24,1.172,0.494,1.92,0.762
		c0.986,0.373,1.865,0.738,2.639,1.1c0.773,0.359,1.434,0.779,1.98,1.26s0.967,1.061,1.26,1.74s0.441,1.514,0.441,2.5
		c0,1.92-0.715,3.373-2.141,4.359c-1.428,0.986-3.461,1.48-6.1,1.48c-1.84,0-3.281-0.154-4.32-0.461
		c-1.041-0.305-1.748-0.539-2.121-0.699l0.682-3.199c0.426,0.158,1.105,0.398,2.039,0.719S313.319,238.251,314.866,238.251z"/>
	<path fill="#232323" d="M331.345,220.132h7.881v3.119h-7.881v9.6c0,1.041,0.08,1.9,0.24,2.58s0.4,1.215,0.721,1.6
		c0.32,0.387,0.721,0.66,1.199,0.82c0.48,0.16,1.041,0.24,1.68,0.24c1.121,0,2.021-0.127,2.701-0.381
		c0.68-0.252,1.152-0.432,1.42-0.539l0.721,3.08c-0.375,0.188-1.027,0.42-1.961,0.699c-0.934,0.281-2,0.42-3.199,0.42
		c-1.414,0-2.58-0.18-3.5-0.539s-1.66-0.9-2.221-1.621c-0.561-0.719-0.953-1.605-1.18-2.658c-0.227-1.055-0.34-2.273-0.34-3.66
		v-18.561l3.719-0.641V220.132z"/>
	<path fill="#232323" d="M342.386,230.571c0-1.84,0.266-3.447,0.799-4.82s1.24-2.514,2.121-3.42
		c0.879-0.906,1.893-1.586,3.039-2.041c1.146-0.453,2.32-0.68,3.52-0.68c2.801,0,4.947,0.875,6.441,2.621
		c1.492,1.746,2.24,4.406,2.24,7.979c0,0.16,0,0.367,0,0.621s-0.014,0.486-0.041,0.699h-14.24c0.16,2.16,0.787,3.801,1.881,4.92
		c1.094,1.121,2.799,1.682,5.119,1.682c1.307,0,2.406-0.113,3.301-0.342c0.893-0.225,1.566-0.445,2.02-0.658l0.52,3.119
		c-0.453,0.24-1.246,0.494-2.379,0.76c-1.135,0.266-2.42,0.4-3.861,0.4c-1.813,0-3.379-0.273-4.699-0.82s-2.406-1.301-3.26-2.26
		c-0.854-0.961-1.486-2.1-1.9-3.42S342.386,232.146,342.386,230.571z M356.665,228.53c0.027-1.68-0.395-3.059-1.26-4.139
		c-0.867-1.08-2.061-1.621-3.58-1.621c-0.854,0-1.607,0.168-2.26,0.5c-0.654,0.334-1.207,0.768-1.66,1.301s-0.807,1.146-1.061,1.84
		s-0.42,1.4-0.5,2.119H356.665z"/>
	<path fill="#232323" d="M364.745,230.571c0-1.84,0.268-3.447,0.801-4.82s1.24-2.514,2.119-3.42
		c0.881-0.906,1.895-1.586,3.041-2.041c1.146-0.453,2.32-0.68,3.52-0.68c2.801,0,4.945,0.875,6.439,2.621s2.24,4.406,2.24,7.979
		c0,0.16,0,0.367,0,0.621s-0.014,0.486-0.039,0.699h-14.24c0.16,2.16,0.785,3.801,1.879,4.92c1.094,1.121,2.801,1.682,5.121,1.682
		c1.307,0,2.406-0.113,3.299-0.342c0.895-0.225,1.566-0.445,2.021-0.658l0.52,3.119c-0.453,0.24-1.248,0.494-2.381,0.76
		s-2.42,0.4-3.859,0.4c-1.814,0-3.381-0.273-4.699-0.82c-1.32-0.547-2.408-1.301-3.262-2.26c-0.854-0.961-1.486-2.1-1.898-3.42
		C364.952,233.591,364.745,232.146,364.745,230.571z M379.026,228.53c0.025-1.68-0.395-3.059-1.262-4.139
		c-0.865-1.08-2.059-1.621-3.578-1.621c-0.855,0-1.607,0.168-2.262,0.5c-0.652,0.334-1.207,0.768-1.66,1.301
		s-0.807,1.146-1.059,1.84c-0.254,0.693-0.42,1.4-0.5,2.119H379.026z"/>
	<path fill="#232323" d="M388.265,220.731c0.854-0.213,1.98-0.441,3.381-0.68c1.4-0.24,3.02-0.361,4.859-0.361
		c1.334,0,2.453,0.18,3.359,0.541c0.906,0.359,1.666,0.887,2.281,1.58c0.186-0.133,0.479-0.32,0.879-0.561s0.895-0.473,1.48-0.699
		s1.24-0.428,1.961-0.602c0.719-0.172,1.492-0.26,2.318-0.26c1.602,0,2.906,0.234,3.92,0.701s1.807,1.127,2.381,1.979
		c0.572,0.855,0.961,1.867,1.16,3.041s0.301,2.453,0.301,3.84v11.68h-3.721v-10.879c0-1.227-0.061-2.281-0.18-3.16
		c-0.121-0.881-0.348-1.613-0.68-2.201c-0.334-0.586-0.787-1.02-1.361-1.299c-0.574-0.281-1.313-0.42-2.219-0.42
		c-1.254,0-2.287,0.166-3.102,0.5c-0.813,0.332-1.365,0.633-1.66,0.898c0.215,0.695,0.375,1.455,0.48,2.281
		c0.107,0.826,0.16,1.693,0.16,2.6v11.68h-3.719v-10.879c0-1.227-0.068-2.281-0.201-3.16c-0.133-0.881-0.367-1.613-0.699-2.201
		c-0.334-0.586-0.787-1.02-1.361-1.299c-0.572-0.281-1.299-0.42-2.18-0.42c-0.373,0-0.773,0.014-1.199,0.039
		c-0.428,0.027-0.834,0.061-1.221,0.1c-0.387,0.041-0.74,0.088-1.061,0.141c-0.318,0.053-0.533,0.094-0.639,0.119v17.561h-3.721
		V220.731z"/>
	<path fill="#232323" d="M427.104,238.771c0,0.721-0.24,1.348-0.721,1.881c-0.479,0.533-1.133,0.799-1.959,0.799
		c-0.828,0-1.48-0.266-1.961-0.799c-0.479-0.533-0.719-1.16-0.719-1.881c0-0.719,0.24-1.346,0.719-1.879
		c0.48-0.533,1.133-0.801,1.961-0.801c0.826,0,1.48,0.268,1.959,0.801C426.864,237.425,427.104,238.052,427.104,238.771z"/>
	<path fill="#565656" d="M450.864,230.571c0,1.574-0.207,3.027-0.619,4.359c-0.414,1.334-1.021,2.48-1.82,3.439
		c-0.801,0.961-1.781,1.707-2.941,2.24c-1.158,0.533-2.486,0.801-3.979,0.801c-1.201,0-2.26-0.16-3.18-0.48
		c-0.922-0.32-1.607-0.627-2.061-0.92v8.32h-3.721v-27.561c0.881-0.213,1.98-0.445,3.301-0.699s2.846-0.381,4.58-0.381
		c1.6,0,3.039,0.254,4.32,0.76c1.279,0.508,2.373,1.229,3.279,2.16c0.906,0.934,1.605,2.074,2.1,3.42
		C450.618,227.378,450.864,228.892,450.864,230.571z M446.983,230.571c0-2.426-0.6-4.293-1.799-5.6
		c-1.201-1.307-2.801-1.961-4.801-1.961c-1.119,0-1.994,0.041-2.619,0.121c-0.627,0.078-1.127,0.172-1.5,0.279v13.119
		c0.453,0.375,1.105,0.734,1.959,1.08c0.854,0.348,1.787,0.521,2.801,0.521c1.066,0,1.98-0.193,2.74-0.58s1.379-0.92,1.859-1.602
		c0.48-0.68,0.826-1.479,1.041-2.398C446.878,232.632,446.983,231.638,446.983,230.571z"/>
	<path fill="#565656" d="M462.345,241.331c-2.295-0.055-3.922-0.547-4.881-1.48c-0.961-0.934-1.439-2.387-1.439-4.359V210.53
		l3.719-0.639v25c0,0.613,0.055,1.119,0.16,1.52c0.107,0.4,0.281,0.721,0.52,0.959c0.24,0.24,0.561,0.42,0.961,0.541
		c0.4,0.119,0.893,0.221,1.48,0.299L462.345,241.331z"/>
	<path fill="#565656" d="M473.743,219.61c1.494,0,2.754,0.193,3.781,0.58c1.025,0.387,1.852,0.934,2.479,1.641
		s1.074,1.547,1.34,2.52c0.268,0.975,0.4,2.047,0.4,3.221v13c-0.32,0.053-0.766,0.127-1.34,0.219
		c-0.574,0.094-1.219,0.182-1.939,0.262s-1.5,0.152-2.34,0.219s-1.674,0.1-2.5,0.1c-1.174,0-2.254-0.119-3.24-0.359
		s-1.84-0.619-2.561-1.141c-0.719-0.52-1.279-1.205-1.68-2.059s-0.6-1.881-0.6-3.08c0-1.146,0.232-2.133,0.699-2.961
		c0.467-0.826,1.1-1.492,1.9-2c0.801-0.506,1.732-0.879,2.801-1.119c1.066-0.24,2.186-0.361,3.359-0.361
		c0.373,0,0.76,0.021,1.16,0.061c0.4,0.041,0.779,0.094,1.141,0.16c0.359,0.066,0.672,0.127,0.939,0.18
		c0.266,0.055,0.453,0.094,0.561,0.121v-1.041c0-0.613-0.068-1.219-0.201-1.82c-0.133-0.6-0.373-1.133-0.719-1.6
		c-0.348-0.467-0.82-0.84-1.42-1.119c-0.602-0.281-1.381-0.42-2.342-0.42c-1.227,0-2.299,0.086-3.219,0.26s-1.607,0.354-2.061,0.539
		l-0.439-3.08c0.48-0.213,1.279-0.42,2.4-0.619C471.224,219.71,472.437,219.61,473.743,219.61z M474.063,238.251
		c0.881,0,1.66-0.02,2.34-0.061c0.68-0.039,1.246-0.113,1.701-0.219v-6.201c-0.268-0.133-0.701-0.246-1.301-0.34
		s-1.326-0.141-2.18-0.141c-0.561,0-1.154,0.041-1.781,0.121c-0.625,0.08-1.199,0.246-1.719,0.5s-0.953,0.6-1.301,1.039
		c-0.346,0.441-0.52,1.021-0.52,1.74c0,1.334,0.426,2.26,1.279,2.781C471.437,237.991,472.597,238.251,474.063,238.251z"/>
	<path fill="#565656" d="M496.942,241.411c-1.68,0-3.154-0.268-4.42-0.801c-1.268-0.533-2.334-1.279-3.199-2.24
		c-0.867-0.959-1.514-2.1-1.941-3.42c-0.426-1.318-0.639-2.779-0.639-4.379s0.232-3.066,0.699-4.4s1.127-2.486,1.98-3.461
		c0.854-0.973,1.9-1.732,3.141-2.279c1.238-0.547,2.619-0.82,4.139-0.82c0.934,0,1.867,0.08,2.801,0.24s1.826,0.414,2.68,0.76
		l-0.84,3.16c-0.561-0.266-1.207-0.48-1.939-0.639c-0.734-0.16-1.514-0.24-2.34-0.24c-2.08,0-3.674,0.652-4.781,1.959
		s-1.66,3.215-1.66,5.721c0,1.119,0.127,2.146,0.381,3.08c0.252,0.934,0.652,1.732,1.199,2.4c0.547,0.666,1.246,1.18,2.1,1.539
		s1.895,0.541,3.121,0.541c0.986,0,1.879-0.094,2.68-0.281c0.801-0.186,1.426-0.387,1.881-0.6l0.52,3.119
		c-0.215,0.135-0.52,0.262-0.92,0.381s-0.854,0.227-1.361,0.32c-0.506,0.092-1.047,0.172-1.619,0.24
		C498.028,241.378,497.476,241.411,496.942,241.411z"/>
	<path fill="#565656" d="M505.343,230.571c0-1.84,0.266-3.447,0.799-4.82s1.24-2.514,2.121-3.42
		c0.879-0.906,1.893-1.586,3.039-2.041c1.146-0.453,2.32-0.68,3.52-0.68c2.801,0,4.947,0.875,6.441,2.621
		c1.492,1.746,2.24,4.406,2.24,7.979c0,0.16,0,0.367,0,0.621s-0.014,0.486-0.041,0.699h-14.24c0.16,2.16,0.787,3.801,1.881,4.92
		c1.094,1.121,2.799,1.682,5.119,1.682c1.307,0,2.406-0.113,3.301-0.342c0.893-0.225,1.566-0.445,2.02-0.658l0.52,3.119
		c-0.453,0.24-1.246,0.494-2.379,0.76c-1.135,0.266-2.42,0.4-3.861,0.4c-1.813,0-3.379-0.273-4.699-0.82s-2.406-1.301-3.26-2.26
		c-0.854-0.961-1.486-2.1-1.9-3.42S505.343,232.146,505.343,230.571z M519.622,228.53c0.027-1.68-0.395-3.059-1.26-4.139
		c-0.867-1.08-2.061-1.621-3.58-1.621c-0.854,0-1.607,0.168-2.26,0.5c-0.654,0.334-1.207,0.768-1.66,1.301s-0.807,1.146-1.061,1.84
		s-0.42,1.4-0.5,2.119H519.622z"/>
</g>
<circle fill="#232323" cx="686.576" cy="101.59" r="14.801"/>
<path fill="#232323" d="M703.508,181.587c-7.479,9.439-13.92,15.611-16.91,15.611c-9.689,0-55.729-64.9-55.729-95.681
	c0-20.09,10.629-37.701,26.57-47.5c-6.33,9.039-10.051,20.049-10.051,31.93c0,30.78,46.029,95.681,55.73,95.681
	C703.238,181.628,703.369,181.618,703.508,181.587z"/>
<path fill="#232323" d="M686.598,45.787c-10.689,0-20.68,3.01-29.158,8.23c-6.33,9.039-10.051,20.049-10.051,31.93
	c0,7.621,2.82,17.334,7.217,27.635c0.08,0.189,0.16,0.379,0.242,0.569c0.828,1.918-2.379-6.011-2.379-12.634
	c0-18.85,15.279-34.141,34.129-34.141c18.852,0,34.141,15.291,34.141,34.141c0,13.661-8.035,25.44-19.633,30.894
	c-0.031,0.016-0.721,0.381-0.924,0.469c-5.854,2.528-9.957,8.333-9.957,15.114c0,9.097,7.375,16.472,16.475,16.472
	c5.262,0,9.943-2.473,12.959-6.316c0.205-0.262,0.836-1.105,0.943-1.281c11.689-19.171,21.727-40.979,21.727-55.351
	C742.328,70.736,717.379,45.787,686.598,45.787z M705.141,131.599 M702.313,132.128 M703.686,131.808"/>
<path fill="#232323" d="M585.221,238.251c1.52,0,2.646-0.199,3.379-0.6c0.734-0.4,1.1-1.041,1.1-1.92
	c0-0.906-0.359-1.627-1.078-2.16c-0.721-0.533-1.908-1.133-3.561-1.801c-0.801-0.32-1.566-0.646-2.301-0.98
	c-0.732-0.332-1.367-0.725-1.9-1.18c-0.533-0.453-0.959-1-1.279-1.639c-0.32-0.641-0.48-1.428-0.48-2.361
	c0-1.84,0.68-3.299,2.041-4.379c1.359-1.08,3.213-1.621,5.559-1.621c0.588,0,1.174,0.035,1.762,0.1
	c0.586,0.068,1.133,0.148,1.639,0.24c0.506,0.094,0.953,0.195,1.34,0.301c0.387,0.107,0.688,0.199,0.9,0.279l-0.68,3.201
	c-0.4-0.213-1.027-0.434-1.881-0.66s-1.879-0.34-3.08-0.34c-1.039,0-1.945,0.207-2.719,0.619c-0.773,0.414-1.16,1.061-1.16,1.939
	c0,0.455,0.086,0.855,0.26,1.201s0.439,0.66,0.801,0.939c0.359,0.279,0.805,0.541,1.34,0.779c0.533,0.24,1.172,0.494,1.92,0.762
	c0.986,0.373,1.865,0.738,2.639,1.1c0.773,0.359,1.434,0.779,1.98,1.26s0.967,1.061,1.26,1.74s0.441,1.514,0.441,2.5
	c0,1.92-0.715,3.373-2.141,4.359c-1.428,0.986-3.461,1.48-6.1,1.48c-1.84,0-3.281-0.154-4.32-0.461
	c-1.041-0.305-1.748-0.539-2.121-0.699l0.682-3.199c0.426,0.158,1.105,0.398,2.039,0.719S583.674,238.251,585.221,238.251z"/>
<path fill="#232323" d="M601.699,220.132h7.881v3.119h-7.881v9.6c0,1.041,0.08,1.9,0.24,2.58s0.4,1.215,0.721,1.6
	c0.32,0.387,0.721,0.66,1.199,0.82c0.48,0.16,1.041,0.24,1.68,0.24c1.121,0,2.021-0.127,2.701-0.381
	c0.68-0.252,1.152-0.432,1.42-0.539l0.721,3.08c-0.375,0.188-1.027,0.42-1.961,0.699c-0.934,0.281-2,0.42-3.199,0.42
	c-1.414,0-2.58-0.18-3.5-0.539s-1.66-0.9-2.221-1.621c-0.561-0.719-0.953-1.605-1.18-2.658c-0.227-1.055-0.34-2.273-0.34-3.66
	v-18.561l3.719-0.641V220.132z"/>
<path fill="#232323" d="M612.74,230.571c0-1.84,0.266-3.447,0.799-4.82s1.24-2.514,2.121-3.42c0.879-0.906,1.893-1.586,3.039-2.041
	c1.146-0.453,2.32-0.68,3.52-0.68c2.801,0,4.947,0.875,6.441,2.621c1.492,1.746,2.24,4.406,2.24,7.979c0,0.16,0,0.367,0,0.621
	s-0.014,0.486-0.041,0.699h-14.24c0.16,2.16,0.787,3.801,1.881,4.92c1.094,1.121,2.799,1.682,5.119,1.682
	c1.307,0,2.406-0.113,3.301-0.342c0.893-0.225,1.566-0.445,2.02-0.658l0.52,3.119c-0.453,0.24-1.246,0.494-2.379,0.76
	c-1.135,0.266-2.42,0.4-3.861,0.4c-1.813,0-3.379-0.273-4.699-0.82s-2.406-1.301-3.26-2.26c-0.854-0.961-1.486-2.1-1.9-3.42
	S612.74,232.146,612.74,230.571z M627.02,228.53c0.027-1.68-0.395-3.059-1.26-4.139c-0.867-1.08-2.061-1.621-3.58-1.621
	c-0.854,0-1.607,0.168-2.26,0.5c-0.654,0.334-1.207,0.768-1.66,1.301s-0.807,1.146-1.061,1.84s-0.42,1.4-0.5,2.119H627.02z"/>
<path fill="#232323" d="M635.1,230.571c0-1.84,0.268-3.447,0.801-4.82s1.24-2.514,2.119-3.42c0.881-0.906,1.895-1.586,3.041-2.041
	c1.146-0.453,2.32-0.68,3.52-0.68c2.801,0,4.945,0.875,6.439,2.621s2.24,4.406,2.24,7.979c0,0.16,0,0.367,0,0.621
	s-0.014,0.486-0.039,0.699h-14.24c0.16,2.16,0.785,3.801,1.879,4.92c1.094,1.121,2.801,1.682,5.121,1.682
	c1.307,0,2.406-0.113,3.299-0.342c0.895-0.225,1.566-0.445,2.021-0.658l0.52,3.119c-0.453,0.24-1.248,0.494-2.381,0.76
	s-2.42,0.4-3.859,0.4c-1.814,0-3.381-0.273-4.699-0.82c-1.32-0.547-2.408-1.301-3.262-2.26c-0.854-0.961-1.486-2.1-1.898-3.42
	C635.307,233.591,635.1,232.146,635.1,230.571z M649.381,228.53c0.025-1.68-0.395-3.059-1.262-4.139
	c-0.865-1.08-2.059-1.621-3.578-1.621c-0.855,0-1.607,0.168-2.262,0.5c-0.652,0.334-1.207,0.768-1.66,1.301s-0.807,1.146-1.059,1.84
	c-0.254,0.693-0.42,1.4-0.5,2.119H649.381z"/>
<path fill="#232323" d="M658.619,220.731c0.854-0.213,1.98-0.441,3.381-0.68c1.4-0.24,3.02-0.361,4.859-0.361
	c1.334,0,2.453,0.18,3.359,0.541c0.906,0.359,1.666,0.887,2.281,1.58c0.186-0.133,0.479-0.32,0.879-0.561s0.895-0.473,1.48-0.699
	s1.24-0.428,1.961-0.602c0.719-0.172,1.492-0.26,2.318-0.26c1.602,0,2.906,0.234,3.92,0.701s1.807,1.127,2.381,1.979
	c0.572,0.855,0.961,1.867,1.16,3.041s0.301,2.453,0.301,3.84v11.68h-3.721v-10.879c0-1.227-0.061-2.281-0.18-3.16
	c-0.121-0.881-0.348-1.613-0.68-2.201c-0.334-0.586-0.787-1.02-1.361-1.299c-0.574-0.281-1.313-0.42-2.219-0.42
	c-1.254,0-2.287,0.166-3.102,0.5c-0.813,0.332-1.365,0.633-1.66,0.898c0.215,0.695,0.375,1.455,0.48,2.281
	c0.107,0.826,0.16,1.693,0.16,2.6v11.68H670.9v-10.879c0-1.227-0.068-2.281-0.201-3.16c-0.133-0.881-0.367-1.613-0.699-2.201
	c-0.334-0.586-0.787-1.02-1.361-1.299c-0.572-0.281-1.299-0.42-2.18-0.42c-0.373,0-0.773,0.014-1.199,0.039
	c-0.428,0.027-0.834,0.061-1.221,0.1c-0.387,0.041-0.74,0.088-1.061,0.141c-0.318,0.053-0.533,0.094-0.639,0.119v17.561h-3.721
	V220.731z"/>
<path fill="#232323" d="M697.459,238.771c0,0.721-0.24,1.348-0.721,1.881c-0.479,0.533-1.133,0.799-1.959,0.799
	c-0.828,0-1.48-0.266-1.961-0.799c-0.479-0.533-0.719-1.16-0.719-1.881c0-0.719,0.24-1.346,0.719-1.879
	c0.48-0.533,1.133-0.801,1.961-0.801c0.826,0,1.48,0.268,1.959,0.801C697.219,237.425,697.459,238.052,697.459,238.771z"/>
<path fill="#232323" d="M721.219,230.571c0,1.574-0.207,3.027-0.619,4.359c-0.414,1.334-1.021,2.48-1.82,3.439
	c-0.801,0.961-1.781,1.707-2.941,2.24c-1.158,0.533-2.486,0.801-3.979,0.801c-1.201,0-2.26-0.16-3.18-0.48
	c-0.922-0.32-1.607-0.627-2.061-0.92v8.32h-3.721v-27.561c0.881-0.213,1.98-0.445,3.301-0.699s2.846-0.381,4.58-0.381
	c1.6,0,3.039,0.254,4.32,0.76c1.279,0.508,2.373,1.229,3.279,2.16c0.906,0.934,1.605,2.074,2.1,3.42
	C720.973,227.378,721.219,228.892,721.219,230.571z M717.338,230.571c0-2.426-0.6-4.293-1.799-5.6
	c-1.201-1.307-2.801-1.961-4.801-1.961c-1.119,0-1.994,0.041-2.619,0.121c-0.627,0.078-1.127,0.172-1.5,0.279v13.119
	c0.453,0.375,1.105,0.734,1.959,1.08c0.854,0.348,1.787,0.521,2.801,0.521c1.066,0,1.98-0.193,2.74-0.58s1.379-0.92,1.859-1.602
	c0.48-0.68,0.826-1.479,1.041-2.398C717.232,232.632,717.338,231.638,717.338,230.571z"/>
<path fill="#232323" d="M732.699,241.331c-2.295-0.055-3.922-0.547-4.881-1.48c-0.961-0.934-1.439-2.387-1.439-4.359V210.53
	l3.719-0.639v25c0,0.613,0.055,1.119,0.16,1.52c0.107,0.4,0.281,0.721,0.52,0.959c0.24,0.24,0.561,0.42,0.961,0.541
	c0.4,0.119,0.893,0.221,1.48,0.299L732.699,241.331z"/>
<path fill="#232323" d="M744.098,219.61c1.494,0,2.754,0.193,3.781,0.58c1.025,0.387,1.852,0.934,2.479,1.641s1.074,1.547,1.34,2.52
	c0.268,0.975,0.4,2.047,0.4,3.221v13c-0.32,0.053-0.766,0.127-1.34,0.219c-0.574,0.094-1.219,0.182-1.939,0.262
	s-1.5,0.152-2.34,0.219s-1.674,0.1-2.5,0.1c-1.174,0-2.254-0.119-3.24-0.359s-1.84-0.619-2.561-1.141
	c-0.719-0.52-1.279-1.205-1.68-2.059s-0.6-1.881-0.6-3.08c0-1.146,0.232-2.133,0.699-2.961c0.467-0.826,1.1-1.492,1.9-2
	c0.801-0.506,1.732-0.879,2.801-1.119c1.066-0.24,2.186-0.361,3.359-0.361c0.373,0,0.76,0.021,1.16,0.061
	c0.4,0.041,0.779,0.094,1.141,0.16c0.359,0.066,0.672,0.127,0.939,0.18c0.266,0.055,0.453,0.094,0.561,0.121v-1.041
	c0-0.613-0.068-1.219-0.201-1.82c-0.133-0.6-0.373-1.133-0.719-1.6c-0.348-0.467-0.82-0.84-1.42-1.119
	c-0.602-0.281-1.381-0.42-2.342-0.42c-1.227,0-2.299,0.086-3.219,0.26s-1.607,0.354-2.061,0.539l-0.439-3.08
	c0.48-0.213,1.279-0.42,2.4-0.619C741.578,219.71,742.791,219.61,744.098,219.61z M744.418,238.251c0.881,0,1.66-0.02,2.34-0.061
	c0.68-0.039,1.246-0.113,1.701-0.219v-6.201c-0.268-0.133-0.701-0.246-1.301-0.34s-1.326-0.141-2.18-0.141
	c-0.561,0-1.154,0.041-1.781,0.121c-0.625,0.08-1.199,0.246-1.719,0.5s-0.953,0.6-1.301,1.039c-0.346,0.441-0.52,1.021-0.52,1.74
	c0,1.334,0.426,2.26,1.279,2.781C741.791,237.991,742.951,238.251,744.418,238.251z"/>
<path fill="#232323" d="M767.297,241.411c-1.68,0-3.154-0.268-4.42-0.801c-1.268-0.533-2.334-1.279-3.199-2.24
	c-0.867-0.959-1.514-2.1-1.941-3.42c-0.426-1.318-0.639-2.779-0.639-4.379s0.232-3.066,0.699-4.4s1.127-2.486,1.98-3.461
	c0.854-0.973,1.9-1.732,3.141-2.279c1.238-0.547,2.619-0.82,4.139-0.82c0.934,0,1.867,0.08,2.801,0.24s1.826,0.414,2.68,0.76
	l-0.84,3.16c-0.561-0.266-1.207-0.48-1.939-0.639c-0.734-0.16-1.514-0.24-2.34-0.24c-2.08,0-3.674,0.652-4.781,1.959
	s-1.66,3.215-1.66,5.721c0,1.119,0.127,2.146,0.381,3.08c0.252,0.934,0.652,1.732,1.199,2.4c0.547,0.666,1.246,1.18,2.1,1.539
	s1.895,0.541,3.121,0.541c0.986,0,1.879-0.094,2.68-0.281c0.801-0.186,1.426-0.387,1.881-0.6l0.52,3.119
	c-0.215,0.135-0.52,0.262-0.92,0.381s-0.854,0.227-1.361,0.32c-0.506,0.092-1.047,0.172-1.619,0.24
	C768.383,241.378,767.83,241.411,767.297,241.411z"/>
<path fill="#232323" d="M775.697,230.571c0-1.84,0.266-3.447,0.799-4.82s1.24-2.514,2.121-3.42c0.879-0.906,1.893-1.586,3.039-2.041
	c1.146-0.453,2.32-0.68,3.52-0.68c2.801,0,4.947,0.875,6.441,2.621c1.492,1.746,2.24,4.406,2.24,7.979c0,0.16,0,0.367,0,0.621
	s-0.014,0.486-0.041,0.699h-14.24c0.16,2.16,0.787,3.801,1.881,4.92c1.094,1.121,2.799,1.682,5.119,1.682
	c1.307,0,2.406-0.113,3.301-0.342c0.893-0.225,1.566-0.445,2.02-0.658l0.52,3.119c-0.453,0.24-1.246,0.494-2.379,0.76
	c-1.135,0.266-2.42,0.4-3.861,0.4c-1.813,0-3.379-0.273-4.699-0.82s-2.406-1.301-3.26-2.26c-0.854-0.961-1.486-2.1-1.9-3.42
	S775.697,232.146,775.697,230.571z M789.977,228.53c0.027-1.68-0.395-3.059-1.26-4.139c-0.867-1.08-2.061-1.621-3.58-1.621
	c-0.854,0-1.607,0.168-2.26,0.5c-0.654,0.334-1.207,0.768-1.66,1.301s-0.807,1.146-1.061,1.84s-0.42,1.4-0.5,2.119H789.977z"/>
<g>
	<circle fill="#4BA2F2" cx="956.931" cy="101.59" r="14.801"/>
	<path fill="#4BA2F2" d="M973.862,181.587c-7.479,9.439-13.92,15.611-16.91,15.611c-9.689,0-55.729-64.9-55.729-95.681
		c0-20.09,10.629-37.701,26.57-47.5c-6.33,9.039-10.051,20.049-10.051,31.93c0,30.78,46.029,95.681,55.73,95.681
		C973.593,181.628,973.724,181.618,973.862,181.587z"/>
	<path fill="#FFFFFF" d="M956.952,45.787c-10.689,0-20.68,3.01-29.158,8.23c-6.33,9.039-10.051,20.049-10.051,31.93
		c0,7.621,2.82,17.334,7.217,27.635c0.08,0.189,0.16,0.379,0.242,0.569c0.828,1.918-2.379-6.011-2.379-12.634
		c0-18.85,15.279-34.141,34.129-34.141c18.852,0,34.141,15.291,34.141,34.141c0,13.661-8.035,25.44-19.633,30.894
		c-0.031,0.016-0.721,0.381-0.924,0.469c-5.854,2.528-9.957,8.333-9.957,15.114c0,9.097,7.375,16.472,16.475,16.472
		c5.262,0,9.943-2.473,12.959-6.316c0.205-0.262,0.836-1.105,0.943-1.281c11.689-19.171,21.727-40.979,21.727-55.351
		C1012.683,70.736,987.733,45.787,956.952,45.787z M975.495,131.599 M972.667,132.128 M974.04,131.808"/>
</g>
<path fill="#FFFFFF" d="M855.575,238.251c1.52,0,2.646-0.199,3.379-0.6c0.734-0.4,1.1-1.041,1.1-1.92
	c0-0.906-0.359-1.627-1.078-2.16c-0.721-0.533-1.908-1.133-3.561-1.801c-0.801-0.32-1.566-0.646-2.301-0.98
	c-0.732-0.332-1.367-0.725-1.9-1.18c-0.533-0.453-0.959-1-1.279-1.639c-0.32-0.641-0.48-1.428-0.48-2.361
	c0-1.84,0.68-3.299,2.041-4.379c1.359-1.08,3.213-1.621,5.559-1.621c0.588,0,1.174,0.035,1.762,0.1
	c0.586,0.068,1.133,0.148,1.639,0.24c0.506,0.094,0.953,0.195,1.34,0.301c0.387,0.107,0.688,0.199,0.9,0.279l-0.68,3.201
	c-0.4-0.213-1.027-0.434-1.881-0.66s-1.879-0.34-3.08-0.34c-1.039,0-1.945,0.207-2.719,0.619c-0.773,0.414-1.16,1.061-1.16,1.939
	c0,0.455,0.086,0.855,0.26,1.201s0.439,0.66,0.801,0.939c0.359,0.279,0.805,0.541,1.34,0.779c0.533,0.24,1.172,0.494,1.92,0.762
	c0.986,0.373,1.865,0.738,2.639,1.1c0.773,0.359,1.434,0.779,1.98,1.26s0.967,1.061,1.26,1.74s0.441,1.514,0.441,2.5
	c0,1.92-0.715,3.373-2.141,4.359c-1.428,0.986-3.461,1.48-6.1,1.48c-1.84,0-3.281-0.154-4.32-0.461
	c-1.041-0.305-1.748-0.539-2.121-0.699l0.682-3.199c0.426,0.158,1.105,0.398,2.039,0.719S854.028,238.251,855.575,238.251z"/>
<path fill="#FFFFFF" d="M872.054,220.132h7.881v3.119h-7.881v9.6c0,1.041,0.08,1.9,0.24,2.58s0.4,1.215,0.721,1.6
	c0.32,0.387,0.721,0.66,1.199,0.82c0.48,0.16,1.041,0.24,1.68,0.24c1.121,0,2.021-0.127,2.701-0.381
	c0.68-0.252,1.152-0.432,1.42-0.539l0.721,3.08c-0.375,0.188-1.027,0.42-1.961,0.699c-0.934,0.281-2,0.42-3.199,0.42
	c-1.414,0-2.58-0.18-3.5-0.539s-1.66-0.9-2.221-1.621c-0.561-0.719-0.953-1.605-1.18-2.658c-0.227-1.055-0.34-2.273-0.34-3.66
	v-18.561l3.719-0.641V220.132z"/>
<path fill="#FFFFFF" d="M883.095,230.571c0-1.84,0.266-3.447,0.799-4.82s1.24-2.514,2.121-3.42c0.879-0.906,1.893-1.586,3.039-2.041
	c1.146-0.453,2.32-0.68,3.52-0.68c2.801,0,4.947,0.875,6.441,2.621c1.492,1.746,2.24,4.406,2.24,7.979c0,0.16,0,0.367,0,0.621
	s-0.014,0.486-0.041,0.699h-14.24c0.16,2.16,0.787,3.801,1.881,4.92c1.094,1.121,2.799,1.682,5.119,1.682
	c1.307,0,2.406-0.113,3.301-0.342c0.893-0.225,1.566-0.445,2.02-0.658l0.52,3.119c-0.453,0.24-1.246,0.494-2.379,0.76
	c-1.135,0.266-2.42,0.4-3.861,0.4c-1.813,0-3.379-0.273-4.699-0.82s-2.406-1.301-3.26-2.26c-0.854-0.961-1.486-2.1-1.9-3.42
	S883.095,232.146,883.095,230.571z M897.374,228.53c0.027-1.68-0.395-3.059-1.26-4.139c-0.867-1.08-2.061-1.621-3.58-1.621
	c-0.854,0-1.607,0.168-2.26,0.5c-0.654,0.334-1.207,0.768-1.66,1.301s-0.807,1.146-1.061,1.84s-0.42,1.4-0.5,2.119H897.374z"/>
<path fill="#FFFFFF" d="M905.454,230.571c0-1.84,0.268-3.447,0.801-4.82s1.24-2.514,2.119-3.42c0.881-0.906,1.895-1.586,3.041-2.041
	c1.146-0.453,2.32-0.68,3.52-0.68c2.801,0,4.945,0.875,6.439,2.621s2.24,4.406,2.24,7.979c0,0.16,0,0.367,0,0.621
	s-0.014,0.486-0.039,0.699h-14.24c0.16,2.16,0.785,3.801,1.879,4.92c1.094,1.121,2.801,1.682,5.121,1.682
	c1.307,0,2.406-0.113,3.299-0.342c0.895-0.225,1.566-0.445,2.021-0.658l0.52,3.119c-0.453,0.24-1.248,0.494-2.381,0.76
	s-2.42,0.4-3.859,0.4c-1.814,0-3.381-0.273-4.699-0.82c-1.32-0.547-2.408-1.301-3.262-2.26c-0.854-0.961-1.486-2.1-1.898-3.42
	C905.661,233.591,905.454,232.146,905.454,230.571z M919.735,228.53c0.025-1.68-0.395-3.059-1.262-4.139
	c-0.865-1.08-2.059-1.621-3.578-1.621c-0.855,0-1.607,0.168-2.262,0.5c-0.652,0.334-1.207,0.768-1.66,1.301s-0.807,1.146-1.059,1.84
	c-0.254,0.693-0.42,1.4-0.5,2.119H919.735z"/>
<path fill="#FFFFFF" d="M928.974,220.731c0.854-0.213,1.98-0.441,3.381-0.68c1.4-0.24,3.02-0.361,4.859-0.361
	c1.334,0,2.453,0.18,3.359,0.541c0.906,0.359,1.666,0.887,2.281,1.58c0.186-0.133,0.479-0.32,0.879-0.561s0.895-0.473,1.48-0.699
	s1.24-0.428,1.961-0.602c0.719-0.172,1.492-0.26,2.318-0.26c1.602,0,2.906,0.234,3.92,0.701s1.807,1.127,2.381,1.979
	c0.572,0.855,0.961,1.867,1.16,3.041s0.301,2.453,0.301,3.84v11.68h-3.721v-10.879c0-1.227-0.061-2.281-0.18-3.16
	c-0.121-0.881-0.348-1.613-0.68-2.201c-0.334-0.586-0.787-1.02-1.361-1.299c-0.574-0.281-1.313-0.42-2.219-0.42
	c-1.254,0-2.287,0.166-3.102,0.5c-0.813,0.332-1.365,0.633-1.66,0.898c0.215,0.695,0.375,1.455,0.48,2.281
	c0.107,0.826,0.16,1.693,0.16,2.6v11.68h-3.719v-10.879c0-1.227-0.068-2.281-0.201-3.16c-0.133-0.881-0.367-1.613-0.699-2.201
	c-0.334-0.586-0.787-1.02-1.361-1.299c-0.572-0.281-1.299-0.42-2.18-0.42c-0.373,0-0.773,0.014-1.199,0.039
	c-0.428,0.027-0.834,0.061-1.221,0.1c-0.387,0.041-0.74,0.088-1.061,0.141c-0.318,0.053-0.533,0.094-0.639,0.119v17.561h-3.721
	V220.731z"/>
<path fill="#4BA2F2" d="M967.813,238.771c0,0.721-0.24,1.348-0.721,1.881c-0.479,0.533-1.133,0.799-1.959,0.799
	c-0.828,0-1.48-0.266-1.961-0.799c-0.479-0.533-0.719-1.16-0.719-1.881c0-0.719,0.24-1.346,0.719-1.879
	c0.48-0.533,1.133-0.801,1.961-0.801c0.826,0,1.48,0.268,1.959,0.801C967.573,237.425,967.813,238.052,967.813,238.771z"/>
<path fill="#9E9E9E" d="M991.573,230.571c0,1.574-0.207,3.027-0.619,4.359c-0.414,1.334-1.021,2.48-1.82,3.439
	c-0.801,0.961-1.781,1.707-2.941,2.24c-1.158,0.533-2.486,0.801-3.979,0.801c-1.201,0-2.26-0.16-3.18-0.48
	c-0.922-0.32-1.607-0.627-2.061-0.92v8.32h-3.721v-27.561c0.881-0.213,1.98-0.445,3.301-0.699s2.846-0.381,4.58-0.381
	c1.6,0,3.039,0.254,4.32,0.76c1.279,0.508,2.373,1.229,3.279,2.16c0.906,0.934,1.605,2.074,2.1,3.42
	C991.327,227.378,991.573,228.892,991.573,230.571z M987.692,230.571c0-2.426-0.6-4.293-1.799-5.6
	c-1.201-1.307-2.801-1.961-4.801-1.961c-1.119,0-1.994,0.041-2.619,0.121c-0.627,0.078-1.127,0.172-1.5,0.279v13.119
	c0.453,0.375,1.105,0.734,1.959,1.08c0.854,0.348,1.787,0.521,2.801,0.521c1.066,0,1.98-0.193,2.74-0.58s1.379-0.92,1.859-1.602
	c0.48-0.68,0.826-1.479,1.041-2.398C987.587,232.632,987.692,231.638,987.692,230.571z"/>
<path fill="#9E9E9E" d="M1003.054,241.331c-2.295-0.055-3.922-0.547-4.881-1.48c-0.961-0.934-1.439-2.387-1.439-4.359V210.53
	l3.719-0.639v25c0,0.613,0.055,1.119,0.16,1.52c0.107,0.4,0.281,0.721,0.52,0.959c0.24,0.24,0.561,0.42,0.961,0.541
	c0.4,0.119,0.893,0.221,1.48,0.299L1003.054,241.331z"/>
<path fill="#9E9E9E" d="M1014.452,219.61c1.494,0,2.754,0.193,3.781,0.58c1.025,0.387,1.852,0.934,2.479,1.641
	s1.074,1.547,1.34,2.52c0.268,0.975,0.4,2.047,0.4,3.221v13c-0.32,0.053-0.766,0.127-1.34,0.219
	c-0.574,0.094-1.219,0.182-1.939,0.262s-1.5,0.152-2.34,0.219s-1.674,0.1-2.5,0.1c-1.174,0-2.254-0.119-3.24-0.359
	s-1.84-0.619-2.561-1.141c-0.719-0.52-1.279-1.205-1.68-2.059s-0.6-1.881-0.6-3.08c0-1.146,0.232-2.133,0.699-2.961
	c0.467-0.826,1.1-1.492,1.9-2c0.801-0.506,1.732-0.879,2.801-1.119c1.066-0.24,2.186-0.361,3.359-0.361
	c0.373,0,0.76,0.021,1.16,0.061c0.4,0.041,0.779,0.094,1.141,0.16c0.359,0.066,0.672,0.127,0.939,0.18
	c0.266,0.055,0.453,0.094,0.561,0.121v-1.041c0-0.613-0.068-1.219-0.201-1.82c-0.133-0.6-0.373-1.133-0.719-1.6
	c-0.348-0.467-0.82-0.84-1.42-1.119c-0.602-0.281-1.381-0.42-2.342-0.42c-1.227,0-2.299,0.086-3.219,0.26s-1.607,0.354-2.061,0.539
	l-0.439-3.08c0.48-0.213,1.279-0.42,2.4-0.619C1011.933,219.71,1013.146,219.61,1014.452,219.61z M1014.772,238.251
	c0.881,0,1.66-0.02,2.34-0.061c0.68-0.039,1.246-0.113,1.701-0.219v-6.201c-0.268-0.133-0.701-0.246-1.301-0.34
	s-1.326-0.141-2.18-0.141c-0.561,0-1.154,0.041-1.781,0.121c-0.625,0.08-1.199,0.246-1.719,0.5s-0.953,0.6-1.301,1.039
	c-0.346,0.441-0.52,1.021-0.52,1.74c0,1.334,0.426,2.26,1.279,2.781C1012.146,237.991,1013.306,238.251,1014.772,238.251z"/>
<path fill="#9E9E9E" d="M1037.651,241.411c-1.68,0-3.154-0.268-4.42-0.801c-1.268-0.533-2.334-1.279-3.199-2.24
	c-0.867-0.959-1.514-2.1-1.941-3.42c-0.426-1.318-0.639-2.779-0.639-4.379s0.232-3.066,0.699-4.4s1.127-2.486,1.98-3.461
	c0.854-0.973,1.9-1.732,3.141-2.279c1.238-0.547,2.619-0.82,4.139-0.82c0.934,0,1.867,0.08,2.801,0.24s1.826,0.414,2.68,0.76
	l-0.84,3.16c-0.561-0.266-1.207-0.48-1.939-0.639c-0.734-0.16-1.514-0.24-2.34-0.24c-2.08,0-3.674,0.652-4.781,1.959
	s-1.66,3.215-1.66,5.721c0,1.119,0.127,2.146,0.381,3.08c0.252,0.934,0.652,1.732,1.199,2.4c0.547,0.666,1.246,1.18,2.1,1.539
	s1.895,0.541,3.121,0.541c0.986,0,1.879-0.094,2.68-0.281c0.801-0.186,1.426-0.387,1.881-0.6l0.52,3.119
	c-0.215,0.135-0.52,0.262-0.92,0.381s-0.854,0.227-1.361,0.32c-0.506,0.092-1.047,0.172-1.619,0.24
	C1038.737,241.378,1038.185,241.411,1037.651,241.411z"/>
<path fill="#9E9E9E" d="M1046.052,230.571c0-1.84,0.266-3.447,0.799-4.82s1.24-2.514,2.121-3.42
	c0.879-0.906,1.893-1.586,3.039-2.041c1.146-0.453,2.32-0.68,3.52-0.68c2.801,0,4.947,0.875,6.441,2.621
	c1.492,1.746,2.24,4.406,2.24,7.979c0,0.16,0,0.367,0,0.621s-0.014,0.486-0.041,0.699h-14.24c0.16,2.16,0.787,3.801,1.881,4.92
	c1.094,1.121,2.799,1.682,5.119,1.682c1.307,0,2.406-0.113,3.301-0.342c0.893-0.225,1.566-0.445,2.02-0.658l0.52,3.119
	c-0.453,0.24-1.246,0.494-2.379,0.76c-1.135,0.266-2.42,0.4-3.861,0.4c-1.813,0-3.379-0.273-4.699-0.82s-2.406-1.301-3.26-2.26
	c-0.854-0.961-1.486-2.1-1.9-3.42S1046.052,232.146,1046.052,230.571z M1060.331,228.53c0.027-1.68-0.395-3.059-1.26-4.139
	c-0.867-1.08-2.061-1.621-3.58-1.621c-0.854,0-1.607,0.168-2.26,0.5c-0.654,0.334-1.207,0.768-1.66,1.301s-0.807,1.146-1.061,1.84
	s-0.42,1.4-0.5,2.119H1060.331z"/>
<g>
	<circle fill="#4BA2F2" cx="145.867" cy="377.234" r="14.801"/>
	<path fill="#4BA2F2" d="M162.799,457.23c-7.479,9.439-13.92,15.611-16.91,15.611c-9.689,0-55.729-64.9-55.729-95.68
		c0-20.09,10.629-37.701,26.57-47.5c-6.33,9.039-10.051,20.049-10.051,31.93c0,30.779,46.029,95.68,55.73,95.68
		C162.529,457.271,162.66,457.262,162.799,457.23z"/>
	<path fill="#1A5099" d="M145.889,321.432c-10.689,0-20.68,3.01-29.158,8.23c-6.33,9.039-10.051,20.049-10.051,31.93
		c0,7.621,2.82,17.334,7.217,27.635c0.08,0.189,0.16,0.379,0.242,0.568c0.828,1.918-2.379-6.01-2.379-12.633
		c0-18.85,15.279-34.141,34.129-34.141c18.852,0,34.141,15.291,34.141,34.141c0,13.66-8.035,25.439-19.633,30.893
		c-0.031,0.016-0.721,0.381-0.924,0.469c-5.854,2.529-9.957,8.334-9.957,15.115c0,9.096,7.375,16.471,16.475,16.471
		c5.262,0,9.943-2.473,12.959-6.316c0.205-0.262,0.836-1.105,0.943-1.281c11.689-19.17,21.727-40.979,21.727-55.35
		C201.619,346.381,176.67,321.432,145.889,321.432z M164.432,407.242 M161.604,407.771 M162.977,407.451"/>
</g>
<path fill="#1A5099" d="M44.512,513.895c1.52,0,2.646-0.199,3.379-0.6c0.734-0.4,1.1-1.041,1.1-1.92c0-0.906-0.359-1.627-1.078-2.16
	c-0.721-0.533-1.908-1.133-3.561-1.801c-0.801-0.32-1.566-0.646-2.301-0.98c-0.732-0.332-1.367-0.725-1.9-1.18
	c-0.533-0.453-0.959-1-1.279-1.639c-0.32-0.641-0.48-1.428-0.48-2.361c0-1.84,0.68-3.299,2.041-4.379
	c1.359-1.08,3.213-1.621,5.559-1.621c0.588,0,1.174,0.035,1.762,0.1c0.586,0.068,1.133,0.148,1.639,0.24
	c0.506,0.094,0.953,0.195,1.34,0.301c0.387,0.107,0.688,0.199,0.9,0.279l-0.68,3.201c-0.4-0.213-1.027-0.434-1.881-0.66
	s-1.879-0.34-3.08-0.34c-1.039,0-1.945,0.207-2.719,0.619c-0.773,0.414-1.16,1.061-1.16,1.939c0,0.455,0.086,0.855,0.26,1.201
	s0.439,0.66,0.801,0.939c0.359,0.279,0.805,0.541,1.34,0.779c0.533,0.24,1.172,0.494,1.92,0.762c0.986,0.373,1.865,0.738,2.639,1.1
	c0.773,0.359,1.434,0.779,1.98,1.26s0.967,1.061,1.26,1.74s0.441,1.514,0.441,2.5c0,1.92-0.715,3.373-2.141,4.359
	c-1.428,0.986-3.461,1.48-6.1,1.48c-1.84,0-3.281-0.154-4.32-0.461c-1.041-0.305-1.748-0.539-2.121-0.699l0.682-3.199
	c0.426,0.158,1.105,0.398,2.039,0.719S42.965,513.895,44.512,513.895z"/>
<path fill="#1A5099" d="M60.99,495.775h7.881v3.119H60.99v9.6c0,1.041,0.08,1.9,0.24,2.58s0.4,1.215,0.721,1.6
	c0.32,0.387,0.721,0.66,1.199,0.82c0.48,0.16,1.041,0.24,1.68,0.24c1.121,0,2.021-0.127,2.701-0.381
	c0.68-0.252,1.152-0.432,1.42-0.539l0.721,3.08c-0.375,0.188-1.027,0.42-1.961,0.699c-0.934,0.281-2,0.42-3.199,0.42
	c-1.414,0-2.58-0.18-3.5-0.539s-1.66-0.9-2.221-1.621c-0.561-0.719-0.953-1.605-1.18-2.658c-0.227-1.055-0.34-2.273-0.34-3.66
	v-18.561l3.719-0.641V495.775z"/>
<path fill="#1A5099" d="M72.031,506.215c0-1.84,0.266-3.447,0.799-4.82s1.24-2.514,2.121-3.42c0.879-0.906,1.893-1.586,3.039-2.041
	c1.146-0.453,2.32-0.68,3.52-0.68c2.801,0,4.947,0.875,6.441,2.621c1.492,1.746,2.24,4.406,2.24,7.979c0,0.16,0,0.367,0,0.621
	s-0.014,0.486-0.041,0.699H75.91c0.16,2.16,0.787,3.801,1.881,4.92c1.094,1.121,2.799,1.682,5.119,1.682
	c1.307,0,2.406-0.113,3.301-0.342c0.893-0.225,1.566-0.445,2.02-0.658l0.52,3.119c-0.453,0.24-1.246,0.494-2.379,0.76
	c-1.135,0.266-2.42,0.4-3.861,0.4c-1.813,0-3.379-0.273-4.699-0.82s-2.406-1.301-3.26-2.26c-0.854-0.961-1.486-2.1-1.9-3.42
	S72.031,507.789,72.031,506.215z M86.311,504.174c0.027-1.68-0.395-3.059-1.26-4.139c-0.867-1.08-2.061-1.621-3.58-1.621
	c-0.854,0-1.607,0.168-2.26,0.5c-0.654,0.334-1.207,0.768-1.66,1.301s-0.807,1.146-1.061,1.84s-0.42,1.4-0.5,2.119H86.311z"/>
<path fill="#1A5099" d="M94.391,506.215c0-1.84,0.268-3.447,0.801-4.82s1.24-2.514,2.119-3.42c0.881-0.906,1.895-1.586,3.041-2.041
	c1.146-0.453,2.32-0.68,3.52-0.68c2.801,0,4.945,0.875,6.439,2.621s2.24,4.406,2.24,7.979c0,0.16,0,0.367,0,0.621
	s-0.014,0.486-0.039,0.699h-14.24c0.16,2.16,0.785,3.801,1.879,4.92c1.094,1.121,2.801,1.682,5.121,1.682
	c1.307,0,2.406-0.113,3.299-0.342c0.895-0.225,1.566-0.445,2.021-0.658l0.52,3.119c-0.453,0.24-1.248,0.494-2.381,0.76
	s-2.42,0.4-3.859,0.4c-1.814,0-3.381-0.273-4.699-0.82c-1.32-0.547-2.408-1.301-3.262-2.26c-0.854-0.961-1.486-2.1-1.898-3.42
	C94.598,509.234,94.391,507.789,94.391,506.215z M108.672,504.174c0.025-1.68-0.395-3.059-1.262-4.139
	c-0.865-1.08-2.059-1.621-3.578-1.621c-0.855,0-1.607,0.168-2.262,0.5c-0.652,0.334-1.207,0.768-1.66,1.301s-0.807,1.146-1.059,1.84
	c-0.254,0.693-0.42,1.4-0.5,2.119H108.672z"/>
<path fill="#1A5099" d="M117.91,496.375c0.854-0.213,1.98-0.441,3.381-0.68c1.4-0.24,3.02-0.361,4.859-0.361
	c1.334,0,2.453,0.18,3.359,0.541c0.906,0.359,1.666,0.887,2.281,1.58c0.186-0.133,0.479-0.32,0.879-0.561s0.895-0.473,1.48-0.699
	s1.24-0.428,1.961-0.602c0.719-0.172,1.492-0.26,2.318-0.26c1.602,0,2.906,0.234,3.92,0.701s1.807,1.127,2.381,1.979
	c0.572,0.855,0.961,1.867,1.16,3.041s0.301,2.453,0.301,3.84v11.68h-3.721v-10.879c0-1.227-0.061-2.281-0.18-3.16
	c-0.121-0.881-0.348-1.613-0.68-2.201c-0.334-0.586-0.787-1.02-1.361-1.299c-0.574-0.281-1.313-0.42-2.219-0.42
	c-1.254,0-2.287,0.166-3.102,0.5c-0.813,0.332-1.365,0.633-1.66,0.898c0.215,0.695,0.375,1.455,0.48,2.281
	c0.107,0.826,0.16,1.693,0.16,2.6v11.68h-3.719v-10.879c0-1.227-0.068-2.281-0.201-3.16c-0.133-0.881-0.367-1.613-0.699-2.201
	c-0.334-0.586-0.787-1.02-1.361-1.299c-0.572-0.281-1.299-0.42-2.18-0.42c-0.373,0-0.773,0.014-1.199,0.039
	c-0.428,0.027-0.834,0.061-1.221,0.1c-0.387,0.041-0.74,0.088-1.061,0.141c-0.318,0.053-0.533,0.094-0.639,0.119v17.561h-3.721
	V496.375z"/>
<path fill="#4BA2F2" d="M156.75,514.414c0,0.721-0.24,1.348-0.721,1.881c-0.479,0.533-1.133,0.799-1.959,0.799
	c-0.828,0-1.48-0.266-1.961-0.799c-0.479-0.533-0.719-1.16-0.719-1.881c0-0.719,0.24-1.346,0.719-1.879
	c0.48-0.533,1.133-0.801,1.961-0.801c0.826,0,1.48,0.268,1.959,0.801C156.51,513.068,156.75,513.695,156.75,514.414z"/>
<path fill="#9E9E9E" d="M180.51,506.215c0,1.574-0.207,3.027-0.619,4.359c-0.414,1.334-1.021,2.48-1.82,3.439
	c-0.801,0.961-1.781,1.707-2.941,2.24c-1.158,0.533-2.486,0.801-3.979,0.801c-1.201,0-2.26-0.16-3.18-0.48
	c-0.922-0.32-1.607-0.627-2.061-0.92v8.32h-3.721v-27.561c0.881-0.213,1.98-0.445,3.301-0.699s2.846-0.381,4.58-0.381
	c1.6,0,3.039,0.254,4.32,0.76c1.279,0.508,2.373,1.229,3.279,2.16c0.906,0.934,1.605,2.074,2.1,3.42
	C180.264,503.021,180.51,504.535,180.51,506.215z M176.629,506.215c0-2.426-0.6-4.293-1.799-5.6
	c-1.201-1.307-2.801-1.961-4.801-1.961c-1.119,0-1.994,0.041-2.619,0.121c-0.627,0.078-1.127,0.172-1.5,0.279v13.119
	c0.453,0.375,1.105,0.734,1.959,1.08c0.854,0.348,1.787,0.521,2.801,0.521c1.066,0,1.98-0.193,2.74-0.58s1.379-0.92,1.859-1.602
	c0.48-0.68,0.826-1.479,1.041-2.398C176.523,508.275,176.629,507.281,176.629,506.215z"/>
<path fill="#9E9E9E" d="M191.99,516.975c-2.295-0.055-3.922-0.547-4.881-1.48c-0.961-0.934-1.439-2.387-1.439-4.359v-24.961
	l3.719-0.639v25c0,0.613,0.055,1.119,0.16,1.52c0.107,0.4,0.281,0.721,0.52,0.959c0.24,0.24,0.561,0.42,0.961,0.541
	c0.4,0.119,0.893,0.221,1.48,0.299L191.99,516.975z"/>
<path fill="#9E9E9E" d="M203.389,495.254c1.494,0,2.754,0.193,3.781,0.58c1.025,0.387,1.852,0.934,2.479,1.641
	s1.074,1.547,1.34,2.52c0.268,0.975,0.4,2.047,0.4,3.221v13c-0.32,0.053-0.766,0.127-1.34,0.219
	c-0.574,0.094-1.219,0.182-1.939,0.262s-1.5,0.152-2.34,0.219s-1.674,0.1-2.5,0.1c-1.174,0-2.254-0.119-3.24-0.359
	s-1.84-0.619-2.561-1.141c-0.719-0.52-1.279-1.205-1.68-2.059s-0.6-1.881-0.6-3.08c0-1.146,0.232-2.133,0.699-2.961
	c0.467-0.826,1.1-1.492,1.9-2c0.801-0.506,1.732-0.879,2.801-1.119c1.066-0.24,2.186-0.361,3.359-0.361
	c0.373,0,0.76,0.021,1.16,0.061c0.4,0.041,0.779,0.094,1.141,0.16c0.359,0.066,0.672,0.127,0.939,0.18
	c0.266,0.055,0.453,0.094,0.561,0.121v-1.041c0-0.613-0.068-1.219-0.201-1.82c-0.133-0.6-0.373-1.133-0.719-1.6
	c-0.348-0.467-0.82-0.84-1.42-1.119c-0.602-0.281-1.381-0.42-2.342-0.42c-1.227,0-2.299,0.086-3.219,0.26s-1.607,0.354-2.061,0.539
	l-0.439-3.08c0.48-0.213,1.279-0.42,2.4-0.619C200.869,495.354,202.082,495.254,203.389,495.254z M203.709,513.895
	c0.881,0,1.66-0.02,2.34-0.061c0.68-0.039,1.246-0.113,1.701-0.219v-6.201c-0.268-0.133-0.701-0.246-1.301-0.34
	s-1.326-0.141-2.18-0.141c-0.561,0-1.154,0.041-1.781,0.121c-0.625,0.08-1.199,0.246-1.719,0.5s-0.953,0.6-1.301,1.039
	c-0.346,0.441-0.52,1.021-0.52,1.74c0,1.334,0.426,2.26,1.279,2.781C201.082,513.635,202.242,513.895,203.709,513.895z"/>
<path fill="#9E9E9E" d="M226.588,517.055c-1.68,0-3.154-0.268-4.42-0.801c-1.268-0.533-2.334-1.279-3.199-2.24
	c-0.867-0.959-1.514-2.1-1.941-3.42c-0.426-1.318-0.639-2.779-0.639-4.379s0.232-3.066,0.699-4.4s1.127-2.486,1.98-3.461
	c0.854-0.973,1.9-1.732,3.141-2.279c1.238-0.547,2.619-0.82,4.139-0.82c0.934,0,1.867,0.08,2.801,0.24s1.826,0.414,2.68,0.76
	l-0.84,3.16c-0.561-0.266-1.207-0.48-1.939-0.639c-0.734-0.16-1.514-0.24-2.34-0.24c-2.08,0-3.674,0.652-4.781,1.959
	s-1.66,3.215-1.66,5.721c0,1.119,0.127,2.146,0.381,3.08c0.252,0.934,0.652,1.732,1.199,2.4c0.547,0.666,1.246,1.18,2.1,1.539
	s1.895,0.541,3.121,0.541c0.986,0,1.879-0.094,2.68-0.281c0.801-0.186,1.426-0.387,1.881-0.6l0.52,3.119
	c-0.215,0.135-0.52,0.262-0.92,0.381s-0.854,0.227-1.361,0.32c-0.506,0.092-1.047,0.172-1.619,0.24
	C227.674,517.021,227.121,517.055,226.588,517.055z"/>
<path fill="#9E9E9E" d="M234.988,506.215c0-1.84,0.266-3.447,0.799-4.82s1.24-2.514,2.121-3.42c0.879-0.906,1.893-1.586,3.039-2.041
	c1.146-0.453,2.32-0.68,3.52-0.68c2.801,0,4.947,0.875,6.441,2.621c1.492,1.746,2.24,4.406,2.24,7.979c0,0.16,0,0.367,0,0.621
	s-0.014,0.486-0.041,0.699h-14.24c0.16,2.16,0.787,3.801,1.881,4.92c1.094,1.121,2.799,1.682,5.119,1.682
	c1.307,0,2.406-0.113,3.301-0.342c0.893-0.225,1.566-0.445,2.02-0.658l0.52,3.119c-0.453,0.24-1.246,0.494-2.379,0.76
	c-1.135,0.266-2.42,0.4-3.861,0.4c-1.813,0-3.379-0.273-4.699-0.82s-2.406-1.301-3.26-2.26c-0.854-0.961-1.486-2.1-1.9-3.42
	S234.988,507.789,234.988,506.215z M249.268,504.174c0.027-1.68-0.395-3.059-1.26-4.139c-0.867-1.08-2.061-1.621-3.58-1.621
	c-0.854,0-1.607,0.168-2.26,0.5c-0.654,0.334-1.207,0.768-1.66,1.301s-0.807,1.146-1.061,1.84s-0.42,1.4-0.5,2.119H249.268z"/>
<g>
	<circle fill="#565656" cx="416.222" cy="377.234" r="14.801"/>
	<path fill="#565656" d="M433.153,457.23c-7.479,9.439-13.92,15.611-16.91,15.611c-9.689,0-55.729-64.9-55.729-95.68
		c0-20.09,10.629-37.701,26.57-47.5c-6.33,9.039-10.051,20.049-10.051,31.93c0,30.779,46.029,95.68,55.73,95.68
		C432.884,457.271,433.015,457.262,433.153,457.23z"/>
	<path d="M416.243,321.432c-10.689,0-20.68,3.01-29.158,8.23c-6.33,9.039-10.051,20.049-10.051,31.93
		c0,7.621,2.82,17.334,7.217,27.635c0.08,0.189,0.16,0.379,0.242,0.568c0.828,1.918-2.379-6.01-2.379-12.633
		c0-18.85,15.279-34.141,34.129-34.141c18.852,0,34.141,15.291,34.141,34.141c0,13.66-8.035,25.439-19.633,30.893
		c-0.031,0.016-0.721,0.381-0.924,0.469c-5.854,2.529-9.957,8.334-9.957,15.115c0,9.096,7.375,16.471,16.475,16.471
		c5.262,0,9.943-2.473,12.959-6.316c0.205-0.262,0.836-1.105,0.943-1.281c11.689-19.17,21.727-40.979,21.727-55.35
		C471.974,346.381,447.024,321.432,416.243,321.432z M434.786,407.242 M431.958,407.771 M433.331,407.451"/>
	<path d="M314.866,513.895c1.52,0,2.646-0.199,3.379-0.6c0.734-0.4,1.1-1.041,1.1-1.92c0-0.906-0.359-1.627-1.078-2.16
		c-0.721-0.533-1.908-1.133-3.561-1.801c-0.801-0.32-1.566-0.646-2.301-0.98c-0.732-0.332-1.367-0.725-1.9-1.18
		c-0.533-0.453-0.959-1-1.279-1.639c-0.32-0.641-0.48-1.428-0.48-2.361c0-1.84,0.68-3.299,2.041-4.379
		c1.359-1.08,3.213-1.621,5.559-1.621c0.588,0,1.174,0.035,1.762,0.1c0.586,0.068,1.133,0.148,1.639,0.24
		c0.506,0.094,0.953,0.195,1.34,0.301c0.387,0.107,0.688,0.199,0.9,0.279l-0.68,3.201c-0.4-0.213-1.027-0.434-1.881-0.66
		s-1.879-0.34-3.08-0.34c-1.039,0-1.945,0.207-2.719,0.619c-0.773,0.414-1.16,1.061-1.16,1.939c0,0.455,0.086,0.855,0.26,1.201
		s0.439,0.66,0.801,0.939c0.359,0.279,0.805,0.541,1.34,0.779c0.533,0.24,1.172,0.494,1.92,0.762c0.986,0.373,1.865,0.738,2.639,1.1
		c0.773,0.359,1.434,0.779,1.98,1.26s0.967,1.061,1.26,1.74s0.441,1.514,0.441,2.5c0,1.92-0.715,3.373-2.141,4.359
		c-1.428,0.986-3.461,1.48-6.1,1.48c-1.84,0-3.281-0.154-4.32-0.461c-1.041-0.305-1.748-0.539-2.121-0.699l0.682-3.199
		c0.426,0.158,1.105,0.398,2.039,0.719S313.319,513.895,314.866,513.895z"/>
	<path d="M331.345,495.775h7.881v3.119h-7.881v9.6c0,1.041,0.08,1.9,0.24,2.58s0.4,1.215,0.721,1.6
		c0.32,0.387,0.721,0.66,1.199,0.82c0.48,0.16,1.041,0.24,1.68,0.24c1.121,0,2.021-0.127,2.701-0.381
		c0.68-0.252,1.152-0.432,1.42-0.539l0.721,3.08c-0.375,0.188-1.027,0.42-1.961,0.699c-0.934,0.281-2,0.42-3.199,0.42
		c-1.414,0-2.58-0.18-3.5-0.539s-1.66-0.9-2.221-1.621c-0.561-0.719-0.953-1.605-1.18-2.658c-0.227-1.055-0.34-2.273-0.34-3.66
		v-18.561l3.719-0.641V495.775z"/>
	<path d="M342.386,506.215c0-1.84,0.266-3.447,0.799-4.82s1.24-2.514,2.121-3.42c0.879-0.906,1.893-1.586,3.039-2.041
		c1.146-0.453,2.32-0.68,3.52-0.68c2.801,0,4.947,0.875,6.441,2.621c1.492,1.746,2.24,4.406,2.24,7.979c0,0.16,0,0.367,0,0.621
		s-0.014,0.486-0.041,0.699h-14.24c0.16,2.16,0.787,3.801,1.881,4.92c1.094,1.121,2.799,1.682,5.119,1.682
		c1.307,0,2.406-0.113,3.301-0.342c0.893-0.225,1.566-0.445,2.02-0.658l0.52,3.119c-0.453,0.24-1.246,0.494-2.379,0.76
		c-1.135,0.266-2.42,0.4-3.861,0.4c-1.813,0-3.379-0.273-4.699-0.82s-2.406-1.301-3.26-2.26c-0.854-0.961-1.486-2.1-1.9-3.42
		S342.386,507.789,342.386,506.215z M356.665,504.174c0.027-1.68-0.395-3.059-1.26-4.139c-0.867-1.08-2.061-1.621-3.58-1.621
		c-0.854,0-1.607,0.168-2.26,0.5c-0.654,0.334-1.207,0.768-1.66,1.301s-0.807,1.146-1.061,1.84s-0.42,1.4-0.5,2.119H356.665z"/>
	<path d="M364.745,506.215c0-1.84,0.268-3.447,0.801-4.82s1.24-2.514,2.119-3.42c0.881-0.906,1.895-1.586,3.041-2.041
		c1.146-0.453,2.32-0.68,3.52-0.68c2.801,0,4.945,0.875,6.439,2.621s2.24,4.406,2.24,7.979c0,0.16,0,0.367,0,0.621
		s-0.014,0.486-0.039,0.699h-14.24c0.16,2.16,0.785,3.801,1.879,4.92c1.094,1.121,2.801,1.682,5.121,1.682
		c1.307,0,2.406-0.113,3.299-0.342c0.895-0.225,1.566-0.445,2.021-0.658l0.52,3.119c-0.453,0.24-1.248,0.494-2.381,0.76
		s-2.42,0.4-3.859,0.4c-1.814,0-3.381-0.273-4.699-0.82c-1.32-0.547-2.408-1.301-3.262-2.26c-0.854-0.961-1.486-2.1-1.898-3.42
		C364.952,509.234,364.745,507.789,364.745,506.215z M379.026,504.174c0.025-1.68-0.395-3.059-1.262-4.139
		c-0.865-1.08-2.059-1.621-3.578-1.621c-0.855,0-1.607,0.168-2.262,0.5c-0.652,0.334-1.207,0.768-1.66,1.301
		s-0.807,1.146-1.059,1.84c-0.254,0.693-0.42,1.4-0.5,2.119H379.026z"/>
	<path d="M388.265,496.375c0.854-0.213,1.98-0.441,3.381-0.68c1.4-0.24,3.02-0.361,4.859-0.361c1.334,0,2.453,0.18,3.359,0.541
		c0.906,0.359,1.666,0.887,2.281,1.58c0.186-0.133,0.479-0.32,0.879-0.561s0.895-0.473,1.48-0.699s1.24-0.428,1.961-0.602
		c0.719-0.172,1.492-0.26,2.318-0.26c1.602,0,2.906,0.234,3.92,0.701s1.807,1.127,2.381,1.979c0.572,0.855,0.961,1.867,1.16,3.041
		s0.301,2.453,0.301,3.84v11.68h-3.721v-10.879c0-1.227-0.061-2.281-0.18-3.16c-0.121-0.881-0.348-1.613-0.68-2.201
		c-0.334-0.586-0.787-1.02-1.361-1.299c-0.574-0.281-1.313-0.42-2.219-0.42c-1.254,0-2.287,0.166-3.102,0.5
		c-0.813,0.332-1.365,0.633-1.66,0.898c0.215,0.695,0.375,1.455,0.48,2.281c0.107,0.826,0.16,1.693,0.16,2.6v11.68h-3.719v-10.879
		c0-1.227-0.068-2.281-0.201-3.16c-0.133-0.881-0.367-1.613-0.699-2.201c-0.334-0.586-0.787-1.02-1.361-1.299
		c-0.572-0.281-1.299-0.42-2.18-0.42c-0.373,0-0.773,0.014-1.199,0.039c-0.428,0.027-0.834,0.061-1.221,0.1
		c-0.387,0.041-0.74,0.088-1.061,0.141c-0.318,0.053-0.533,0.094-0.639,0.119v17.561h-3.721V496.375z"/>
	<path fill="#565656" d="M427.104,514.414c0,0.721-0.24,1.348-0.721,1.881c-0.479,0.533-1.133,0.799-1.959,0.799
		c-0.828,0-1.48-0.266-1.961-0.799c-0.479-0.533-0.719-1.16-0.719-1.881c0-0.719,0.24-1.346,0.719-1.879
		c0.48-0.533,1.133-0.801,1.961-0.801c0.826,0,1.48,0.268,1.959,0.801C426.864,513.068,427.104,513.695,427.104,514.414z"/>
	<path fill="#9E9E9E" d="M450.864,506.215c0,1.574-0.207,3.027-0.619,4.359c-0.414,1.334-1.021,2.48-1.82,3.439
		c-0.801,0.961-1.781,1.707-2.941,2.24c-1.158,0.533-2.486,0.801-3.979,0.801c-1.201,0-2.26-0.16-3.18-0.48
		c-0.922-0.32-1.607-0.627-2.061-0.92v8.32h-3.721v-27.561c0.881-0.213,1.98-0.445,3.301-0.699s2.846-0.381,4.58-0.381
		c1.6,0,3.039,0.254,4.32,0.76c1.279,0.508,2.373,1.229,3.279,2.16c0.906,0.934,1.605,2.074,2.1,3.42
		C450.618,503.021,450.864,504.535,450.864,506.215z M446.983,506.215c0-2.426-0.6-4.293-1.799-5.6
		c-1.201-1.307-2.801-1.961-4.801-1.961c-1.119,0-1.994,0.041-2.619,0.121c-0.627,0.078-1.127,0.172-1.5,0.279v13.119
		c0.453,0.375,1.105,0.734,1.959,1.08c0.854,0.348,1.787,0.521,2.801,0.521c1.066,0,1.98-0.193,2.74-0.58s1.379-0.92,1.859-1.602
		c0.48-0.68,0.826-1.479,1.041-2.398C446.878,508.275,446.983,507.281,446.983,506.215z"/>
	<path fill="#9E9E9E" d="M462.345,516.975c-2.295-0.055-3.922-0.547-4.881-1.48c-0.961-0.934-1.439-2.387-1.439-4.359v-24.961
		l3.719-0.639v25c0,0.613,0.055,1.119,0.16,1.52c0.107,0.4,0.281,0.721,0.52,0.959c0.24,0.24,0.561,0.42,0.961,0.541
		c0.4,0.119,0.893,0.221,1.48,0.299L462.345,516.975z"/>
	<path fill="#9E9E9E" d="M473.743,495.254c1.494,0,2.754,0.193,3.781,0.58c1.025,0.387,1.852,0.934,2.479,1.641
		s1.074,1.547,1.34,2.52c0.268,0.975,0.4,2.047,0.4,3.221v13c-0.32,0.053-0.766,0.127-1.34,0.219
		c-0.574,0.094-1.219,0.182-1.939,0.262s-1.5,0.152-2.34,0.219s-1.674,0.1-2.5,0.1c-1.174,0-2.254-0.119-3.24-0.359
		s-1.84-0.619-2.561-1.141c-0.719-0.52-1.279-1.205-1.68-2.059s-0.6-1.881-0.6-3.08c0-1.146,0.232-2.133,0.699-2.961
		c0.467-0.826,1.1-1.492,1.9-2c0.801-0.506,1.732-0.879,2.801-1.119c1.066-0.24,2.186-0.361,3.359-0.361
		c0.373,0,0.76,0.021,1.16,0.061c0.4,0.041,0.779,0.094,1.141,0.16c0.359,0.066,0.672,0.127,0.939,0.18
		c0.266,0.055,0.453,0.094,0.561,0.121v-1.041c0-0.613-0.068-1.219-0.201-1.82c-0.133-0.6-0.373-1.133-0.719-1.6
		c-0.348-0.467-0.82-0.84-1.42-1.119c-0.602-0.281-1.381-0.42-2.342-0.42c-1.227,0-2.299,0.086-3.219,0.26s-1.607,0.354-2.061,0.539
		l-0.439-3.08c0.48-0.213,1.279-0.42,2.4-0.619C471.224,495.354,472.437,495.254,473.743,495.254z M474.063,513.895
		c0.881,0,1.66-0.02,2.34-0.061c0.68-0.039,1.246-0.113,1.701-0.219v-6.201c-0.268-0.133-0.701-0.246-1.301-0.34
		s-1.326-0.141-2.18-0.141c-0.561,0-1.154,0.041-1.781,0.121c-0.625,0.08-1.199,0.246-1.719,0.5s-0.953,0.6-1.301,1.039
		c-0.346,0.441-0.52,1.021-0.52,1.74c0,1.334,0.426,2.26,1.279,2.781C471.437,513.635,472.597,513.895,474.063,513.895z"/>
	<path fill="#9E9E9E" d="M496.942,517.055c-1.68,0-3.154-0.268-4.42-0.801c-1.268-0.533-2.334-1.279-3.199-2.24
		c-0.867-0.959-1.514-2.1-1.941-3.42c-0.426-1.318-0.639-2.779-0.639-4.379s0.232-3.066,0.699-4.4s1.127-2.486,1.98-3.461
		c0.854-0.973,1.9-1.732,3.141-2.279c1.238-0.547,2.619-0.82,4.139-0.82c0.934,0,1.867,0.08,2.801,0.24s1.826,0.414,2.68,0.76
		l-0.84,3.16c-0.561-0.266-1.207-0.48-1.939-0.639c-0.734-0.16-1.514-0.24-2.34-0.24c-2.08,0-3.674,0.652-4.781,1.959
		s-1.66,3.215-1.66,5.721c0,1.119,0.127,2.146,0.381,3.08c0.252,0.934,0.652,1.732,1.199,2.4c0.547,0.666,1.246,1.18,2.1,1.539
		s1.895,0.541,3.121,0.541c0.986,0,1.879-0.094,2.68-0.281c0.801-0.186,1.426-0.387,1.881-0.6l0.52,3.119
		c-0.215,0.135-0.52,0.262-0.92,0.381s-0.854,0.227-1.361,0.32c-0.506,0.092-1.047,0.172-1.619,0.24
		C498.028,517.021,497.476,517.055,496.942,517.055z"/>
	<path fill="#9E9E9E" d="M505.343,506.215c0-1.84,0.266-3.447,0.799-4.82s1.24-2.514,2.121-3.42
		c0.879-0.906,1.893-1.586,3.039-2.041c1.146-0.453,2.32-0.68,3.52-0.68c2.801,0,4.947,0.875,6.441,2.621
		c1.492,1.746,2.24,4.406,2.24,7.979c0,0.16,0,0.367,0,0.621s-0.014,0.486-0.041,0.699h-14.24c0.16,2.16,0.787,3.801,1.881,4.92
		c1.094,1.121,2.799,1.682,5.119,1.682c1.307,0,2.406-0.113,3.301-0.342c0.893-0.225,1.566-0.445,2.02-0.658l0.52,3.119
		c-0.453,0.24-1.246,0.494-2.379,0.76c-1.135,0.266-2.42,0.4-3.861,0.4c-1.813,0-3.379-0.273-4.699-0.82s-2.406-1.301-3.26-2.26
		c-0.854-0.961-1.486-2.1-1.9-3.42S505.343,507.789,505.343,506.215z M519.622,504.174c0.027-1.68-0.395-3.059-1.26-4.139
		c-0.867-1.08-2.061-1.621-3.58-1.621c-0.854,0-1.607,0.168-2.26,0.5c-0.654,0.334-1.207,0.768-1.66,1.301s-0.807,1.146-1.061,1.84
		s-0.42,1.4-0.5,2.119H519.622z"/>
</g>
<g>
	<g>
		<circle fill="#FFFFFF" cx="686.576" cy="377.234" r="14.801"/>
		<path fill="#FFFFFF" d="M703.508,457.23c-7.479,9.439-13.92,15.611-16.91,15.611c-9.689,0-55.729-64.9-55.729-95.68
			c0-20.09,10.629-37.701,26.57-47.5c-6.33,9.039-10.051,20.049-10.051,31.93c0,30.779,46.029,95.68,55.73,95.68
			C703.238,457.271,703.369,457.262,703.508,457.23z"/>
		<path fill="#FFFFFF" d="M686.598,321.432c-10.689,0-20.68,3.01-29.158,8.23c-6.33,9.039-10.051,20.049-10.051,31.93
			c0,7.621,2.82,17.334,7.217,27.635c0.08,0.189,0.16,0.379,0.242,0.568c0.828,1.918-2.379-6.01-2.379-12.633
			c0-18.85,15.279-34.141,34.129-34.141c18.852,0,34.141,15.291,34.141,34.141c0,13.66-8.035,25.439-19.633,30.893
			c-0.031,0.016-0.721,0.381-0.924,0.469c-5.854,2.529-9.957,8.334-9.957,15.115c0,9.096,7.375,16.471,16.475,16.471
			c5.262,0,9.943-2.473,12.959-6.316c0.205-0.262,0.836-1.105,0.943-1.281c11.689-19.17,21.727-40.979,21.727-55.35
			C742.328,346.381,717.379,321.432,686.598,321.432z M705.141,407.242 M702.313,407.771 M703.686,407.451"/>
	</g>
	<g>
		<path fill="#FFFFFF" d="M585.221,513.895c1.52,0,2.646-0.199,3.379-0.6c0.734-0.4,1.1-1.041,1.1-1.92
			c0-0.906-0.359-1.627-1.078-2.16c-0.721-0.533-1.908-1.133-3.561-1.801c-0.801-0.32-1.566-0.646-2.301-0.98
			c-0.732-0.332-1.367-0.725-1.9-1.18c-0.533-0.453-0.959-1-1.279-1.639c-0.32-0.641-0.48-1.428-0.48-2.361
			c0-1.84,0.68-3.299,2.041-4.379c1.359-1.08,3.213-1.621,5.559-1.621c0.588,0,1.174,0.035,1.762,0.1
			c0.586,0.068,1.133,0.148,1.639,0.24c0.506,0.094,0.953,0.195,1.34,0.301c0.387,0.107,0.688,0.199,0.9,0.279l-0.68,3.201
			c-0.4-0.213-1.027-0.434-1.881-0.66s-1.879-0.34-3.08-0.34c-1.039,0-1.945,0.207-2.719,0.619c-0.773,0.414-1.16,1.061-1.16,1.939
			c0,0.455,0.086,0.855,0.26,1.201s0.439,0.66,0.801,0.939c0.359,0.279,0.805,0.541,1.34,0.779c0.533,0.24,1.172,0.494,1.92,0.762
			c0.986,0.373,1.865,0.738,2.639,1.1c0.773,0.359,1.434,0.779,1.98,1.26s0.967,1.061,1.26,1.74s0.441,1.514,0.441,2.5
			c0,1.92-0.715,3.373-2.141,4.359c-1.428,0.986-3.461,1.48-6.1,1.48c-1.84,0-3.281-0.154-4.32-0.461
			c-1.041-0.305-1.748-0.539-2.121-0.699l0.682-3.199c0.426,0.158,1.105,0.398,2.039,0.719S583.674,513.895,585.221,513.895z"/>
		<path fill="#FFFFFF" d="M601.699,495.775h7.881v3.119h-7.881v9.6c0,1.041,0.08,1.9,0.24,2.58s0.4,1.215,0.721,1.6
			c0.32,0.387,0.721,0.66,1.199,0.82c0.48,0.16,1.041,0.24,1.68,0.24c1.121,0,2.021-0.127,2.701-0.381
			c0.68-0.252,1.152-0.432,1.42-0.539l0.721,3.08c-0.375,0.188-1.027,0.42-1.961,0.699c-0.934,0.281-2,0.42-3.199,0.42
			c-1.414,0-2.58-0.18-3.5-0.539s-1.66-0.9-2.221-1.621c-0.561-0.719-0.953-1.605-1.18-2.658c-0.227-1.055-0.34-2.273-0.34-3.66
			v-18.561l3.719-0.641V495.775z"/>
		<path fill="#FFFFFF" d="M612.74,506.215c0-1.84,0.266-3.447,0.799-4.82s1.24-2.514,2.121-3.42
			c0.879-0.906,1.893-1.586,3.039-2.041c1.146-0.453,2.32-0.68,3.52-0.68c2.801,0,4.947,0.875,6.441,2.621
			c1.492,1.746,2.24,4.406,2.24,7.979c0,0.16,0,0.367,0,0.621s-0.014,0.486-0.041,0.699h-14.24c0.16,2.16,0.787,3.801,1.881,4.92
			c1.094,1.121,2.799,1.682,5.119,1.682c1.307,0,2.406-0.113,3.301-0.342c0.893-0.225,1.566-0.445,2.02-0.658l0.52,3.119
			c-0.453,0.24-1.246,0.494-2.379,0.76c-1.135,0.266-2.42,0.4-3.861,0.4c-1.813,0-3.379-0.273-4.699-0.82s-2.406-1.301-3.26-2.26
			c-0.854-0.961-1.486-2.1-1.9-3.42S612.74,507.789,612.74,506.215z M627.02,504.174c0.027-1.68-0.395-3.059-1.26-4.139
			c-0.867-1.08-2.061-1.621-3.58-1.621c-0.854,0-1.607,0.168-2.26,0.5c-0.654,0.334-1.207,0.768-1.66,1.301s-0.807,1.146-1.061,1.84
			s-0.42,1.4-0.5,2.119H627.02z"/>
		<path fill="#FFFFFF" d="M635.1,506.215c0-1.84,0.268-3.447,0.801-4.82s1.24-2.514,2.119-3.42c0.881-0.906,1.895-1.586,3.041-2.041
			c1.146-0.453,2.32-0.68,3.52-0.68c2.801,0,4.945,0.875,6.439,2.621s2.24,4.406,2.24,7.979c0,0.16,0,0.367,0,0.621
			s-0.014,0.486-0.039,0.699h-14.24c0.16,2.16,0.785,3.801,1.879,4.92c1.094,1.121,2.801,1.682,5.121,1.682
			c1.307,0,2.406-0.113,3.299-0.342c0.895-0.225,1.566-0.445,2.021-0.658l0.52,3.119c-0.453,0.24-1.248,0.494-2.381,0.76
			s-2.42,0.4-3.859,0.4c-1.814,0-3.381-0.273-4.699-0.82c-1.32-0.547-2.408-1.301-3.262-2.26c-0.854-0.961-1.486-2.1-1.898-3.42
			C635.307,509.234,635.1,507.789,635.1,506.215z M649.381,504.174c0.025-1.68-0.395-3.059-1.262-4.139
			c-0.865-1.08-2.059-1.621-3.578-1.621c-0.855,0-1.607,0.168-2.262,0.5c-0.652,0.334-1.207,0.768-1.66,1.301
			s-0.807,1.146-1.059,1.84c-0.254,0.693-0.42,1.4-0.5,2.119H649.381z"/>
		<path fill="#FFFFFF" d="M658.619,496.375c0.854-0.213,1.98-0.441,3.381-0.68c1.4-0.24,3.02-0.361,4.859-0.361
			c1.334,0,2.453,0.18,3.359,0.541c0.906,0.359,1.666,0.887,2.281,1.58c0.186-0.133,0.479-0.32,0.879-0.561s0.895-0.473,1.48-0.699
			s1.24-0.428,1.961-0.602c0.719-0.172,1.492-0.26,2.318-0.26c1.602,0,2.906,0.234,3.92,0.701s1.807,1.127,2.381,1.979
			c0.572,0.855,0.961,1.867,1.16,3.041s0.301,2.453,0.301,3.84v11.68h-3.721v-10.879c0-1.227-0.061-2.281-0.18-3.16
			c-0.121-0.881-0.348-1.613-0.68-2.201c-0.334-0.586-0.787-1.02-1.361-1.299c-0.574-0.281-1.313-0.42-2.219-0.42
			c-1.254,0-2.287,0.166-3.102,0.5c-0.813,0.332-1.365,0.633-1.66,0.898c0.215,0.695,0.375,1.455,0.48,2.281
			c0.107,0.826,0.16,1.693,0.16,2.6v11.68H670.9v-10.879c0-1.227-0.068-2.281-0.201-3.16c-0.133-0.881-0.367-1.613-0.699-2.201
			c-0.334-0.586-0.787-1.02-1.361-1.299c-0.572-0.281-1.299-0.42-2.18-0.42c-0.373,0-0.773,0.014-1.199,0.039
			c-0.428,0.027-0.834,0.061-1.221,0.1c-0.387,0.041-0.74,0.088-1.061,0.141c-0.318,0.053-0.533,0.094-0.639,0.119v17.561h-3.721
			V496.375z"/>
		<path fill="#FFFFFF" d="M697.459,514.414c0,0.721-0.24,1.348-0.721,1.881c-0.479,0.533-1.133,0.799-1.959,0.799
			c-0.828,0-1.48-0.266-1.961-0.799c-0.479-0.533-0.719-1.16-0.719-1.881c0-0.719,0.24-1.346,0.719-1.879
			c0.48-0.533,1.133-0.801,1.961-0.801c0.826,0,1.48,0.268,1.959,0.801C697.219,513.068,697.459,513.695,697.459,514.414z"/>
		<path fill="#FFFFFF" d="M721.219,506.215c0,1.574-0.207,3.027-0.619,4.359c-0.414,1.334-1.021,2.48-1.82,3.439
			c-0.801,0.961-1.781,1.707-2.941,2.24c-1.158,0.533-2.486,0.801-3.979,0.801c-1.201,0-2.26-0.16-3.18-0.48
			c-0.922-0.32-1.607-0.627-2.061-0.92v8.32h-3.721v-27.561c0.881-0.213,1.98-0.445,3.301-0.699s2.846-0.381,4.58-0.381
			c1.6,0,3.039,0.254,4.32,0.76c1.279,0.508,2.373,1.229,3.279,2.16c0.906,0.934,1.605,2.074,2.1,3.42
			C720.973,503.021,721.219,504.535,721.219,506.215z M717.338,506.215c0-2.426-0.6-4.293-1.799-5.6
			c-1.201-1.307-2.801-1.961-4.801-1.961c-1.119,0-1.994,0.041-2.619,0.121c-0.627,0.078-1.127,0.172-1.5,0.279v13.119
			c0.453,0.375,1.105,0.734,1.959,1.08c0.854,0.348,1.787,0.521,2.801,0.521c1.066,0,1.98-0.193,2.74-0.58s1.379-0.92,1.859-1.602
			c0.48-0.68,0.826-1.479,1.041-2.398C717.232,508.275,717.338,507.281,717.338,506.215z"/>
		<path fill="#FFFFFF" d="M732.699,516.975c-2.295-0.055-3.922-0.547-4.881-1.48c-0.961-0.934-1.439-2.387-1.439-4.359v-24.961
			l3.719-0.639v25c0,0.613,0.055,1.119,0.16,1.52c0.107,0.4,0.281,0.721,0.52,0.959c0.24,0.24,0.561,0.42,0.961,0.541
			c0.4,0.119,0.893,0.221,1.48,0.299L732.699,516.975z"/>
		<path fill="#FFFFFF" d="M744.098,495.254c1.494,0,2.754,0.193,3.781,0.58c1.025,0.387,1.852,0.934,2.479,1.641
			s1.074,1.547,1.34,2.52c0.268,0.975,0.4,2.047,0.4,3.221v13c-0.32,0.053-0.766,0.127-1.34,0.219
			c-0.574,0.094-1.219,0.182-1.939,0.262s-1.5,0.152-2.34,0.219s-1.674,0.1-2.5,0.1c-1.174,0-2.254-0.119-3.24-0.359
			s-1.84-0.619-2.561-1.141c-0.719-0.52-1.279-1.205-1.68-2.059s-0.6-1.881-0.6-3.08c0-1.146,0.232-2.133,0.699-2.961
			c0.467-0.826,1.1-1.492,1.9-2c0.801-0.506,1.732-0.879,2.801-1.119c1.066-0.24,2.186-0.361,3.359-0.361
			c0.373,0,0.76,0.021,1.16,0.061c0.4,0.041,0.779,0.094,1.141,0.16c0.359,0.066,0.672,0.127,0.939,0.18
			c0.266,0.055,0.453,0.094,0.561,0.121v-1.041c0-0.613-0.068-1.219-0.201-1.82c-0.133-0.6-0.373-1.133-0.719-1.6
			c-0.348-0.467-0.82-0.84-1.42-1.119c-0.602-0.281-1.381-0.42-2.342-0.42c-1.227,0-2.299,0.086-3.219,0.26
			s-1.607,0.354-2.061,0.539l-0.439-3.08c0.48-0.213,1.279-0.42,2.4-0.619C741.578,495.354,742.791,495.254,744.098,495.254z
			 M744.418,513.895c0.881,0,1.66-0.02,2.34-0.061c0.68-0.039,1.246-0.113,1.701-0.219v-6.201c-0.268-0.133-0.701-0.246-1.301-0.34
			s-1.326-0.141-2.18-0.141c-0.561,0-1.154,0.041-1.781,0.121c-0.625,0.08-1.199,0.246-1.719,0.5s-0.953,0.6-1.301,1.039
			c-0.346,0.441-0.52,1.021-0.52,1.74c0,1.334,0.426,2.26,1.279,2.781C741.791,513.635,742.951,513.895,744.418,513.895z"/>
		<path fill="#FFFFFF" d="M767.297,517.055c-1.68,0-3.154-0.268-4.42-0.801c-1.268-0.533-2.334-1.279-3.199-2.24
			c-0.867-0.959-1.514-2.1-1.941-3.42c-0.426-1.318-0.639-2.779-0.639-4.379s0.232-3.066,0.699-4.4s1.127-2.486,1.98-3.461
			c0.854-0.973,1.9-1.732,3.141-2.279c1.238-0.547,2.619-0.82,4.139-0.82c0.934,0,1.867,0.08,2.801,0.24s1.826,0.414,2.68,0.76
			l-0.84,3.16c-0.561-0.266-1.207-0.48-1.939-0.639c-0.734-0.16-1.514-0.24-2.34-0.24c-2.08,0-3.674,0.652-4.781,1.959
			s-1.66,3.215-1.66,5.721c0,1.119,0.127,2.146,0.381,3.08c0.252,0.934,0.652,1.732,1.199,2.4c0.547,0.666,1.246,1.18,2.1,1.539
			s1.895,0.541,3.121,0.541c0.986,0,1.879-0.094,2.68-0.281c0.801-0.186,1.426-0.387,1.881-0.6l0.52,3.119
			c-0.215,0.135-0.52,0.262-0.92,0.381s-0.854,0.227-1.361,0.32c-0.506,0.092-1.047,0.172-1.619,0.24
			C768.383,517.021,767.83,517.055,767.297,517.055z"/>
		<path fill="#FFFFFF" d="M775.697,506.215c0-1.84,0.266-3.447,0.799-4.82s1.24-2.514,2.121-3.42
			c0.879-0.906,1.893-1.586,3.039-2.041c1.146-0.453,2.32-0.68,3.52-0.68c2.801,0,4.947,0.875,6.441,2.621
			c1.492,1.746,2.24,4.406,2.24,7.979c0,0.16,0,0.367,0,0.621s-0.014,0.486-0.041,0.699h-14.24c0.16,2.16,0.787,3.801,1.881,4.92
			c1.094,1.121,2.799,1.682,5.119,1.682c1.307,0,2.406-0.113,3.301-0.342c0.893-0.225,1.566-0.445,2.02-0.658l0.52,3.119
			c-0.453,0.24-1.246,0.494-2.379,0.76c-1.135,0.266-2.42,0.4-3.861,0.4c-1.813,0-3.379-0.273-4.699-0.82s-2.406-1.301-3.26-2.26
			c-0.854-0.961-1.486-2.1-1.9-3.42S775.697,507.789,775.697,506.215z M789.977,504.174c0.027-1.68-0.395-3.059-1.26-4.139
			c-0.867-1.08-2.061-1.621-3.58-1.621c-0.854,0-1.607,0.168-2.26,0.5c-0.654,0.334-1.207,0.768-1.66,1.301s-0.807,1.146-1.061,1.84
			s-0.42,1.4-0.5,2.119H789.977z"/>
	</g>
</g>
<g>
	<g>
		<circle fill="#4BA2F2" cx="956.931" cy="377.234" r="14.801"/>
		<path fill="#4BA2F2" d="M973.862,457.23c-7.479,9.439-13.92,15.611-16.91,15.611c-9.689,0-55.729-64.9-55.729-95.68
			c0-20.09,10.629-37.701,26.57-47.5c-6.33,9.039-10.051,20.049-10.051,31.93c0,30.779,46.029,95.68,55.73,95.68
			C973.593,457.271,973.724,457.262,973.862,457.23z"/>
		<path fill="#1A5099" d="M956.952,321.432c-10.689,0-20.68,3.01-29.158,8.23c-6.33,9.039-10.051,20.049-10.051,31.93
			c0,7.621,2.82,17.334,7.217,27.635c0.08,0.189,0.16,0.379,0.242,0.568c0.828,1.918-2.379-6.01-2.379-12.633
			c0-18.85,15.279-34.141,34.129-34.141c18.852,0,34.141,15.291,34.141,34.141c0,13.66-8.035,25.439-19.633,30.893
			c-0.031,0.016-0.721,0.381-0.924,0.469c-5.854,2.529-9.957,8.334-9.957,15.115c0,9.096,7.375,16.471,16.475,16.471
			c5.262,0,9.943-2.473,12.959-6.316c0.205-0.262,0.836-1.105,0.943-1.281c11.689-19.17,21.727-40.979,21.727-55.35
			C1012.683,346.381,987.733,321.432,956.952,321.432z M975.495,407.242 M972.667,407.771 M974.04,407.451"/>
	</g>
	<g>
		<path fill="#1A5099" d="M855.575,513.895c1.52,0,2.646-0.199,3.379-0.6c0.734-0.4,1.1-1.041,1.1-1.92
			c0-0.906-0.359-1.627-1.078-2.16c-0.721-0.533-1.908-1.133-3.561-1.801c-0.801-0.32-1.566-0.646-2.301-0.98
			c-0.732-0.332-1.367-0.725-1.9-1.18c-0.533-0.453-0.959-1-1.279-1.639c-0.32-0.641-0.48-1.428-0.48-2.361
			c0-1.84,0.68-3.299,2.041-4.379c1.359-1.08,3.213-1.621,5.559-1.621c0.588,0,1.174,0.035,1.762,0.1
			c0.586,0.068,1.133,0.148,1.639,0.24c0.506,0.094,0.953,0.195,1.34,0.301c0.387,0.107,0.688,0.199,0.9,0.279l-0.68,3.201
			c-0.4-0.213-1.027-0.434-1.881-0.66s-1.879-0.34-3.08-0.34c-1.039,0-1.945,0.207-2.719,0.619c-0.773,0.414-1.16,1.061-1.16,1.939
			c0,0.455,0.086,0.855,0.26,1.201s0.439,0.66,0.801,0.939c0.359,0.279,0.805,0.541,1.34,0.779c0.533,0.24,1.172,0.494,1.92,0.762
			c0.986,0.373,1.865,0.738,2.639,1.1c0.773,0.359,1.434,0.779,1.98,1.26s0.967,1.061,1.26,1.74s0.441,1.514,0.441,2.5
			c0,1.92-0.715,3.373-2.141,4.359c-1.428,0.986-3.461,1.48-6.1,1.48c-1.84,0-3.281-0.154-4.32-0.461
			c-1.041-0.305-1.748-0.539-2.121-0.699l0.682-3.199c0.426,0.158,1.105,0.398,2.039,0.719S854.028,513.895,855.575,513.895z"/>
		<path fill="#1A5099" d="M872.054,495.775h7.881v3.119h-7.881v9.6c0,1.041,0.08,1.9,0.24,2.58s0.4,1.215,0.721,1.6
			c0.32,0.387,0.721,0.66,1.199,0.82c0.48,0.16,1.041,0.24,1.68,0.24c1.121,0,2.021-0.127,2.701-0.381
			c0.68-0.252,1.152-0.432,1.42-0.539l0.721,3.08c-0.375,0.188-1.027,0.42-1.961,0.699c-0.934,0.281-2,0.42-3.199,0.42
			c-1.414,0-2.58-0.18-3.5-0.539s-1.66-0.9-2.221-1.621c-0.561-0.719-0.953-1.605-1.18-2.658c-0.227-1.055-0.34-2.273-0.34-3.66
			v-18.561l3.719-0.641V495.775z"/>
		<path fill="#1A5099" d="M883.095,506.215c0-1.84,0.266-3.447,0.799-4.82s1.24-2.514,2.121-3.42
			c0.879-0.906,1.893-1.586,3.039-2.041c1.146-0.453,2.32-0.68,3.52-0.68c2.801,0,4.947,0.875,6.441,2.621
			c1.492,1.746,2.24,4.406,2.24,7.979c0,0.16,0,0.367,0,0.621s-0.014,0.486-0.041,0.699h-14.24c0.16,2.16,0.787,3.801,1.881,4.92
			c1.094,1.121,2.799,1.682,5.119,1.682c1.307,0,2.406-0.113,3.301-0.342c0.893-0.225,1.566-0.445,2.02-0.658l0.52,3.119
			c-0.453,0.24-1.246,0.494-2.379,0.76c-1.135,0.266-2.42,0.4-3.861,0.4c-1.813,0-3.379-0.273-4.699-0.82s-2.406-1.301-3.26-2.26
			c-0.854-0.961-1.486-2.1-1.9-3.42S883.095,507.789,883.095,506.215z M897.374,504.174c0.027-1.68-0.395-3.059-1.26-4.139
			c-0.867-1.08-2.061-1.621-3.58-1.621c-0.854,0-1.607,0.168-2.26,0.5c-0.654,0.334-1.207,0.768-1.66,1.301s-0.807,1.146-1.061,1.84
			s-0.42,1.4-0.5,2.119H897.374z"/>
		<path fill="#1A5099" d="M905.454,506.215c0-1.84,0.268-3.447,0.801-4.82s1.24-2.514,2.119-3.42
			c0.881-0.906,1.895-1.586,3.041-2.041c1.146-0.453,2.32-0.68,3.52-0.68c2.801,0,4.945,0.875,6.439,2.621s2.24,4.406,2.24,7.979
			c0,0.16,0,0.367,0,0.621s-0.014,0.486-0.039,0.699h-14.24c0.16,2.16,0.785,3.801,1.879,4.92c1.094,1.121,2.801,1.682,5.121,1.682
			c1.307,0,2.406-0.113,3.299-0.342c0.895-0.225,1.566-0.445,2.021-0.658l0.52,3.119c-0.453,0.24-1.248,0.494-2.381,0.76
			s-2.42,0.4-3.859,0.4c-1.814,0-3.381-0.273-4.699-0.82c-1.32-0.547-2.408-1.301-3.262-2.26c-0.854-0.961-1.486-2.1-1.898-3.42
			C905.661,509.234,905.454,507.789,905.454,506.215z M919.735,504.174c0.025-1.68-0.395-3.059-1.262-4.139
			c-0.865-1.08-2.059-1.621-3.578-1.621c-0.855,0-1.607,0.168-2.262,0.5c-0.652,0.334-1.207,0.768-1.66,1.301
			s-0.807,1.146-1.059,1.84c-0.254,0.693-0.42,1.4-0.5,2.119H919.735z"/>
		<path fill="#1A5099" d="M928.974,496.375c0.854-0.213,1.98-0.441,3.381-0.68c1.4-0.24,3.02-0.361,4.859-0.361
			c1.334,0,2.453,0.18,3.359,0.541c0.906,0.359,1.666,0.887,2.281,1.58c0.186-0.133,0.479-0.32,0.879-0.561s0.895-0.473,1.48-0.699
			s1.24-0.428,1.961-0.602c0.719-0.172,1.492-0.26,2.318-0.26c1.602,0,2.906,0.234,3.92,0.701s1.807,1.127,2.381,1.979
			c0.572,0.855,0.961,1.867,1.16,3.041s0.301,2.453,0.301,3.84v11.68h-3.721v-10.879c0-1.227-0.061-2.281-0.18-3.16
			c-0.121-0.881-0.348-1.613-0.68-2.201c-0.334-0.586-0.787-1.02-1.361-1.299c-0.574-0.281-1.313-0.42-2.219-0.42
			c-1.254,0-2.287,0.166-3.102,0.5c-0.813,0.332-1.365,0.633-1.66,0.898c0.215,0.695,0.375,1.455,0.48,2.281
			c0.107,0.826,0.16,1.693,0.16,2.6v11.68h-3.719v-10.879c0-1.227-0.068-2.281-0.201-3.16c-0.133-0.881-0.367-1.613-0.699-2.201
			c-0.334-0.586-0.787-1.02-1.361-1.299c-0.572-0.281-1.299-0.42-2.18-0.42c-0.373,0-0.773,0.014-1.199,0.039
			c-0.428,0.027-0.834,0.061-1.221,0.1c-0.387,0.041-0.74,0.088-1.061,0.141c-0.318,0.053-0.533,0.094-0.639,0.119v17.561h-3.721
			V496.375z"/>
		<path fill="#4BA2F2" d="M967.813,514.414c0,0.721-0.24,1.348-0.721,1.881c-0.479,0.533-1.133,0.799-1.959,0.799
			c-0.828,0-1.48-0.266-1.961-0.799c-0.479-0.533-0.719-1.16-0.719-1.881c0-0.719,0.24-1.346,0.719-1.879
			c0.48-0.533,1.133-0.801,1.961-0.801c0.826,0,1.48,0.268,1.959,0.801C967.573,513.068,967.813,513.695,967.813,514.414z"/>
		<path fill="#565656" d="M991.573,506.215c0,1.574-0.207,3.027-0.619,4.359c-0.414,1.334-1.021,2.48-1.82,3.439
			c-0.801,0.961-1.781,1.707-2.941,2.24c-1.158,0.533-2.486,0.801-3.979,0.801c-1.201,0-2.26-0.16-3.18-0.48
			c-0.922-0.32-1.607-0.627-2.061-0.92v8.32h-3.721v-27.561c0.881-0.213,1.98-0.445,3.301-0.699s2.846-0.381,4.58-0.381
			c1.6,0,3.039,0.254,4.32,0.76c1.279,0.508,2.373,1.229,3.279,2.16c0.906,0.934,1.605,2.074,2.1,3.42
			C991.327,503.021,991.573,504.535,991.573,506.215z M987.692,506.215c0-2.426-0.6-4.293-1.799-5.6
			c-1.201-1.307-2.801-1.961-4.801-1.961c-1.119,0-1.994,0.041-2.619,0.121c-0.627,0.078-1.127,0.172-1.5,0.279v13.119
			c0.453,0.375,1.105,0.734,1.959,1.08c0.854,0.348,1.787,0.521,2.801,0.521c1.066,0,1.98-0.193,2.74-0.58s1.379-0.92,1.859-1.602
			c0.48-0.68,0.826-1.479,1.041-2.398C987.587,508.275,987.692,507.281,987.692,506.215z"/>
		<path fill="#565656" d="M1003.054,516.975c-2.295-0.055-3.922-0.547-4.881-1.48c-0.961-0.934-1.439-2.387-1.439-4.359v-24.961
			l3.719-0.639v25c0,0.613,0.055,1.119,0.16,1.52c0.107,0.4,0.281,0.721,0.52,0.959c0.24,0.24,0.561,0.42,0.961,0.541
			c0.4,0.119,0.893,0.221,1.48,0.299L1003.054,516.975z"/>
		<path fill="#565656" d="M1014.452,495.254c1.494,0,2.754,0.193,3.781,0.58c1.025,0.387,1.852,0.934,2.479,1.641
			s1.074,1.547,1.34,2.52c0.268,0.975,0.4,2.047,0.4,3.221v13c-0.32,0.053-0.766,0.127-1.34,0.219
			c-0.574,0.094-1.219,0.182-1.939,0.262s-1.5,0.152-2.34,0.219s-1.674,0.1-2.5,0.1c-1.174,0-2.254-0.119-3.24-0.359
			s-1.84-0.619-2.561-1.141c-0.719-0.52-1.279-1.205-1.68-2.059s-0.6-1.881-0.6-3.08c0-1.146,0.232-2.133,0.699-2.961
			c0.467-0.826,1.1-1.492,1.9-2c0.801-0.506,1.732-0.879,2.801-1.119c1.066-0.24,2.186-0.361,3.359-0.361
			c0.373,0,0.76,0.021,1.16,0.061c0.4,0.041,0.779,0.094,1.141,0.16c0.359,0.066,0.672,0.127,0.939,0.18
			c0.266,0.055,0.453,0.094,0.561,0.121v-1.041c0-0.613-0.068-1.219-0.201-1.82c-0.133-0.6-0.373-1.133-0.719-1.6
			c-0.348-0.467-0.82-0.84-1.42-1.119c-0.602-0.281-1.381-0.42-2.342-0.42c-1.227,0-2.299,0.086-3.219,0.26
			s-1.607,0.354-2.061,0.539l-0.439-3.08c0.48-0.213,1.279-0.42,2.4-0.619C1011.933,495.354,1013.146,495.254,1014.452,495.254z
			 M1014.772,513.895c0.881,0,1.66-0.02,2.34-0.061c0.68-0.039,1.246-0.113,1.701-0.219v-6.201c-0.268-0.133-0.701-0.246-1.301-0.34
			s-1.326-0.141-2.18-0.141c-0.561,0-1.154,0.041-1.781,0.121c-0.625,0.08-1.199,0.246-1.719,0.5s-0.953,0.6-1.301,1.039
			c-0.346,0.441-0.52,1.021-0.52,1.74c0,1.334,0.426,2.26,1.279,2.781C1012.146,513.635,1013.306,513.895,1014.772,513.895z"/>
		<path fill="#565656" d="M1037.651,517.055c-1.68,0-3.154-0.268-4.42-0.801c-1.268-0.533-2.334-1.279-3.199-2.24
			c-0.867-0.959-1.514-2.1-1.941-3.42c-0.426-1.318-0.639-2.779-0.639-4.379s0.232-3.066,0.699-4.4s1.127-2.486,1.98-3.461
			c0.854-0.973,1.9-1.732,3.141-2.279c1.238-0.547,2.619-0.82,4.139-0.82c0.934,0,1.867,0.08,2.801,0.24s1.826,0.414,2.68,0.76
			l-0.84,3.16c-0.561-0.266-1.207-0.48-1.939-0.639c-0.734-0.16-1.514-0.24-2.34-0.24c-2.08,0-3.674,0.652-4.781,1.959
			s-1.66,3.215-1.66,5.721c0,1.119,0.127,2.146,0.381,3.08c0.252,0.934,0.652,1.732,1.199,2.4c0.547,0.666,1.246,1.18,2.1,1.539
			s1.895,0.541,3.121,0.541c0.986,0,1.879-0.094,2.68-0.281c0.801-0.186,1.426-0.387,1.881-0.6l0.52,3.119
			c-0.215,0.135-0.52,0.262-0.92,0.381s-0.854,0.227-1.361,0.32c-0.506,0.092-1.047,0.172-1.619,0.24
			C1038.737,517.021,1038.185,517.055,1037.651,517.055z"/>
		<path fill="#565656" d="M1046.052,506.215c0-1.84,0.266-3.447,0.799-4.82s1.24-2.514,2.121-3.42
			c0.879-0.906,1.893-1.586,3.039-2.041c1.146-0.453,2.32-0.68,3.52-0.68c2.801,0,4.947,0.875,6.441,2.621
			c1.492,1.746,2.24,4.406,2.24,7.979c0,0.16,0,0.367,0,0.621s-0.014,0.486-0.041,0.699h-14.24c0.16,2.16,0.787,3.801,1.881,4.92
			c1.094,1.121,2.799,1.682,5.119,1.682c1.307,0,2.406-0.113,3.301-0.342c0.893-0.225,1.566-0.445,2.02-0.658l0.52,3.119
			c-0.453,0.24-1.246,0.494-2.379,0.76c-1.135,0.266-2.42,0.4-3.861,0.4c-1.813,0-3.379-0.273-4.699-0.82s-2.406-1.301-3.26-2.26
			c-0.854-0.961-1.486-2.1-1.9-3.42S1046.052,507.789,1046.052,506.215z M1060.331,504.174c0.027-1.68-0.395-3.059-1.26-4.139
			c-0.867-1.08-2.061-1.621-3.58-1.621c-0.854,0-1.607,0.168-2.26,0.5c-0.654,0.334-1.207,0.768-1.66,1.301s-0.807,1.146-1.061,1.84
			s-0.42,1.4-0.5,2.119H1060.331z"/>
	</g>
</g>
</svg>
