<?xml version="1.0" encoding="utf-8"?>
<!-- Generator: Adobe Illustrator 16.0.0, SVG Export Plug-In . SVG Version: 6.00 Build 0)  -->
<!DOCTYPE svg PUBLIC "-//W3C//DTD SVG 1.1//EN" "http://www.w3.org/Graphics/SVG/1.1/DTD/svg11.dtd">
<svg version="1.1" id="Capa_1" xmlns="http://www.w3.org/2000/svg" xmlns:xlink="http://www.w3.org/1999/xlink" x="0px" y="0px"
	 width="792px" height="612px" viewBox="0 0 792 612" enable-background="new 0 0 792 612" xml:space="preserve">
<rect x="404.462" y="194.972" fill="#191919" width="359.981" height="173.991"/>
<g>
	<g>
		<path fill="#24387C" d="M102.576,89.244c0-0.236,0.082-0.453,0.248-0.65s0.383-0.297,0.65-0.297s0.488,0.08,0.662,0.236
			l0.592,0.545c1.639,1.434,3.932,2.152,6.881,2.152c1.986,0,3.262-0.41,3.83-1.23c0.156-0.221,0.236-0.445,0.236-0.674
			s-0.043-0.449-0.131-0.662c-0.086-0.213-0.271-0.473-0.555-0.781c-0.283-0.307-0.686-0.674-1.207-1.098l-2.08-1.68
			c-3.438-2.68-5.793-4.855-7.07-6.525c-1.166-1.529-1.75-3.09-1.75-4.684c0-2,0.922-3.68,2.768-5.035
			c1.906-1.42,4.373-2.129,7.4-2.129c2.129,0,3.807,0.244,5.037,0.732c1.229,0.49,2.096,0.936,2.602,1.336
			c0.504,0.402,0.756,0.77,0.756,1.1c0,0.68-0.268,1.018-0.805,1.018c-0.252,0-0.484-0.09-0.697-0.271s-0.635-0.488-1.266-0.922
			c-0.629-0.434-1.465-0.777-2.506-1.029s-2.01-0.379-2.908-0.379s-1.533,0.143-1.904,0.426c-0.369,0.283-0.555,0.564-0.555,0.84
			s0.055,0.535,0.166,0.779c0.109,0.246,0.314,0.533,0.613,0.863c0.695,0.82,1.807,1.791,3.336,2.908
			c1.527,1.121,2.82,2.145,3.877,3.074c1.057,0.932,1.883,1.789,2.482,2.578c1.088,1.418,1.633,2.854,1.633,4.303
			c0,1.451-0.27,2.693-0.805,3.725c-0.537,1.033-1.301,1.92-2.293,2.66c-2.098,1.592-4.895,2.389-8.395,2.389
			c-2.807,0-5.148-0.535-7.023-1.607C103.182,90.576,102.576,89.906,102.576,89.244z"/>
		<path fill="#24387C" d="M152.855,92.861c-6.178,0-9.268-2.822-9.268-8.465l-0.023-15.512l-2.721,0.117
			c-0.85,0-1.275-0.322-1.275-0.969s0.457-0.969,1.371-0.969l2.27,0.094h0.355v-3.664l10.143-4.541v8.205h3.17l2.246-0.094
			c0.93,0,1.395,0.33,1.395,0.992c0,0.301-0.131,0.533-0.391,0.697c-0.26,0.166-0.555,0.248-0.887,0.248l-2.932-0.117h-2.602v22.227
			c1.846-0.031,3.383-0.559,4.611-1.584c0.584-0.441,0.996-1.01,1.242-1.703c0.244-0.693,0.465-1.139,0.662-1.336
			s0.428-0.295,0.697-0.295c0.268,0,0.496,0.105,0.686,0.318s0.283,0.465,0.283,0.758c0,0.291-0.078,0.613-0.236,0.969
			s-0.395,0.729-0.709,1.123c-0.709,0.883-1.529,1.584-2.459,2.105C156.797,92.396,154.922,92.861,152.855,92.861z"/>
		<path fill="#24387C" d="M202.379,86.666c0.615,0,0.922,0.283,0.922,0.852c0,0.426-0.275,0.93-0.826,1.514
			c-2.492,2.553-5.904,3.83-10.24,3.83c-3.893,0-7.172-1.174-9.836-3.523c-2.758-2.443-4.139-5.533-4.139-9.27
			c0-3.814,1.246-6.951,3.736-9.41c2.633-2.617,6.133-3.926,10.5-3.926c3.498,0,6.438,1.064,8.818,3.193
			c2.57,2.285,3.855,5.287,3.855,9.008c0,0.537-0.016,1.104-0.049,1.703h-15.605v10.145c1.072,0.221,2.277,0.33,3.617,0.33
			c2.838,0,5.258-0.938,7.26-2.814c0.41-0.408,0.701-0.732,0.875-0.969C201.631,86.887,202,86.666,202.379,86.666z M196.066,68.908
			c-1.025-0.299-2.184-0.449-3.477-0.449s-2.316,0.086-3.074,0.26V78.91h6.551V68.908z"/>
		<path fill="#24387C" d="M247.646,86.666c0.615,0,0.922,0.283,0.922,0.852c0,0.426-0.275,0.93-0.826,1.514
			c-2.492,2.553-5.904,3.83-10.24,3.83c-3.893,0-7.172-1.174-9.836-3.523c-2.758-2.443-4.139-5.533-4.139-9.27
			c0-3.814,1.246-6.951,3.736-9.41c2.633-2.617,6.133-3.926,10.5-3.926c3.498,0,6.438,1.064,8.818,3.193
			c2.57,2.285,3.855,5.287,3.855,9.008c0,0.537-0.016,1.104-0.049,1.703h-15.605v10.145c1.072,0.221,2.277,0.33,3.617,0.33
			c2.838,0,5.258-0.938,7.26-2.814c0.41-0.408,0.701-0.732,0.875-0.969C246.898,86.887,247.268,86.666,247.646,86.666z
			 M241.334,68.908c-1.025-0.299-2.184-0.449-3.477-0.449s-2.316,0.086-3.074,0.26V78.91h6.551V68.908z"/>
		<path fill="#24387C" d="M298.354,73.684c0.031,0.379,0.047,0.758,0.047,1.137v17.592h-10.145V69.477
			c-0.174-0.08-0.379-0.119-0.615-0.119h-0.756c-1.23,0-2.664,0.844-4.303,2.529c-0.506,0.521-0.986,1.096-1.443,1.727v18.799
			h-10.168V67.158h10.168v3.807c2.664-2.82,5.643-4.232,8.938-4.232c4.256,0,6.881,1.576,7.875,4.729
			c1.355-1.561,2.85-2.738,4.48-3.533c1.631-0.797,3.275-1.195,4.93-1.195c2.822,0,4.91,0.67,6.266,2.01s2.035,3.365,2.035,6.078
			v17.592h-10.145V69.451c-0.143-0.063-0.496-0.094-1.064-0.094c-0.566,0-1.092,0.105-1.572,0.318s-0.973,0.51-1.479,0.887
			C300.299,71.367,299.283,72.408,298.354,73.684z"/>
	</g>
	<g>
		<g>
			<path fill="#FFFFFF" d="M344.402,105.828c-5.984-5.926-13.668-8.889-23.047-8.889c-9.439,0-17.285,3.009-23.537,9.021
				c-2.92,2.83-5.205,6.172-6.857,10.028s-2.479,8.203-2.479,13.043c0,4.839,0.871,9.304,2.613,13.396
				c1.742,4.096,4.086,7.58,7.035,10.454c2.947,2.873,6.385,5.076,10.316,6.609c3.93,1.533,7.764,2.301,11.5,2.301
				c3.738,0,7.021-0.357,9.85-1.072c5.688-1.458,10.48-4.095,14.383-7.905c6.223-6.165,9.334-14.025,9.334-23.583
				C353.514,119.643,350.477,111.844,344.402,105.828z"/>
			<path fill="#191919" d="M321.355,99.939c8.639,0,15.486,2.623,20.936,8.021c5.533,5.479,8.223,12.438,8.223,21.272
				c0,8.805-2.762,15.821-8.43,21.437c-3.506,3.423-7.891,5.827-13.021,7.144c-2.576,0.65-5.643,0.98-9.115,0.98
				c-3.342,0-6.846-0.705-10.41-2.096c-3.535-1.379-6.668-3.385-9.313-5.963c-2.648-2.581-4.791-5.771-6.369-9.48
				c-1.574-3.7-2.373-7.813-2.373-12.222c0-4.407,0.752-8.398,2.236-11.861c1.486-3.471,3.568-6.518,6.178-9.048
				C305.625,102.616,312.643,99.939,321.355,99.939 M321.355,96.939c-9.439,0-17.285,3.009-23.537,9.021
				c-2.92,2.83-5.205,6.172-6.857,10.028s-2.479,8.203-2.479,13.043c0,4.839,0.871,9.304,2.613,13.396
				c1.742,4.096,4.086,7.58,7.035,10.454c2.947,2.873,6.385,5.076,10.316,6.609c3.93,1.533,7.764,2.301,11.5,2.301
				c3.738,0,7.021-0.357,9.85-1.072c5.688-1.458,10.48-4.095,14.383-7.905c6.223-6.165,9.334-14.025,9.334-23.583
				c0-9.59-3.037-17.389-9.111-23.404C338.418,99.902,330.734,96.939,321.355,96.939L321.355,96.939z"/>
		</g>
		<path fill="#191919" d="M109.375,146.346c0.986,0,1.48,0.553,1.48,1.66c0,0.916-0.699,1.832-2.096,2.746
			c-2.6,1.711-4.793,2.83-6.574,3.359c-3.348,0.988-6.863,1.482-10.549,1.482c-3.684,0-7.23-0.658-10.639-1.969
			c-3.408-1.313-6.316-3.15-8.725-5.51c-5.033-4.961-7.551-11.367-7.551-19.219c0-3.781,0.711-7.256,2.133-10.422
			c1.42-3.168,3.383-5.883,5.889-8.146c5.297-4.793,11.957-7.189,19.977-7.189c4.504,0,8.465,0.771,11.885,2.313
			c3.637,1.613,5.455,2.986,5.455,4.117c0,0.459-0.15,0.855-0.451,1.193s-0.645,0.506-1.029,0.506c-0.771,0-1.469-0.344-2.096-1.029
			c-0.627-0.688-1.475-1.307-2.547-1.861s-2.246-1.035-3.521-1.445c-2.602-0.795-4.969-1.191-7.1-1.191s-3.895,0.145-5.291,0.434
			v46.313c1.684,0.289,3.178,0.434,4.479,0.434s2.625-0.084,3.975-0.254c1.348-0.168,2.672-0.445,3.973-0.83
			c2.914-0.867,5.105-2.143,6.576-3.83c0.529-0.625,0.951-1.059,1.264-1.301C108.604,146.465,108.965,146.346,109.375,146.346z"/>
		<path fill="#191919" d="M128.846,148.477c-4.406,0-7.418-0.037-9.031-0.109l-1.047,2.494c-0.314,0.697-0.604,1.432-0.867,2.203
			c-0.555,1.494-1.326,2.24-2.313,2.24c-0.457,0-0.83-0.145-1.119-0.434s-0.434-0.59-0.434-0.904c0-0.529,0.229-1.119,0.686-1.77
			c0.723-1.012,1.434-2.336,2.131-3.975c-2.07-0.191-3.105-0.795-3.105-1.805c0-1.012,0.59-1.518,1.77-1.518
			c0.723,0,1.564,0.121,2.529,0.361l18.025-43.785l24.711,53.43h-18.822l-2.998-6.43H128.846z M120.971,145.551
			c2.313,0.191,4.383,0.289,6.213,0.289h10.586l-9.031-19.473L120.971,145.551z"/>
		<path fill="#191919" d="M168.766,152.305c-0.844-0.48-1.572-0.986-2.186-1.516c-0.615-0.531-0.922-1.096-0.922-1.699
			c0-1.156,0.492-1.734,1.48-1.734c0.65,0,1.373,0.361,2.168,1.084s1.686,1.355,2.674,1.896c0.986,0.543,2.059,1.006,3.215,1.391
			c2.385,0.795,4.588,1.193,6.611,1.193s3.582-0.133,4.678-0.398c1.096-0.264,2.018-0.625,2.764-1.084
			c1.59-0.986,2.385-2.25,2.385-3.793c0-1.42-0.688-2.854-2.061-4.299c-1.154-1.229-2.793-2.697-4.912-4.406l-6.178-4.842
			c-6.189-4.768-9.838-9.127-10.945-13.076c-0.387-1.373-0.578-2.902-0.578-4.588s0.379-3.348,1.137-4.986
			c0.76-1.637,1.885-3.07,3.379-4.299c3.203-2.674,7.563-4.01,13.076-4.01c2.818,0,5.348,0.416,7.588,1.246
			c2.238,0.832,3.768,1.572,4.588,2.223c0.818,0.65,1.229,1.24,1.229,1.77c0,1.107-0.459,1.662-1.373,1.662
			c-0.531,0-1.098-0.266-1.699-0.795s-1.27-0.994-2.004-1.391c-0.734-0.398-1.572-0.752-2.512-1.066
			c-2.021-0.674-4.01-1.012-5.961-1.012c-3.588,0-5.381,1.182-5.381,3.541c0,0.988,0.324,1.902,0.975,2.746
			c1.156,1.469,3.414,3.57,6.773,6.303c3.359,2.734,6.057,5.125,8.092,7.172s3.582,3.889,4.643,5.527
			c1.686,2.576,2.529,5.256,2.529,8.037s-0.488,5.143-1.463,7.08c-0.977,1.939-2.344,3.607-4.102,5.004
			c-3.709,2.939-8.309,4.408-13.799,4.408C177.182,155.594,172.545,154.498,168.766,152.305z"/>
		<path fill="#191919" d="M211.141,103.789h18.424v51.117h-18.424V103.789z"/>
		<path fill="#191919" d="M244.953,149.74l0.109,3.613c0,0.627-0.17,1.107-0.506,1.445c-0.338,0.336-0.74,0.506-1.211,0.506
			c-0.469,0-0.861-0.158-1.174-0.471s-0.469-0.656-0.469-1.029s0.029-0.723,0.09-1.047c0.059-0.326,0.113-0.693,0.162-1.104
			c0.121-0.697,0.182-2.443,0.182-5.236v-44.941l39.268,31.141v-21.531c0-1.637-0.049-2.805-0.145-3.504
			c-0.121-1.131-0.18-1.926-0.18-2.385c0-1.203,0.518-1.807,1.553-1.807c0.408,0,0.801,0.145,1.174,0.434s0.561,0.711,0.561,1.266
			v1.264l-0.145,5.238v45.301l-39.27-30.814V149.74z"/>
		<g>
			<path d="M305.43,128.271c0.217-3.127,1.352-6,3.141-8.351l-7.744-7.744c-3.727,4.37-6.059,9.963-6.307,16.095H305.43z"/>
			<path fill="#E30F13" d="M310.896,117.469c2.32-1.971,5.221-3.277,8.412-3.621v-10.93c-6.195,0.39-11.814,2.907-16.133,6.832
				L310.896,117.469z"/>
			<path d="M322.688,102.918v10.93c3.191,0.344,6.094,1.65,8.412,3.621l7.721-7.719
				C334.502,105.825,328.885,103.308,322.688,102.918z"/>
			<path fill="#E30F13" d="M309.102,139.469c-1.85-2.176-3.113-4.861-3.547-7.819h-10.961c0.508,5.961,2.988,11.359,6.787,15.538
				L309.102,139.469z"/>
			<path fill="#E30F13" d="M333.426,119.921c1.789,2.351,2.924,5.224,3.141,8.351h10.91c-0.248-6.132-2.58-11.725-6.307-16.095
				L333.426,119.921z"/>
			<path d="M336.441,131.649c-0.434,2.958-1.697,5.644-3.547,7.819l7.721,7.72c3.799-4.18,6.279-9.578,6.787-15.539H336.441z"/>
			<path fill="#E30F13" d="M330.443,141.794c-2.201,1.676-4.859,2.779-7.756,3.091v10.93c5.898-0.371,11.273-2.671,15.5-6.276
				L330.443,141.794z"/>
			<path d="M319.309,144.885c-2.896-0.312-5.555-1.415-7.756-3.091l-7.744,7.744c4.229,3.605,9.602,5.905,15.5,6.276V144.885z"/>
		</g>
		<g>
			<path fill="#185098" d="M313.623,121.36c-0.896,0.751-1.822,1.675-2.197,2.805c-0.434,1.329,0.172,2.687,0.752,3.871
				c0.578,1.213,1.213,2.399,1.764,3.641c0.432,0.982,1.039,2.139,0.895,3.238c-0.115,0.78-0.377,1.53-0.52,2.312
				c-0.115,0.521,0.375,0,0.547-0.145c1.012-0.867,2.109-1.85,2.516-3.179c0.201-0.665,0.086-1.272-0.145-1.908
				c-0.23-0.605-0.492-1.184-0.754-1.793c-0.547-1.213-1.125-2.426-1.705-3.643c-0.23-0.432-0.461-0.895-0.662-1.357
				c-0.203-0.49-0.318-1.011-0.348-1.561c-0.029-0.433-0.031-0.838,0.029-1.271c0.027-0.318,0.115-0.607,0.143-0.924
				C313.969,121.274,313.824,121.215,313.623,121.36L313.623,121.36z M326.857,121.36c-0.896,0.753-1.82,1.677-2.197,2.805
				c-0.432,1.329,0.174,2.687,0.752,3.871c0.58,1.215,1.215,2.399,1.764,3.644c0.434,0.982,1.039,2.137,0.896,3.236
				c-0.115,0.781-0.377,1.53-0.52,2.312c-0.115,0.521,0.377,0,0.547-0.144c1.012-0.867,2.109-1.85,2.514-3.18
				c0.203-0.664,0.088-1.272-0.143-1.908c-0.23-0.604-0.49-1.184-0.752-1.791c-0.549-1.214-1.127-2.428-1.705-3.642
				c-0.23-0.435-0.463-0.897-0.664-1.36c-0.201-0.49-0.318-1.011-0.348-1.559c-0.029-0.435-0.029-0.84,0.029-1.273
				c0.027-0.318,0.115-0.604,0.143-0.924C327.205,121.274,327.061,121.215,326.857,121.36L326.857,121.36z"/>
			<path fill="#5C9DD5" d="M320.08,119.168c-1.012,0.838-2.109,1.849-2.717,3.034c-0.434,0.838-0.492,1.704-0.262,2.569
				c0.289,1.041,0.693,2.081,1.127,3.094c0.84,1.936,1.936,3.756,2.746,5.722c0.289,0.692,0.605,1.474,0.662,2.254
				c0.059,0.954-0.26,1.966-0.518,2.86c-0.059,0.262-0.23,0.607-0.201,0.868c0.027,0.202,0.143,0.115,0.26,0.029
				c0.492-0.376,0.982-0.81,1.414-1.244c1.188-1.126,2.543-2.63,2.43-4.392c-0.059-0.725-0.404-1.416-0.693-2.081
				c-0.318-0.779-0.664-1.529-1.012-2.28c-0.637-1.418-1.301-2.806-1.992-4.191c-0.232-0.493-0.521-0.954-0.695-1.444
				c-0.258-0.664-0.375-1.359-0.404-2.053c-0.027-0.52,0-1.068,0.059-1.589c0.027-0.347,0.145-0.663,0.145-1.012
				C320.514,118.995,320.342,118.965,320.08,119.168z"/>
		</g>
	</g>
</g>
<g>
	<g>
		<g>
			<path fill="#191919" d="M477.91,89.244c0-0.236,0.082-0.453,0.248-0.65s0.383-0.297,0.65-0.297s0.488,0.08,0.662,0.236
				l0.592,0.545c1.639,1.434,3.932,2.152,6.881,2.152c1.986,0,3.262-0.41,3.83-1.23c0.156-0.221,0.236-0.445,0.236-0.674
				s-0.043-0.449-0.131-0.662c-0.086-0.213-0.271-0.473-0.555-0.781c-0.283-0.307-0.686-0.674-1.207-1.098l-2.08-1.68
				c-3.438-2.68-5.793-4.855-7.07-6.525c-1.166-1.529-1.75-3.09-1.75-4.684c0-2,0.922-3.68,2.768-5.035
				c1.906-1.42,4.373-2.129,7.4-2.129c2.129,0,3.807,0.244,5.037,0.732c1.229,0.49,2.096,0.936,2.602,1.336
				c0.504,0.402,0.756,0.77,0.756,1.1c0,0.68-0.268,1.018-0.805,1.018c-0.252,0-0.484-0.09-0.697-0.271s-0.635-0.488-1.266-0.922
				c-0.629-0.434-1.465-0.777-2.506-1.029s-2.01-0.379-2.908-0.379s-1.533,0.143-1.904,0.426c-0.369,0.283-0.555,0.564-0.555,0.84
				s0.055,0.535,0.166,0.779c0.109,0.246,0.314,0.533,0.613,0.863c0.695,0.82,1.807,1.791,3.336,2.908
				c1.527,1.121,2.82,2.145,3.877,3.074c1.057,0.932,1.883,1.789,2.482,2.578c1.088,1.418,1.633,2.854,1.633,4.303
				c0,1.451-0.27,2.693-0.805,3.725c-0.537,1.033-1.301,1.92-2.293,2.66c-2.098,1.592-4.895,2.389-8.395,2.389
				c-2.807,0-5.148-0.535-7.023-1.607C478.516,90.576,477.91,89.906,477.91,89.244z"/>
			<path fill="#191919" d="M528.189,92.861c-6.178,0-9.268-2.822-9.268-8.465l-0.023-15.512l-2.721,0.117
				c-0.85,0-1.275-0.322-1.275-0.969s0.457-0.969,1.371-0.969l2.27,0.094h0.355v-3.664l10.143-4.541v8.205h3.17l2.246-0.094
				c0.93,0,1.395,0.33,1.395,0.992c0,0.301-0.131,0.533-0.391,0.697c-0.26,0.166-0.555,0.248-0.887,0.248l-2.932-0.117h-2.602
				v22.227c1.846-0.031,3.383-0.559,4.611-1.584c0.584-0.441,0.996-1.01,1.242-1.703c0.244-0.693,0.465-1.139,0.662-1.336
				s0.428-0.295,0.697-0.295c0.268,0,0.496,0.105,0.686,0.318s0.283,0.465,0.283,0.758c0,0.291-0.078,0.613-0.236,0.969
				s-0.395,0.729-0.709,1.123c-0.709,0.883-1.529,1.584-2.459,2.105C532.131,92.396,530.256,92.861,528.189,92.861z"/>
			<path fill="#191919" d="M577.713,86.666c0.615,0,0.922,0.283,0.922,0.852c0,0.426-0.275,0.93-0.826,1.514
				c-2.492,2.553-5.904,3.83-10.24,3.83c-3.893,0-7.172-1.174-9.836-3.523c-2.758-2.443-4.139-5.533-4.139-9.27
				c0-3.814,1.246-6.951,3.736-9.41c2.633-2.617,6.133-3.926,10.5-3.926c3.498,0,6.438,1.064,8.818,3.193
				c2.57,2.285,3.855,5.287,3.855,9.008c0,0.537-0.016,1.104-0.049,1.703H564.85v10.145c1.072,0.221,2.277,0.33,3.617,0.33
				c2.838,0,5.258-0.938,7.26-2.814c0.41-0.408,0.701-0.732,0.875-0.969C576.965,86.887,577.334,86.666,577.713,86.666z
				 M571.4,68.908c-1.025-0.299-2.184-0.449-3.477-0.449s-2.316,0.086-3.074,0.26V78.91h6.551V68.908z"/>
			<path fill="#191919" d="M622.98,86.666c0.615,0,0.922,0.283,0.922,0.852c0,0.426-0.275,0.93-0.826,1.514
				c-2.492,2.553-5.904,3.83-10.24,3.83c-3.893,0-7.172-1.174-9.836-3.523c-2.758-2.443-4.139-5.533-4.139-9.27
				c0-3.814,1.246-6.951,3.736-9.41c2.633-2.617,6.133-3.926,10.5-3.926c3.498,0,6.438,1.064,8.818,3.193
				c2.57,2.285,3.855,5.287,3.855,9.008c0,0.537-0.016,1.104-0.049,1.703h-15.605v10.145c1.072,0.221,2.277,0.33,3.617,0.33
				c2.838,0,5.258-0.938,7.26-2.814c0.41-0.408,0.701-0.732,0.875-0.969C622.232,86.887,622.602,86.666,622.98,86.666z
				 M616.668,68.908c-1.025-0.299-2.184-0.449-3.477-0.449s-2.316,0.086-3.074,0.26V78.91h6.551V68.908z"/>
			<path fill="#191919" d="M673.688,73.684c0.031,0.379,0.047,0.758,0.047,1.137v17.592H663.59V69.477
				c-0.174-0.08-0.379-0.119-0.615-0.119h-0.756c-1.23,0-2.664,0.844-4.303,2.529c-0.506,0.521-0.986,1.096-1.443,1.727v18.799
				h-10.168V67.158h10.168v3.807c2.664-2.82,5.643-4.232,8.938-4.232c4.256,0,6.881,1.576,7.875,4.729
				c1.355-1.561,2.85-2.738,4.48-3.533c1.631-0.797,3.275-1.195,4.93-1.195c2.822,0,4.91,0.67,6.266,2.01s2.035,3.365,2.035,6.078
				v17.592h-10.145V69.451c-0.143-0.063-0.496-0.094-1.064-0.094c-0.566,0-1.092,0.105-1.572,0.318s-0.973,0.51-1.479,0.887
				C675.633,71.367,674.617,72.408,673.688,73.684z"/>
		</g>
	</g>
	<g>
		<g>
			<g>
				<g>
					<path fill="#191919" d="M484.709,146.346c0.986,0,1.48,0.553,1.48,1.66c0,0.916-0.699,1.832-2.096,2.746
						c-2.6,1.711-4.793,2.83-6.574,3.359c-3.348,0.988-6.863,1.482-10.549,1.482c-3.684,0-7.23-0.658-10.639-1.969
						c-3.408-1.313-6.316-3.15-8.725-5.51c-5.033-4.961-7.551-11.367-7.551-19.219c0-3.781,0.711-7.256,2.133-10.422
						c1.42-3.168,3.383-5.883,5.889-8.146c5.297-4.793,11.957-7.189,19.977-7.189c4.504,0,8.465,0.771,11.885,2.313
						c3.637,1.613,5.455,2.986,5.455,4.117c0,0.459-0.15,0.855-0.451,1.193s-0.645,0.506-1.029,0.506
						c-0.771,0-1.469-0.344-2.096-1.029c-0.627-0.688-1.475-1.307-2.547-1.861s-2.246-1.035-3.521-1.445
						c-2.602-0.795-4.969-1.191-7.1-1.191s-3.895,0.145-5.291,0.434v46.313c1.684,0.289,3.178,0.434,4.479,0.434
						s2.625-0.084,3.975-0.254c1.348-0.168,2.672-0.445,3.973-0.83c2.914-0.867,5.105-2.143,6.576-3.83
						c0.529-0.625,0.951-1.059,1.264-1.301C483.938,146.465,484.299,146.346,484.709,146.346z"/>
				</g>
			</g>
			<g>
				<g>
					<path fill="#191919" d="M504.18,148.477c-4.406,0-7.418-0.037-9.031-0.109l-1.047,2.494c-0.314,0.697-0.604,1.432-0.867,2.203
						c-0.555,1.494-1.326,2.24-2.313,2.24c-0.457,0-0.83-0.145-1.119-0.434s-0.434-0.59-0.434-0.904c0-0.529,0.229-1.119,0.686-1.77
						c0.723-1.012,1.434-2.336,2.131-3.975c-2.07-0.191-3.105-0.795-3.105-1.805c0-1.012,0.59-1.518,1.77-1.518
						c0.723,0,1.564,0.121,2.529,0.361l18.025-43.785l24.711,53.43h-18.822l-2.998-6.43H504.18z M496.305,145.551
						c2.313,0.191,4.383,0.289,6.213,0.289h10.586l-9.031-19.473L496.305,145.551z"/>
				</g>
			</g>
			<g>
				<g>
					<path fill="#191919" d="M544.1,152.305c-0.844-0.48-1.572-0.986-2.186-1.516c-0.615-0.531-0.922-1.096-0.922-1.699
						c0-1.156,0.492-1.734,1.48-1.734c0.65,0,1.373,0.361,2.168,1.084s1.686,1.355,2.674,1.896c0.986,0.543,2.059,1.006,3.215,1.391
						c2.385,0.795,4.588,1.193,6.611,1.193s3.582-0.133,4.678-0.398c1.096-0.264,2.018-0.625,2.764-1.084
						c1.59-0.986,2.385-2.25,2.385-3.793c0-1.42-0.688-2.854-2.061-4.299c-1.154-1.229-2.793-2.697-4.912-4.406l-6.178-4.842
						c-6.189-4.768-9.838-9.127-10.945-13.076c-0.387-1.373-0.578-2.902-0.578-4.588s0.379-3.348,1.137-4.986
						c0.76-1.637,1.885-3.07,3.379-4.299c3.203-2.674,7.563-4.01,13.076-4.01c2.818,0,5.348,0.416,7.588,1.246
						c2.238,0.832,3.768,1.572,4.588,2.223c0.818,0.65,1.229,1.24,1.229,1.77c0,1.107-0.459,1.662-1.373,1.662
						c-0.531,0-1.098-0.266-1.699-0.795s-1.27-0.994-2.004-1.391c-0.734-0.398-1.572-0.752-2.512-1.066
						c-2.021-0.674-4.01-1.012-5.961-1.012c-3.588,0-5.381,1.182-5.381,3.541c0,0.988,0.324,1.902,0.975,2.746
						c1.156,1.469,3.414,3.57,6.773,6.303c3.359,2.734,6.057,5.125,8.092,7.172s3.582,3.889,4.643,5.527
						c1.686,2.576,2.529,5.256,2.529,8.037s-0.488,5.143-1.463,7.08c-0.977,1.939-2.344,3.607-4.102,5.004
						c-3.709,2.939-8.309,4.408-13.799,4.408C552.516,155.594,547.879,154.498,544.1,152.305z"/>
				</g>
			</g>
			<g>
				<g>
					<path fill="#191919" d="M586.475,103.789h18.424v51.117h-18.424V103.789z"/>
				</g>
			</g>
			<g>
				<g>
					<path fill="#191919" d="M620.287,149.74l0.109,3.613c0,0.627-0.17,1.107-0.506,1.445c-0.338,0.336-0.74,0.506-1.211,0.506
						c-0.469,0-0.861-0.158-1.174-0.471s-0.469-0.656-0.469-1.029s0.029-0.723,0.09-1.047c0.059-0.326,0.113-0.693,0.162-1.104
						c0.121-0.697,0.182-2.443,0.182-5.236v-44.941l39.268,31.141v-21.531c0-1.637-0.049-2.805-0.145-3.504
						c-0.121-1.131-0.18-1.926-0.18-2.385c0-1.203,0.518-1.807,1.553-1.807c0.408,0,0.801,0.145,1.174,0.434
						s0.561,0.711,0.561,1.266v1.264l-0.145,5.238v45.301l-39.27-30.814V149.74z"/>
				</g>
			</g>
			<g>
				<path fill="#191919" d="M680.764,128.271c0.217-3.127,1.352-6,3.141-8.351l-7.744-7.744c-3.727,4.37-6.059,9.963-6.307,16.095
					H680.764z"/>
				<g>
					<path fill="#191919" d="M686.23,117.469c2.32-1.971,5.221-3.277,8.412-3.621v-10.93c-6.195,0.39-11.814,2.907-16.133,6.832
						L686.23,117.469z"/>
				</g>
				<path fill="#191919" d="M698.021,102.918v10.93c3.191,0.344,6.094,1.65,8.412,3.621l7.721-7.719
					C709.836,105.825,704.219,103.308,698.021,102.918z"/>
				<g>
					<path fill="#191919" d="M684.436,139.469c-1.85-2.176-3.113-4.861-3.547-7.819h-10.961c0.508,5.961,2.988,11.359,6.787,15.538
						L684.436,139.469z"/>
				</g>
				<g>
					<path fill="#191919" d="M708.76,119.921c1.789,2.351,2.924,5.224,3.141,8.351h10.91c-0.248-6.132-2.58-11.725-6.307-16.095
						L708.76,119.921z"/>
				</g>
				<path fill="#191919" d="M711.775,131.649c-0.434,2.958-1.697,5.644-3.547,7.819l7.721,7.72c3.799-4.18,6.279-9.578,6.787-15.539
					H711.775z"/>
				<g>
					<path fill="#191919" d="M705.777,141.794c-2.201,1.676-4.859,2.779-7.756,3.091v10.93c5.898-0.371,11.273-2.671,15.5-6.276
						L705.777,141.794z"/>
				</g>
				<path fill="#191919" d="M694.643,144.885c-2.896-0.312-5.555-1.415-7.756-3.091l-7.744,7.744
					c4.229,3.605,9.602,5.905,15.5,6.276V144.885z"/>
			</g>
			<g>
				<g>
					<g>
						<path fill="#191919" d="M688.957,121.36c-0.896,0.751-1.822,1.675-2.197,2.805c-0.434,1.329,0.172,2.687,0.752,3.871
							c0.578,1.213,1.213,2.399,1.764,3.641c0.432,0.982,1.039,2.139,0.895,3.238c-0.115,0.78-0.377,1.53-0.52,2.312
							c-0.115,0.521,0.375,0,0.547-0.145c1.012-0.867,2.109-1.85,2.516-3.179c0.201-0.665,0.086-1.272-0.145-1.908
							c-0.23-0.605-0.492-1.184-0.754-1.793c-0.547-1.213-1.125-2.426-1.705-3.643c-0.23-0.432-0.461-0.895-0.662-1.357
							c-0.203-0.49-0.318-1.011-0.348-1.561c-0.029-0.433-0.031-0.838,0.029-1.271c0.027-0.318,0.115-0.607,0.143-0.924
							C689.303,121.274,689.158,121.215,688.957,121.36L688.957,121.36z M702.191,121.36c-0.896,0.753-1.82,1.677-2.197,2.805
							c-0.432,1.329,0.174,2.687,0.752,3.871c0.58,1.215,1.215,2.399,1.764,3.644c0.434,0.982,1.039,2.137,0.896,3.236
							c-0.115,0.781-0.377,1.53-0.52,2.312c-0.115,0.521,0.377,0,0.547-0.144c1.012-0.867,2.109-1.85,2.514-3.18
							c0.203-0.664,0.088-1.272-0.143-1.908c-0.23-0.604-0.49-1.184-0.752-1.791c-0.549-1.214-1.127-2.428-1.705-3.642
							c-0.23-0.435-0.463-0.897-0.664-1.36c-0.201-0.49-0.318-1.011-0.348-1.559c-0.029-0.435-0.029-0.84,0.029-1.273
							c0.027-0.318,0.115-0.604,0.143-0.924C702.539,121.274,702.395,121.215,702.191,121.36L702.191,121.36z"/>
					</g>
				</g>
				<g>
					<path fill="#191919" d="M695.414,119.168c-1.012,0.838-2.109,1.849-2.717,3.034c-0.434,0.838-0.492,1.704-0.262,2.569
						c0.289,1.041,0.693,2.081,1.127,3.094c0.84,1.936,1.936,3.756,2.746,5.722c0.289,0.692,0.605,1.474,0.662,2.254
						c0.059,0.954-0.26,1.966-0.518,2.86c-0.059,0.262-0.23,0.607-0.201,0.868c0.027,0.202,0.143,0.115,0.26,0.029
						c0.492-0.376,0.982-0.81,1.414-1.244c1.188-1.126,2.543-2.63,2.43-4.392c-0.059-0.725-0.404-1.416-0.693-2.081
						c-0.318-0.779-0.664-1.529-1.012-2.28c-0.637-1.418-1.301-2.806-1.992-4.191c-0.232-0.493-0.521-0.954-0.695-1.444
						c-0.258-0.664-0.375-1.359-0.404-2.053c-0.027-0.52,0-1.068,0.059-1.589c0.027-0.347,0.145-0.663,0.145-1.012
						C695.848,118.995,695.676,118.965,695.414,119.168z"/>
				</g>
			</g>
			<path fill="#191919" d="M696.689,99.939c8.639,0,15.486,2.623,20.936,8.021c5.533,5.479,8.223,12.438,8.223,21.272
				c0,8.805-2.762,15.821-8.43,21.437c-3.506,3.423-7.891,5.827-13.021,7.144c-2.576,0.65-5.643,0.98-9.115,0.98
				c-3.342,0-6.846-0.705-10.41-2.096c-3.535-1.379-6.668-3.385-9.313-5.963c-2.648-2.581-4.791-5.771-6.369-9.48
				c-1.574-3.7-2.373-7.813-2.373-12.222c0-4.407,0.752-8.398,2.236-11.861c1.486-3.471,3.568-6.518,6.178-9.048
				C680.959,102.616,687.977,99.939,696.689,99.939 M696.689,96.939c-9.439,0-17.285,3.009-23.537,9.021
				c-2.92,2.83-5.205,6.172-6.857,10.028s-2.479,8.203-2.479,13.043c0,4.839,0.871,9.304,2.613,13.396
				c1.742,4.096,4.086,7.58,7.035,10.454c2.947,2.873,6.385,5.076,10.316,6.609c3.93,1.533,7.764,2.301,11.5,2.301
				c3.738,0,7.021-0.357,9.85-1.072c5.688-1.458,10.48-4.095,14.383-7.905c6.223-6.165,9.334-14.025,9.334-23.583
				c0-9.59-3.037-17.389-9.111-23.404C713.752,99.902,706.068,96.939,696.689,96.939L696.689,96.939z"/>
		</g>
	</g>
</g>
<g>
	<g>
		<g>
			<path fill="#FFFFFF" d="M477.91,267.735c0-0.236,0.082-0.453,0.248-0.65s0.383-0.297,0.65-0.297s0.488,0.08,0.662,0.236
				l0.592,0.545c1.639,1.434,3.932,2.152,6.881,2.152c1.986,0,3.262-0.41,3.83-1.23c0.156-0.221,0.236-0.445,0.236-0.674
				s-0.043-0.449-0.131-0.662c-0.086-0.213-0.271-0.473-0.555-0.781c-0.283-0.307-0.686-0.674-1.207-1.098l-2.08-1.68
				c-3.438-2.68-5.793-4.855-7.07-6.525c-1.166-1.529-1.75-3.09-1.75-4.684c0-2,0.922-3.68,2.768-5.035
				c1.906-1.42,4.373-2.129,7.4-2.129c2.129,0,3.807,0.244,5.037,0.732c1.229,0.49,2.096,0.936,2.602,1.336
				c0.504,0.402,0.756,0.77,0.756,1.1c0,0.68-0.268,1.018-0.805,1.018c-0.252,0-0.484-0.09-0.697-0.271s-0.635-0.488-1.266-0.922
				c-0.629-0.434-1.465-0.777-2.506-1.029s-2.01-0.379-2.908-0.379s-1.533,0.143-1.904,0.426c-0.369,0.283-0.555,0.564-0.555,0.84
				s0.055,0.535,0.166,0.779c0.109,0.246,0.314,0.533,0.613,0.863c0.695,0.82,1.807,1.791,3.336,2.908
				c1.527,1.121,2.82,2.145,3.877,3.074c1.057,0.932,1.883,1.789,2.482,2.578c1.088,1.418,1.633,2.854,1.633,4.303
				c0,1.451-0.27,2.693-0.805,3.725c-0.537,1.033-1.301,1.92-2.293,2.66c-2.098,1.592-4.895,2.389-8.395,2.389
				c-2.807,0-5.148-0.535-7.023-1.607C478.516,269.067,477.91,268.397,477.91,267.735z"/>
			<path fill="#FFFFFF" d="M528.189,271.353c-6.178,0-9.268-2.822-9.268-8.465l-0.023-15.512l-2.721,0.117
				c-0.85,0-1.275-0.322-1.275-0.969s0.457-0.969,1.371-0.969l2.27,0.094h0.355v-3.664l10.143-4.541v8.205h3.17l2.246-0.094
				c0.93,0,1.395,0.33,1.395,0.992c0,0.301-0.131,0.533-0.391,0.697c-0.26,0.166-0.555,0.248-0.887,0.248l-2.932-0.117h-2.602
				v22.227c1.846-0.031,3.383-0.559,4.611-1.584c0.584-0.441,0.996-1.01,1.242-1.703c0.244-0.693,0.465-1.139,0.662-1.336
				s0.428-0.295,0.697-0.295c0.268,0,0.496,0.105,0.686,0.318s0.283,0.465,0.283,0.758c0,0.291-0.078,0.613-0.236,0.969
				s-0.395,0.729-0.709,1.123c-0.709,0.883-1.529,1.584-2.459,2.105C532.131,270.888,530.256,271.353,528.189,271.353z"/>
			<path fill="#FFFFFF" d="M577.713,265.157c0.615,0,0.922,0.283,0.922,0.852c0,0.426-0.275,0.93-0.826,1.514
				c-2.492,2.553-5.904,3.83-10.24,3.83c-3.893,0-7.172-1.174-9.836-3.523c-2.758-2.443-4.139-5.533-4.139-9.27
				c0-3.814,1.246-6.951,3.736-9.41c2.633-2.617,6.133-3.926,10.5-3.926c3.498,0,6.438,1.064,8.818,3.193
				c2.57,2.285,3.855,5.287,3.855,9.008c0,0.537-0.016,1.104-0.049,1.703H564.85v10.145c1.072,0.221,2.277,0.33,3.617,0.33
				c2.838,0,5.258-0.938,7.26-2.814c0.41-0.408,0.701-0.732,0.875-0.969C576.965,265.378,577.334,265.157,577.713,265.157z
				 M571.4,247.399c-1.025-0.299-2.184-0.449-3.477-0.449s-2.316,0.086-3.074,0.26v10.191h6.551V247.399z"/>
			<path fill="#FFFFFF" d="M622.98,265.157c0.615,0,0.922,0.283,0.922,0.852c0,0.426-0.275,0.93-0.826,1.514
				c-2.492,2.553-5.904,3.83-10.24,3.83c-3.893,0-7.172-1.174-9.836-3.523c-2.758-2.443-4.139-5.533-4.139-9.27
				c0-3.814,1.246-6.951,3.736-9.41c2.633-2.617,6.133-3.926,10.5-3.926c3.498,0,6.438,1.064,8.818,3.193
				c2.57,2.285,3.855,5.287,3.855,9.008c0,0.537-0.016,1.104-0.049,1.703h-15.605v10.145c1.072,0.221,2.277,0.33,3.617,0.33
				c2.838,0,5.258-0.938,7.26-2.814c0.41-0.408,0.701-0.732,0.875-0.969C622.232,265.378,622.602,265.157,622.98,265.157z
				 M616.668,247.399c-1.025-0.299-2.184-0.449-3.477-0.449s-2.316,0.086-3.074,0.26v10.191h6.551V247.399z"/>
			<path fill="#FFFFFF" d="M673.688,252.175c0.031,0.379,0.047,0.758,0.047,1.137v17.592H663.59v-22.936
				c-0.174-0.08-0.379-0.119-0.615-0.119h-0.756c-1.23,0-2.664,0.844-4.303,2.529c-0.506,0.521-0.986,1.096-1.443,1.727v18.799
				h-10.168v-25.254h10.168v3.807c2.664-2.82,5.643-4.232,8.938-4.232c4.256,0,6.881,1.576,7.875,4.729
				c1.355-1.561,2.85-2.738,4.48-3.533c1.631-0.797,3.275-1.195,4.93-1.195c2.822,0,4.91,0.67,6.266,2.01s2.035,3.365,2.035,6.078
				v17.592h-10.145v-22.961c-0.143-0.063-0.496-0.094-1.064-0.094c-0.566,0-1.092,0.105-1.572,0.318s-0.973,0.51-1.479,0.887
				C675.633,249.858,674.617,250.899,673.688,252.175z"/>
		</g>
	</g>
	<g>
		<g>
			<g>
				<g>
					<path fill="#FFFFFF" d="M484.709,324.837c0.986,0,1.48,0.553,1.48,1.66c0,0.916-0.699,1.832-2.096,2.746
						c-2.6,1.711-4.793,2.83-6.574,3.359c-3.348,0.988-6.863,1.482-10.549,1.482c-3.684,0-7.23-0.658-10.639-1.969
						c-3.408-1.313-6.316-3.15-8.725-5.51c-5.033-4.961-7.551-11.367-7.551-19.219c0-3.781,0.711-7.256,2.133-10.422
						c1.42-3.168,3.383-5.883,5.889-8.146c5.297-4.793,11.957-7.189,19.977-7.189c4.504,0,8.465,0.771,11.885,2.313
						c3.637,1.613,5.455,2.986,5.455,4.117c0,0.459-0.15,0.855-0.451,1.193s-0.645,0.506-1.029,0.506
						c-0.771,0-1.469-0.344-2.096-1.029c-0.627-0.688-1.475-1.307-2.547-1.861s-2.246-1.035-3.521-1.445
						c-2.602-0.795-4.969-1.191-7.1-1.191s-3.895,0.145-5.291,0.434v46.313c1.684,0.289,3.178,0.434,4.479,0.434
						s2.625-0.084,3.975-0.254c1.348-0.168,2.672-0.445,3.973-0.83c2.914-0.867,5.105-2.143,6.576-3.83
						c0.529-0.625,0.951-1.059,1.264-1.301C483.938,324.956,484.299,324.837,484.709,324.837z"/>
				</g>
			</g>
			<g>
				<g>
					<path fill="#FFFFFF" d="M504.18,326.968c-4.406,0-7.418-0.037-9.031-0.109l-1.047,2.494c-0.314,0.697-0.604,1.432-0.867,2.203
						c-0.555,1.494-1.326,2.24-2.313,2.24c-0.457,0-0.83-0.145-1.119-0.434s-0.434-0.59-0.434-0.904c0-0.529,0.229-1.119,0.686-1.77
						c0.723-1.012,1.434-2.336,2.131-3.975c-2.07-0.191-3.105-0.795-3.105-1.805c0-1.012,0.59-1.518,1.77-1.518
						c0.723,0,1.564,0.121,2.529,0.361l18.025-43.785l24.711,53.43h-18.822l-2.998-6.43H504.18z M496.305,324.042
						c2.313,0.191,4.383,0.289,6.213,0.289h10.586l-9.031-19.473L496.305,324.042z"/>
				</g>
			</g>
			<g>
				<g>
					<path fill="#FFFFFF" d="M544.1,330.796c-0.844-0.48-1.572-0.986-2.186-1.516c-0.615-0.531-0.922-1.096-0.922-1.699
						c0-1.156,0.492-1.734,1.48-1.734c0.65,0,1.373,0.361,2.168,1.084s1.686,1.355,2.674,1.896c0.986,0.543,2.059,1.006,3.215,1.391
						c2.385,0.795,4.588,1.193,6.611,1.193s3.582-0.133,4.678-0.398c1.096-0.264,2.018-0.625,2.764-1.084
						c1.59-0.986,2.385-2.25,2.385-3.793c0-1.42-0.688-2.854-2.061-4.299c-1.154-1.229-2.793-2.697-4.912-4.406l-6.178-4.842
						c-6.189-4.768-9.838-9.127-10.945-13.076c-0.387-1.373-0.578-2.902-0.578-4.588s0.379-3.348,1.137-4.986
						c0.76-1.637,1.885-3.07,3.379-4.299c3.203-2.674,7.563-4.01,13.076-4.01c2.818,0,5.348,0.416,7.588,1.246
						c2.238,0.832,3.768,1.572,4.588,2.223c0.818,0.65,1.229,1.24,1.229,1.77c0,1.107-0.459,1.662-1.373,1.662
						c-0.531,0-1.098-0.266-1.699-0.795s-1.27-0.994-2.004-1.391c-0.734-0.398-1.572-0.752-2.512-1.066
						c-2.021-0.674-4.01-1.012-5.961-1.012c-3.588,0-5.381,1.182-5.381,3.541c0,0.988,0.324,1.902,0.975,2.746
						c1.156,1.469,3.414,3.57,6.773,6.303c3.359,2.734,6.057,5.125,8.092,7.172s3.582,3.889,4.643,5.527
						c1.686,2.576,2.529,5.256,2.529,8.037s-0.488,5.143-1.463,7.08c-0.977,1.939-2.344,3.607-4.102,5.004
						c-3.709,2.939-8.309,4.408-13.799,4.408C552.516,334.085,547.879,332.989,544.1,330.796z"/>
				</g>
			</g>
			<g>
				<g>
					<path fill="#FFFFFF" d="M586.475,282.28h18.424v51.117h-18.424V282.28z"/>
				</g>
			</g>
			<g>
				<g>
					<path fill="#FFFFFF" d="M620.287,328.231l0.109,3.613c0,0.627-0.17,1.107-0.506,1.445c-0.338,0.336-0.74,0.506-1.211,0.506
						c-0.469,0-0.861-0.158-1.174-0.471s-0.469-0.656-0.469-1.029s0.029-0.723,0.09-1.047c0.059-0.326,0.113-0.693,0.162-1.104
						c0.121-0.697,0.182-2.443,0.182-5.236v-44.941l39.268,31.141v-21.531c0-1.637-0.049-2.805-0.145-3.504
						c-0.121-1.131-0.18-1.926-0.18-2.385c0-1.203,0.518-1.807,1.553-1.807c0.408,0,0.801,0.145,1.174,0.434
						s0.561,0.711,0.561,1.266v1.264l-0.145,5.238v45.301l-39.27-30.814V328.231z"/>
				</g>
			</g>
			<g>
				<path fill="#FFFFFF" d="M680.764,306.763c0.217-3.127,1.352-6,3.141-8.351l-7.744-7.744c-3.727,4.37-6.059,9.963-6.307,16.095
					H680.764z"/>
				<g>
					<path fill="#FFFFFF" d="M686.23,295.96c2.32-1.971,5.221-3.277,8.412-3.621v-10.93c-6.195,0.39-11.814,2.907-16.133,6.832
						L686.23,295.96z"/>
				</g>
				<path fill="#FFFFFF" d="M698.021,281.409v10.93c3.191,0.344,6.094,1.65,8.412,3.621l7.721-7.719
					C709.836,284.316,704.219,281.799,698.021,281.409z"/>
				<g>
					<path fill="#FFFFFF" d="M684.436,317.96c-1.85-2.176-3.113-4.861-3.547-7.819h-10.961c0.508,5.961,2.988,11.359,6.787,15.538
						L684.436,317.96z"/>
				</g>
				<g>
					<path fill="#FFFFFF" d="M708.76,298.412c1.789,2.351,2.924,5.224,3.141,8.351h10.91c-0.248-6.132-2.58-11.725-6.307-16.095
						L708.76,298.412z"/>
				</g>
				<path fill="#FFFFFF" d="M711.775,310.141c-0.434,2.958-1.697,5.644-3.547,7.819l7.721,7.72c3.799-4.18,6.279-9.578,6.787-15.539
					H711.775z"/>
				<g>
					<path fill="#FFFFFF" d="M705.777,320.285c-2.201,1.676-4.859,2.779-7.756,3.091v10.93c5.898-0.371,11.273-2.671,15.5-6.276
						L705.777,320.285z"/>
				</g>
				<path fill="#FFFFFF" d="M694.643,323.376c-2.896-0.312-5.555-1.415-7.756-3.091l-7.744,7.744
					c4.229,3.605,9.602,5.905,15.5,6.276V323.376z"/>
			</g>
			<g>
				<g>
					<g>
						<path fill="#FFFFFF" d="M688.957,299.852c-0.896,0.751-1.822,1.675-2.197,2.805c-0.434,1.329,0.172,2.687,0.752,3.871
							c0.578,1.213,1.213,2.399,1.764,3.641c0.432,0.982,1.039,2.139,0.895,3.238c-0.115,0.78-0.377,1.53-0.52,2.312
							c-0.115,0.521,0.375,0,0.547-0.145c1.012-0.867,2.109-1.85,2.516-3.179c0.201-0.665,0.086-1.272-0.145-1.908
							c-0.23-0.605-0.492-1.184-0.754-1.793c-0.547-1.213-1.125-2.426-1.705-3.643c-0.23-0.432-0.461-0.895-0.662-1.357
							c-0.203-0.49-0.318-1.011-0.348-1.561c-0.029-0.433-0.031-0.838,0.029-1.271c0.027-0.318,0.115-0.607,0.143-0.924
							C689.303,299.766,689.158,299.706,688.957,299.852L688.957,299.852z M702.191,299.852c-0.896,0.753-1.82,1.677-2.197,2.805
							c-0.432,1.329,0.174,2.687,0.752,3.871c0.58,1.215,1.215,2.399,1.764,3.644c0.434,0.982,1.039,2.137,0.896,3.236
							c-0.115,0.781-0.377,1.53-0.52,2.312c-0.115,0.521,0.377,0,0.547-0.144c1.012-0.867,2.109-1.85,2.514-3.18
							c0.203-0.664,0.088-1.272-0.143-1.908c-0.23-0.604-0.49-1.184-0.752-1.791c-0.549-1.214-1.127-2.428-1.705-3.642
							c-0.23-0.435-0.463-0.897-0.664-1.36c-0.201-0.49-0.318-1.011-0.348-1.559c-0.029-0.435-0.029-0.84,0.029-1.273
							c0.027-0.318,0.115-0.604,0.143-0.924C702.539,299.766,702.395,299.706,702.191,299.852L702.191,299.852z"/>
					</g>
				</g>
				<g>
					<path fill="#FFFFFF" d="M695.414,297.659c-1.012,0.838-2.109,1.849-2.717,3.034c-0.434,0.838-0.492,1.704-0.262,2.569
						c0.289,1.041,0.693,2.081,1.127,3.094c0.84,1.936,1.936,3.756,2.746,5.722c0.289,0.692,0.605,1.474,0.662,2.254
						c0.059,0.954-0.26,1.966-0.518,2.86c-0.059,0.262-0.23,0.607-0.201,0.868c0.027,0.202,0.143,0.115,0.26,0.029
						c0.492-0.376,0.982-0.81,1.414-1.244c1.188-1.126,2.543-2.63,2.43-4.392c-0.059-0.725-0.404-1.416-0.693-2.081
						c-0.318-0.779-0.664-1.529-1.012-2.28c-0.637-1.418-1.301-2.806-1.992-4.191c-0.232-0.493-0.521-0.954-0.695-1.444
						c-0.258-0.664-0.375-1.359-0.404-2.053c-0.027-0.52,0-1.068,0.059-1.589c0.027-0.347,0.145-0.663,0.145-1.012
						C695.848,297.486,695.676,297.456,695.414,297.659z"/>
				</g>
			</g>
			<path fill="#FFFFFF" d="M696.689,278.431c8.639,0,15.486,2.623,20.936,8.021c5.533,5.479,8.223,12.438,8.223,21.272
				c0,8.805-2.762,15.821-8.43,21.437c-3.506,3.423-7.891,5.827-13.021,7.144c-2.576,0.65-5.643,0.98-9.115,0.98
				c-3.342,0-6.846-0.705-10.41-2.096c-3.535-1.379-6.668-3.385-9.313-5.963c-2.648-2.581-4.791-5.771-6.369-9.48
				c-1.574-3.7-2.373-7.813-2.373-12.222c0-4.407,0.752-8.398,2.236-11.861c1.486-3.471,3.568-6.518,6.178-9.048
				C680.959,281.107,687.977,278.431,696.689,278.431 M696.689,275.431c-9.439,0-17.285,3.009-23.537,9.021
				c-2.92,2.83-5.205,6.172-6.857,10.028s-2.479,8.203-2.479,13.043c0,4.839,0.871,9.304,2.613,13.396
				c1.742,4.096,4.086,7.58,7.035,10.454c2.947,2.873,6.385,5.076,10.316,6.609c3.93,1.533,7.764,2.301,11.5,2.301
				c3.738,0,7.021-0.357,9.85-1.072c5.688-1.458,10.48-4.095,14.383-7.905c6.223-6.165,9.334-14.025,9.334-23.583
				c0-9.59-3.037-17.389-9.111-23.404C713.752,278.394,706.068,275.431,696.689,275.431L696.689,275.431z"/>
		</g>
	</g>
</g>
<rect x="29.128" y="194.972" fill="#24387C" width="359.981" height="173.991"/>
<g>
	<g>
		<g>
			<path fill="#FFFFFF" d="M102.576,267.735c0-0.236,0.082-0.453,0.248-0.65s0.383-0.297,0.65-0.297s0.488,0.08,0.662,0.236
				l0.592,0.545c1.639,1.434,3.932,2.152,6.881,2.152c1.986,0,3.262-0.41,3.83-1.23c0.156-0.221,0.236-0.445,0.236-0.674
				s-0.043-0.449-0.131-0.662c-0.086-0.213-0.271-0.473-0.555-0.781c-0.283-0.307-0.686-0.674-1.207-1.098l-2.08-1.68
				c-3.438-2.68-5.793-4.855-7.07-6.525c-1.166-1.529-1.75-3.09-1.75-4.684c0-2,0.922-3.68,2.768-5.035
				c1.906-1.42,4.373-2.129,7.4-2.129c2.129,0,3.807,0.244,5.037,0.732c1.229,0.49,2.096,0.936,2.602,1.336
				c0.504,0.402,0.756,0.77,0.756,1.1c0,0.68-0.268,1.018-0.805,1.018c-0.252,0-0.484-0.09-0.697-0.271s-0.635-0.488-1.266-0.922
				c-0.629-0.434-1.465-0.777-2.506-1.029s-2.01-0.379-2.908-0.379s-1.533,0.143-1.904,0.426c-0.369,0.283-0.555,0.564-0.555,0.84
				s0.055,0.535,0.166,0.779c0.109,0.246,0.314,0.533,0.613,0.863c0.695,0.82,1.807,1.791,3.336,2.908
				c1.527,1.121,2.82,2.145,3.877,3.074c1.057,0.932,1.883,1.789,2.482,2.578c1.088,1.418,1.633,2.854,1.633,4.303
				c0,1.451-0.27,2.693-0.805,3.725c-0.537,1.033-1.301,1.92-2.293,2.66c-2.098,1.592-4.895,2.389-8.395,2.389
				c-2.807,0-5.148-0.535-7.023-1.607C103.182,269.067,102.576,268.397,102.576,267.735z"/>
			<path fill="#FFFFFF" d="M152.855,271.353c-6.178,0-9.268-2.822-9.268-8.465l-0.023-15.512l-2.721,0.117
				c-0.85,0-1.275-0.322-1.275-0.969s0.457-0.969,1.371-0.969l2.27,0.094h0.355v-3.664l10.143-4.541v8.205h3.17l2.246-0.094
				c0.93,0,1.395,0.33,1.395,0.992c0,0.301-0.131,0.533-0.391,0.697c-0.26,0.166-0.555,0.248-0.887,0.248l-2.932-0.117h-2.602
				v22.227c1.846-0.031,3.383-0.559,4.611-1.584c0.584-0.441,0.996-1.01,1.242-1.703c0.244-0.693,0.465-1.139,0.662-1.336
				s0.428-0.295,0.697-0.295c0.268,0,0.496,0.105,0.686,0.318s0.283,0.465,0.283,0.758c0,0.291-0.078,0.613-0.236,0.969
				s-0.395,0.729-0.709,1.123c-0.709,0.883-1.529,1.584-2.459,2.105C156.797,270.888,154.922,271.353,152.855,271.353z"/>
			<path fill="#FFFFFF" d="M202.379,265.157c0.615,0,0.922,0.283,0.922,0.852c0,0.426-0.275,0.93-0.826,1.514
				c-2.492,2.553-5.904,3.83-10.24,3.83c-3.893,0-7.172-1.174-9.836-3.523c-2.758-2.443-4.139-5.533-4.139-9.27
				c0-3.814,1.246-6.951,3.736-9.41c2.633-2.617,6.133-3.926,10.5-3.926c3.498,0,6.438,1.064,8.818,3.193
				c2.57,2.285,3.855,5.287,3.855,9.008c0,0.537-0.016,1.104-0.049,1.703h-15.605v10.145c1.072,0.221,2.277,0.33,3.617,0.33
				c2.838,0,5.258-0.938,7.26-2.814c0.41-0.408,0.701-0.732,0.875-0.969C201.631,265.378,202,265.157,202.379,265.157z
				 M196.066,247.399c-1.025-0.299-2.184-0.449-3.477-0.449s-2.316,0.086-3.074,0.26v10.191h6.551V247.399z"/>
			<path fill="#FFFFFF" d="M247.646,265.157c0.615,0,0.922,0.283,0.922,0.852c0,0.426-0.275,0.93-0.826,1.514
				c-2.492,2.553-5.904,3.83-10.24,3.83c-3.893,0-7.172-1.174-9.836-3.523c-2.758-2.443-4.139-5.533-4.139-9.27
				c0-3.814,1.246-6.951,3.736-9.41c2.633-2.617,6.133-3.926,10.5-3.926c3.498,0,6.438,1.064,8.818,3.193
				c2.57,2.285,3.855,5.287,3.855,9.008c0,0.537-0.016,1.104-0.049,1.703h-15.605v10.145c1.072,0.221,2.277,0.33,3.617,0.33
				c2.838,0,5.258-0.938,7.26-2.814c0.41-0.408,0.701-0.732,0.875-0.969C246.898,265.378,247.268,265.157,247.646,265.157z
				 M241.334,247.399c-1.025-0.299-2.184-0.449-3.477-0.449s-2.316,0.086-3.074,0.26v10.191h6.551V247.399z"/>
			<path fill="#FFFFFF" d="M298.354,252.175c0.031,0.379,0.047,0.758,0.047,1.137v17.592h-10.145v-22.936
				c-0.174-0.08-0.379-0.119-0.615-0.119h-0.756c-1.23,0-2.664,0.844-4.303,2.529c-0.506,0.521-0.986,1.096-1.443,1.727v18.799
				h-10.168v-25.254h10.168v3.807c2.664-2.82,5.643-4.232,8.938-4.232c4.256,0,6.881,1.576,7.875,4.729
				c1.355-1.561,2.85-2.738,4.48-3.533c1.631-0.797,3.275-1.195,4.93-1.195c2.822,0,4.91,0.67,6.266,2.01s2.035,3.365,2.035,6.078
				v17.592h-10.145v-22.961c-0.143-0.063-0.496-0.094-1.064-0.094c-0.566,0-1.092,0.105-1.572,0.318s-0.973,0.51-1.479,0.887
				C300.299,249.858,299.283,250.899,298.354,252.175z"/>
		</g>
	</g>
	<g>
		<g>
			<g>
				<g>
					<path fill="#FFFFFF" d="M109.375,324.837c0.986,0,1.48,0.553,1.48,1.66c0,0.916-0.699,1.832-2.096,2.746
						c-2.6,1.711-4.793,2.83-6.574,3.359c-3.348,0.988-6.863,1.482-10.549,1.482c-3.684,0-7.23-0.658-10.639-1.969
						c-3.408-1.313-6.316-3.15-8.725-5.51c-5.033-4.961-7.551-11.367-7.551-19.219c0-3.781,0.711-7.256,2.133-10.422
						c1.42-3.168,3.383-5.883,5.889-8.146c5.297-4.793,11.957-7.189,19.977-7.189c4.504,0,8.465,0.771,11.885,2.313
						c3.637,1.613,5.455,2.986,5.455,4.117c0,0.459-0.15,0.855-0.451,1.193s-0.645,0.506-1.029,0.506
						c-0.771,0-1.469-0.344-2.096-1.029c-0.627-0.688-1.475-1.307-2.547-1.861s-2.246-1.035-3.521-1.445
						c-2.602-0.795-4.969-1.191-7.1-1.191s-3.895,0.145-5.291,0.434v46.313c1.684,0.289,3.178,0.434,4.479,0.434
						s2.625-0.084,3.975-0.254c1.348-0.168,2.672-0.445,3.973-0.83c2.914-0.867,5.105-2.143,6.576-3.83
						c0.529-0.625,0.951-1.059,1.264-1.301C108.604,324.956,108.965,324.837,109.375,324.837z"/>
				</g>
			</g>
			<g>
				<g>
					<path fill="#FFFFFF" d="M128.846,326.968c-4.406,0-7.418-0.037-9.031-0.109l-1.047,2.494c-0.314,0.697-0.604,1.432-0.867,2.203
						c-0.555,1.494-1.326,2.24-2.313,2.24c-0.457,0-0.83-0.145-1.119-0.434s-0.434-0.59-0.434-0.904c0-0.529,0.229-1.119,0.686-1.77
						c0.723-1.012,1.434-2.336,2.131-3.975c-2.07-0.191-3.105-0.795-3.105-1.805c0-1.012,0.59-1.518,1.77-1.518
						c0.723,0,1.564,0.121,2.529,0.361l18.025-43.785l24.711,53.43h-18.822l-2.998-6.43H128.846z M120.971,324.042
						c2.313,0.191,4.383,0.289,6.213,0.289h10.586l-9.031-19.473L120.971,324.042z"/>
				</g>
			</g>
			<g>
				<g>
					<path fill="#FFFFFF" d="M168.766,330.796c-0.844-0.48-1.572-0.986-2.186-1.516c-0.615-0.531-0.922-1.096-0.922-1.699
						c0-1.156,0.492-1.734,1.48-1.734c0.65,0,1.373,0.361,2.168,1.084s1.686,1.355,2.674,1.896c0.986,0.543,2.059,1.006,3.215,1.391
						c2.385,0.795,4.588,1.193,6.611,1.193s3.582-0.133,4.678-0.398c1.096-0.264,2.018-0.625,2.764-1.084
						c1.59-0.986,2.385-2.25,2.385-3.793c0-1.42-0.688-2.854-2.061-4.299c-1.154-1.229-2.793-2.697-4.912-4.406l-6.178-4.842
						c-6.189-4.768-9.838-9.127-10.945-13.076c-0.387-1.373-0.578-2.902-0.578-4.588s0.379-3.348,1.137-4.986
						c0.76-1.637,1.885-3.07,3.379-4.299c3.203-2.674,7.563-4.01,13.076-4.01c2.818,0,5.348,0.416,7.588,1.246
						c2.238,0.832,3.768,1.572,4.588,2.223c0.818,0.65,1.229,1.24,1.229,1.77c0,1.107-0.459,1.662-1.373,1.662
						c-0.531,0-1.098-0.266-1.699-0.795s-1.27-0.994-2.004-1.391c-0.734-0.398-1.572-0.752-2.512-1.066
						c-2.021-0.674-4.01-1.012-5.961-1.012c-3.588,0-5.381,1.182-5.381,3.541c0,0.988,0.324,1.902,0.975,2.746
						c1.156,1.469,3.414,3.57,6.773,6.303c3.359,2.734,6.057,5.125,8.092,7.172s3.582,3.889,4.643,5.527
						c1.686,2.576,2.529,5.256,2.529,8.037s-0.488,5.143-1.463,7.08c-0.977,1.939-2.344,3.607-4.102,5.004
						c-3.709,2.939-8.309,4.408-13.799,4.408C177.182,334.085,172.545,332.989,168.766,330.796z"/>
				</g>
			</g>
			<g>
				<g>
					<path fill="#FFFFFF" d="M211.141,282.28h18.424v51.117h-18.424V282.28z"/>
				</g>
			</g>
			<g>
				<g>
					<path fill="#FFFFFF" d="M244.953,328.231l0.109,3.613c0,0.627-0.17,1.107-0.506,1.445c-0.338,0.336-0.74,0.506-1.211,0.506
						c-0.469,0-0.861-0.158-1.174-0.471s-0.469-0.656-0.469-1.029s0.029-0.723,0.09-1.047c0.059-0.326,0.113-0.693,0.162-1.104
						c0.121-0.697,0.182-2.443,0.182-5.236v-44.941l39.268,31.141v-21.531c0-1.637-0.049-2.805-0.145-3.504
						c-0.121-1.131-0.18-1.926-0.18-2.385c0-1.203,0.518-1.807,1.553-1.807c0.408,0,0.801,0.145,1.174,0.434
						s0.561,0.711,0.561,1.266v1.264l-0.145,5.238v45.301l-39.27-30.814V328.231z"/>
				</g>
			</g>
			<g>
				<path fill="#FFFFFF" d="M305.43,306.763c0.217-3.127,1.352-6,3.141-8.351l-7.744-7.744c-3.727,4.37-6.059,9.963-6.307,16.095
					H305.43z"/>
				<g>
					<path fill="#FFFFFF" d="M310.896,295.96c2.32-1.971,5.221-3.277,8.412-3.621v-10.93c-6.195,0.39-11.814,2.907-16.133,6.832
						L310.896,295.96z"/>
				</g>
				<path fill="#FFFFFF" d="M322.688,281.409v10.93c3.191,0.344,6.094,1.65,8.412,3.621l7.721-7.719
					C334.502,284.316,328.885,281.799,322.688,281.409z"/>
				<g>
					<path fill="#FFFFFF" d="M309.102,317.96c-1.85-2.176-3.113-4.861-3.547-7.819h-10.961c0.508,5.961,2.988,11.359,6.787,15.538
						L309.102,317.96z"/>
				</g>
				<g>
					<path fill="#FFFFFF" d="M333.426,298.412c1.789,2.351,2.924,5.224,3.141,8.351h10.91c-0.248-6.132-2.58-11.725-6.307-16.095
						L333.426,298.412z"/>
				</g>
				<path fill="#FFFFFF" d="M336.441,310.141c-0.434,2.958-1.697,5.644-3.547,7.819l7.721,7.72c3.799-4.18,6.279-9.578,6.787-15.539
					H336.441z"/>
				<g>
					<path fill="#FFFFFF" d="M330.443,320.285c-2.201,1.676-4.859,2.779-7.756,3.091v10.93c5.898-0.371,11.273-2.671,15.5-6.276
						L330.443,320.285z"/>
				</g>
				<path fill="#FFFFFF" d="M319.309,323.376c-2.896-0.312-5.555-1.415-7.756-3.091l-7.744,7.744
					c4.229,3.605,9.602,5.905,15.5,6.276V323.376z"/>
			</g>
			<g>
				<g>
					<g>
						<path fill="#FFFFFF" d="M313.623,299.852c-0.896,0.751-1.822,1.675-2.197,2.805c-0.434,1.329,0.172,2.687,0.752,3.871
							c0.578,1.213,1.213,2.399,1.764,3.641c0.432,0.982,1.039,2.139,0.895,3.238c-0.115,0.78-0.377,1.53-0.52,2.312
							c-0.115,0.521,0.375,0,0.547-0.145c1.012-0.867,2.109-1.85,2.516-3.179c0.201-0.665,0.086-1.272-0.145-1.908
							c-0.23-0.605-0.492-1.184-0.754-1.793c-0.547-1.213-1.125-2.426-1.705-3.643c-0.23-0.432-0.461-0.895-0.662-1.357
							c-0.203-0.49-0.318-1.011-0.348-1.561c-0.029-0.433-0.031-0.838,0.029-1.271c0.027-0.318,0.115-0.607,0.143-0.924
							C313.969,299.766,313.824,299.706,313.623,299.852L313.623,299.852z M326.857,299.852c-0.896,0.753-1.82,1.677-2.197,2.805
							c-0.432,1.329,0.174,2.687,0.752,3.871c0.58,1.215,1.215,2.399,1.764,3.644c0.434,0.982,1.039,2.137,0.896,3.236
							c-0.115,0.781-0.377,1.53-0.52,2.312c-0.115,0.521,0.377,0,0.547-0.144c1.012-0.867,2.109-1.85,2.514-3.18
							c0.203-0.664,0.088-1.272-0.143-1.908c-0.23-0.604-0.49-1.184-0.752-1.791c-0.549-1.214-1.127-2.428-1.705-3.642
							c-0.23-0.435-0.463-0.897-0.664-1.36c-0.201-0.49-0.318-1.011-0.348-1.559c-0.029-0.435-0.029-0.84,0.029-1.273
							c0.027-0.318,0.115-0.604,0.143-0.924C327.205,299.766,327.061,299.706,326.857,299.852L326.857,299.852z"/>
					</g>
				</g>
				<g>
					<path fill="#FFFFFF" d="M320.08,297.659c-1.012,0.838-2.109,1.849-2.717,3.034c-0.434,0.838-0.492,1.704-0.262,2.569
						c0.289,1.041,0.693,2.081,1.127,3.094c0.84,1.936,1.936,3.756,2.746,5.722c0.289,0.692,0.605,1.474,0.662,2.254
						c0.059,0.954-0.26,1.966-0.518,2.86c-0.059,0.262-0.23,0.607-0.201,0.868c0.027,0.202,0.143,0.115,0.26,0.029
						c0.492-0.376,0.982-0.81,1.414-1.244c1.188-1.126,2.543-2.63,2.43-4.392c-0.059-0.725-0.404-1.416-0.693-2.081
						c-0.318-0.779-0.664-1.529-1.012-2.28c-0.637-1.418-1.301-2.806-1.992-4.191c-0.232-0.493-0.521-0.954-0.695-1.444
						c-0.258-0.664-0.375-1.359-0.404-2.053c-0.027-0.52,0-1.068,0.059-1.589c0.027-0.347,0.145-0.663,0.145-1.012
						C320.514,297.486,320.342,297.456,320.08,297.659z"/>
				</g>
			</g>
			<path fill="#FFFFFF" d="M321.355,278.431c8.639,0,15.486,2.623,20.936,8.021c5.533,5.479,8.223,12.438,8.223,21.272
				c0,8.805-2.762,15.821-8.43,21.437c-3.506,3.423-7.891,5.827-13.021,7.144c-2.576,0.65-5.643,0.98-9.115,0.98
				c-3.342,0-6.846-0.705-10.41-2.096c-3.535-1.379-6.668-3.385-9.313-5.963c-2.648-2.581-4.791-5.771-6.369-9.48
				c-1.574-3.7-2.373-7.813-2.373-12.222c0-4.407,0.752-8.398,2.236-11.861c1.486-3.471,3.568-6.518,6.178-9.048
				C305.625,281.107,312.643,278.431,321.355,278.431 M321.355,275.431c-9.439,0-17.285,3.009-23.537,9.021
				c-2.92,2.83-5.205,6.172-6.857,10.028s-2.479,8.203-2.479,13.043c0,4.839,0.871,9.304,2.613,13.396
				c1.742,4.096,4.086,7.58,7.035,10.454c2.947,2.873,6.385,5.076,10.316,6.609c3.93,1.533,7.764,2.301,11.5,2.301
				c3.738,0,7.021-0.357,9.85-1.072c5.688-1.458,10.48-4.095,14.383-7.905c6.223-6.165,9.334-14.025,9.334-23.583
				c0-9.59-3.037-17.389-9.111-23.404C338.418,278.394,330.734,275.431,321.355,275.431L321.355,275.431z"/>
		</g>
	</g>
</g>
<rect x="404.462" y="377.963" fill="#FFFFFF" width="359.981" height="173.991"/>
<g>
	<g>
		<g>
			<g>
				<path fill="#E30F13" d="M477.91,450.727c0-0.236,0.082-0.453,0.248-0.65s0.383-0.297,0.65-0.297s0.488,0.08,0.662,0.236
					l0.592,0.545c1.639,1.434,3.932,2.152,6.881,2.152c1.986,0,3.262-0.41,3.83-1.23c0.156-0.221,0.236-0.445,0.236-0.674
					s-0.043-0.449-0.131-0.662c-0.086-0.213-0.271-0.473-0.555-0.781c-0.283-0.307-0.686-0.674-1.207-1.098l-2.08-1.68
					c-3.438-2.68-5.793-4.855-7.07-6.525c-1.166-1.529-1.75-3.09-1.75-4.684c0-2,0.922-3.68,2.768-5.035
					c1.906-1.42,4.373-2.129,7.4-2.129c2.129,0,3.807,0.244,5.037,0.732c1.229,0.49,2.096,0.936,2.602,1.336
					c0.504,0.402,0.756,0.77,0.756,1.1c0,0.68-0.268,1.018-0.805,1.018c-0.252,0-0.484-0.09-0.697-0.271s-0.635-0.488-1.266-0.922
					c-0.629-0.434-1.465-0.777-2.506-1.029s-2.01-0.379-2.908-0.379s-1.533,0.143-1.904,0.426c-0.369,0.283-0.555,0.564-0.555,0.84
					s0.055,0.535,0.166,0.779c0.109,0.246,0.314,0.533,0.613,0.863c0.695,0.82,1.807,1.791,3.336,2.908
					c1.527,1.121,2.82,2.145,3.877,3.074c1.057,0.932,1.883,1.789,2.482,2.578c1.088,1.418,1.633,2.854,1.633,4.303
					c0,1.451-0.27,2.693-0.805,3.725c-0.537,1.033-1.301,1.92-2.293,2.66c-2.098,1.592-4.895,2.389-8.395,2.389
					c-2.807,0-5.148-0.535-7.023-1.607C478.516,452.059,477.91,451.389,477.91,450.727z"/>
				<path fill="#E30F13" d="M528.189,454.344c-6.178,0-9.268-2.822-9.268-8.465l-0.023-15.512l-2.721,0.117
					c-0.85,0-1.275-0.322-1.275-0.969s0.457-0.969,1.371-0.969l2.27,0.094h0.355v-3.664l10.143-4.541v8.205h3.17l2.246-0.094
					c0.93,0,1.395,0.33,1.395,0.992c0,0.301-0.131,0.533-0.391,0.697c-0.26,0.166-0.555,0.248-0.887,0.248l-2.932-0.117h-2.602
					v22.227c1.846-0.031,3.383-0.559,4.611-1.584c0.584-0.441,0.996-1.01,1.242-1.703c0.244-0.693,0.465-1.139,0.662-1.336
					s0.428-0.295,0.697-0.295c0.268,0,0.496,0.105,0.686,0.318s0.283,0.465,0.283,0.758c0,0.291-0.078,0.613-0.236,0.969
					s-0.395,0.729-0.709,1.123c-0.709,0.883-1.529,1.584-2.459,2.105C532.131,453.879,530.256,454.344,528.189,454.344z"/>
				<path fill="#E30F13" d="M577.713,448.148c0.615,0,0.922,0.283,0.922,0.852c0,0.426-0.275,0.93-0.826,1.514
					c-2.492,2.553-5.904,3.83-10.24,3.83c-3.893,0-7.172-1.174-9.836-3.523c-2.758-2.443-4.139-5.533-4.139-9.27
					c0-3.814,1.246-6.951,3.736-9.41c2.633-2.617,6.133-3.926,10.5-3.926c3.498,0,6.438,1.064,8.818,3.193
					c2.57,2.285,3.855,5.287,3.855,9.008c0,0.537-0.016,1.104-0.049,1.703H564.85v10.145c1.072,0.221,2.277,0.33,3.617,0.33
					c2.838,0,5.258-0.938,7.26-2.814c0.41-0.408,0.701-0.732,0.875-0.969C576.965,448.369,577.334,448.148,577.713,448.148z
					 M571.4,430.391c-1.025-0.299-2.184-0.449-3.477-0.449s-2.316,0.086-3.074,0.26v10.191h6.551V430.391z"/>
				<path fill="#E30F13" d="M622.98,448.148c0.615,0,0.922,0.283,0.922,0.852c0,0.426-0.275,0.93-0.826,1.514
					c-2.492,2.553-5.904,3.83-10.24,3.83c-3.893,0-7.172-1.174-9.836-3.523c-2.758-2.443-4.139-5.533-4.139-9.27
					c0-3.814,1.246-6.951,3.736-9.41c2.633-2.617,6.133-3.926,10.5-3.926c3.498,0,6.438,1.064,8.818,3.193
					c2.57,2.285,3.855,5.287,3.855,9.008c0,0.537-0.016,1.104-0.049,1.703h-15.605v10.145c1.072,0.221,2.277,0.33,3.617,0.33
					c2.838,0,5.258-0.938,7.26-2.814c0.41-0.408,0.701-0.732,0.875-0.969C622.232,448.369,622.602,448.148,622.98,448.148z
					 M616.668,430.391c-1.025-0.299-2.184-0.449-3.477-0.449s-2.316,0.086-3.074,0.26v10.191h6.551V430.391z"/>
				<path fill="#E30F13" d="M673.688,435.166c0.031,0.379,0.047,0.758,0.047,1.137v17.592H663.59v-22.936
					c-0.174-0.08-0.379-0.119-0.615-0.119h-0.756c-1.23,0-2.664,0.844-4.303,2.529c-0.506,0.521-0.986,1.096-1.443,1.727v18.799
					h-10.168v-25.254h10.168v3.807c2.664-2.82,5.643-4.232,8.938-4.232c4.256,0,6.881,1.576,7.875,4.729
					c1.355-1.561,2.85-2.738,4.48-3.533c1.631-0.797,3.275-1.195,4.93-1.195c2.822,0,4.91,0.67,6.266,2.01s2.035,3.365,2.035,6.078
					v17.592h-10.145v-22.961c-0.143-0.063-0.496-0.094-1.064-0.094c-0.566,0-1.092,0.105-1.572,0.318s-0.973,0.51-1.479,0.887
					C675.633,432.85,674.617,433.891,673.688,435.166z"/>
			</g>
		</g>
		<g>
			<g>
				<g>
					<g>
						<path fill="#E30F13" d="M484.709,507.828c0.986,0,1.48,0.553,1.48,1.66c0,0.916-0.699,1.832-2.096,2.746
							c-2.6,1.711-4.793,2.83-6.574,3.359c-3.348,0.988-6.863,1.482-10.549,1.482c-3.684,0-7.23-0.658-10.639-1.969
							c-3.408-1.313-6.316-3.15-8.725-5.51c-5.033-4.961-7.551-11.367-7.551-19.219c0-3.781,0.711-7.256,2.133-10.422
							c1.42-3.168,3.383-5.883,5.889-8.146c5.297-4.793,11.957-7.189,19.977-7.189c4.504,0,8.465,0.771,11.885,2.313
							c3.637,1.613,5.455,2.986,5.455,4.117c0,0.459-0.15,0.855-0.451,1.193s-0.645,0.506-1.029,0.506
							c-0.771,0-1.469-0.344-2.096-1.029c-0.627-0.688-1.475-1.307-2.547-1.861s-2.246-1.035-3.521-1.445
							c-2.602-0.795-4.969-1.191-7.1-1.191s-3.895,0.145-5.291,0.434v46.313c1.684,0.289,3.178,0.434,4.479,0.434
							s2.625-0.084,3.975-0.254c1.348-0.168,2.672-0.445,3.973-0.83c2.914-0.867,5.105-2.143,6.576-3.83
							c0.529-0.625,0.951-1.059,1.264-1.301C483.938,507.947,484.299,507.828,484.709,507.828z"/>
					</g>
				</g>
				<g>
					<g>
						<path fill="#E30F13" d="M504.18,509.959c-4.406,0-7.418-0.037-9.031-0.109l-1.047,2.494c-0.314,0.697-0.604,1.432-0.867,2.203
							c-0.555,1.494-1.326,2.24-2.313,2.24c-0.457,0-0.83-0.145-1.119-0.434s-0.434-0.59-0.434-0.904
							c0-0.529,0.229-1.119,0.686-1.77c0.723-1.012,1.434-2.336,2.131-3.975c-2.07-0.191-3.105-0.795-3.105-1.805
							c0-1.012,0.59-1.518,1.77-1.518c0.723,0,1.564,0.121,2.529,0.361l18.025-43.785l24.711,53.43h-18.822l-2.998-6.43H504.18z
							 M496.305,507.033c2.313,0.191,4.383,0.289,6.213,0.289h10.586l-9.031-19.473L496.305,507.033z"/>
					</g>
				</g>
				<g>
					<g>
						<path fill="#E30F13" d="M544.1,513.787c-0.844-0.48-1.572-0.986-2.186-1.516c-0.615-0.531-0.922-1.096-0.922-1.699
							c0-1.156,0.492-1.734,1.48-1.734c0.65,0,1.373,0.361,2.168,1.084s1.686,1.355,2.674,1.896
							c0.986,0.543,2.059,1.006,3.215,1.391c2.385,0.795,4.588,1.193,6.611,1.193s3.582-0.133,4.678-0.398
							c1.096-0.264,2.018-0.625,2.764-1.084c1.59-0.986,2.385-2.25,2.385-3.793c0-1.42-0.688-2.854-2.061-4.299
							c-1.154-1.229-2.793-2.697-4.912-4.406l-6.178-4.842c-6.189-4.768-9.838-9.127-10.945-13.076
							c-0.387-1.373-0.578-2.902-0.578-4.588s0.379-3.348,1.137-4.986c0.76-1.637,1.885-3.07,3.379-4.299
							c3.203-2.674,7.563-4.01,13.076-4.01c2.818,0,5.348,0.416,7.588,1.246c2.238,0.832,3.768,1.572,4.588,2.223
							c0.818,0.65,1.229,1.24,1.229,1.77c0,1.107-0.459,1.662-1.373,1.662c-0.531,0-1.098-0.266-1.699-0.795
							s-1.27-0.994-2.004-1.391c-0.734-0.398-1.572-0.752-2.512-1.066c-2.021-0.674-4.01-1.012-5.961-1.012
							c-3.588,0-5.381,1.182-5.381,3.541c0,0.988,0.324,1.902,0.975,2.746c1.156,1.469,3.414,3.57,6.773,6.303
							c3.359,2.734,6.057,5.125,8.092,7.172s3.582,3.889,4.643,5.527c1.686,2.576,2.529,5.256,2.529,8.037s-0.488,5.143-1.463,7.08
							c-0.977,1.939-2.344,3.607-4.102,5.004c-3.709,2.939-8.309,4.408-13.799,4.408C552.516,517.076,547.879,515.98,544.1,513.787z
							"/>
					</g>
				</g>
				<g>
					<g>
						<path fill="#E30F13" d="M586.475,465.271h18.424v51.117h-18.424V465.271z"/>
					</g>
				</g>
				<g>
					<g>
						<path fill="#E30F13" d="M620.287,511.223l0.109,3.613c0,0.627-0.17,1.107-0.506,1.445c-0.338,0.336-0.74,0.506-1.211,0.506
							c-0.469,0-0.861-0.158-1.174-0.471s-0.469-0.656-0.469-1.029s0.029-0.723,0.09-1.047c0.059-0.326,0.113-0.693,0.162-1.104
							c0.121-0.697,0.182-2.443,0.182-5.236v-44.941l39.268,31.141v-21.531c0-1.637-0.049-2.805-0.145-3.504
							c-0.121-1.131-0.18-1.926-0.18-2.385c0-1.203,0.518-1.807,1.553-1.807c0.408,0,0.801,0.145,1.174,0.434
							s0.561,0.711,0.561,1.266v1.264l-0.145,5.238v45.301l-39.27-30.814V511.223z"/>
					</g>
				</g>
				<g>
					<path fill="#E30F13" d="M680.764,489.754c0.217-3.127,1.352-6,3.141-8.351l-7.744-7.744c-3.727,4.37-6.059,9.963-6.307,16.095
						H680.764z"/>
					<g>
						<path fill="#E30F13" d="M686.23,478.951c2.32-1.971,5.221-3.277,8.412-3.621V464.4c-6.195,0.39-11.814,2.907-16.133,6.832
							L686.23,478.951z"/>
					</g>
					<path fill="#E30F13" d="M698.021,464.4v10.93c3.191,0.344,6.094,1.65,8.412,3.621l7.721-7.719
						C709.836,467.308,704.219,464.79,698.021,464.4z"/>
					<g>
						<path fill="#E30F13" d="M684.436,500.951c-1.85-2.176-3.113-4.861-3.547-7.819h-10.961c0.508,5.961,2.988,11.359,6.787,15.538
							L684.436,500.951z"/>
					</g>
					<g>
						<path fill="#E30F13" d="M708.76,481.403c1.789,2.351,2.924,5.224,3.141,8.351h10.91c-0.248-6.132-2.58-11.725-6.307-16.095
							L708.76,481.403z"/>
					</g>
					<path fill="#E30F13" d="M711.775,493.132c-0.434,2.958-1.697,5.644-3.547,7.819l7.721,7.72
						c3.799-4.18,6.279-9.578,6.787-15.539H711.775z"/>
					<g>
						<path fill="#E30F13" d="M705.777,503.276c-2.201,1.676-4.859,2.779-7.756,3.091v10.93c5.898-0.371,11.273-2.671,15.5-6.276
							L705.777,503.276z"/>
					</g>
					<path fill="#E30F13" d="M694.643,506.367c-2.896-0.312-5.555-1.415-7.756-3.091l-7.744,7.744
						c4.229,3.605,9.602,5.905,15.5,6.276V506.367z"/>
				</g>
				<g>
					<g>
						<g>
							<path fill="#E30F13" d="M688.957,482.843c-0.896,0.751-1.822,1.675-2.197,2.805c-0.434,1.329,0.172,2.687,0.752,3.871
								c0.578,1.213,1.213,2.399,1.764,3.641c0.432,0.982,1.039,2.139,0.895,3.238c-0.115,0.78-0.377,1.53-0.52,2.312
								c-0.115,0.521,0.375,0,0.547-0.145c1.012-0.867,2.109-1.85,2.516-3.179c0.201-0.665,0.086-1.272-0.145-1.908
								c-0.23-0.605-0.492-1.184-0.754-1.793c-0.547-1.213-1.125-2.426-1.705-3.643c-0.23-0.432-0.461-0.895-0.662-1.357
								c-0.203-0.49-0.318-1.011-0.348-1.561c-0.029-0.433-0.031-0.838,0.029-1.271c0.027-0.318,0.115-0.607,0.143-0.924
								C689.303,482.757,689.158,482.697,688.957,482.843L688.957,482.843z M702.191,482.843c-0.896,0.753-1.82,1.677-2.197,2.805
								c-0.432,1.329,0.174,2.687,0.752,3.871c0.58,1.215,1.215,2.399,1.764,3.644c0.434,0.982,1.039,2.137,0.896,3.236
								c-0.115,0.781-0.377,1.53-0.52,2.312c-0.115,0.521,0.377,0,0.547-0.144c1.012-0.867,2.109-1.85,2.514-3.18
								c0.203-0.664,0.088-1.272-0.143-1.908c-0.23-0.604-0.49-1.184-0.752-1.791c-0.549-1.214-1.127-2.428-1.705-3.642
								c-0.23-0.435-0.463-0.897-0.664-1.36c-0.201-0.49-0.318-1.011-0.348-1.559c-0.029-0.435-0.029-0.84,0.029-1.273
								c0.027-0.318,0.115-0.604,0.143-0.924C702.539,482.757,702.395,482.697,702.191,482.843L702.191,482.843z"/>
						</g>
					</g>
					<g>
						<path fill="#E30F13" d="M695.414,480.65c-1.012,0.838-2.109,1.849-2.717,3.034c-0.434,0.838-0.492,1.704-0.262,2.569
							c0.289,1.041,0.693,2.081,1.127,3.094c0.84,1.936,1.936,3.756,2.746,5.722c0.289,0.692,0.605,1.474,0.662,2.254
							c0.059,0.954-0.26,1.966-0.518,2.86c-0.059,0.262-0.23,0.607-0.201,0.868c0.027,0.202,0.143,0.115,0.26,0.029
							c0.492-0.376,0.982-0.81,1.414-1.244c1.188-1.126,2.543-2.63,2.43-4.392c-0.059-0.725-0.404-1.416-0.693-2.081
							c-0.318-0.779-0.664-1.529-1.012-2.28c-0.637-1.418-1.301-2.806-1.992-4.191c-0.232-0.493-0.521-0.954-0.695-1.444
							c-0.258-0.664-0.375-1.359-0.404-2.053c-0.027-0.52,0-1.068,0.059-1.589c0.027-0.347,0.145-0.663,0.145-1.012
							C695.848,480.478,695.676,480.447,695.414,480.65z"/>
					</g>
				</g>
				<path fill="#E30F13" d="M696.689,461.422c8.639,0,15.486,2.623,20.936,8.021c5.533,5.479,8.223,12.438,8.223,21.272
					c0,8.805-2.762,15.821-8.43,21.437c-3.506,3.423-7.891,5.827-13.021,7.144c-2.576,0.65-5.643,0.98-9.115,0.98
					c-3.342,0-6.846-0.705-10.41-2.096c-3.535-1.379-6.668-3.385-9.313-5.963c-2.648-2.581-4.791-5.771-6.369-9.48
					c-1.574-3.7-2.373-7.813-2.373-12.222c0-4.407,0.752-8.398,2.236-11.861c1.486-3.471,3.568-6.518,6.178-9.048
					C680.959,464.099,687.977,461.422,696.689,461.422 M696.689,458.422c-9.439,0-17.285,3.009-23.537,9.021
					c-2.92,2.83-5.205,6.172-6.857,10.028s-2.479,8.203-2.479,13.043c0,4.839,0.871,9.304,2.613,13.396
					c1.742,4.096,4.086,7.58,7.035,10.454c2.947,2.873,6.385,5.076,10.316,6.609c3.93,1.533,7.764,2.301,11.5,2.301
					c3.738,0,7.021-0.357,9.85-1.072c5.688-1.458,10.48-4.095,14.383-7.905c6.223-6.165,9.334-14.025,9.334-23.583
					c0-9.59-3.037-17.389-9.111-23.404C713.752,461.385,706.068,458.422,696.689,458.422L696.689,458.422z"/>
			</g>
		</g>
	</g>
</g>
<rect x="29.128" y="377.963" fill="#FFFFFF" width="359.981" height="173.991"/>
<g>
	<g>
		<g>
			<path fill="#24387C" d="M102.576,450.727c0-0.236,0.082-0.453,0.248-0.65s0.383-0.297,0.65-0.297s0.488,0.08,0.662,0.236
				l0.592,0.545c1.639,1.434,3.932,2.152,6.881,2.152c1.986,0,3.262-0.41,3.83-1.23c0.156-0.221,0.236-0.445,0.236-0.674
				s-0.043-0.449-0.131-0.662c-0.086-0.213-0.271-0.473-0.555-0.781c-0.283-0.307-0.686-0.674-1.207-1.098l-2.08-1.68
				c-3.438-2.68-5.793-4.855-7.07-6.525c-1.166-1.529-1.75-3.09-1.75-4.684c0-2,0.922-3.68,2.768-5.035
				c1.906-1.42,4.373-2.129,7.4-2.129c2.129,0,3.807,0.244,5.037,0.732c1.229,0.49,2.096,0.936,2.602,1.336
				c0.504,0.402,0.756,0.77,0.756,1.1c0,0.68-0.268,1.018-0.805,1.018c-0.252,0-0.484-0.09-0.697-0.271s-0.635-0.488-1.266-0.922
				c-0.629-0.434-1.465-0.777-2.506-1.029s-2.01-0.379-2.908-0.379s-1.533,0.143-1.904,0.426c-0.369,0.283-0.555,0.564-0.555,0.84
				s0.055,0.535,0.166,0.779c0.109,0.246,0.314,0.533,0.613,0.863c0.695,0.82,1.807,1.791,3.336,2.908
				c1.527,1.121,2.82,2.145,3.877,3.074c1.057,0.932,1.883,1.789,2.482,2.578c1.088,1.418,1.633,2.854,1.633,4.303
				c0,1.451-0.27,2.693-0.805,3.725c-0.537,1.033-1.301,1.92-2.293,2.66c-2.098,1.592-4.895,2.389-8.395,2.389
				c-2.807,0-5.148-0.535-7.023-1.607C103.182,452.059,102.576,451.389,102.576,450.727z"/>
			<path fill="#24387C" d="M152.855,454.344c-6.178,0-9.268-2.822-9.268-8.465l-0.023-15.512l-2.721,0.117
				c-0.85,0-1.275-0.322-1.275-0.969s0.457-0.969,1.371-0.969l2.27,0.094h0.355v-3.664l10.143-4.541v8.205h3.17l2.246-0.094
				c0.93,0,1.395,0.33,1.395,0.992c0,0.301-0.131,0.533-0.391,0.697c-0.26,0.166-0.555,0.248-0.887,0.248l-2.932-0.117h-2.602
				v22.227c1.846-0.031,3.383-0.559,4.611-1.584c0.584-0.441,0.996-1.01,1.242-1.703c0.244-0.693,0.465-1.139,0.662-1.336
				s0.428-0.295,0.697-0.295c0.268,0,0.496,0.105,0.686,0.318s0.283,0.465,0.283,0.758c0,0.291-0.078,0.613-0.236,0.969
				s-0.395,0.729-0.709,1.123c-0.709,0.883-1.529,1.584-2.459,2.105C156.797,453.879,154.922,454.344,152.855,454.344z"/>
			<path fill="#24387C" d="M202.379,448.148c0.615,0,0.922,0.283,0.922,0.852c0,0.426-0.275,0.93-0.826,1.514
				c-2.492,2.553-5.904,3.83-10.24,3.83c-3.893,0-7.172-1.174-9.836-3.523c-2.758-2.443-4.139-5.533-4.139-9.27
				c0-3.814,1.246-6.951,3.736-9.41c2.633-2.617,6.133-3.926,10.5-3.926c3.498,0,6.438,1.064,8.818,3.193
				c2.57,2.285,3.855,5.287,3.855,9.008c0,0.537-0.016,1.104-0.049,1.703h-15.605v10.145c1.072,0.221,2.277,0.33,3.617,0.33
				c2.838,0,5.258-0.938,7.26-2.814c0.41-0.408,0.701-0.732,0.875-0.969C201.631,448.369,202,448.148,202.379,448.148z
				 M196.066,430.391c-1.025-0.299-2.184-0.449-3.477-0.449s-2.316,0.086-3.074,0.26v10.191h6.551V430.391z"/>
			<path fill="#24387C" d="M247.646,448.148c0.615,0,0.922,0.283,0.922,0.852c0,0.426-0.275,0.93-0.826,1.514
				c-2.492,2.553-5.904,3.83-10.24,3.83c-3.893,0-7.172-1.174-9.836-3.523c-2.758-2.443-4.139-5.533-4.139-9.27
				c0-3.814,1.246-6.951,3.736-9.41c2.633-2.617,6.133-3.926,10.5-3.926c3.498,0,6.438,1.064,8.818,3.193
				c2.57,2.285,3.855,5.287,3.855,9.008c0,0.537-0.016,1.104-0.049,1.703h-15.605v10.145c1.072,0.221,2.277,0.33,3.617,0.33
				c2.838,0,5.258-0.938,7.26-2.814c0.41-0.408,0.701-0.732,0.875-0.969C246.898,448.369,247.268,448.148,247.646,448.148z
				 M241.334,430.391c-1.025-0.299-2.184-0.449-3.477-0.449s-2.316,0.086-3.074,0.26v10.191h6.551V430.391z"/>
			<path fill="#24387C" d="M298.354,435.166c0.031,0.379,0.047,0.758,0.047,1.137v17.592h-10.145v-22.936
				c-0.174-0.08-0.379-0.119-0.615-0.119h-0.756c-1.23,0-2.664,0.844-4.303,2.529c-0.506,0.521-0.986,1.096-1.443,1.727v18.799
				h-10.168v-25.254h10.168v3.807c2.664-2.82,5.643-4.232,8.938-4.232c4.256,0,6.881,1.576,7.875,4.729
				c1.355-1.561,2.85-2.738,4.48-3.533c1.631-0.797,3.275-1.195,4.93-1.195c2.822,0,4.91,0.67,6.266,2.01s2.035,3.365,2.035,6.078
				v17.592h-10.145v-22.961c-0.143-0.063-0.496-0.094-1.064-0.094c-0.566,0-1.092,0.105-1.572,0.318s-0.973,0.51-1.479,0.887
				C300.299,432.85,299.283,433.891,298.354,435.166z"/>
		</g>
	</g>
	<g>
		<g>
			<g>
				<g>
					<path fill="#24387C" d="M109.375,507.828c0.986,0,1.48,0.553,1.48,1.66c0,0.916-0.699,1.832-2.096,2.746
						c-2.6,1.711-4.793,2.83-6.574,3.359c-3.348,0.988-6.863,1.482-10.549,1.482c-3.684,0-7.23-0.658-10.639-1.969
						c-3.408-1.313-6.316-3.15-8.725-5.51c-5.033-4.961-7.551-11.367-7.551-19.219c0-3.781,0.711-7.256,2.133-10.422
						c1.42-3.168,3.383-5.883,5.889-8.146c5.297-4.793,11.957-7.189,19.977-7.189c4.504,0,8.465,0.771,11.885,2.313
						c3.637,1.613,5.455,2.986,5.455,4.117c0,0.459-0.15,0.855-0.451,1.193s-0.645,0.506-1.029,0.506
						c-0.771,0-1.469-0.344-2.096-1.029c-0.627-0.688-1.475-1.307-2.547-1.861s-2.246-1.035-3.521-1.445
						c-2.602-0.795-4.969-1.191-7.1-1.191s-3.895,0.145-5.291,0.434v46.313c1.684,0.289,3.178,0.434,4.479,0.434
						s2.625-0.084,3.975-0.254c1.348-0.168,2.672-0.445,3.973-0.83c2.914-0.867,5.105-2.143,6.576-3.83
						c0.529-0.625,0.951-1.059,1.264-1.301C108.604,507.947,108.965,507.828,109.375,507.828z"/>
				</g>
			</g>
			<g>
				<g>
					<path fill="#24387C" d="M128.846,509.959c-4.406,0-7.418-0.037-9.031-0.109l-1.047,2.494c-0.314,0.697-0.604,1.432-0.867,2.203
						c-0.555,1.494-1.326,2.24-2.313,2.24c-0.457,0-0.83-0.145-1.119-0.434s-0.434-0.59-0.434-0.904c0-0.529,0.229-1.119,0.686-1.77
						c0.723-1.012,1.434-2.336,2.131-3.975c-2.07-0.191-3.105-0.795-3.105-1.805c0-1.012,0.59-1.518,1.77-1.518
						c0.723,0,1.564,0.121,2.529,0.361l18.025-43.785l24.711,53.43h-18.822l-2.998-6.43H128.846z M120.971,507.033
						c2.313,0.191,4.383,0.289,6.213,0.289h10.586l-9.031-19.473L120.971,507.033z"/>
				</g>
			</g>
			<g>
				<g>
					<path fill="#24387C" d="M168.766,513.787c-0.844-0.48-1.572-0.986-2.186-1.516c-0.615-0.531-0.922-1.096-0.922-1.699
						c0-1.156,0.492-1.734,1.48-1.734c0.65,0,1.373,0.361,2.168,1.084s1.686,1.355,2.674,1.896c0.986,0.543,2.059,1.006,3.215,1.391
						c2.385,0.795,4.588,1.193,6.611,1.193s3.582-0.133,4.678-0.398c1.096-0.264,2.018-0.625,2.764-1.084
						c1.59-0.986,2.385-2.25,2.385-3.793c0-1.42-0.688-2.854-2.061-4.299c-1.154-1.229-2.793-2.697-4.912-4.406l-6.178-4.842
						c-6.189-4.768-9.838-9.127-10.945-13.076c-0.387-1.373-0.578-2.902-0.578-4.588s0.379-3.348,1.137-4.986
						c0.76-1.637,1.885-3.07,3.379-4.299c3.203-2.674,7.563-4.01,13.076-4.01c2.818,0,5.348,0.416,7.588,1.246
						c2.238,0.832,3.768,1.572,4.588,2.223c0.818,0.65,1.229,1.24,1.229,1.77c0,1.107-0.459,1.662-1.373,1.662
						c-0.531,0-1.098-0.266-1.699-0.795s-1.27-0.994-2.004-1.391c-0.734-0.398-1.572-0.752-2.512-1.066
						c-2.021-0.674-4.01-1.012-5.961-1.012c-3.588,0-5.381,1.182-5.381,3.541c0,0.988,0.324,1.902,0.975,2.746
						c1.156,1.469,3.414,3.57,6.773,6.303c3.359,2.734,6.057,5.125,8.092,7.172s3.582,3.889,4.643,5.527
						c1.686,2.576,2.529,5.256,2.529,8.037s-0.488,5.143-1.463,7.08c-0.977,1.939-2.344,3.607-4.102,5.004
						c-3.709,2.939-8.309,4.408-13.799,4.408C177.182,517.076,172.545,515.98,168.766,513.787z"/>
				</g>
			</g>
			<g>
				<g>
					<path fill="#24387C" d="M211.141,465.271h18.424v51.117h-18.424V465.271z"/>
				</g>
			</g>
			<g>
				<g>
					<path fill="#24387C" d="M244.953,511.223l0.109,3.613c0,0.627-0.17,1.107-0.506,1.445c-0.338,0.336-0.74,0.506-1.211,0.506
						c-0.469,0-0.861-0.158-1.174-0.471s-0.469-0.656-0.469-1.029s0.029-0.723,0.09-1.047c0.059-0.326,0.113-0.693,0.162-1.104
						c0.121-0.697,0.182-2.443,0.182-5.236v-44.941l39.268,31.141v-21.531c0-1.637-0.049-2.805-0.145-3.504
						c-0.121-1.131-0.18-1.926-0.18-2.385c0-1.203,0.518-1.807,1.553-1.807c0.408,0,0.801,0.145,1.174,0.434
						s0.561,0.711,0.561,1.266v1.264l-0.145,5.238v45.301l-39.27-30.814V511.223z"/>
				</g>
			</g>
			<g>
				<path fill="#24387C" d="M305.43,489.754c0.217-3.127,1.352-6,3.141-8.351l-7.744-7.744c-3.727,4.37-6.059,9.963-6.307,16.095
					H305.43z"/>
				<g>
					<path fill="#24387C" d="M310.896,478.951c2.32-1.971,5.221-3.277,8.412-3.621V464.4c-6.195,0.39-11.814,2.907-16.133,6.832
						L310.896,478.951z"/>
				</g>
				<path fill="#24387C" d="M322.688,464.4v10.93c3.191,0.344,6.094,1.65,8.412,3.621l7.721-7.719
					C334.502,467.308,328.885,464.79,322.688,464.4z"/>
				<g>
					<path fill="#24387C" d="M309.102,500.951c-1.85-2.176-3.113-4.861-3.547-7.819h-10.961c0.508,5.961,2.988,11.359,6.787,15.538
						L309.102,500.951z"/>
				</g>
				<g>
					<path fill="#24387C" d="M333.426,481.403c1.789,2.351,2.924,5.224,3.141,8.351h10.91c-0.248-6.132-2.58-11.725-6.307-16.095
						L333.426,481.403z"/>
				</g>
				<path fill="#24387C" d="M336.441,493.132c-0.434,2.958-1.697,5.644-3.547,7.819l7.721,7.72c3.799-4.18,6.279-9.578,6.787-15.539
					H336.441z"/>
				<g>
					<path fill="#24387C" d="M330.443,503.276c-2.201,1.676-4.859,2.779-7.756,3.091v10.93c5.898-0.371,11.273-2.671,15.5-6.276
						L330.443,503.276z"/>
				</g>
				<path fill="#24387C" d="M319.309,506.367c-2.896-0.312-5.555-1.415-7.756-3.091l-7.744,7.744
					c4.229,3.605,9.602,5.905,15.5,6.276V506.367z"/>
			</g>
			<g>
				<g>
					<g>
						<path fill="#24387C" d="M313.623,482.843c-0.896,0.751-1.822,1.675-2.197,2.805c-0.434,1.329,0.172,2.687,0.752,3.871
							c0.578,1.213,1.213,2.399,1.764,3.641c0.432,0.982,1.039,2.139,0.895,3.238c-0.115,0.78-0.377,1.53-0.52,2.312
							c-0.115,0.521,0.375,0,0.547-0.145c1.012-0.867,2.109-1.85,2.516-3.179c0.201-0.665,0.086-1.272-0.145-1.908
							c-0.23-0.605-0.492-1.184-0.754-1.793c-0.547-1.213-1.125-2.426-1.705-3.643c-0.23-0.432-0.461-0.895-0.662-1.357
							c-0.203-0.49-0.318-1.011-0.348-1.561c-0.029-0.433-0.031-0.838,0.029-1.271c0.027-0.318,0.115-0.607,0.143-0.924
							C313.969,482.757,313.824,482.697,313.623,482.843L313.623,482.843z M326.857,482.843c-0.896,0.753-1.82,1.677-2.197,2.805
							c-0.432,1.329,0.174,2.687,0.752,3.871c0.58,1.215,1.215,2.399,1.764,3.644c0.434,0.982,1.039,2.137,0.896,3.236
							c-0.115,0.781-0.377,1.53-0.52,2.312c-0.115,0.521,0.377,0,0.547-0.144c1.012-0.867,2.109-1.85,2.514-3.18
							c0.203-0.664,0.088-1.272-0.143-1.908c-0.23-0.604-0.49-1.184-0.752-1.791c-0.549-1.214-1.127-2.428-1.705-3.642
							c-0.23-0.435-0.463-0.897-0.664-1.36c-0.201-0.49-0.318-1.011-0.348-1.559c-0.029-0.435-0.029-0.84,0.029-1.273
							c0.027-0.318,0.115-0.604,0.143-0.924C327.205,482.757,327.061,482.697,326.857,482.843L326.857,482.843z"/>
					</g>
				</g>
				<g>
					<path fill="#24387C" d="M320.08,480.65c-1.012,0.838-2.109,1.849-2.717,3.034c-0.434,0.838-0.492,1.704-0.262,2.569
						c0.289,1.041,0.693,2.081,1.127,3.094c0.84,1.936,1.936,3.756,2.746,5.722c0.289,0.692,0.605,1.474,0.662,2.254
						c0.059,0.954-0.26,1.966-0.518,2.86c-0.059,0.262-0.23,0.607-0.201,0.868c0.027,0.202,0.143,0.115,0.26,0.029
						c0.492-0.376,0.982-0.81,1.414-1.244c1.188-1.126,2.543-2.63,2.43-4.392c-0.059-0.725-0.404-1.416-0.693-2.081
						c-0.318-0.779-0.664-1.529-1.012-2.28c-0.637-1.418-1.301-2.806-1.992-4.191c-0.232-0.493-0.521-0.954-0.695-1.444
						c-0.258-0.664-0.375-1.359-0.404-2.053c-0.027-0.52,0-1.068,0.059-1.589c0.027-0.347,0.145-0.663,0.145-1.012
						C320.514,480.478,320.342,480.447,320.08,480.65z"/>
				</g>
			</g>
			<path fill="#24387C" d="M321.355,461.422c8.639,0,15.486,2.623,20.936,8.021c5.533,5.479,8.223,12.438,8.223,21.272
				c0,8.805-2.762,15.821-8.43,21.437c-3.506,3.423-7.891,5.827-13.021,7.144c-2.576,0.65-5.643,0.98-9.115,0.98
				c-3.342,0-6.846-0.705-10.41-2.096c-3.535-1.379-6.668-3.385-9.313-5.963c-2.648-2.581-4.791-5.771-6.369-9.48
				c-1.574-3.7-2.373-7.813-2.373-12.222c0-4.407,0.752-8.398,2.236-11.861c1.486-3.471,3.568-6.518,6.178-9.048
				C305.625,464.099,312.643,461.422,321.355,461.422 M321.355,458.422c-9.439,0-17.285,3.009-23.537,9.021
				c-2.92,2.83-5.205,6.172-6.857,10.028s-2.479,8.203-2.479,13.043c0,4.839,0.871,9.304,2.613,13.396
				c1.742,4.096,4.086,7.58,7.035,10.454c2.947,2.873,6.385,5.076,10.316,6.609c3.93,1.533,7.764,2.301,11.5,2.301
				c3.738,0,7.021-0.357,9.85-1.072c5.688-1.458,10.48-4.095,14.383-7.905c6.223-6.165,9.334-14.025,9.334-23.583
				c0-9.59-3.037-17.389-9.111-23.404C338.418,461.385,330.734,458.422,321.355,458.422L321.355,458.422z"/>
		</g>
	</g>
</g>
</svg>
