<?xml version="1.0" encoding="utf-8"?>
<!-- Generator: Adobe Illustrator 16.0.0, SVG Export Plug-In . SVG Version: 6.00 Build 0)  -->
<!DOCTYPE svg PUBLIC "-//W3C//DTD SVG 1.1//EN" "http://www.w3.org/Graphics/SVG/1.1/DTD/svg11.dtd">
<svg version="1.1" id="Capa_1" xmlns="http://www.w3.org/2000/svg" xmlns:xlink="http://www.w3.org/1999/xlink" x="0px" y="0px"
	 width="792px" height="421.875px" viewBox="0 0 792 421.875" enable-background="new 0 0 792 421.875" xml:space="preserve">
<rect x="10.788" y="203.866" fill="#4D4C4C" width="256" height="209"/>
<rect x="267.981" y="203.866" fill="#4D4C4C" width="256" height="209"/>
<rect x="525.633" y="203.866" fill="#EA5154" width="256" height="209"/>
<g>
	<g>
		<g>
			<path fill="#EA5154" d="M222.593,67.156h-38.415c-0.491,0-0.991,0.009-1.495,0.021v33.699c0,11.016-5.455,20.751-13.803,26.676
				c0.001,0,0.002,0,0.003,0l58.97-41.57C243.004,75.583,240.647,67.156,222.593,67.156z"/>
		</g>
	</g>
	<g>
		<path fill="#4D4C4C" d="M136.519,89.711h-23.006c-8.881,0-16.081,7.2-16.081,16.081s7.2,16.081,16.081,16.081h23.006
			c8.881,0,16.082-7.2,16.082-16.081S145.399,89.711,136.519,89.711z M132.697,99.45l-5.538,6.157
			c-0.547,0.608-1.326,0.955-2.144,0.955s-1.597-0.347-2.144-0.955l-5.538-6.157c-0.763-0.846-0.955-2.063-0.49-3.103
			c0.464-1.039,1.495-1.71,2.633-1.71h11.078c1.138,0,2.169,0.671,2.633,1.71C133.652,97.387,133.46,98.604,132.697,99.45z"/>
		<path fill="#4D4C4C" d="M208.571,15.001c-1.185-1.249-2.83-1.955-4.55-1.955h-59.593c-1.721,0-3.365,0.706-4.55,1.955
			c-0.856,0.901-1.413,2.03-1.623,3.235c0,0,0-0.002,0-0.003h-26.479c-0.212-1.202-0.768-2.331-1.623-3.232
			c-1.186-1.249-2.83-1.955-4.551-1.955H46.01c-1.72,0-3.365,0.706-4.549,1.955c-1.186,1.248-1.805,2.929-1.715,4.646
			c0.63,11.994,7.353,33.45,27.603,38.174v43.055c0,18.056,14.638,32.692,32.693,32.692h49.948
			c18.056,0,32.692-14.637,32.692-32.692V57.822c20.25-4.724,26.973-26.18,27.603-38.174
			C210.375,17.93,209.756,16.25,208.571,15.001z M138.17,18.94c0.001-0.008,0.002-0.014,0.002-0.021
			C138.172,18.926,138.171,18.932,138.17,18.94z M138.718,24.608c-0.01-0.055-0.019-0.109-0.027-0.165
			C138.699,24.499,138.708,24.553,138.718,24.608z M138.48,22.999c-0.013-0.097-0.026-0.195-0.038-0.292
			C138.454,22.803,138.468,22.902,138.48,22.999z M138.304,21.449c-0.011-0.115-0.024-0.229-0.034-0.342
			C138.279,21.219,138.293,21.335,138.304,21.449z M174.609,58.761v42.115c0,13.574-11.043,24.619-24.619,24.619h-49.948
			c-13.575,0-24.62-11.045-24.62-24.619V58.761c0.131,0.001,0.254,0.012,0.385,0.012c22.93,0,32.448-18.594,35.2-32.465h28.018
			c2.752,13.871,12.271,32.465,35.2,32.465c0.145,0,0.28-0.012,0.423-0.014C174.636,58.76,174.623,58.761,174.609,58.761z
			 M195.424,39.709c-5.086,7.395-12.021,10.99-21.199,10.99c-9.178,0-16.112-3.596-21.199-10.99
			c-4.072-5.923-6.056-13.158-6.645-18.59h55.688C201.481,26.551,199.497,33.787,195.424,39.709z"/>
	</g>
	<g>
		<path fill="#4D4C4C" d="M79.892,154.683c0,1.254-0.232,2.148-0.696,2.682c-0.464,0.534-1.177,0.802-2.137,0.802
			c-0.959,0-1.663-0.244-2.111-0.731c-0.449-0.487-0.674-1.351-0.674-2.589v-9.796c0-0.943,0.256-1.644,0.767-2.101
			c0.511-0.456,1.185-0.685,2.019-0.685h4.133c1.006,0,1.934,0.135,2.785,0.405c0.852,0.272,1.591,0.651,2.218,1.139
			c0.626,0.487,1.113,1.098,1.462,1.834c0.349,0.734,0.522,1.552,0.522,2.448c0,1.1-0.317,2.055-0.951,2.867
			c-0.636,0.813-1.472,1.42-2.508,1.822c-1.037,0.402-2.205,0.603-3.505,0.603h-1.323V154.683z M82.816,147.766
			c0-0.571-0.055-1.025-0.163-1.357c-0.108-0.333-0.298-0.584-0.567-0.754c-0.272-0.171-0.566-0.282-0.883-0.337
			c-0.317-0.054-0.755-0.082-1.312-0.082v5.106c0.434,0,0.815-0.038,1.149-0.115c0.332-0.077,0.638-0.209,0.916-0.395
			c0.279-0.186,0.491-0.453,0.639-0.802C82.743,148.684,82.816,148.261,82.816,147.766z"/>
		<path fill="#4D4C4C" d="M95.862,158.305c-1.889,0-3.448-0.487-4.678-1.463c-1.23-0.975-1.846-2.306-1.846-3.992
			c0-1.825,0.607-3.269,1.822-4.33c1.215-1.06,2.782-1.589,4.701-1.589c1.811,0,3.136,0.32,3.98,0.963
			c0.843,0.643,1.265,1.521,1.265,2.635c0,0.218-0.026,0.426-0.081,0.627c-0.054,0.201-0.139,0.398-0.256,0.592
			c-0.115,0.193-0.271,0.371-0.464,0.534c-0.193,0.162-0.414,0.309-0.661,0.44c-0.248,0.132-0.542,0.232-0.883,0.302
			c-0.34,0.07-0.704,0.104-1.09,0.104l-3.274,0.022c0.155,0.496,0.435,0.887,0.837,1.174c0.401,0.286,0.912,0.429,1.531,0.429
			c0.666,0,1.347-0.085,2.043-0.255c0.294-0.077,0.616-0.201,0.963-0.371c0.349-0.17,0.601-0.256,0.755-0.256
			c0.264,0,0.469,0.077,0.615,0.232c0.147,0.154,0.221,0.348,0.221,0.579c0,0.279-0.124,0.616-0.371,1.01
			c-0.248,0.396-0.592,0.79-1.033,1.185s-1.025,0.731-1.753,1.01C97.479,158.167,96.697,158.305,95.862,158.305z M94.283,151.667
			c1.068-0.016,1.647-0.023,1.741-0.023c0.231,0,0.402-0.139,0.511-0.418c0.077-0.2,0.116-0.479,0.116-0.836
			c0-0.975-0.295-1.462-0.883-1.462c-0.217,0-0.429,0.115-0.639,0.349c-0.209,0.232-0.391,0.561-0.544,0.986
			C94.431,150.688,94.33,151.156,94.283,151.667z"/>
		<path fill="#4D4C4C" d="M104.45,153.198v-2.738c-0.387-0.016-0.695-0.082-0.928-0.197c-0.232-0.116-0.398-0.267-0.499-0.453
			c-0.102-0.186-0.151-0.418-0.151-0.696c0-0.882,0.534-1.362,1.602-1.438v-2.16c0-0.587,0.426-1.118,1.276-1.59
			c0.852-0.471,1.694-0.708,2.53-0.708c0.511,0,0.844,0.148,0.998,0.44c0.155,0.295,0.232,0.736,0.232,1.324l0.023,2.67h0.627
			c0.851,0,1.436,0.111,1.753,0.337c0.316,0.224,0.476,0.631,0.476,1.218c0,0.248-0.047,0.456-0.139,0.627
			c-0.094,0.171-0.245,0.302-0.454,0.395c-0.209,0.092-0.46,0.159-0.754,0.197s-0.658,0.059-1.09,0.059h-0.419v2.553
			c0,0.248,0.012,0.453,0.035,0.615c0.022,0.163,0.058,0.29,0.104,0.383c0.046,0.094,0.112,0.155,0.197,0.186
			c0.085,0.031,0.188,0.047,0.313,0.047c0.186,0,0.339-0.065,0.464-0.197c0.124-0.132,0.221-0.278,0.291-0.441
			c0.068-0.162,0.162-0.31,0.278-0.441c0.115-0.13,0.251-0.196,0.405-0.196c0.355,0,0.631,0.085,0.824,0.255
			c0.194,0.17,0.291,0.379,0.291,0.627c0,0.418-0.082,0.867-0.244,1.346c-0.163,0.48-0.398,0.944-0.709,1.394
			c-0.309,0.449-0.739,0.819-1.288,1.113c-0.549,0.295-1.163,0.442-1.845,0.442c-1.532,0-2.616-0.388-3.25-1.162
			C104.768,156.232,104.45,154.962,104.45,153.198z"/>
		<path fill="#EA5154" d="M136.902,154.683c0,1.254-0.226,2.148-0.674,2.682c-0.449,0.534-1.13,0.802-2.043,0.802
			c-0.897,0-1.556-0.244-1.973-0.731c-0.418-0.487-0.627-1.351-0.627-2.589l-0.023-2.623h-4.735v2.46
			c0,1.271-0.217,2.168-0.649,2.693c-0.434,0.526-1.123,0.79-2.066,0.79c-0.897,0-1.555-0.244-1.974-0.731
			c-0.417-0.487-0.626-1.351-0.626-2.589l-0.07-9.796c0-0.959,0.244-1.663,0.731-2.112s1.133-0.673,1.938-0.673
			c0.929,0,1.613,0.17,2.055,0.511c0.44,0.34,0.661,1.029,0.661,2.066v3.899h4.713v-3.691c0-0.649,0.119-1.187,0.359-1.613
			c0.24-0.426,0.549-0.727,0.929-0.905c0.379-0.178,0.832-0.267,1.357-0.267c0.897,0,1.575,0.17,2.031,0.511
			c0.457,0.34,0.686,1.029,0.686,2.066V154.683z"/>
		<path fill="#EA5154" d="M145.676,158.305c-1.888,0-3.446-0.487-4.678-1.463c-1.23-0.975-1.845-2.306-1.845-3.992
			c0-1.825,0.606-3.269,1.821-4.33c1.215-1.06,2.782-1.589,4.701-1.589c1.811,0,3.138,0.32,3.981,0.963
			c0.843,0.643,1.266,1.521,1.266,2.635c0,0.218-0.028,0.426-0.082,0.627c-0.055,0.201-0.14,0.398-0.255,0.592
			c-0.117,0.193-0.271,0.371-0.465,0.534c-0.193,0.162-0.415,0.309-0.662,0.44s-0.541,0.232-0.881,0.302
			c-0.341,0.07-0.705,0.104-1.092,0.104l-3.272,0.022c0.153,0.496,0.433,0.887,0.836,1.174c0.402,0.286,0.913,0.429,1.532,0.429
			c0.664,0,1.346-0.085,2.042-0.255c0.294-0.077,0.615-0.201,0.964-0.371c0.347-0.17,0.599-0.256,0.754-0.256
			c0.263,0,0.468,0.077,0.614,0.232c0.147,0.154,0.222,0.348,0.222,0.579c0,0.279-0.125,0.616-0.372,1.01
			c-0.247,0.396-0.592,0.79-1.032,1.185c-0.441,0.395-1.025,0.731-1.753,1.01C147.293,158.167,146.512,158.305,145.676,158.305z
			 M144.097,151.667c1.068-0.016,1.649-0.023,1.741-0.023c0.233,0,0.402-0.139,0.511-0.418c0.078-0.2,0.116-0.479,0.116-0.836
			c0-0.975-0.294-1.462-0.883-1.462c-0.217,0-0.429,0.115-0.638,0.349c-0.208,0.232-0.39,0.561-0.545,0.986
			S144.144,151.156,144.097,151.667z"/>
		<path fill="#EA5154" d="M158.096,155.681c0,0.93-0.195,1.575-0.581,1.939c-0.387,0.363-1.076,0.546-2.065,0.546
			c-0.913,0-1.532-0.214-1.857-0.64c-0.326-0.425-0.488-1.125-0.488-2.101v-5.71c0-0.525,0.094-0.986,0.279-1.382
			c0.186-0.394,0.456-0.699,0.813-0.916c0.355-0.217,0.773-0.325,1.254-0.325c1.175,0,1.949,0.341,2.32,1.021
			c0.897-0.681,1.765-1.021,2.601-1.021c1.624,0,2.437,0.774,2.437,2.321c0,0.619-0.178,1.122-0.533,1.509
			c-0.356,0.387-0.82,0.581-1.393,0.581c-0.341,0-0.615-0.07-0.824-0.209c-0.209-0.14-0.402-0.279-0.581-0.419
			c-0.178-0.139-0.382-0.208-0.614-0.208c-0.342,0-0.597,0.116-0.766,0.348V155.681z"/>
		<path fill="#EA5154" d="M169.887,158.329c-1.207,0-2.295-0.217-3.262-0.65c-0.968-0.434-1.74-1.083-2.321-1.95
			c-0.58-0.866-0.871-1.88-0.871-3.041c0-1.764,0.604-3.164,1.812-4.2c1.206-1.037,2.754-1.556,4.643-1.556
			c1.888,0,3.428,0.519,4.619,1.556c1.191,1.036,1.787,2.437,1.787,4.2c0,1.749-0.607,3.126-1.822,4.133
			C173.256,157.826,171.728,158.329,169.887,158.329z M171.094,152.665c0-0.805-0.101-1.513-0.303-2.124
			c-0.2-0.612-0.495-0.917-0.881-0.917c-0.264,0-0.496,0.154-0.696,0.464c-0.202,0.31-0.349,0.688-0.442,1.138
			c-0.092,0.449-0.139,0.928-0.139,1.439c0,0.789,0.108,1.481,0.325,2.077c0.216,0.596,0.526,0.895,0.929,0.895
			s0.704-0.294,0.904-0.883C170.993,154.166,171.094,153.469,171.094,152.665z"/>
	</g>
</g>
<g>
	<g>
		<path fill="#4D4C4C" d="M479.786,67.156h-38.415c-0.219,0-0.837,0.002-1.495,0.005v-9.339c20.25-4.724,26.973-26.18,27.603-38.174
			c0.09-1.718-0.529-3.398-1.714-4.646c-1.185-1.249-2.83-1.955-4.55-1.955h-59.593c-1.721,0-3.365,0.706-4.55,1.955
			c-0.856,0.901-1.413,2.03-1.623,3.235c0,0,0-0.002,0-0.003H368.97c-0.212-1.202-0.768-2.331-1.623-3.232
			c-1.186-1.249-2.83-1.955-4.551-1.955h-59.593c-1.72,0-3.365,0.706-4.549,1.955c-1.186,1.248-1.805,2.929-1.715,4.646
			c0.63,11.994,7.353,33.45,27.603,38.174v43.055c0,18.056,14.638,32.692,32.693,32.692h49.948c7.05,0,13.572-2.238,18.912-6.033
			c-0.008,0.005-0.015,0.011-0.022,0.017c0.001,0,0.002,0,0.003,0l58.97-41.57C500.197,75.583,497.841,67.156,479.786,67.156z
			 M459.262,21.12c-0.587,5.432-2.571,12.667-6.645,18.59c-5.086,7.395-12.021,10.99-21.199,10.99
			c-9.178,0-16.112-3.596-21.199-10.99c-4.072-5.923-6.056-13.158-6.645-18.59H459.262z M407.184,125.496h-49.948
			c-13.575,0-24.62-11.045-24.62-24.619V58.761c0.131,0.001,0.254,0.012,0.385,0.012c22.93,0,32.448-18.594,35.2-32.465h28.018
			c2.752,13.871,12.271,32.465,35.2,32.465c0.145,0,0.28-0.012,0.423-0.014c-0.012,0.001-0.024,0.002-0.038,0.002v42.115
			C431.803,114.451,420.76,125.496,407.184,125.496z"/>
		<path fill="#4D4C4C" d="M393.712,89.711h-23.006c-8.881,0-16.081,7.2-16.081,16.081s7.2,16.081,16.081,16.081h23.006
			c8.881,0,16.082-7.2,16.082-16.081S402.593,89.711,393.712,89.711z M389.891,99.45l-5.538,6.157
			c-0.547,0.608-1.326,0.955-2.144,0.955s-1.597-0.347-2.144-0.955l-5.538-6.157c-0.763-0.846-0.955-2.063-0.49-3.103
			c0.464-1.039,1.495-1.71,2.633-1.71h11.078c1.138,0,2.169,0.671,2.633,1.71C390.846,97.387,390.653,98.604,389.891,99.45z"/>
	</g>
	<g>
		<path fill="#4D4C4C" d="M337.085,154.683c0,1.254-0.232,2.148-0.696,2.682c-0.464,0.534-1.177,0.802-2.137,0.802
			c-0.959,0-1.663-0.244-2.111-0.731c-0.449-0.487-0.674-1.351-0.674-2.589v-9.796c0-0.943,0.256-1.644,0.767-2.101
			c0.511-0.456,1.185-0.685,2.019-0.685h4.133c1.006,0,1.934,0.135,2.785,0.405c0.852,0.272,1.591,0.651,2.218,1.139
			c0.626,0.487,1.113,1.098,1.462,1.834c0.349,0.734,0.522,1.552,0.522,2.448c0,1.1-0.317,2.055-0.951,2.867
			c-0.636,0.813-1.472,1.42-2.508,1.822c-1.037,0.402-2.205,0.603-3.505,0.603h-1.323V154.683z M340.01,147.766
			c0-0.571-0.055-1.025-0.163-1.357c-0.108-0.333-0.298-0.584-0.567-0.754c-0.272-0.171-0.566-0.282-0.883-0.337
			c-0.317-0.054-0.755-0.082-1.312-0.082v5.106c0.434,0,0.815-0.038,1.149-0.115c0.332-0.077,0.638-0.209,0.916-0.395
			c0.279-0.186,0.491-0.453,0.639-0.802C339.937,148.684,340.01,148.261,340.01,147.766z"/>
		<path fill="#4D4C4C" d="M353.056,158.305c-1.889,0-3.448-0.487-4.678-1.463c-1.23-0.975-1.846-2.306-1.846-3.992
			c0-1.825,0.607-3.269,1.822-4.33c1.215-1.06,2.782-1.589,4.701-1.589c1.811,0,3.136,0.32,3.98,0.963
			c0.843,0.643,1.265,1.521,1.265,2.635c0,0.218-0.026,0.426-0.081,0.627c-0.054,0.201-0.139,0.398-0.256,0.592
			c-0.115,0.193-0.271,0.371-0.464,0.534c-0.193,0.162-0.414,0.309-0.661,0.44c-0.248,0.132-0.542,0.232-0.883,0.302
			c-0.34,0.07-0.704,0.104-1.09,0.104l-3.274,0.022c0.155,0.496,0.435,0.887,0.837,1.174c0.401,0.286,0.912,0.429,1.531,0.429
			c0.666,0,1.347-0.085,2.043-0.255c0.294-0.077,0.616-0.201,0.963-0.371c0.349-0.17,0.601-0.256,0.755-0.256
			c0.264,0,0.469,0.077,0.615,0.232c0.147,0.154,0.221,0.348,0.221,0.579c0,0.279-0.124,0.616-0.371,1.01
			c-0.248,0.396-0.592,0.79-1.033,1.185s-1.025,0.731-1.753,1.01C354.672,158.167,353.891,158.305,353.056,158.305z
			 M351.477,151.667c1.068-0.016,1.647-0.023,1.741-0.023c0.231,0,0.402-0.139,0.511-0.418c0.077-0.2,0.116-0.479,0.116-0.836
			c0-0.975-0.295-1.462-0.883-1.462c-0.217,0-0.429,0.115-0.639,0.349c-0.209,0.232-0.391,0.561-0.544,0.986
			C351.624,150.688,351.523,151.156,351.477,151.667z"/>
		<path fill="#4D4C4C" d="M361.644,153.198v-2.738c-0.387-0.016-0.695-0.082-0.928-0.197c-0.232-0.116-0.398-0.267-0.499-0.453
			c-0.102-0.186-0.151-0.418-0.151-0.696c0-0.882,0.534-1.362,1.602-1.438v-2.16c0-0.587,0.426-1.118,1.276-1.59
			c0.852-0.471,1.694-0.708,2.53-0.708c0.511,0,0.844,0.148,0.998,0.44c0.155,0.295,0.232,0.736,0.232,1.324l0.023,2.67h0.627
			c0.851,0,1.436,0.111,1.753,0.337c0.316,0.224,0.476,0.631,0.476,1.218c0,0.248-0.047,0.456-0.139,0.627
			c-0.094,0.171-0.245,0.302-0.454,0.395c-0.209,0.092-0.46,0.159-0.754,0.197s-0.658,0.059-1.09,0.059h-0.419v2.553
			c0,0.248,0.012,0.453,0.035,0.615c0.022,0.163,0.058,0.29,0.104,0.383c0.046,0.094,0.112,0.155,0.197,0.186
			c0.085,0.031,0.188,0.047,0.313,0.047c0.186,0,0.339-0.065,0.464-0.197c0.124-0.132,0.221-0.278,0.291-0.441
			c0.068-0.162,0.162-0.31,0.278-0.441c0.115-0.13,0.251-0.196,0.405-0.196c0.355,0,0.631,0.085,0.824,0.255
			c0.194,0.17,0.291,0.379,0.291,0.627c0,0.418-0.082,0.867-0.244,1.346c-0.163,0.48-0.398,0.944-0.709,1.394
			c-0.309,0.449-0.739,0.819-1.288,1.113c-0.549,0.295-1.163,0.442-1.845,0.442c-1.532,0-2.616-0.388-3.25-1.162
			C361.961,156.232,361.644,154.962,361.644,153.198z"/>
		<path fill="#4D4C4C" d="M394.096,154.683c0,1.254-0.226,2.148-0.674,2.682c-0.449,0.534-1.13,0.802-2.043,0.802
			c-0.897,0-1.556-0.244-1.973-0.731c-0.418-0.487-0.627-1.351-0.627-2.589l-0.023-2.623h-4.735v2.46
			c0,1.271-0.217,2.168-0.649,2.693c-0.434,0.526-1.123,0.79-2.066,0.79c-0.897,0-1.555-0.244-1.974-0.731
			c-0.417-0.487-0.626-1.351-0.626-2.589l-0.07-9.796c0-0.959,0.244-1.663,0.731-2.112s1.133-0.673,1.938-0.673
			c0.929,0,1.613,0.17,2.055,0.511c0.44,0.34,0.661,1.029,0.661,2.066v3.899h4.713v-3.691c0-0.649,0.119-1.187,0.359-1.613
			c0.24-0.426,0.549-0.727,0.929-0.905c0.379-0.178,0.832-0.267,1.357-0.267c0.897,0,1.575,0.17,2.031,0.511
			c0.457,0.34,0.686,1.029,0.686,2.066V154.683z"/>
		<path fill="#4D4C4C" d="M402.869,158.305c-1.888,0-3.446-0.487-4.678-1.463c-1.23-0.975-1.845-2.306-1.845-3.992
			c0-1.825,0.606-3.269,1.821-4.33c1.215-1.06,2.782-1.589,4.701-1.589c1.811,0,3.138,0.32,3.981,0.963
			c0.843,0.643,1.266,1.521,1.266,2.635c0,0.218-0.028,0.426-0.082,0.627c-0.055,0.201-0.14,0.398-0.255,0.592
			c-0.117,0.193-0.271,0.371-0.465,0.534c-0.193,0.162-0.415,0.309-0.662,0.44s-0.541,0.232-0.881,0.302
			c-0.341,0.07-0.705,0.104-1.092,0.104l-3.272,0.022c0.153,0.496,0.433,0.887,0.836,1.174c0.402,0.286,0.913,0.429,1.532,0.429
			c0.664,0,1.346-0.085,2.042-0.255c0.294-0.077,0.615-0.201,0.964-0.371c0.347-0.17,0.599-0.256,0.754-0.256
			c0.263,0,0.468,0.077,0.614,0.232c0.147,0.154,0.222,0.348,0.222,0.579c0,0.279-0.125,0.616-0.372,1.01
			c-0.247,0.396-0.592,0.79-1.032,1.185c-0.441,0.395-1.025,0.731-1.753,1.01C404.486,158.167,403.705,158.305,402.869,158.305z
			 M401.29,151.667c1.068-0.016,1.649-0.023,1.741-0.023c0.233,0,0.402-0.139,0.511-0.418c0.078-0.2,0.116-0.479,0.116-0.836
			c0-0.975-0.294-1.462-0.883-1.462c-0.217,0-0.429,0.115-0.638,0.349c-0.208,0.232-0.39,0.561-0.545,0.986
			S401.337,151.156,401.29,151.667z"/>
		<path fill="#4D4C4C" d="M415.289,155.681c0,0.93-0.195,1.575-0.581,1.939c-0.387,0.363-1.076,0.546-2.065,0.546
			c-0.913,0-1.532-0.214-1.857-0.64c-0.326-0.425-0.488-1.125-0.488-2.101v-5.71c0-0.525,0.094-0.986,0.279-1.382
			c0.186-0.394,0.456-0.699,0.813-0.916c0.355-0.217,0.773-0.325,1.254-0.325c1.175,0,1.949,0.341,2.32,1.021
			c0.897-0.681,1.765-1.021,2.601-1.021c1.624,0,2.437,0.774,2.437,2.321c0,0.619-0.178,1.122-0.533,1.509
			c-0.356,0.387-0.82,0.581-1.393,0.581c-0.341,0-0.615-0.07-0.824-0.209c-0.209-0.14-0.402-0.279-0.581-0.419
			c-0.178-0.139-0.382-0.208-0.614-0.208c-0.342,0-0.597,0.116-0.766,0.348V155.681z"/>
		<path fill="#4D4C4C" d="M427.08,158.329c-1.207,0-2.295-0.217-3.262-0.65c-0.968-0.434-1.74-1.083-2.321-1.95
			c-0.58-0.866-0.871-1.88-0.871-3.041c0-1.764,0.604-3.164,1.812-4.2c1.206-1.037,2.754-1.556,4.643-1.556
			c1.888,0,3.428,0.519,4.619,1.556c1.191,1.036,1.787,2.437,1.787,4.2c0,1.749-0.607,3.126-1.822,4.133
			C430.449,157.826,428.921,158.329,427.08,158.329z M428.287,152.665c0-0.805-0.101-1.513-0.303-2.124
			c-0.2-0.612-0.495-0.917-0.881-0.917c-0.264,0-0.496,0.154-0.696,0.464c-0.202,0.31-0.349,0.688-0.442,1.138
			c-0.092,0.449-0.139,0.928-0.139,1.439c0,0.789,0.108,1.481,0.325,2.077c0.216,0.596,0.526,0.895,0.929,0.895
			s0.704-0.294,0.904-0.883C428.187,154.166,428.287,153.469,428.287,152.665z"/>
	</g>
</g>
<g>
	<g>
		<path fill="#EA5154" d="M737.438,67.156h-38.415c-0.219,0-0.837,0.002-1.495,0.005v-9.339c20.25-4.724,26.973-26.18,27.603-38.174
			c0.09-1.718-0.529-3.398-1.714-4.646c-1.185-1.249-2.83-1.955-4.55-1.955h-59.593c-1.721,0-3.365,0.706-4.55,1.955
			c-0.856,0.901-1.413,2.03-1.623,3.235c0,0,0-0.002,0-0.003h-26.479c-0.212-1.202-0.768-2.331-1.623-3.232
			c-1.186-1.249-2.83-1.955-4.551-1.955h-59.593c-1.72,0-3.365,0.706-4.549,1.955c-1.186,1.248-1.805,2.929-1.715,4.646
			c0.63,11.994,7.353,33.45,27.603,38.174v43.055c0,18.056,14.638,32.692,32.693,32.692h49.948c7.05,0,13.572-2.238,18.912-6.033
			c-0.008,0.005-0.015,0.011-0.022,0.017c0.001,0,0.002,0,0.003,0l58.97-41.57C757.849,75.583,755.492,67.156,737.438,67.156z
			 M716.913,21.12c-0.587,5.432-2.571,12.667-6.645,18.59c-5.086,7.395-12.021,10.99-21.199,10.99
			c-9.178,0-16.112-3.596-21.199-10.99c-4.072-5.923-6.056-13.158-6.645-18.59H716.913z M664.835,125.496h-49.948
			c-13.575,0-24.62-11.045-24.62-24.619V58.761c0.131,0.001,0.254,0.012,0.385,0.012c22.93,0,32.448-18.594,35.2-32.465h28.018
			c2.752,13.871,12.271,32.465,35.2,32.465c0.145,0,0.28-0.012,0.423-0.014c-0.012,0.001-0.024,0.002-0.038,0.002v42.115
			C689.454,114.451,678.411,125.496,664.835,125.496z"/>
		<path fill="#EA5154" d="M651.363,89.711h-23.006c-8.881,0-16.081,7.2-16.081,16.081s7.2,16.081,16.081,16.081h23.006
			c8.881,0,16.082-7.2,16.082-16.081S660.244,89.711,651.363,89.711z M647.542,99.45l-5.538,6.157
			c-0.547,0.608-1.326,0.955-2.144,0.955s-1.597-0.347-2.144-0.955l-5.538-6.157c-0.763-0.846-0.955-2.063-0.49-3.103
			c0.464-1.039,1.495-1.71,2.633-1.71h11.078c1.138,0,2.169,0.671,2.633,1.71C648.497,97.387,648.305,98.604,647.542,99.45z"/>
	</g>
	<g>
		<path fill="#EA5154" d="M594.736,154.683c0,1.254-0.232,2.148-0.696,2.682c-0.464,0.534-1.177,0.802-2.137,0.802
			c-0.959,0-1.663-0.244-2.111-0.731c-0.449-0.487-0.674-1.351-0.674-2.589v-9.796c0-0.943,0.256-1.644,0.767-2.101
			c0.511-0.456,1.185-0.685,2.019-0.685h4.133c1.006,0,1.934,0.135,2.785,0.405c0.852,0.272,1.591,0.651,2.218,1.139
			c0.626,0.487,1.113,1.098,1.462,1.834c0.349,0.734,0.522,1.552,0.522,2.448c0,1.1-0.317,2.055-0.951,2.867
			c-0.636,0.813-1.472,1.42-2.508,1.822c-1.037,0.402-2.205,0.603-3.505,0.603h-1.323V154.683z M597.661,147.766
			c0-0.571-0.055-1.025-0.163-1.357c-0.108-0.333-0.298-0.584-0.567-0.754c-0.272-0.171-0.566-0.282-0.883-0.337
			c-0.317-0.054-0.755-0.082-1.312-0.082v5.106c0.434,0,0.815-0.038,1.149-0.115c0.332-0.077,0.638-0.209,0.916-0.395
			c0.279-0.186,0.491-0.453,0.639-0.802C597.588,148.684,597.661,148.261,597.661,147.766z"/>
		<path fill="#EA5154" d="M610.707,158.305c-1.889,0-3.448-0.487-4.678-1.463c-1.23-0.975-1.846-2.306-1.846-3.992
			c0-1.825,0.607-3.269,1.822-4.33c1.215-1.06,2.782-1.589,4.701-1.589c1.811,0,3.136,0.32,3.98,0.963
			c0.843,0.643,1.265,1.521,1.265,2.635c0,0.218-0.026,0.426-0.081,0.627c-0.054,0.201-0.139,0.398-0.256,0.592
			c-0.115,0.193-0.271,0.371-0.464,0.534c-0.193,0.162-0.414,0.309-0.661,0.44c-0.248,0.132-0.542,0.232-0.883,0.302
			c-0.34,0.07-0.704,0.104-1.09,0.104l-3.274,0.022c0.155,0.496,0.435,0.887,0.837,1.174c0.401,0.286,0.912,0.429,1.531,0.429
			c0.666,0,1.347-0.085,2.043-0.255c0.294-0.077,0.616-0.201,0.963-0.371c0.349-0.17,0.601-0.256,0.755-0.256
			c0.264,0,0.469,0.077,0.615,0.232c0.147,0.154,0.221,0.348,0.221,0.579c0,0.279-0.124,0.616-0.371,1.01
			c-0.248,0.396-0.592,0.79-1.033,1.185s-1.025,0.731-1.753,1.01C612.323,158.167,611.542,158.305,610.707,158.305z
			 M609.128,151.667c1.068-0.016,1.647-0.023,1.741-0.023c0.231,0,0.402-0.139,0.511-0.418c0.077-0.2,0.116-0.479,0.116-0.836
			c0-0.975-0.295-1.462-0.883-1.462c-0.217,0-0.429,0.115-0.639,0.349c-0.209,0.232-0.391,0.561-0.544,0.986
			C609.275,150.688,609.175,151.156,609.128,151.667z"/>
		<path fill="#EA5154" d="M619.295,153.198v-2.738c-0.387-0.016-0.695-0.082-0.928-0.197c-0.232-0.116-0.398-0.267-0.499-0.453
			c-0.102-0.186-0.151-0.418-0.151-0.696c0-0.882,0.534-1.362,1.602-1.438v-2.16c0-0.587,0.426-1.118,1.276-1.59
			c0.852-0.471,1.694-0.708,2.53-0.708c0.511,0,0.844,0.148,0.998,0.44c0.155,0.295,0.232,0.736,0.232,1.324l0.023,2.67h0.627
			c0.851,0,1.436,0.111,1.753,0.337c0.316,0.224,0.476,0.631,0.476,1.218c0,0.248-0.047,0.456-0.139,0.627
			c-0.094,0.171-0.245,0.302-0.454,0.395c-0.209,0.092-0.46,0.159-0.754,0.197s-0.658,0.059-1.09,0.059h-0.419v2.553
			c0,0.248,0.012,0.453,0.035,0.615c0.022,0.163,0.058,0.29,0.104,0.383c0.046,0.094,0.112,0.155,0.197,0.186
			c0.085,0.031,0.188,0.047,0.313,0.047c0.186,0,0.339-0.065,0.464-0.197c0.124-0.132,0.221-0.278,0.291-0.441
			c0.068-0.162,0.162-0.31,0.278-0.441c0.115-0.13,0.251-0.196,0.405-0.196c0.355,0,0.631,0.085,0.824,0.255
			c0.194,0.17,0.291,0.379,0.291,0.627c0,0.418-0.082,0.867-0.244,1.346c-0.163,0.48-0.398,0.944-0.709,1.394
			c-0.309,0.449-0.739,0.819-1.288,1.113c-0.549,0.295-1.163,0.442-1.845,0.442c-1.532,0-2.616-0.388-3.25-1.162
			C619.612,156.232,619.295,154.962,619.295,153.198z"/>
		<path fill="#EA5154" d="M651.747,154.683c0,1.254-0.226,2.148-0.674,2.682c-0.449,0.534-1.13,0.802-2.043,0.802
			c-0.897,0-1.556-0.244-1.973-0.731c-0.418-0.487-0.627-1.351-0.627-2.589l-0.023-2.623h-4.735v2.46
			c0,1.271-0.217,2.168-0.649,2.693c-0.434,0.526-1.123,0.79-2.066,0.79c-0.897,0-1.555-0.244-1.974-0.731
			c-0.417-0.487-0.626-1.351-0.626-2.589l-0.07-9.796c0-0.959,0.244-1.663,0.731-2.112s1.133-0.673,1.938-0.673
			c0.929,0,1.613,0.17,2.055,0.511c0.44,0.34,0.661,1.029,0.661,2.066v3.899h4.713v-3.691c0-0.649,0.119-1.187,0.359-1.613
			c0.24-0.426,0.549-0.727,0.929-0.905c0.379-0.178,0.832-0.267,1.357-0.267c0.897,0,1.575,0.17,2.031,0.511
			c0.457,0.34,0.686,1.029,0.686,2.066V154.683z"/>
		<path fill="#EA5154" d="M660.521,158.305c-1.888,0-3.446-0.487-4.678-1.463c-1.23-0.975-1.845-2.306-1.845-3.992
			c0-1.825,0.606-3.269,1.821-4.33c1.215-1.06,2.782-1.589,4.701-1.589c1.811,0,3.138,0.32,3.981,0.963
			c0.843,0.643,1.266,1.521,1.266,2.635c0,0.218-0.028,0.426-0.082,0.627c-0.055,0.201-0.14,0.398-0.255,0.592
			c-0.117,0.193-0.271,0.371-0.465,0.534c-0.193,0.162-0.415,0.309-0.662,0.44s-0.541,0.232-0.881,0.302
			c-0.341,0.07-0.705,0.104-1.092,0.104l-3.272,0.022c0.153,0.496,0.433,0.887,0.836,1.174c0.402,0.286,0.913,0.429,1.532,0.429
			c0.664,0,1.346-0.085,2.042-0.255c0.294-0.077,0.615-0.201,0.964-0.371c0.347-0.17,0.599-0.256,0.754-0.256
			c0.263,0,0.468,0.077,0.614,0.232c0.147,0.154,0.222,0.348,0.222,0.579c0,0.279-0.125,0.616-0.372,1.01
			c-0.247,0.396-0.592,0.79-1.032,1.185c-0.441,0.395-1.025,0.731-1.753,1.01C662.138,158.167,661.356,158.305,660.521,158.305z
			 M658.941,151.667c1.068-0.016,1.649-0.023,1.741-0.023c0.233,0,0.402-0.139,0.511-0.418c0.078-0.2,0.116-0.479,0.116-0.836
			c0-0.975-0.294-1.462-0.883-1.462c-0.217,0-0.429,0.115-0.638,0.349c-0.208,0.232-0.39,0.561-0.545,0.986
			S658.988,151.156,658.941,151.667z"/>
		<path fill="#EA5154" d="M672.94,155.681c0,0.93-0.195,1.575-0.581,1.939c-0.387,0.363-1.076,0.546-2.065,0.546
			c-0.913,0-1.532-0.214-1.857-0.64c-0.326-0.425-0.488-1.125-0.488-2.101v-5.71c0-0.525,0.094-0.986,0.279-1.382
			c0.186-0.394,0.456-0.699,0.813-0.916c0.355-0.217,0.773-0.325,1.254-0.325c1.175,0,1.949,0.341,2.32,1.021
			c0.897-0.681,1.765-1.021,2.601-1.021c1.624,0,2.437,0.774,2.437,2.321c0,0.619-0.178,1.122-0.533,1.509
			c-0.356,0.387-0.82,0.581-1.393,0.581c-0.341,0-0.615-0.07-0.824-0.209c-0.209-0.14-0.402-0.279-0.581-0.419
			c-0.178-0.139-0.382-0.208-0.614-0.208c-0.342,0-0.597,0.116-0.766,0.348V155.681z"/>
		<path fill="#EA5154" d="M684.731,158.329c-1.207,0-2.295-0.217-3.262-0.65c-0.968-0.434-1.74-1.083-2.321-1.95
			c-0.58-0.866-0.871-1.88-0.871-3.041c0-1.764,0.604-3.164,1.812-4.2c1.206-1.037,2.754-1.556,4.643-1.556
			c1.888,0,3.428,0.519,4.619,1.556c1.191,1.036,1.787,2.437,1.787,4.2c0,1.749-0.607,3.126-1.822,4.133
			C688.101,157.826,686.572,158.329,684.731,158.329z M685.938,152.665c0-0.805-0.101-1.513-0.303-2.124
			c-0.2-0.612-0.495-0.917-0.881-0.917c-0.264,0-0.496,0.154-0.696,0.464c-0.202,0.31-0.349,0.688-0.442,1.138
			c-0.092,0.449-0.139,0.928-0.139,1.439c0,0.789,0.108,1.481,0.325,2.077c0.216,0.596,0.526,0.895,0.929,0.895
			s0.704-0.294,0.904-0.883C685.838,154.166,685.938,153.469,685.938,152.665z"/>
	</g>
</g>
<g>
	<g>
		<g>
			<path fill="#EA5154" d="M222.593,289.834h-38.415c-0.491,0-0.991,0.009-1.495,0.021v33.699c0,11.016-5.455,20.751-13.803,26.676
				c0.001,0,0.002,0,0.003,0l58.97-41.57C243.004,298.262,240.647,289.834,222.593,289.834z"/>
		</g>
	</g>
	<g>
		<path fill="#FFFFFF" d="M136.519,312.39h-23.006c-8.881,0-16.081,7.2-16.081,16.081s7.2,16.081,16.081,16.081h23.006
			c8.881,0,16.082-7.2,16.082-16.081S145.399,312.39,136.519,312.39z M132.697,322.128l-5.538,6.157
			c-0.547,0.608-1.326,0.955-2.144,0.955s-1.597-0.347-2.144-0.955l-5.538-6.157c-0.763-0.846-0.955-2.063-0.49-3.103
			c0.464-1.039,1.495-1.71,2.633-1.71h11.078c1.138,0,2.169,0.671,2.633,1.71C133.652,320.066,133.46,321.283,132.697,322.128z"/>
		<path fill="#FFFFFF" d="M208.571,237.68c-1.185-1.249-2.83-1.955-4.55-1.955h-59.593c-1.721,0-3.365,0.706-4.55,1.955
			c-0.856,0.901-1.413,2.03-1.623,3.235c0,0,0-0.002,0-0.003h-26.479c-0.212-1.202-0.768-2.331-1.623-3.232
			c-1.186-1.249-2.83-1.955-4.551-1.955H46.01c-1.72,0-3.365,0.706-4.549,1.955c-1.186,1.248-1.805,2.929-1.715,4.646
			c0.63,11.994,7.353,33.45,27.603,38.174v43.055c0,18.056,14.638,32.692,32.693,32.692h49.948
			c18.056,0,32.692-14.637,32.692-32.692V280.5c20.25-4.724,26.973-26.18,27.603-38.174
			C210.375,240.609,209.756,238.928,208.571,237.68z M138.17,241.619c0.001-0.008,0.002-0.014,0.002-0.021
			C138.172,241.605,138.171,241.611,138.17,241.619z M138.718,247.287c-0.01-0.055-0.019-0.109-0.027-0.165
			C138.699,247.177,138.708,247.232,138.718,247.287z M138.48,245.677c-0.013-0.097-0.026-0.195-0.038-0.292
			C138.454,245.482,138.468,245.581,138.48,245.677z M138.304,244.127c-0.011-0.115-0.024-0.229-0.034-0.342
			C138.279,243.898,138.293,244.014,138.304,244.127z M174.609,281.44v42.115c0,13.574-11.043,24.619-24.619,24.619h-49.948
			c-13.575,0-24.62-11.045-24.62-24.619V281.44c0.131,0.001,0.254,0.012,0.385,0.012c22.93,0,32.448-18.594,35.2-32.465h28.018
			c2.752,13.871,12.271,32.465,35.2,32.465c0.145,0,0.28-0.012,0.423-0.014C174.636,281.439,174.623,281.44,174.609,281.44z
			 M195.424,262.388c-5.086,7.395-12.021,10.99-21.199,10.99c-9.178,0-16.112-3.596-21.199-10.99
			c-4.072-5.923-6.056-13.158-6.645-18.59h55.688C201.481,249.23,199.497,256.465,195.424,262.388z"/>
	</g>
	<g>
		<path fill="#FFFFFF" d="M79.892,377.362c0,1.254-0.232,2.148-0.696,2.682c-0.464,0.534-1.177,0.802-2.137,0.802
			c-0.959,0-1.663-0.244-2.111-0.731c-0.449-0.487-0.674-1.351-0.674-2.589v-9.796c0-0.943,0.256-1.644,0.767-2.101
			c0.511-0.456,1.185-0.685,2.019-0.685h4.133c1.006,0,1.934,0.135,2.785,0.405c0.852,0.272,1.591,0.651,2.218,1.139
			c0.626,0.487,1.113,1.098,1.462,1.834c0.349,0.734,0.522,1.552,0.522,2.448c0,1.1-0.317,2.055-0.951,2.867
			c-0.636,0.813-1.472,1.42-2.508,1.822c-1.037,0.402-2.205,0.603-3.505,0.603h-1.323V377.362z M82.816,370.445
			c0-0.571-0.055-1.025-0.163-1.357c-0.108-0.333-0.298-0.584-0.567-0.754c-0.272-0.171-0.566-0.282-0.883-0.337
			c-0.317-0.054-0.755-0.082-1.312-0.082v5.106c0.434,0,0.815-0.038,1.149-0.115c0.332-0.077,0.638-0.209,0.916-0.395
			c0.279-0.186,0.491-0.453,0.639-0.802C82.743,371.363,82.816,370.94,82.816,370.445z"/>
		<path fill="#FFFFFF" d="M95.862,380.984c-1.889,0-3.448-0.487-4.678-1.463c-1.23-0.975-1.846-2.306-1.846-3.992
			c0-1.825,0.607-3.269,1.822-4.33c1.215-1.06,2.782-1.589,4.701-1.589c1.811,0,3.136,0.32,3.98,0.963
			c0.843,0.643,1.265,1.521,1.265,2.635c0,0.218-0.026,0.426-0.081,0.627c-0.054,0.201-0.139,0.398-0.256,0.592
			c-0.115,0.193-0.271,0.371-0.464,0.534c-0.193,0.162-0.414,0.309-0.661,0.44c-0.248,0.132-0.542,0.232-0.883,0.302
			c-0.34,0.07-0.704,0.104-1.09,0.104l-3.274,0.022c0.155,0.496,0.435,0.887,0.837,1.174c0.401,0.286,0.912,0.429,1.531,0.429
			c0.666,0,1.347-0.085,2.043-0.255c0.294-0.077,0.616-0.201,0.963-0.371c0.349-0.17,0.601-0.256,0.755-0.256
			c0.264,0,0.469,0.077,0.615,0.232c0.147,0.154,0.221,0.348,0.221,0.579c0,0.279-0.124,0.616-0.371,1.01
			c-0.248,0.396-0.592,0.79-1.033,1.185s-1.025,0.731-1.753,1.01C97.479,380.845,96.697,380.984,95.862,380.984z M94.283,374.345
			c1.068-0.016,1.647-0.023,1.741-0.023c0.231,0,0.402-0.139,0.511-0.418c0.077-0.2,0.116-0.479,0.116-0.836
			c0-0.975-0.295-1.462-0.883-1.462c-0.217,0-0.429,0.115-0.639,0.349c-0.209,0.232-0.391,0.561-0.544,0.986
			C94.431,373.367,94.33,373.834,94.283,374.345z"/>
		<path fill="#FFFFFF" d="M104.45,375.876v-2.738c-0.387-0.016-0.695-0.082-0.928-0.197c-0.232-0.116-0.398-0.267-0.499-0.453
			c-0.102-0.186-0.151-0.418-0.151-0.696c0-0.882,0.534-1.362,1.602-1.438v-2.16c0-0.587,0.426-1.118,1.276-1.59
			c0.852-0.471,1.694-0.708,2.53-0.708c0.511,0,0.844,0.148,0.998,0.44c0.155,0.295,0.232,0.736,0.232,1.324l0.023,2.67h0.627
			c0.851,0,1.436,0.111,1.753,0.337c0.316,0.224,0.476,0.631,0.476,1.218c0,0.248-0.047,0.456-0.139,0.627
			c-0.094,0.171-0.245,0.302-0.454,0.395c-0.209,0.092-0.46,0.159-0.754,0.197s-0.658,0.059-1.09,0.059h-0.419v2.553
			c0,0.248,0.012,0.453,0.035,0.615c0.022,0.163,0.058,0.29,0.104,0.383c0.046,0.094,0.112,0.155,0.197,0.186
			c0.085,0.031,0.188,0.047,0.313,0.047c0.186,0,0.339-0.065,0.464-0.197c0.124-0.132,0.221-0.278,0.291-0.441
			c0.068-0.162,0.162-0.31,0.278-0.441c0.115-0.13,0.251-0.196,0.405-0.196c0.355,0,0.631,0.085,0.824,0.255
			c0.194,0.17,0.291,0.379,0.291,0.627c0,0.418-0.082,0.867-0.244,1.346c-0.163,0.48-0.398,0.944-0.709,1.394
			c-0.309,0.449-0.739,0.819-1.288,1.113c-0.549,0.295-1.163,0.442-1.845,0.442c-1.532,0-2.616-0.388-3.25-1.162
			C104.768,378.911,104.45,377.641,104.45,375.876z"/>
		<path fill="#EA5154" d="M136.902,377.362c0,1.254-0.226,2.148-0.674,2.682c-0.449,0.534-1.13,0.802-2.043,0.802
			c-0.897,0-1.556-0.244-1.973-0.731c-0.418-0.487-0.627-1.351-0.627-2.589l-0.023-2.623h-4.735v2.46
			c0,1.271-0.217,2.168-0.649,2.693c-0.434,0.526-1.123,0.79-2.066,0.79c-0.897,0-1.555-0.244-1.974-0.731
			c-0.417-0.487-0.626-1.351-0.626-2.589l-0.07-9.796c0-0.959,0.244-1.663,0.731-2.112s1.133-0.673,1.938-0.673
			c0.929,0,1.613,0.17,2.055,0.511c0.44,0.34,0.661,1.029,0.661,2.066v3.899h4.713v-3.691c0-0.649,0.119-1.187,0.359-1.613
			c0.24-0.426,0.549-0.727,0.929-0.905c0.379-0.178,0.832-0.267,1.357-0.267c0.897,0,1.575,0.17,2.031,0.511
			c0.457,0.34,0.686,1.029,0.686,2.066V377.362z"/>
		<path fill="#EA5154" d="M145.676,380.984c-1.888,0-3.446-0.487-4.678-1.463c-1.23-0.975-1.845-2.306-1.845-3.992
			c0-1.825,0.606-3.269,1.821-4.33c1.215-1.06,2.782-1.589,4.701-1.589c1.811,0,3.138,0.32,3.981,0.963
			c0.843,0.643,1.266,1.521,1.266,2.635c0,0.218-0.028,0.426-0.082,0.627c-0.055,0.201-0.14,0.398-0.255,0.592
			c-0.117,0.193-0.271,0.371-0.465,0.534c-0.193,0.162-0.415,0.309-0.662,0.44s-0.541,0.232-0.881,0.302
			c-0.341,0.07-0.705,0.104-1.092,0.104l-3.272,0.022c0.153,0.496,0.433,0.887,0.836,1.174c0.402,0.286,0.913,0.429,1.532,0.429
			c0.664,0,1.346-0.085,2.042-0.255c0.294-0.077,0.615-0.201,0.964-0.371c0.347-0.17,0.599-0.256,0.754-0.256
			c0.263,0,0.468,0.077,0.614,0.232c0.147,0.154,0.222,0.348,0.222,0.579c0,0.279-0.125,0.616-0.372,1.01
			c-0.247,0.396-0.592,0.79-1.032,1.185c-0.441,0.395-1.025,0.731-1.753,1.01C147.293,380.845,146.512,380.984,145.676,380.984z
			 M144.097,374.345c1.068-0.016,1.649-0.023,1.741-0.023c0.233,0,0.402-0.139,0.511-0.418c0.078-0.2,0.116-0.479,0.116-0.836
			c0-0.975-0.294-1.462-0.883-1.462c-0.217,0-0.429,0.115-0.638,0.349c-0.208,0.232-0.39,0.561-0.545,0.986
			S144.144,373.834,144.097,374.345z"/>
		<path fill="#EA5154" d="M158.096,378.36c0,0.93-0.195,1.575-0.581,1.939c-0.387,0.363-1.076,0.546-2.065,0.546
			c-0.913,0-1.532-0.214-1.857-0.64c-0.326-0.425-0.488-1.125-0.488-2.101v-5.71c0-0.525,0.094-0.986,0.279-1.382
			c0.186-0.394,0.456-0.699,0.813-0.916c0.355-0.217,0.773-0.325,1.254-0.325c1.175,0,1.949,0.341,2.32,1.021
			c0.897-0.681,1.765-1.021,2.601-1.021c1.624,0,2.437,0.774,2.437,2.321c0,0.619-0.178,1.122-0.533,1.509
			c-0.356,0.387-0.82,0.581-1.393,0.581c-0.341,0-0.615-0.07-0.824-0.209c-0.209-0.14-0.402-0.279-0.581-0.419
			c-0.178-0.139-0.382-0.208-0.614-0.208c-0.342,0-0.597,0.116-0.766,0.348V378.36z"/>
		<path fill="#EA5154" d="M169.887,381.007c-1.207,0-2.295-0.217-3.262-0.65c-0.968-0.434-1.74-1.083-2.321-1.95
			c-0.58-0.866-0.871-1.88-0.871-3.041c0-1.764,0.604-3.164,1.812-4.2c1.206-1.037,2.754-1.556,4.643-1.556
			c1.888,0,3.428,0.519,4.619,1.556c1.191,1.036,1.787,2.437,1.787,4.2c0,1.749-0.607,3.126-1.822,4.133
			C173.256,380.504,171.728,381.007,169.887,381.007z M171.094,375.343c0-0.805-0.101-1.513-0.303-2.124
			c-0.2-0.612-0.495-0.917-0.881-0.917c-0.264,0-0.496,0.154-0.696,0.464c-0.202,0.31-0.349,0.688-0.442,1.138
			c-0.092,0.449-0.139,0.928-0.139,1.439c0,0.789,0.108,1.481,0.325,2.077c0.216,0.596,0.526,0.895,0.929,0.895
			s0.704-0.294,0.904-0.883C170.993,376.844,171.094,376.148,171.094,375.343z"/>
	</g>
</g>
<g>
	<g>
		<path fill="#FFFFFF" d="M479.786,289.834h-38.415c-0.219,0-0.837,0.002-1.495,0.005V280.5c20.25-4.724,26.973-26.18,27.603-38.174
			c0.09-1.718-0.529-3.398-1.714-4.646c-1.185-1.249-2.83-1.955-4.55-1.955h-59.593c-1.721,0-3.365,0.706-4.55,1.955
			c-0.856,0.901-1.413,2.03-1.623,3.235c0,0,0-0.002,0-0.003H368.97c-0.212-1.202-0.768-2.331-1.623-3.232
			c-1.186-1.249-2.83-1.955-4.551-1.955h-59.593c-1.72,0-3.365,0.706-4.549,1.955c-1.186,1.248-1.805,2.929-1.715,4.646
			c0.63,11.994,7.353,33.45,27.603,38.174v43.055c0,18.056,14.638,32.692,32.693,32.692h49.948c7.05,0,13.572-2.238,18.912-6.033
			c-0.008,0.005-0.015,0.011-0.022,0.017c0.001,0,0.002,0,0.003,0l58.97-41.57C500.197,298.262,497.841,289.834,479.786,289.834z
			 M459.262,243.798c-0.587,5.432-2.571,12.667-6.645,18.59c-5.086,7.395-12.021,10.99-21.199,10.99
			c-9.178,0-16.112-3.596-21.199-10.99c-4.072-5.923-6.056-13.158-6.645-18.59H459.262z M407.184,348.174h-49.948
			c-13.575,0-24.62-11.045-24.62-24.619V281.44c0.131,0.001,0.254,0.012,0.385,0.012c22.93,0,32.448-18.594,35.2-32.465h28.018
			c2.752,13.871,12.271,32.465,35.2,32.465c0.145,0,0.28-0.012,0.423-0.014c-0.012,0.001-0.024,0.002-0.038,0.002v42.115
			C431.803,337.129,420.76,348.174,407.184,348.174z"/>
		<path fill="#FFFFFF" d="M393.712,312.39h-23.006c-8.881,0-16.081,7.2-16.081,16.081s7.2,16.081,16.081,16.081h23.006
			c8.881,0,16.082-7.2,16.082-16.081S402.593,312.39,393.712,312.39z M389.891,322.128l-5.538,6.157
			c-0.547,0.608-1.326,0.955-2.144,0.955s-1.597-0.347-2.144-0.955l-5.538-6.157c-0.763-0.846-0.955-2.063-0.49-3.103
			c0.464-1.039,1.495-1.71,2.633-1.71h11.078c1.138,0,2.169,0.671,2.633,1.71C390.846,320.066,390.653,321.283,389.891,322.128z"/>
	</g>
	<g>
		<path fill="#FFFFFF" d="M330.708,377.362c0,1.254-0.232,2.148-0.696,2.682c-0.464,0.534-1.177,0.802-2.137,0.802
			c-0.959,0-1.663-0.244-2.111-0.731c-0.449-0.487-0.674-1.351-0.674-2.589v-9.796c0-0.943,0.256-1.644,0.767-2.101
			c0.511-0.456,1.185-0.685,2.019-0.685h4.133c1.006,0,1.934,0.135,2.785,0.405c0.852,0.272,1.591,0.651,2.218,1.139
			c0.626,0.487,1.113,1.098,1.462,1.834c0.349,0.734,0.522,1.552,0.522,2.448c0,1.1-0.317,2.055-0.951,2.867
			c-0.636,0.813-1.472,1.42-2.508,1.822c-1.037,0.402-2.205,0.603-3.505,0.603h-1.323V377.362z M333.633,370.445
			c0-0.571-0.055-1.025-0.163-1.357c-0.108-0.333-0.298-0.584-0.567-0.754c-0.272-0.171-0.566-0.282-0.883-0.337
			c-0.317-0.054-0.755-0.082-1.312-0.082v5.106c0.434,0,0.815-0.038,1.149-0.115c0.332-0.077,0.638-0.209,0.916-0.395
			c0.279-0.186,0.491-0.453,0.639-0.802C333.56,371.363,333.633,370.94,333.633,370.445z"/>
		<path fill="#FFFFFF" d="M346.679,380.984c-1.889,0-3.448-0.487-4.678-1.463c-1.23-0.975-1.846-2.306-1.846-3.992
			c0-1.825,0.607-3.269,1.822-4.33c1.215-1.06,2.782-1.589,4.701-1.589c1.811,0,3.136,0.32,3.98,0.963
			c0.843,0.643,1.265,1.521,1.265,2.635c0,0.218-0.026,0.426-0.081,0.627c-0.054,0.201-0.139,0.398-0.256,0.592
			c-0.115,0.193-0.271,0.371-0.464,0.534c-0.193,0.162-0.414,0.309-0.661,0.44c-0.248,0.132-0.542,0.232-0.883,0.302
			c-0.34,0.07-0.704,0.104-1.09,0.104l-3.274,0.022c0.155,0.496,0.435,0.887,0.837,1.174c0.401,0.286,0.912,0.429,1.531,0.429
			c0.666,0,1.347-0.085,2.043-0.255c0.294-0.077,0.616-0.201,0.963-0.371c0.349-0.17,0.601-0.256,0.755-0.256
			c0.264,0,0.469,0.077,0.615,0.232c0.147,0.154,0.221,0.348,0.221,0.579c0,0.279-0.124,0.616-0.371,1.01
			c-0.248,0.396-0.592,0.79-1.033,1.185s-1.025,0.731-1.753,1.01C348.295,380.845,347.514,380.984,346.679,380.984z M345.1,374.345
			c1.068-0.016,1.647-0.023,1.741-0.023c0.231,0,0.402-0.139,0.511-0.418c0.077-0.2,0.116-0.479,0.116-0.836
			c0-0.975-0.295-1.462-0.883-1.462c-0.217,0-0.429,0.115-0.639,0.349c-0.209,0.232-0.391,0.561-0.544,0.986
			C345.247,373.367,345.146,373.834,345.1,374.345z"/>
		<path fill="#FFFFFF" d="M355.267,375.876v-2.738c-0.387-0.016-0.695-0.082-0.928-0.197c-0.232-0.116-0.398-0.267-0.499-0.453
			c-0.102-0.186-0.151-0.418-0.151-0.696c0-0.882,0.534-1.362,1.602-1.438v-2.16c0-0.587,0.426-1.118,1.276-1.59
			c0.852-0.471,1.694-0.708,2.53-0.708c0.511,0,0.844,0.148,0.998,0.44c0.155,0.295,0.232,0.736,0.232,1.324l0.023,2.67h0.627
			c0.851,0,1.436,0.111,1.753,0.337c0.316,0.224,0.476,0.631,0.476,1.218c0,0.248-0.047,0.456-0.139,0.627
			c-0.094,0.171-0.245,0.302-0.454,0.395c-0.209,0.092-0.46,0.159-0.754,0.197s-0.658,0.059-1.09,0.059h-0.419v2.553
			c0,0.248,0.012,0.453,0.035,0.615c0.022,0.163,0.058,0.29,0.104,0.383c0.046,0.094,0.112,0.155,0.197,0.186
			c0.085,0.031,0.188,0.047,0.313,0.047c0.186,0,0.339-0.065,0.464-0.197c0.124-0.132,0.221-0.278,0.291-0.441
			c0.068-0.162,0.162-0.31,0.278-0.441c0.115-0.13,0.251-0.196,0.405-0.196c0.355,0,0.631,0.085,0.824,0.255
			c0.194,0.17,0.291,0.379,0.291,0.627c0,0.418-0.082,0.867-0.244,1.346c-0.163,0.48-0.398,0.944-0.709,1.394
			c-0.309,0.449-0.739,0.819-1.288,1.113c-0.549,0.295-1.163,0.442-1.845,0.442c-1.532,0-2.616-0.388-3.25-1.162
			C355.584,378.911,355.267,377.641,355.267,375.876z"/>
		<path fill="#FFFFFF" d="M387.719,377.362c0,1.254-0.226,2.148-0.674,2.682c-0.449,0.534-1.13,0.802-2.043,0.802
			c-0.897,0-1.556-0.244-1.973-0.731c-0.418-0.487-0.627-1.351-0.627-2.589l-0.023-2.623h-4.735v2.46
			c0,1.271-0.217,2.168-0.649,2.693c-0.434,0.526-1.123,0.79-2.066,0.79c-0.897,0-1.555-0.244-1.974-0.731
			c-0.417-0.487-0.626-1.351-0.626-2.589l-0.07-9.796c0-0.959,0.244-1.663,0.731-2.112s1.133-0.673,1.938-0.673
			c0.929,0,1.613,0.17,2.055,0.511c0.44,0.34,0.661,1.029,0.661,2.066v3.899h4.713v-3.691c0-0.649,0.119-1.187,0.359-1.613
			c0.24-0.426,0.549-0.727,0.929-0.905c0.379-0.178,0.832-0.267,1.357-0.267c0.897,0,1.575,0.17,2.031,0.511
			c0.457,0.34,0.686,1.029,0.686,2.066V377.362z"/>
		<path fill="#FFFFFF" d="M396.492,380.984c-1.888,0-3.446-0.487-4.678-1.463c-1.23-0.975-1.845-2.306-1.845-3.992
			c0-1.825,0.606-3.269,1.821-4.33c1.215-1.06,2.782-1.589,4.701-1.589c1.811,0,3.138,0.32,3.981,0.963
			c0.843,0.643,1.266,1.521,1.266,2.635c0,0.218-0.028,0.426-0.082,0.627c-0.055,0.201-0.14,0.398-0.255,0.592
			c-0.117,0.193-0.271,0.371-0.465,0.534c-0.193,0.162-0.415,0.309-0.662,0.44s-0.541,0.232-0.881,0.302
			c-0.341,0.07-0.705,0.104-1.092,0.104l-3.272,0.022c0.153,0.496,0.433,0.887,0.836,1.174c0.402,0.286,0.913,0.429,1.532,0.429
			c0.664,0,1.346-0.085,2.042-0.255c0.294-0.077,0.615-0.201,0.964-0.371c0.347-0.17,0.599-0.256,0.754-0.256
			c0.263,0,0.468,0.077,0.614,0.232c0.147,0.154,0.222,0.348,0.222,0.579c0,0.279-0.125,0.616-0.372,1.01
			c-0.247,0.396-0.592,0.79-1.032,1.185c-0.441,0.395-1.025,0.731-1.753,1.01C398.109,380.845,397.328,380.984,396.492,380.984z
			 M394.913,374.345c1.068-0.016,1.649-0.023,1.741-0.023c0.233,0,0.402-0.139,0.511-0.418c0.078-0.2,0.116-0.479,0.116-0.836
			c0-0.975-0.294-1.462-0.883-1.462c-0.217,0-0.429,0.115-0.638,0.349c-0.208,0.232-0.39,0.561-0.545,0.986
			S394.96,373.834,394.913,374.345z"/>
		<path fill="#FFFFFF" d="M408.912,378.36c0,0.93-0.195,1.575-0.581,1.939c-0.387,0.363-1.076,0.546-2.065,0.546
			c-0.913,0-1.532-0.214-1.857-0.64c-0.326-0.425-0.488-1.125-0.488-2.101v-5.71c0-0.525,0.094-0.986,0.279-1.382
			c0.186-0.394,0.456-0.699,0.813-0.916c0.355-0.217,0.773-0.325,1.254-0.325c1.175,0,1.949,0.341,2.32,1.021
			c0.897-0.681,1.765-1.021,2.601-1.021c1.624,0,2.437,0.774,2.437,2.321c0,0.619-0.178,1.122-0.533,1.509
			c-0.356,0.387-0.82,0.581-1.393,0.581c-0.341,0-0.615-0.07-0.824-0.209c-0.209-0.14-0.402-0.279-0.581-0.419
			c-0.178-0.139-0.382-0.208-0.614-0.208c-0.342,0-0.597,0.116-0.766,0.348V378.36z"/>
		<path fill="#FFFFFF" d="M420.703,381.007c-1.207,0-2.295-0.217-3.262-0.65c-0.968-0.434-1.74-1.083-2.321-1.95
			c-0.58-0.866-0.871-1.88-0.871-3.041c0-1.764,0.604-3.164,1.812-4.2c1.206-1.037,2.754-1.556,4.643-1.556
			c1.888,0,3.428,0.519,4.619,1.556c1.191,1.036,1.787,2.437,1.787,4.2c0,1.749-0.607,3.126-1.822,4.133
			C424.072,380.504,422.544,381.007,420.703,381.007z M421.91,375.343c0-0.805-0.101-1.513-0.303-2.124
			c-0.2-0.612-0.495-0.917-0.881-0.917c-0.264,0-0.496,0.154-0.696,0.464c-0.202,0.31-0.349,0.688-0.442,1.138
			c-0.092,0.449-0.139,0.928-0.139,1.439c0,0.789,0.108,1.481,0.325,2.077c0.216,0.596,0.526,0.895,0.929,0.895
			s0.704-0.294,0.904-0.883C421.81,376.844,421.91,376.148,421.91,375.343z"/>
	</g>
</g>
<g>
	<g>
		<path fill="#FFFFFF" d="M737.438,289.834h-38.415c-0.219,0-0.837,0.002-1.495,0.005V280.5c20.25-4.724,26.973-26.18,27.603-38.174
			c0.09-1.718-0.529-3.398-1.714-4.646c-1.185-1.249-2.83-1.955-4.55-1.955h-59.593c-1.721,0-3.365,0.706-4.55,1.955
			c-0.856,0.901-1.413,2.03-1.623,3.235c0,0,0-0.002,0-0.003h-26.479c-0.212-1.202-0.768-2.331-1.623-3.232
			c-1.186-1.249-2.83-1.955-4.551-1.955h-59.593c-1.72,0-3.365,0.706-4.549,1.955c-1.186,1.248-1.805,2.929-1.715,4.646
			c0.63,11.994,7.353,33.45,27.603,38.174v43.055c0,18.056,14.638,32.692,32.693,32.692h49.948c7.05,0,13.572-2.238,18.912-6.033
			c-0.008,0.005-0.015,0.011-0.022,0.017c0.001,0,0.002,0,0.003,0l58.97-41.57C757.849,298.262,755.492,289.834,737.438,289.834z
			 M716.913,243.798c-0.587,5.432-2.571,12.667-6.645,18.59c-5.086,7.395-12.021,10.99-21.199,10.99
			c-9.178,0-16.112-3.596-21.199-10.99c-4.072-5.923-6.056-13.158-6.645-18.59H716.913z M664.835,348.174h-49.948
			c-13.575,0-24.62-11.045-24.62-24.619V281.44c0.131,0.001,0.254,0.012,0.385,0.012c22.93,0,32.448-18.594,35.2-32.465h28.018
			c2.752,13.871,12.271,32.465,35.2,32.465c0.145,0,0.28-0.012,0.423-0.014c-0.012,0.001-0.024,0.002-0.038,0.002v42.115
			C689.454,337.129,678.411,348.174,664.835,348.174z"/>
		<path fill="#FFFFFF" d="M651.363,312.39h-23.006c-8.881,0-16.081,7.2-16.081,16.081s7.2,16.081,16.081,16.081h23.006
			c8.881,0,16.082-7.2,16.082-16.081S660.244,312.39,651.363,312.39z M647.542,322.128l-5.538,6.157
			c-0.547,0.608-1.326,0.955-2.144,0.955s-1.597-0.347-2.144-0.955l-5.538-6.157c-0.763-0.846-0.955-2.063-0.49-3.103
			c0.464-1.039,1.495-1.71,2.633-1.71h11.078c1.138,0,2.169,0.671,2.633,1.71C648.497,320.066,648.305,321.283,647.542,322.128z"/>
	</g>
	<g>
		<path fill="#FFFFFF" d="M594.736,377.362c0,1.254-0.232,2.148-0.696,2.682c-0.464,0.534-1.177,0.802-2.137,0.802
			c-0.959,0-1.663-0.244-2.111-0.731c-0.449-0.487-0.674-1.351-0.674-2.589v-9.796c0-0.943,0.256-1.644,0.767-2.101
			c0.511-0.456,1.185-0.685,2.019-0.685h4.133c1.006,0,1.934,0.135,2.785,0.405c0.852,0.272,1.591,0.651,2.218,1.139
			c0.626,0.487,1.113,1.098,1.462,1.834c0.349,0.734,0.522,1.552,0.522,2.448c0,1.1-0.317,2.055-0.951,2.867
			c-0.636,0.813-1.472,1.42-2.508,1.822c-1.037,0.402-2.205,0.603-3.505,0.603h-1.323V377.362z M597.661,370.445
			c0-0.571-0.055-1.025-0.163-1.357c-0.108-0.333-0.298-0.584-0.567-0.754c-0.272-0.171-0.566-0.282-0.883-0.337
			c-0.317-0.054-0.755-0.082-1.312-0.082v5.106c0.434,0,0.815-0.038,1.149-0.115c0.332-0.077,0.638-0.209,0.916-0.395
			c0.279-0.186,0.491-0.453,0.639-0.802C597.588,371.363,597.661,370.94,597.661,370.445z"/>
		<path fill="#FFFFFF" d="M610.707,380.984c-1.889,0-3.448-0.487-4.678-1.463c-1.23-0.975-1.846-2.306-1.846-3.992
			c0-1.825,0.607-3.269,1.822-4.33c1.215-1.06,2.782-1.589,4.701-1.589c1.811,0,3.136,0.32,3.98,0.963
			c0.843,0.643,1.265,1.521,1.265,2.635c0,0.218-0.026,0.426-0.081,0.627c-0.054,0.201-0.139,0.398-0.256,0.592
			c-0.115,0.193-0.271,0.371-0.464,0.534c-0.193,0.162-0.414,0.309-0.661,0.44c-0.248,0.132-0.542,0.232-0.883,0.302
			c-0.34,0.07-0.704,0.104-1.09,0.104l-3.274,0.022c0.155,0.496,0.435,0.887,0.837,1.174c0.401,0.286,0.912,0.429,1.531,0.429
			c0.666,0,1.347-0.085,2.043-0.255c0.294-0.077,0.616-0.201,0.963-0.371c0.349-0.17,0.601-0.256,0.755-0.256
			c0.264,0,0.469,0.077,0.615,0.232c0.147,0.154,0.221,0.348,0.221,0.579c0,0.279-0.124,0.616-0.371,1.01
			c-0.248,0.396-0.592,0.79-1.033,1.185s-1.025,0.731-1.753,1.01C612.323,380.845,611.542,380.984,610.707,380.984z
			 M609.128,374.345c1.068-0.016,1.647-0.023,1.741-0.023c0.231,0,0.402-0.139,0.511-0.418c0.077-0.2,0.116-0.479,0.116-0.836
			c0-0.975-0.295-1.462-0.883-1.462c-0.217,0-0.429,0.115-0.639,0.349c-0.209,0.232-0.391,0.561-0.544,0.986
			C609.275,373.367,609.175,373.834,609.128,374.345z"/>
		<path fill="#FFFFFF" d="M619.295,375.876v-2.738c-0.387-0.016-0.695-0.082-0.928-0.197c-0.232-0.116-0.398-0.267-0.499-0.453
			c-0.102-0.186-0.151-0.418-0.151-0.696c0-0.882,0.534-1.362,1.602-1.438v-2.16c0-0.587,0.426-1.118,1.276-1.59
			c0.852-0.471,1.694-0.708,2.53-0.708c0.511,0,0.844,0.148,0.998,0.44c0.155,0.295,0.232,0.736,0.232,1.324l0.023,2.67h0.627
			c0.851,0,1.436,0.111,1.753,0.337c0.316,0.224,0.476,0.631,0.476,1.218c0,0.248-0.047,0.456-0.139,0.627
			c-0.094,0.171-0.245,0.302-0.454,0.395c-0.209,0.092-0.46,0.159-0.754,0.197s-0.658,0.059-1.09,0.059h-0.419v2.553
			c0,0.248,0.012,0.453,0.035,0.615c0.022,0.163,0.058,0.29,0.104,0.383c0.046,0.094,0.112,0.155,0.197,0.186
			c0.085,0.031,0.188,0.047,0.313,0.047c0.186,0,0.339-0.065,0.464-0.197c0.124-0.132,0.221-0.278,0.291-0.441
			c0.068-0.162,0.162-0.31,0.278-0.441c0.115-0.13,0.251-0.196,0.405-0.196c0.355,0,0.631,0.085,0.824,0.255
			c0.194,0.17,0.291,0.379,0.291,0.627c0,0.418-0.082,0.867-0.244,1.346c-0.163,0.48-0.398,0.944-0.709,1.394
			c-0.309,0.449-0.739,0.819-1.288,1.113c-0.549,0.295-1.163,0.442-1.845,0.442c-1.532,0-2.616-0.388-3.25-1.162
			C619.612,378.911,619.295,377.641,619.295,375.876z"/>
		<path fill="#FFFFFF" d="M651.747,377.362c0,1.254-0.226,2.148-0.674,2.682c-0.449,0.534-1.13,0.802-2.043,0.802
			c-0.897,0-1.556-0.244-1.973-0.731c-0.418-0.487-0.627-1.351-0.627-2.589l-0.023-2.623h-4.735v2.46
			c0,1.271-0.217,2.168-0.649,2.693c-0.434,0.526-1.123,0.79-2.066,0.79c-0.897,0-1.555-0.244-1.974-0.731
			c-0.417-0.487-0.626-1.351-0.626-2.589l-0.07-9.796c0-0.959,0.244-1.663,0.731-2.112s1.133-0.673,1.938-0.673
			c0.929,0,1.613,0.17,2.055,0.511c0.44,0.34,0.661,1.029,0.661,2.066v3.899h4.713v-3.691c0-0.649,0.119-1.187,0.359-1.613
			c0.24-0.426,0.549-0.727,0.929-0.905c0.379-0.178,0.832-0.267,1.357-0.267c0.897,0,1.575,0.17,2.031,0.511
			c0.457,0.34,0.686,1.029,0.686,2.066V377.362z"/>
		<path fill="#FFFFFF" d="M660.521,380.984c-1.888,0-3.446-0.487-4.678-1.463c-1.23-0.975-1.845-2.306-1.845-3.992
			c0-1.825,0.606-3.269,1.821-4.33c1.215-1.06,2.782-1.589,4.701-1.589c1.811,0,3.138,0.32,3.981,0.963
			c0.843,0.643,1.266,1.521,1.266,2.635c0,0.218-0.028,0.426-0.082,0.627c-0.055,0.201-0.14,0.398-0.255,0.592
			c-0.117,0.193-0.271,0.371-0.465,0.534c-0.193,0.162-0.415,0.309-0.662,0.44s-0.541,0.232-0.881,0.302
			c-0.341,0.07-0.705,0.104-1.092,0.104l-3.272,0.022c0.153,0.496,0.433,0.887,0.836,1.174c0.402,0.286,0.913,0.429,1.532,0.429
			c0.664,0,1.346-0.085,2.042-0.255c0.294-0.077,0.615-0.201,0.964-0.371c0.347-0.17,0.599-0.256,0.754-0.256
			c0.263,0,0.468,0.077,0.614,0.232c0.147,0.154,0.222,0.348,0.222,0.579c0,0.279-0.125,0.616-0.372,1.01
			c-0.247,0.396-0.592,0.79-1.032,1.185c-0.441,0.395-1.025,0.731-1.753,1.01C662.138,380.845,661.356,380.984,660.521,380.984z
			 M658.941,374.345c1.068-0.016,1.649-0.023,1.741-0.023c0.233,0,0.402-0.139,0.511-0.418c0.078-0.2,0.116-0.479,0.116-0.836
			c0-0.975-0.294-1.462-0.883-1.462c-0.217,0-0.429,0.115-0.638,0.349c-0.208,0.232-0.39,0.561-0.545,0.986
			S658.988,373.834,658.941,374.345z"/>
		<path fill="#FFFFFF" d="M672.94,378.36c0,0.93-0.195,1.575-0.581,1.939c-0.387,0.363-1.076,0.546-2.065,0.546
			c-0.913,0-1.532-0.214-1.857-0.64c-0.326-0.425-0.488-1.125-0.488-2.101v-5.71c0-0.525,0.094-0.986,0.279-1.382
			c0.186-0.394,0.456-0.699,0.813-0.916c0.355-0.217,0.773-0.325,1.254-0.325c1.175,0,1.949,0.341,2.32,1.021
			c0.897-0.681,1.765-1.021,2.601-1.021c1.624,0,2.437,0.774,2.437,2.321c0,0.619-0.178,1.122-0.533,1.509
			c-0.356,0.387-0.82,0.581-1.393,0.581c-0.341,0-0.615-0.07-0.824-0.209c-0.209-0.14-0.402-0.279-0.581-0.419
			c-0.178-0.139-0.382-0.208-0.614-0.208c-0.342,0-0.597,0.116-0.766,0.348V378.36z"/>
		<path fill="#FFFFFF" d="M684.731,381.007c-1.207,0-2.295-0.217-3.262-0.65c-0.968-0.434-1.74-1.083-2.321-1.95
			c-0.58-0.866-0.871-1.88-0.871-3.041c0-1.764,0.604-3.164,1.812-4.2c1.206-1.037,2.754-1.556,4.643-1.556
			c1.888,0,3.428,0.519,4.619,1.556c1.191,1.036,1.787,2.437,1.787,4.2c0,1.749-0.607,3.126-1.822,4.133
			C688.101,380.504,686.572,381.007,684.731,381.007z M685.938,375.343c0-0.805-0.101-1.513-0.303-2.124
			c-0.2-0.612-0.495-0.917-0.881-0.917c-0.264,0-0.496,0.154-0.696,0.464c-0.202,0.31-0.349,0.688-0.442,1.138
			c-0.092,0.449-0.139,0.928-0.139,1.439c0,0.789,0.108,1.481,0.325,2.077c0.216,0.596,0.526,0.895,0.929,0.895
			s0.704-0.294,0.904-0.883C685.838,376.844,685.938,376.148,685.938,375.343z"/>
	</g>
</g>
</svg>
