<?xml version="1.0" encoding="utf-8"?>
<!-- Generator: Adobe Illustrator 16.0.0, SVG Export Plug-In . SVG Version: 6.00 Build 0)  -->
<!DOCTYPE svg PUBLIC "-//W3C//DTD SVG 1.1//EN" "http://www.w3.org/Graphics/SVG/1.1/DTD/svg11.dtd">
<svg version="1.1" id="Capa_1" xmlns="http://www.w3.org/2000/svg" xmlns:xlink="http://www.w3.org/1999/xlink" x="0px" y="0px"
	 width="848.958px" height="572.972px" viewBox="0 0 848.958 572.972" enable-background="new 0 0 848.958 572.972"
	 xml:space="preserve">
<circle fill="#E3E2E1" cx="131.429" cy="144.85" r="119.333"/>
<circle fill="#FAFAFA" cx="427.337" cy="144.85" r="119.333"/>
<circle fill="#E3E2E1" cx="135.336" cy="422.851" r="119.333"/>
<circle fill="#494748" cx="442.458" cy="422.851" r="119.333"/>
<circle fill="#177CB0" cx="716.353" cy="422.851" r="119.333"/>
<circle fill="#FAFAFA" cx="716.353" cy="144.85" r="119.333"/>
<polygon fill="#85C0EA" points="165.581,219.844 127.522,219.844 53.026,98.928 91.085,98.928 "/>
<polygon fill="#373737" points="127.522,98.928 127.522,158.071 165.581,219.844 165.581,98.928 "/>
<polygon fill="#373737" points="53.026,98.928 53.026,219.844 91.085,219.844 91.085,160.702 "/>
<g>
	<polygon fill="#85C0EA" points="165.581,98.928 205.213,69.856 165.581,219.844 	"/>
</g>
<g>
	<polygon fill="#C0DEF5" points="165.581,98.928 205.213,69.856 127.522,98.928 	"/>
</g>
<g>
	<path fill="#373737" d="M188.991,107.016h-16.143c-0.551,0-0.994,0.444-0.994,0.991v3.988c0,0.547,0.443,0.989,0.994,0.989h4.65
		v16.029c0,0.545,0.441,0.99,0.99,0.99h4.768c0.545,0,0.99-0.445,0.99-0.99v-16.029h4.744c0.547,0,0.992-0.442,0.992-0.989v-3.988
		C189.983,107.46,189.538,107.016,188.991,107.016z"/>
	<path fill="#373737" d="M208.309,107.016h-4.74c-0.549,0-0.992,0.444-0.992,0.991v7.082h-5.842v-7.082
		c0-0.547-0.445-0.991-0.986-0.991h-4.773c-0.545,0-0.992,0.444-0.992,0.991v21.007c0,0.545,0.447,0.99,0.992,0.99h4.773
		c0.541,0,0.986-0.445,0.986-0.99v-7.802h5.842v7.802c0,0.545,0.443,0.99,0.992,0.99h4.74c0.545,0,0.984-0.445,0.984-0.99v-21.007
		C209.293,107.46,208.854,107.016,208.309,107.016z"/>
	<rect x="183.906" y="107.016" fill="#373737" width="10.281" height="5.98"/>
	<rect x="193.072" y="111.167" fill="#373737" width="0.016" height="0.493"/>
</g>
<path fill="#85C0EA" d="M385.876,100.928l72.031,116.916h-33.36l-72.031-116.916H385.876 M386.993,98.928h-38.059l74.496,120.916
	h38.059L386.993,98.928L386.993,98.928z"/>
<polygon fill="#373737" points="423.43,98.928 423.43,158.071 461.488,219.844 461.488,98.928 "/>
<polygon fill="#373737" points="348.934,98.928 348.934,219.844 386.993,219.844 386.993,160.702 "/>
<path fill="#85C0EA" d="M497.742,74.815l-34.254,129.632V99.941L497.742,74.815 M501.121,69.856l-39.633,29.072v120.916
	L501.121,69.856L501.121,69.856z"/>
<path fill="#C0DEF5" d="M488.275,76.798l-27.442,20.13h-26.352L488.275,76.798 M501.121,69.856L423.43,98.928h38.059L501.121,69.856
	L501.121,69.856z"/>
<g>
	<path fill="#373737" d="M484.898,107.016h-16.143c-0.551,0-0.994,0.444-0.994,0.991v3.988c0,0.547,0.443,0.989,0.994,0.989h4.65
		v16.029c0,0.545,0.441,0.99,0.99,0.99h4.768c0.545,0,0.99-0.445,0.99-0.99v-16.029h4.744c0.547,0,0.992-0.442,0.992-0.989v-3.988
		C485.891,107.46,485.445,107.016,484.898,107.016z"/>
	<path fill="#373737" d="M504.217,107.016h-4.74c-0.549,0-0.992,0.444-0.992,0.991v7.082h-5.842v-7.082
		c0-0.547-0.445-0.991-0.986-0.991h-4.773c-0.545,0-0.992,0.444-0.992,0.991v21.007c0,0.545,0.447,0.99,0.992,0.99h4.773
		c0.541,0,0.986-0.445,0.986-0.99v-7.802h5.842v7.802c0,0.545,0.443,0.99,0.992,0.99h4.74c0.545,0,0.984-0.445,0.984-0.99v-21.007
		C505.201,107.46,504.762,107.016,504.217,107.016z"/>
	<rect x="479.814" y="107.016" fill="#373737" width="10.28" height="5.98"/>
	<rect x="488.98" y="111.167" fill="#373737" width="0.016" height="0.493"/>
</g>
<polygon fill="#85C0EA" points="297.177,-116.745 259.119,-116.745 184.623,-237.661 222.682,-237.661 "/>
<polygon fill="#373737" points="259.119,-237.661 259.119,-178.519 297.177,-116.745 297.177,-237.661 "/>
<polygon fill="#373737" points="184.623,-237.661 184.623,-116.745 222.682,-116.745 222.682,-175.888 "/>
<g>
	<polygon fill="#85C0EA" points="297.177,-237.661 336.81,-266.733 297.177,-116.745 	"/>
</g>
<g>
	<polygon fill="#C0DEF5" points="297.177,-237.661 336.81,-266.733 259.119,-237.661 	"/>
</g>
<g>
	<path fill="#373737" d="M320.587-229.573h-16.143c-0.551,0-0.994,0.444-0.994,0.991v3.988c0,0.547,0.443,0.989,0.994,0.989h4.65
		v16.029c0,0.545,0.441,0.99,0.99,0.99h4.768c0.545,0,0.99-0.445,0.99-0.99v-16.029h4.744c0.547,0,0.992-0.442,0.992-0.989v-3.988
		C321.58-229.129,321.134-229.573,320.587-229.573z"/>
	<path fill="#373737" d="M339.906-229.573h-4.74c-0.549,0-0.992,0.444-0.992,0.991v7.082h-5.842v-7.082
		c0-0.547-0.445-0.991-0.986-0.991h-4.773c-0.545,0-0.992,0.444-0.992,0.991v21.007c0,0.545,0.447,0.99,0.992,0.99h4.773
		c0.541,0,0.986-0.445,0.986-0.99v-7.802h5.842v7.802c0,0.545,0.443,0.99,0.992,0.99h4.74c0.545,0,0.984-0.445,0.984-0.99v-21.007
		C340.89-229.129,340.451-229.573,339.906-229.573z"/>
	<rect x="315.502" y="-229.573" fill="#373737" width="10.281" height="5.98"/>
	<rect x="324.669" y="-225.423" fill="#373737" width="0.016" height="0.493"/>
</g>
<path fill="#85C0EA" d="M517.473-235.661l72.031,116.916h-33.36l-72.032-116.916H517.473 M518.59-237.661h-38.06l74.496,120.916
	h38.059L518.59-237.661L518.59-237.661z"/>
<polygon fill="#373737" points="555.026,-237.661 555.026,-178.519 593.085,-116.745 593.085,-237.661 "/>
<polygon fill="#373737" points="480.53,-237.661 480.53,-116.745 518.59,-116.745 518.59,-175.888 "/>
<path fill="#85C0EA" d="M629.339-261.774l-34.254,129.632v-104.505L629.339-261.774 M632.718-266.733l-39.633,29.072v120.916
	L632.718-266.733L632.718-266.733z"/>
<path fill="#C0DEF5" d="M619.872-259.791l-27.442,20.13h-26.352L619.872-259.791 M632.718-266.733l-77.691,29.072h38.059
	L632.718-266.733L632.718-266.733z"/>
<g>
	<path fill="#373737" d="M616.495-229.573h-16.143c-0.551,0-0.994,0.444-0.994,0.991v3.988c0,0.547,0.443,0.989,0.994,0.989h4.65
		v16.029c0,0.545,0.441,0.99,0.99,0.99h4.768c0.545,0,0.99-0.445,0.99-0.99v-16.029h4.744c0.547,0,0.992-0.442,0.992-0.989v-3.988
		C617.487-229.129,617.042-229.573,616.495-229.573z"/>
	<path fill="#373737" d="M635.813-229.573h-4.74c-0.549,0-0.992,0.444-0.992,0.991v7.082h-5.842v-7.082
		c0-0.547-0.445-0.991-0.986-0.991h-4.773c-0.545,0-0.992,0.444-0.992,0.991v21.007c0,0.545,0.447,0.99,0.992,0.99h4.773
		c0.541,0,0.986-0.445,0.986-0.99v-7.802h5.842v7.802c0,0.545,0.443,0.99,0.992,0.99h4.74c0.545,0,0.984-0.445,0.984-0.99v-21.007
		C636.798-229.129,636.358-229.573,635.813-229.573z"/>
	<rect x="611.411" y="-229.573" fill="#373737" width="10.28" height="5.98"/>
	<rect x="620.577" y="-225.423" fill="#373737" width="0.016" height="0.493"/>
</g>
<path fill="#373737" d="M93.875,378.929l72.031,116.916h-33.36L60.515,378.929H93.875 M94.992,376.929H56.933l74.496,120.916h38.059
	L94.992,376.929L94.992,376.929z"/>
<polygon fill="#373737" points="131.429,376.929 131.429,436.071 169.488,497.845 169.488,376.929 "/>
<polygon fill="#373737" points="56.933,376.929 56.933,497.845 94.992,497.845 94.992,438.702 "/>
<path fill="#373737" d="M205.742,352.815l-34.254,129.632V377.942L205.742,352.815 M209.121,347.856l-39.633,29.072v120.916
	L209.121,347.856L209.121,347.856z"/>
<path fill="#A1A1A1" d="M196.275,354.799l-27.442,20.13H142.48L196.275,354.799 M209.121,347.856l-77.691,29.072h38.059
	L209.121,347.856L209.121,347.856z"/>
<g>
	<path fill="#373737" d="M192.898,385.017h-16.143c-0.551,0-0.994,0.443-0.994,0.99v3.988c0,0.547,0.443,0.99,0.994,0.99h4.65
		v16.029c0,0.545,0.441,0.99,0.99,0.99h4.768c0.545,0,0.99-0.445,0.99-0.99v-16.029h4.744c0.547,0,0.992-0.443,0.992-0.99v-3.988
		C193.89,385.46,193.445,385.017,192.898,385.017z"/>
	<path fill="#373737" d="M212.216,385.017h-4.74c-0.549,0-0.992,0.443-0.992,0.99v7.082h-5.842v-7.082
		c0-0.547-0.445-0.99-0.986-0.99h-4.773c-0.545,0-0.992,0.443-0.992,0.99v21.008c0,0.545,0.447,0.99,0.992,0.99h4.773
		c0.541,0,0.986-0.445,0.986-0.99v-7.803h5.842v7.803c0,0.545,0.443,0.99,0.992,0.99h4.74c0.545,0,0.984-0.445,0.984-0.99v-21.008
		C213.201,385.46,212.761,385.017,212.216,385.017z"/>
	<rect x="187.813" y="385.017" fill="#373737" width="10.281" height="5.98"/>
	<rect x="196.979" y="389.167" fill="#373737" width="0.016" height="0.492"/>
</g>
<path fill="#696969" d="M400.998,378.929l72.031,116.916h-33.36l-72.031-116.916H400.998 M402.114,376.929h-38.059l74.496,120.916
	h38.059L402.114,376.929L402.114,376.929z"/>
<polygon fill="#DDDDDD" points="438.551,376.929 438.551,436.071 476.609,497.845 476.609,376.929 "/>
<polygon fill="#DDDDDD" points="364.055,376.929 364.055,497.845 402.114,497.845 402.114,438.702 "/>
<path fill="#696969" d="M512.863,352.815l-34.254,129.632V377.942L512.863,352.815 M516.242,347.856l-39.633,29.072v120.916
	L516.242,347.856L516.242,347.856z"/>
<path fill="#A1A1A1" d="M503.396,354.799l-27.442,20.13h-26.352L503.396,354.799 M516.242,347.856l-77.691,29.072h38.059
	L516.242,347.856L516.242,347.856z"/>
<g>
	<path fill="#DDDDDD" d="M500.02,385.017h-16.143c-0.551,0-0.994,0.443-0.994,0.99v3.988c0,0.547,0.443,0.99,0.994,0.99h4.65v16.029
		c0,0.545,0.441,0.99,0.99,0.99h4.768c0.545,0,0.99-0.445,0.99-0.99v-16.029h4.744c0.547,0,0.992-0.443,0.992-0.99v-3.988
		C501.012,385.46,500.566,385.017,500.02,385.017z"/>
	<path fill="#DDDDDD" d="M519.338,385.017h-4.74c-0.549,0-0.992,0.443-0.992,0.99v7.082h-5.842v-7.082
		c0-0.547-0.445-0.99-0.986-0.99h-4.773c-0.545,0-0.992,0.443-0.992,0.99v21.008c0,0.545,0.447,0.99,0.992,0.99h4.773
		c0.541,0,0.986-0.445,0.986-0.99v-7.803h5.842v7.803c0,0.545,0.443,0.99,0.992,0.99h4.74c0.545,0,0.984-0.445,0.984-0.99v-21.008
		C520.322,385.46,519.883,385.017,519.338,385.017z"/>
	<rect x="494.936" y="385.017" fill="#DDDDDD" width="10.28" height="5.98"/>
	<rect x="504.102" y="389.167" fill="#DDDDDD" width="0.016" height="0.492"/>
</g>
<path fill="#A1A1A1" d="M674.891,378.929l72.032,116.916h-33.36L641.53,378.929H674.891 M676.008,376.929h-38.059l74.496,120.916
	h38.059L676.008,376.929L676.008,376.929z"/>
<polygon fill="#DDDDDD" points="712.445,376.929 712.445,436.071 750.504,497.845 750.504,376.929 "/>
<polygon fill="#DDDDDD" points="637.949,376.929 637.949,497.845 676.008,497.845 676.008,438.702 "/>
<path fill="#A1A1A1" d="M786.758,352.815l-34.254,129.632V377.942L786.758,352.815 M790.137,347.856l-39.633,29.072v120.916
	L790.137,347.856L790.137,347.856z"/>
<path fill="#D9D9D9" d="M777.291,354.799l-27.442,20.13h-26.352L777.291,354.799 M790.137,347.856l-77.691,29.072h38.059
	L790.137,347.856L790.137,347.856z"/>
<g>
	<path fill="#DDDDDD" d="M773.914,385.017h-16.143c-0.551,0-0.994,0.443-0.994,0.99v3.988c0,0.547,0.443,0.99,0.994,0.99h4.65
		v16.029c0,0.545,0.441,0.99,0.99,0.99h4.768c0.545,0,0.99-0.445,0.99-0.99v-16.029h4.744c0.547,0,0.992-0.443,0.992-0.99v-3.988
		C774.906,385.46,774.461,385.017,773.914,385.017z"/>
	<path fill="#DDDDDD" d="M793.232,385.017h-4.74c-0.549,0-0.992,0.443-0.992,0.99v7.082h-5.842v-7.082
		c0-0.547-0.445-0.99-0.986-0.99h-4.773c-0.545,0-0.992,0.443-0.992,0.99v21.008c0,0.545,0.447,0.99,0.992,0.99h4.773
		c0.541,0,0.986-0.445,0.986-0.99v-7.803h5.842v7.803c0,0.545,0.443,0.99,0.992,0.99h4.74c0.545,0,0.984-0.445,0.984-0.99v-21.008
		C794.217,385.46,793.777,385.017,793.232,385.017z"/>
	<rect x="768.828" y="385.017" fill="#DDDDDD" width="10.281" height="5.98"/>
	<rect x="777.996" y="389.167" fill="#DDDDDD" width="0.016" height="0.492"/>
</g>
<path fill="#85C0EA" d="M674.891,100.928l72.032,116.916h-33.36L641.53,100.928H674.891 M676.008,98.928h-38.059l74.496,120.916
	h38.059L676.008,98.928L676.008,98.928z"/>
<polygon fill="#85C0EA" points="712.445,98.928 712.445,158.071 750.504,219.844 750.504,98.928 "/>
<polygon fill="#85C0EA" points="637.949,98.928 637.949,219.844 676.008,219.844 676.008,160.702 "/>
<path fill="#85C0EA" d="M786.758,74.815l-34.254,129.632V99.941L786.758,74.815 M790.137,69.856l-39.633,29.072v120.916
	L790.137,69.856L790.137,69.856z"/>
<path fill="#C0DEF5" d="M777.291,76.798l-27.442,20.13h-26.352L777.291,76.798 M790.137,69.856l-77.691,29.072h38.059
	L790.137,69.856L790.137,69.856z"/>
<g>
	<path fill="#85C0EA" d="M773.914,107.016h-16.143c-0.551,0-0.994,0.444-0.994,0.991v3.988c0,0.547,0.443,0.989,0.994,0.989h4.65
		v16.029c0,0.545,0.441,0.99,0.99,0.99h4.768c0.545,0,0.99-0.445,0.99-0.99v-16.029h4.744c0.547,0,0.992-0.442,0.992-0.989v-3.988
		C774.906,107.46,774.461,107.016,773.914,107.016z"/>
	<path fill="#85C0EA" d="M793.232,107.016h-4.74c-0.549,0-0.992,0.444-0.992,0.991v7.082h-5.842v-7.082
		c0-0.547-0.445-0.991-0.986-0.991h-4.773c-0.545,0-0.992,0.444-0.992,0.991v21.007c0,0.545,0.447,0.99,0.992,0.99h4.773
		c0.541,0,0.986-0.445,0.986-0.99v-7.802h5.842v7.802c0,0.545,0.443,0.99,0.992,0.99h4.74c0.545,0,0.984-0.445,0.984-0.99v-21.007
		C794.217,107.46,793.777,107.016,793.232,107.016z"/>
	<rect x="768.828" y="107.016" fill="#85C0EA" width="10.281" height="5.98"/>
	<rect x="777.996" y="111.167" fill="#85C0EA" width="0.016" height="0.493"/>
</g>
</svg>
