<?xml version="1.0" encoding="utf-8"?>
<!-- Generator: Adobe Illustrator 16.0.0, SVG Export Plug-In . SVG Version: 6.00 Build 0)  -->
<!DOCTYPE svg PUBLIC "-//W3C//DTD SVG 1.1//EN" "http://www.w3.org/Graphics/SVG/1.1/DTD/svg11.dtd">
<svg version="1.1" id="Capa_1" xmlns="http://www.w3.org/2000/svg" xmlns:xlink="http://www.w3.org/1999/xlink" x="0px" y="0px"
	 width="660.969px" height="306.383px" viewBox="0 0 660.969 306.383" enable-background="new 0 0 660.969 306.383"
	 xml:space="preserve">
<circle fill="#E3E2E1" cx="350.04" cy="491.877" r="119.333"/>
<circle fill="#E3E2E1" cx="620.026" cy="491.877" r="119.333"/>
<circle fill="#177CB0" cx="620.026" cy="754.199" r="119.333"/>
<circle fill="#E3E2E1" cx="54.132" cy="752.615" r="119.333"/>
<circle fill="#545454" cx="346.132" cy="752.615" r="119.333"/>
<circle fill="#E3E2E1" cx="54.132" cy="491.877" r="119.333"/>
<g>
	<path fill="#177CB0" d="M385.087,567.371h-39.233l-75.112-121.916h39.233L385.087,567.371z M346.412,566.371h36.884l-73.88-119.916
		h-36.884L346.412,566.371z"/>
	<polygon fill="#373737" points="346.133,445.955 346.133,505.098 384.191,566.871 384.191,445.955 	"/>
	<polygon fill="#373737" points="271.637,445.955 271.637,566.871 309.695,566.871 309.695,507.729 	"/>
	<path fill="#177CB0" d="M422.135,419.362l-36.943,139.81v-112.71L422.135,419.362 M423.824,416.883l-39.633,29.072v120.916
		L423.824,416.883L423.824,416.883z"/>
	<path fill="#177CB0" d="M417.401,420.354l-33.537,24.601h-32.206L417.401,420.354 M423.824,416.883l-77.691,29.072h38.059
		L423.824,416.883L423.824,416.883z"/>
	<g>
		<path fill="#373737" d="M407.602,454.043h-16.143c-0.551,0-0.994,0.444-0.994,0.991v3.988c0,0.547,0.443,0.989,0.994,0.989h4.65
			v16.029c0,0.545,0.441,0.99,0.99,0.99h4.768c0.545,0,0.99-0.445,0.99-0.99v-16.029h4.744c0.547,0,0.992-0.442,0.992-0.989v-3.988
			C408.594,454.487,408.148,454.043,407.602,454.043z"/>
		<path fill="#373737" d="M427.461,454.043h-4.74c-0.549,0-0.992,0.444-0.992,0.991v7.082h-5.842v-7.082
			c0-0.547-0.445-0.991-0.986-0.991h-4.773c-0.545,0-0.992,0.444-0.992,0.991v21.007c0,0.545,0.447,0.99,0.992,0.99h4.773
			c0.541,0,0.986-0.445,0.986-0.99v-7.802h5.842v7.802c0,0.545,0.443,0.99,0.992,0.99h4.74c0.545,0,0.984-0.445,0.984-0.99v-21.007
			C428.445,454.487,428.006,454.043,427.461,454.043z"/>
	</g>
</g>
<g>
	<path fill="#177CB0" d="M494.432,223.792h-39.232l-75.113-121.916h39.234L494.432,223.792z M455.758,222.792h36.883
		l-73.879-119.916h-36.885L455.758,222.792z"/>
	<polygon fill="#373737" points="455.479,102.376 455.479,161.519 493.537,223.292 493.537,102.376 	"/>
	<polygon fill="#373737" points="380.982,102.376 380.982,223.292 419.041,223.292 419.041,164.149 	"/>
	<path fill="#177CB0" d="M531.48,75.783l-36.943,139.81v-112.71L531.48,75.783 M533.17,73.304l-39.633,29.072v120.916L533.17,73.304
		L533.17,73.304z"/>
	<path fill="#177CB0" d="M526.746,76.775l-33.537,24.601h-32.205L526.746,76.775 M533.17,73.304l-77.691,29.072h38.059
		L533.17,73.304L533.17,73.304z"/>
	<g>
		<path fill="#373737" d="M516.947,110.464h-16.143c-0.551,0-0.994,0.444-0.994,0.991v3.988c0,0.547,0.443,0.989,0.994,0.989h4.65
			v16.029c0,0.545,0.441,0.99,0.99,0.99h4.768c0.545,0,0.99-0.445,0.99-0.99v-16.029h4.744c0.547,0,0.992-0.442,0.992-0.989v-3.988
			C517.939,110.908,517.494,110.464,516.947,110.464z"/>
		<path fill="#373737" d="M536.807,110.464h-4.74c-0.549,0-0.992,0.444-0.992,0.991v7.082h-5.842v-7.082
			c0-0.547-0.445-0.991-0.986-0.991h-4.773c-0.545,0-0.992,0.444-0.992,0.991v21.007c0,0.545,0.447,0.99,0.992,0.99h4.773
			c0.541,0,0.986-0.445,0.986-0.99v-7.802h5.842v7.802c0,0.545,0.443,0.99,0.992,0.99h4.74c0.545,0,0.984-0.445,0.984-0.99v-21.007
			C537.791,110.908,537.352,110.464,536.807,110.464z"/>
	</g>
</g>
<path fill="#177CB0" d="M655.073,567.371H615.84l-75.112-121.916h39.233L655.073,567.371z M616.398,566.371h36.884l-73.88-119.916
	h-36.884L616.398,566.371z"/>
<polygon fill="#177CB0" points="616.119,445.955 616.119,505.098 654.178,566.871 654.178,445.955 "/>
<polygon fill="#177CB0" points="541.623,445.955 541.623,566.871 579.682,566.871 579.682,507.729 "/>
<path fill="#177CB0" d="M692.121,419.362l-36.943,139.81v-112.71L692.121,419.362 M693.811,416.883l-39.633,29.072v120.916
	L693.811,416.883L693.811,416.883z"/>
<path fill="#177CB0" d="M687.388,420.354l-33.537,24.601h-32.206L687.388,420.354 M693.811,416.883l-77.691,29.072h38.059
	L693.811,416.883L693.811,416.883z"/>
<path fill="#DDDDDD" d="M687.388,682.676l-33.537,24.602h-32.206L687.388,682.676 M693.811,679.205l-77.691,29.072h38.059
	L693.811,679.205L693.811,679.205z"/>
<g>
	<path fill="#177CB0" d="M677.588,454.043h-16.143c-0.551,0-0.994,0.444-0.994,0.991v3.988c0,0.547,0.443,0.989,0.994,0.989h4.65
		v16.029c0,0.545,0.441,0.99,0.99,0.99h4.768c0.545,0,0.99-0.445,0.99-0.99v-16.029h4.744c0.547,0,0.992-0.442,0.992-0.989v-3.988
		C678.58,454.487,678.135,454.043,677.588,454.043z"/>
	<path fill="#177CB0" d="M697.447,454.043h-4.74c-0.549,0-0.992,0.444-0.992,0.991v7.082h-5.842v-7.082
		c0-0.547-0.445-0.991-0.986-0.991h-4.773c-0.545,0-0.992,0.444-0.992,0.991v21.007c0,0.545,0.447,0.99,0.992,0.99h4.773
		c0.541,0,0.986-0.445,0.986-0.99v-7.802h5.842v7.802c0,0.545,0.443,0.99,0.992,0.99h4.74c0.545,0,0.984-0.445,0.984-0.99v-21.007
		C698.432,454.487,697.992,454.043,697.447,454.043z"/>
</g>
<path fill="#DDDDDD" d="M655.073,829.693H615.84l-0.146-0.237l-74.966-121.679h39.233l0.146,0.237L655.073,829.693z
	 M616.398,828.693h36.884l-73.88-119.916h-36.884L616.398,828.693z"/>
<polygon fill="#DDDDDD" points="616.119,708.277 616.119,767.42 654.178,829.193 654.178,708.277 "/>
<polygon fill="#DDDDDD" points="541.623,708.277 541.623,829.193 579.682,829.193 579.682,770.051 "/>
<path fill="#DDDDDD" d="M692.121,681.685l-36.943,139.81v-112.71L692.121,681.685 M693.811,679.205l-39.633,29.072v120.916
	L693.811,679.205L693.811,679.205z"/>
<g>
	<path fill="#DDDDDD" d="M677.588,716.365h-16.143c-0.551,0-0.994,0.444-0.994,0.991v3.988c0,0.547,0.443,0.989,0.994,0.989h4.65
		v16.029c0,0.545,0.441,0.99,0.99,0.99h4.768c0.545,0,0.99-0.445,0.99-0.99v-16.029h4.744c0.547,0,0.992-0.442,0.992-0.989v-3.988
		C678.58,716.81,678.135,716.365,677.588,716.365z"/>
	<path fill="#DDDDDD" d="M697.447,716.365h-4.74c-0.549,0-0.992,0.444-0.992,0.991v7.082h-5.842v-7.082
		c0-0.547-0.445-0.991-0.986-0.991h-4.773c-0.545,0-0.992,0.444-0.992,0.991v21.007c0,0.545,0.447,0.99,0.992,0.99h4.773
		c0.541,0,0.986-0.445,0.986-0.99v-7.802h5.842v7.802c0,0.545,0.443,0.99,0.992,0.99h4.74c0.545,0,0.984-0.445,0.984-0.99v-21.007
		C698.432,716.81,697.992,716.365,697.447,716.365z"/>
</g>
<g>
	<path fill="#373737" d="M89.179,828.109H49.945l-0.146-0.237l-74.966-121.679h39.234l0.146,0.237L89.179,828.109z M50.504,827.109
		h36.884L13.508,707.193h-36.884L50.504,827.109z"/>
	<polygon fill="#373737" points="50.225,706.693 50.225,765.836 88.283,827.609 88.283,706.693 	"/>
	<polygon fill="#373737" points="-24.271,706.693 -24.271,827.609 13.788,827.609 13.788,768.467 	"/>
	<path fill="#373737" d="M126.227,680.101L89.283,819.91V707.2L126.227,680.101 M127.916,677.621l-39.633,29.072v120.916
		L127.916,677.621L127.916,677.621z"/>
	<path fill="#373737" d="M121.493,681.092l-33.538,24.602H55.75L121.493,681.092 M127.916,677.621l-77.691,29.072h38.059
		L127.916,677.621L127.916,677.621z"/>
	<g>
		<path fill="#373737" d="M111.693,714.781H95.551c-0.551,0-0.994,0.445-0.994,0.992v3.988c0,0.547,0.443,0.988,0.994,0.988h4.65
			v16.029c0,0.545,0.441,0.99,0.99,0.99h4.768c0.545,0,0.99-0.445,0.99-0.99V720.75h4.744c0.547,0,0.992-0.441,0.992-0.988v-3.988
			C112.686,715.227,112.24,714.781,111.693,714.781z"/>
		<path fill="#373737" d="M131.553,714.781h-4.74c-0.549,0-0.992,0.445-0.992,0.992v7.082h-5.842v-7.082
			c0-0.547-0.445-0.992-0.986-0.992h-4.773c-0.545,0-0.992,0.445-0.992,0.992v21.006c0,0.545,0.447,0.99,0.992,0.99h4.773
			c0.541,0,0.986-0.445,0.986-0.99v-7.801h5.842v7.801c0,0.545,0.443,0.99,0.992,0.99h4.74c0.545,0,0.984-0.445,0.984-0.99v-21.006
			C132.537,715.227,132.098,714.781,131.553,714.781z"/>
	</g>
</g>
<g>
	<path fill="#DDDDDD" d="M381.179,828.109h-39.233l-0.146-0.237l-74.966-121.679h39.233l0.146,0.237L381.179,828.109z
		 M342.504,827.109h36.884l-73.88-119.916h-36.884L342.504,827.109z"/>
	<polygon fill="#DDDDDD" points="342.225,706.693 342.225,765.836 380.283,827.609 380.283,706.693 	"/>
	<polygon fill="#DDDDDD" points="267.729,706.693 267.729,827.609 305.787,827.609 305.787,768.467 	"/>
	<path fill="#DDDDDD" d="M418.227,680.101l-36.943,139.81V707.2L418.227,680.101 M419.916,677.621l-39.633,29.072v120.916
		L419.916,677.621L419.916,677.621z"/>
	<path fill="#DDDDDD" d="M413.493,681.092l-33.537,24.602H347.75L413.493,681.092 M419.916,677.621l-77.691,29.072h38.059
		L419.916,677.621L419.916,677.621z"/>
	<g>
		<path fill="#DDDDDD" d="M403.693,714.781h-16.143c-0.551,0-0.994,0.445-0.994,0.992v3.988c0,0.547,0.443,0.988,0.994,0.988h4.65
			v16.029c0,0.545,0.441,0.99,0.99,0.99h4.768c0.545,0,0.99-0.445,0.99-0.99V720.75h4.744c0.547,0,0.992-0.441,0.992-0.988v-3.988
			C404.686,715.227,404.24,714.781,403.693,714.781z"/>
		<path fill="#DDDDDD" d="M423.553,714.781h-4.74c-0.549,0-0.992,0.445-0.992,0.992v7.082h-5.842v-7.082
			c0-0.547-0.445-0.992-0.986-0.992h-4.773c-0.545,0-0.992,0.445-0.992,0.992v21.006c0,0.545,0.447,0.99,0.992,0.99h4.773
			c0.541,0,0.986-0.445,0.986-0.99v-7.801h5.842v7.801c0,0.545,0.443,0.99,0.992,0.99h4.74c0.545,0,0.984-0.445,0.984-0.99v-21.006
			C424.537,715.227,424.098,714.781,423.553,714.781z"/>
	</g>
</g>
<g>
	<polygon fill="#177CB0" points="88.283,566.871 50.225,566.871 -24.271,445.955 13.788,445.955 	"/>
	<polygon fill="#373737" points="50.225,445.955 50.225,505.098 88.283,566.871 88.283,445.955 	"/>
	<polygon fill="#373737" points="-24.271,445.955 -24.271,566.871 13.788,566.871 13.788,507.729 	"/>
	<g>
		<polygon fill="#177CB0" points="88.283,445.955 127.916,416.883 88.283,566.871 		"/>
	</g>
	<g>
		<polygon fill="#329BC9" points="88.283,445.955 127.916,416.883 50.225,445.955 		"/>
	</g>
	<g>
		<path fill="#373737" d="M111.693,454.043H95.551c-0.551,0-0.994,0.444-0.994,0.991v3.988c0,0.547,0.443,0.989,0.994,0.989h4.65
			v16.029c0,0.545,0.441,0.99,0.99,0.99h4.768c0.545,0,0.99-0.445,0.99-0.99v-16.029h4.744c0.547,0,0.992-0.442,0.992-0.989v-3.988
			C112.686,454.487,112.24,454.043,111.693,454.043z"/>
		<path fill="#373737" d="M131.553,454.043h-4.74c-0.549,0-0.992,0.444-0.992,0.991v7.082h-5.842v-7.082
			c0-0.547-0.445-0.991-0.986-0.991h-4.773c-0.545,0-0.992,0.444-0.992,0.991v21.007c0,0.545,0.447,0.99,0.992,0.99h4.773
			c0.541,0,0.986-0.445,0.986-0.99v-7.802h5.842v7.802c0,0.545,0.443,0.99,0.992,0.99h4.74c0.545,0,0.984-0.445,0.984-0.99v-21.007
			C132.537,454.487,132.098,454.043,131.553,454.043z"/>
	</g>
</g>
<g>
	<polygon fill="#177CB0" points="259.091,223.542 221.033,223.542 146.538,102.626 184.597,102.626 	"/>
	<polygon fill="#373737" points="221.033,102.626 221.033,161.769 259.091,223.542 259.091,102.626 	"/>
	<polygon fill="#373737" points="146.538,102.626 146.538,223.542 184.597,223.542 184.597,164.399 	"/>
	<g>
		<polygon fill="#177CB0" points="259.091,102.626 298.724,73.554 259.091,223.542 		"/>
	</g>
	<g>
		<polygon fill="#329BC9" points="259.091,102.626 298.724,73.554 221.033,102.626 		"/>
	</g>
	<g>
		<path fill="#373737" d="M282.5,110.714h-16.142c-0.551,0-0.994,0.444-0.994,0.991v3.988c0,0.547,0.443,0.989,0.994,0.989h4.65
			v16.029c0,0.545,0.441,0.99,0.99,0.99h4.767c0.545,0,0.99-0.445,0.99-0.99v-16.029h4.744c0.547,0,0.992-0.442,0.992-0.989v-3.988
			C283.493,111.158,283.047,110.714,282.5,110.714z"/>
		<path fill="#373737" d="M302.361,110.714h-4.74c-0.549,0-0.992,0.444-0.992,0.991v7.082h-5.843v-7.082
			c0-0.547-0.445-0.991-0.986-0.991h-4.773c-0.545,0-0.992,0.444-0.992,0.991v21.007c0,0.545,0.447,0.99,0.992,0.99h4.773
			c0.541,0,0.986-0.445,0.986-0.99v-7.802h5.843v7.802c0,0.545,0.443,0.99,0.992,0.99h4.74c0.545,0,0.984-0.445,0.984-0.99v-21.007
			C303.345,111.158,302.906,110.714,302.361,110.714z"/>
	</g>
</g>
</svg>
